<?xml version="1.0" encoding="UTF-8"?>
<svg id="_レイヤー_2" data-name="レイヤー 2" xmlns="http://www.w3.org/2000/svg" viewBox="0 0 477.3 332.5">
  <defs>
    <style>
      .cls-1 {
        fill: #ffc5bd;
      }

      .cls-2 {
        fill: #c0e2fc;
      }

      .cls-3 {
        fill: #68b8e9;
      }

      .cls-4 {
        fill: #b9e0fb;
      }

      .cls-5 {
        fill: #8ccdf6;
      }

      .cls-6 {
        fill: #ffd683;
      }

      .cls-7 {
        fill: #fff;
      }

      .cls-8 {
        fill: #70beed;
      }

      .cls-9 {
        fill: #acdafa;
      }

      .cls-10 {
        fill: #60b3e5;
      }

      .cls-11 {
        fill: #c6e5fd;
      }

      .cls-12 {
        fill: #63b6d3;
      }

      .cls-13 {
        fill: #77c3f0;
      }

      .cls-14 {
        fill: #37a6bf;
      }

      .cls-15 {
        fill: #99d3f7;
      }

      .cls-16 {
        fill: #cde8f9;
      }

      .cls-17 {
        fill: #193368;
      }

      .cls-18 {
        fill: #e1f2ff;
      }

      .cls-19 {
        fill: #bbd6f2;
      }

      .cls-20 {
        fill: #ffc255;
      }

      .cls-21 {
        fill: #92d0f6;
      }

      .cls-22 {
        fill: #ef9b8f;
      }

      .cls-23 {
        fill: #539fda;
      }

      .cls-24 {
        fill: #7fc8f4;
      }

      .cls-25 {
        fill: #193972;
      }
    </style>
  </defs>
  <g id="cta">
    <g>
      <g>
        <path class="cls-18" d="M58,317.3h384.9c2.9-2.8,5.7-5.8,8.2-9,23.2-29.9,24.2-75.7,3.3-107.4-7.6-11.6-17.3-21-26-32.2-20.3-26.1-14.5-64.6-27.4-94.7-12.2-28.5-34.1-52-60.5-63.2-39.1-16.6-89.2-3.3-122,24-27.1,22.6-47.9,45.1-83,47.8-44.2,3.4-82.6,17.9-108.4,63-14,24.5-19.2,54.3-16.3,83.1,4.1,40.7,22.3,69.1,47.3,88.7Z"/>
        <path class="cls-11" d="M462.3,197.6c-4.7-7.1-10-13.2-15.6-19.7-3.8-4.3-7.2-8.3-10.4-12.5-11.7-15.1-14.8-34.9-17.7-54-2.1-13.8-4.3-28-9.7-40.6-12.5-29.2-34.7-52.3-60.8-63.4-18.6-7.9-40.6-9.5-63.6-4.5-21.4,4.6-42.3,14.8-58.8,28.6-4,3.3-8,6.8-11.5,9.8-22.2,19.1-41.4,35.7-71.2,38-24.5,1.9-44.6,7.1-61.3,15.9-19.7,10.4-35.2,25.9-47.5,47.3-13.6,23.8-19.4,53.4-16.4,83.4,3.8,37.4,19.8,67.4,47.5,89.1h0c0,0,4.4,0,4.4,0v-.6h-4.2c-27.6-21.5-43.4-51.3-47.2-88.5-3-29.8,2.8-59.3,16.3-83,12.2-21.3,27.6-36.7,47.2-47.1,16.6-8.8,36.6-13.9,61.1-15.8,30-2.3,49.3-18.9,71.6-38.1,3.5-3,7.5-6.5,11.5-9.8,16.5-13.7,37.3-23.8,58.6-28.4,22.9-4.9,44.8-3.4,63.3,4.5,25.9,11,48,34,60.4,63.1,5.4,12.5,7.5,26.7,9.6,40.5,2.9,19.2,6,39,17.8,54.3,3.3,4.3,6.7,8.2,10.5,12.5,5.6,6.5,10.9,12.6,15.5,19.6,10.1,15.4,15.4,34.7,14.8,54.3-.6,19.8-7,38.6-18.1,52.9-2.4,3.1-5.2,6.2-8.1,9h-4.5v.6h4.7s0-.1,0-.1c3-2.8,5.8-5.9,8.2-9.1,11.2-14.5,17.7-33.4,18.3-53.3.6-19.8-4.7-39.2-14.9-54.7Z"/>
        <g>
          <path class="cls-11" d="M73.2,296.8c1.6,7.1,3.5,13.7,8.8,19.3,0,0,.2.2.3.3l3.8.3c0-1.1-.3-2.7-.5-3.6h0c0-.2,0-.4,0-.6,0-.4,0-.9,0-1.3-.1-2.1-.2-4.2-.2-6.3,0-.5,0-.9,0-1.4,0-2.3,0-4.5.1-6.8.1-2.7.3-5.3.6-8,.4-4.2,1.1-8.3,1.9-12.5,1-4.8,2.2-9.6,3.8-14.4,1.4-4.3,3.1-8.9,2.1-13.2-.8-3.9-5.1-6.1-9.3-3.5-6.5,4-9.7,10.8-11.3,17.4-2.8,11.2-2.4,23.1,0,34.2Z"/>
          <path class="cls-4" d="M83.5,316.6h.7c0,0,0,0,0,0-3.1-5.4-5.3-11.4-6.4-17.5-2-10.3-1.5-21,.7-31.2,1.7-7.7,4.3-15.8,9.1-22.2.2-.3-.3-.7-.5-.3-2.5,3.3-4.3,7.1-5.8,10.9-7.4,18.9-8.1,42.4,2.1,60.3Z"/>
          <path class="cls-4" d="M86.9,316.3c.1-1.2.3-2.4.5-3.5h0c2.4-15.3,8.1-30.5,18.6-42.1.1-.1.2-.3.4-.4.3-.3-.2-.7-.4-.4-.3.3-.5.6-.8.8-10,11.1-15.6,25.5-18.1,40.2-.3,1.8-.6,3.6-.8,5.4t0,0h.6Z"/>
          <g>
            <path class="cls-16" d="M97.7,286.5c2,.9,4.5,1.2,6.8.8,2.3-.4,4.5-1.5,6.2-3.1-2-1.1-4-1.8-6.4-1.5s-5,2.1-6.6,3.8Z"/>
            <path class="cls-16" d="M90,306c2.1.7,4.4.7,6.5.1,2.1-.6,4-1.9,5.2-3.5-2-.9-4.1-1.4-6.3-.8-2.2.6-4.3,2.4-5.5,4.2Z"/>
            <path class="cls-16" d="M96.4,265.8c2.9,2.4,4,6.4,2.7,9.9-1.9-.4-3.6-2.1-3.8-3.8-.2-1.7,0-4.5,1-6.1Z"/>
            <path class="cls-16" d="M102.9,276.5c3.5,2.4,8.4,1.7,11.4-1.6-3.6-2.1-8.2-1.4-11.4,1.6Z"/>
            <path class="cls-16" d="M83,286.4c4.2,2.2,6.7,6.7,6.1,11.1-2.4,0-4.9-1.7-5.7-3.7-.8-2-1.2-5.3-.5-7.4Z"/>
            <path class="cls-16" d="M93.9,297.7c5,2.1,10.7.2,13.3-4.3-5-1.7-10.3.2-13.3,4.3Z"/>
            <path class="cls-16" d="M86.4,305.2c.4-4.1-2.9-7.2-7.7-7.2,0,4,3.1,6.8,7.7,7.2Z"/>
            <path class="cls-16" d="M114.4,262.3c-2.3.5-4.6,1.4-6.3,2.9-1.7,1.5-2.9,3.5-2.9,5.5,2.5,0,5.3-.7,7-2.3,1.8-1.6,2.3-4,2.2-6.1Z"/>
            <path class="cls-16" d="M87.6,275c-.3,2,0,4.1,1,5.9,1,1.8,2.9,3.2,5.2,3.6.8-2.1,1-4.5-.2-6.4s-3.6-2.8-6-3.1Z"/>
          </g>
          <path class="cls-16" d="M56.4,253.2c-4.6-6.3-10.6-12.2-18.3-13.5-7.7-1.3-7.8,7.4-6,12.3,8.4,22.9,26.6,41.1,35.8,63.8,1.9,4.7,6.7,6.4,7.9.3.8-3.8-.4-7.9-1.1-11.6-3.2-18.3-7.3-35.9-18.4-51.2Z"/>
          <path class="cls-4" d="M35.8,242c8.8,6.4,16.3,14.6,21.7,24,3.2,5.5,5.7,11.3,8.2,17.1,2.3,5.4,4.3,11,5.8,16.7,1.7,6.5,2.7,13.1,2.6,19.8,0,.4-.6.4-.6,0,.1-11.9-3.2-23.4-7.6-34.4-4.3-10.7-9.2-21.2-16.7-30-4-4.8-8.6-9-13.7-12.7-.3-.2,0-.7.3-.5h0Z"/>
          <path class="cls-11" d="M385.6,286.1c.4,2.1,1.2,4.2,2.4,6,.3.4.6.8.9,1.2,1.1,1.4,2.2,2.7,3,4.1.3.6.6,1.3.7,2,.1.6.1,1.1.1,1.7,0,1.7-.6,3.4-1,5.1-.2.9-.3,1.8-.3,2.8,0,2.4,1.1,4.6,2.4,6.7l10.8.6c.2-1.6.2-3.3,0-4.9-.1-2.1.3-4.2,1.2-6.2.5-1.2,1.2-2.3,2.1-3.2.5-.6,1-1.1,1.4-1.6.3-.3.6-.6.9-.9,0,0,0,0,0,0,1.5-1.6,2.6-3.2,2.2-6.1,0,0,0,0,0-.1,0-.3-.1-.7-.2-1-.3-1.3-.9-2.5-1.4-3.8-.6-1.7-1.1-3.4-.6-5.3.8-2.8,2.4-5.3,3.1-8.2.7-2.9.6-5.8-.5-8.6-1.9-4.6-6.2-8.5-5.8-13.5.1-1.9,1.1-3.4,1.8-5.2.7-1.7.9-3.6.6-5.4-.3-1.9-1.1-3.8-1.9-5.6,0,1.3-1.3,3.5-1.8,4.3-1,1.4-2.1,1.9-3.5,2.7-2.7,1.6-5.6,3.4-6.9,6.4-1.7,3.9,1.4,8.4.9,12.6-.7,5.9-7,8.5-9.3,13.4-.4.8-.7,1.6-.9,2.5-.7,2.3-.8,4.8-.3,7.2Z"/>
          <path class="cls-11" d="M411.9,316.8l12.1.7c5.7-5.4,11.9-10.3,18.6-14.7,4.2-2.8,8.6-5.3,13.1-7.6,4.1-2.1,8.6-4.1,11.1-8,2.2-3.4.7-8.1-4.1-9.3-7.5-1.8-14.8.7-20.7,4.3-10.1,6-18.5,14.8-24.7,24.6-2.1,3.3-4,6.5-5.4,9.9Z"/>
          <path class="cls-4" d="M415.1,317h.7c1-1.7,2-3.5,3.2-5.1,6.1-8.9,14.3-16.3,23.3-22,6.7-4.2,14.5-8.1,22.5-9.2.4,0,.3-.6-.1-.6-4.2.5-8.2,1.9-12,3.6-15.2,6.6-29.5,18.4-37.5,33.3Z"/>
          <path class="cls-4" d="M370.6,277.2c.1.1.3.2.4.4,11.3,10.5,17.9,25.1,21.1,40.1h.6c-3.2-14.9-9.8-29.6-20.9-40.1-.2-.2-.5-.5-.7-.7-.3-.3-.7.2-.4.4Z"/>
          <g>
            <path class="cls-16" d="M380,291.8c-1.9,1-4.1,1.4-6.4,1.2-2.2-.2-4.4-1.1-6-2.5,1.8-1.2,3.6-2,5.9-1.9,2.3.2,4.9,1.6,6.4,3.1Z"/>
            <path class="cls-16" d="M388.7,309.5c-1.9.8-4.1,1-6.1.6s-3.9-1.4-5.2-2.9c1.8-1,3.7-1.6,5.8-1.2,2.1.4,4.2,2,5.5,3.5Z"/>
            <path class="cls-16" d="M379.7,272.2c-2.6,2.5-3.3,6.3-1.8,9.5,1.8-.5,3.2-2.3,3.3-3.9,0-1.6-.4-4.2-1.4-5.6Z"/>
            <path class="cls-16" d="M374.3,282.8c-3.1,2.5-7.8,2.2-10.8-.7,3.3-2.3,7.6-1.9,10.8.7Z"/>
            <path class="cls-16" d="M393.8,290.6c-3.8,2.4-5.8,6.8-4.9,10.9,2.3-.2,4.5-2,5.1-3.9.6-1.9.7-5.1-.1-7Z"/>
            <path class="cls-16" d="M384.4,302c-4.5,2.3-10,1-12.8-3.1,4.6-2,9.7-.6,12.8,3.1Z"/>
            <path class="cls-16" d="M392.1,308.5c-.7-3.8,2.2-7,6.7-7.3.4,3.7-2.4,6.6-6.7,7.3Z"/>
            <path class="cls-16" d="M362.5,270.3c2.2.3,4.4,1,6.2,2.2,1.7,1.3,3,3.1,3.1,5-2.3.2-5-.3-6.8-1.6-1.8-1.4-2.5-3.5-2.5-5.6Z"/>
            <path class="cls-16" d="M388.6,280.2c.4,1.9.3,3.9-.5,5.6-.9,1.7-2.5,3.2-4.6,3.8-.9-1.9-1.3-4.2-.3-6,1-1.8,3.2-2.9,5.4-3.4Z"/>
          </g>
          <path class="cls-16" d="M432.3,250.1c5.3-5.7,12-10.8,19.7-11.3,7.8-.4,6.9,8.3,4.5,12.9-11,21.8-31.2,37.8-43,59.2-2.4,4.4-7.4,5.6-7.9-.7-.3-3.9,1.3-7.8,2.4-11.4,5.3-17.9,11.4-34.8,24.2-48.7Z"/>
          <path class="cls-4" d="M454.3,241.9c-9.5,5.4-17.9,12.7-24.5,21.5-3.6,4.8-6.6,10-9.5,15.2-2.9,5.2-5.6,10.5-7.8,16-2.5,6.2-4.3,12.7-5,19.4,0,.4-.6.4-.6,0,1.2-11.8,5.8-22.8,11.4-33.1,5.6-10.4,11.9-20.5,20.7-28.7,4.6-4.2,9.6-7.9,15-10.9.3-.2.6.3.3.5h0Z"/>
          <path class="cls-4" d="M401.6,305.3c0,3.6-.5,7.2-1.3,10.7h.6c.9-3.8,1.4-7.8,1.3-11.7-.2-5.6-2.8-10.7-2.9-16.3,0-3,.7-5.9,2.4-8.5,1.2-2,2.8-3.9,3.4-6.2.5-2.1-.2-4.1-1-6-1.3-2.9-2.6-5.5-2.5-8.7,0-3.1.7-5.9,2.3-8.5,1.5-2.3,2.7-4.5,3.5-7.2.1-.4-.5-.6-.6-.2-.5,1.8-1.3,3.6-2.3,5.2-.7,1.1-1.5,2.2-2.1,3.4-1.3,2.4-1.6,5.5-1.5,8.3.1,2.6,1.1,4.7,2.2,7,1.4,3,2.1,5.6.5,8.7-1.1,2.1-2.7,3.9-3.7,6.1-1,2.4-1.4,5-1.2,7.6.4,5.5,2.9,10.7,2.9,16.3Z"/>
          <path class="cls-11" d="M51.3,288.2c1.1,1.3,1.9,2.8,2.3,4.5.1.4.2.8.3,1.2.3,1.3.4,2.7.9,3.9.2.5.5,1,.9,1.5.3.3.6.6,1,.9,1,.8,2.3,1.3,3.5,2,.6.3,1.2.8,1.8,1.2,2.3,1.7,4.8,4.4,5.9,11.2l-8.2.4c-1.1-.7-2-1.6-3-2.4-1.2-1.1-2.7-2-4.3-2.4-1-.3-2-.4-3-.4-.6,0-1.1,0-1.7,0-.3,0-.7,0-1,0,0,0,0,0,0,0-1.7,0-3.2,0-4.7-1.8,0,0,0,0,0,0-.2-.2-.4-.4-.5-.7-.6-.9-1-1.8-1.5-2.7-.7-1.2-1.5-2.4-2.8-3-2.1-1-4.4-1.2-6.4-2.3-2.1-1.1-3.8-2.6-4.9-4.7-1.8-3.4-2-8-5.1-10.3-1.2-.9-2.6-1.1-4-1.5-1.4-.4-2.6-1.3-3.5-2.4-1-1.2-1.7-2.6-2.4-4,.8.6,2.8,1,3.5,1.1,1.3,0,2.2-.3,3.4-.7,2.3-.8,4.9-1.6,7.3-.8,3.2,1,4.3,5.1,7.1,7,3.9,2.6,8.6.2,12.7,1.2.7.2,1.3.4,2,.7,1.7.8,3.3,2,4.5,3.5Z"/>
          <path class="cls-4" d="M54.7,307.5c2.1,1.9,4.6,3.4,7.1,4.7l-.3.4c-2.8-1.4-5.4-3.1-7.7-5.2-3.2-3-5-7.1-8.2-10-1.8-1.6-3.9-2.6-6.3-2.9-1.8-.3-3.8-.3-5.5-1.1-1.5-.7-2.4-2.2-3.1-3.6-1.1-2.2-2-4.3-3.9-5.9-1.8-1.5-3.9-2.6-6.3-2.9-2.1-.3-4.1-.7-6-1.6-.3-.1-.1-.6.2-.4,1.4.6,2.8,1.1,4.3,1.3,1,.2,2.1.2,3.1.5,2.1.5,4.1,1.8,5.7,3.3,1.5,1.4,2.3,3,3.1,4.8,1.1,2.4,2.3,4.1,5,4.7,1.8.4,3.7.4,5.5.9,1.9.6,3.7,1.7,5.1,3.1,3.1,3.1,4.9,7.1,8.2,10Z"/>
        </g>
        <path class="cls-11" d="M238.7,303.6c-131.8,0-238.7,8.3-238.7,12.8s106.8,12.8,238.7,12.8,238.7-8.3,238.7-12.8-106.8-12.8-238.7-12.8Z"/>
      </g>
      <g>
        <path class="cls-15" d="M332.1,302.2c11-2.6,20.5-10.2,25-20.1,3.2-7.1,3.7-14.9,6.4-22,2.8-7.2,7-13.8,11.8-20,3-3.8,6.2-7.5,8.5-11.8,8.4-16.1,1.1-37.1,10.2-52.9,2.6-4.5,6.3-8.2,8.6-12.9,5.6-11.4,3.1-28.9,0-41-1,4.3-5.1,9.1-9.4,12.3-4.3,3.2-9.1,5.8-12.8,9.5-8.9,9.2-9.3,23.3-15.8,34.2-6.5,10.9-19.1,18.2-23.3,30.1-3.3,9.4-.8,19.7-.8,29.7,0,7.2-1.3,14.4-4,21.2-2.2,5.7-5.9,11.5-6.2,17.6-.3,4.9,1.6,10.2,2.6,14.8.7,3.5,1.6,8.6-.9,11.2Z"/>
        <path class="cls-24" d="M397.4,142.8c-2.8,12.5-9.8,22.9-16.6,33.4-6.5,10.1-12,20.2-15.6,31.7-7.6,24.5-9,51-21.9,73.7-.3.5.5,1.1.8.5,12.6-22.2,14.3-47.8,21.4-71.9,3.8-12.9,9.9-24.2,17.2-35.4,6.5-10,12.9-20,15.6-31.9.1-.6-.8-.9-.9-.3h0Z"/>
        <path class="cls-9" d="M331.5,300.1c-1.1-10.1.4-20.4,4.4-29.6,2.5-5.9,6.1-11.4,8.7-17.2,2.7-5.9,4.5-12.3,3.3-18.7-1.5-8.2-7.5-15-9.5-23.1-1.4-5.6-.7-11.5-.6-17.3.1-8-1.1-16.2-5-23.4-4.2-7.7-11-13.7-17.1-20.1-6-6.5-11.5-14.2-11.7-22.9-5.7,6.9-8.6,16.1-6.9,24.9,1.9,9.8,8.5,18.5,9.6,28.5.9,8.5-2.4,16.9-3,25.4-.4,6.4.8,12.8,3.5,18.7,4.7,10.4,14.1,19.5,14.2,30.8,0,4.5-1.5,8.9-2.3,13.3-1.1,6-.9,12.3,1.3,18.1,2.2,5.7,5,10.2,10.8,12.6Z"/>
        <path class="cls-24" d="M301.9,141.6c0,9.7,6.1,17.2,11.1,25.1,7.4,11.7,7,23.3,7.1,36.7,0,5.3.3,10.6,1.9,15.7,1.7,5.7,5.1,10.6,7.6,15.9,6.1,13.2,5.3,27.7,3.4,41.7,0,.6.9.6,1,0,1.6-11.8,2.6-24.1-.9-35.7-1.7-5.6-4.8-10.5-7.4-15.8-3.4-7.1-4.5-14.1-4.5-22,0-10.4,1-21.1-3.6-30.8-4.9-10.3-14.4-18.8-14.5-30.9,0-.6-1-.6-1,0h0Z"/>
        <path class="cls-9" d="M332.6,294.8c14.4.9,29.1-6.4,37-18.4,3.1-4.8,5.4-10.3,9.6-14.2,7.5-6.7,18.9-6.3,28-10.5,6.4-3,11.7-8.4,14.5-15,2.3-5.4,2.9-11.4,5.3-16.7,2.4-5.3,7.6-10.2,13.4-9.4-14.7-6-32.9-2.1-43.3,9.8-3.5,4.1-6.2,8.8-9.5,13.1-4.2,5.4-9.6,9.9-15.6,13.2-5.8,3.1-12.2,5.2-17.5,9.1-5.6,4.2-9.6,10.3-12.3,16.8-3.3,8-5.6,17.6-13.4,21.4,1.1.6,2.6.8,3.9.9Z"/>
        <path class="cls-24" d="M423.6,213.3c-17,7.2-24.8,26-39.8,36-8,5.3-16.1,9.7-23.3,16.2-7.7,7-14.3,15.1-20.9,23.1-.4.5.4,1,.8.5,7-8.5,14-17.1,22.3-24.3,7.2-6.2,15.6-10.4,23.3-15.9,14.2-10,21.6-27.8,38-34.8.6-.2.1-1.1-.5-.8h0Z"/>
      </g>
      <g>
        <path class="cls-2" d="M388.7,256.9c-1.6-.9-2.6-2.6-2.6-4.4v-.2c0-1.8,1-3.5,2.6-4.4,14.4-7.9,24.4-22.7,25.7-39.9l1-14.2h-69.8l1,14.2c1.3,17.3,11.3,32,25.7,39.9,1.6.9,2.6,2.6,2.6,4.4v.2c0,1.8-1,3.5-2.6,4.4-14.4,7.9-24.4,22.7-25.7,39.9l-1,14.2h69.8l-1-14.2c-1.3-17.3-11.3-32-25.7-39.9Z"/>
        <path class="cls-5" d="M411.7,297c-.5-6.3-2.2-12.3-4.9-17.7-3.9-.7-8.2-.4-12.3-.7,0,0-.2,0-.3,0-6.2-.6-10.9-5.8-10.9-12v-15.9c0-1.9,1.1-3.6,2.8-4.5,10.1-5.1,17.9-13.7,22.1-24-1.5,0-3.1-.1-4.6,0-11.1.7-21.2,6.8-32.2,8.5-4.8.7-9.7.6-14.4-.3,4.4,6.7,10.5,12.2,17.9,15.9,1.7.9,2.8,2.6,2.8,4.5v16c0,6.2-4.7,11.4-10.9,12,0,0-.2,0-.3,0-4.1.3-8.4,0-12.3.7-2.7,5.4-4.4,11.4-4.9,17.7l-.8,11.3h63.9l-.8-11.3Z"/>
        <rect class="cls-13" x="340.3" y="302.3" width="80.4" height="8.7" rx="4.4" ry="4.4"/>
        <rect class="cls-13" x="340.3" y="193.7" width="80.4" height="8.7" rx="4.4" ry="4.4" transform="translate(761.1 396.2) rotate(-180)"/>
      </g>
      <g>
        <path class="cls-13" d="M101.2,326.3c0,3.4,2.7,6.1,6.1,6.1h264.4c3.4,0,6.1-2.7,6.1-6.1H101.2Z"/>
        <path class="cls-13" d="M337.4,142.8h-195.6c-5.7,0-10.4,4.7-10.4,10.4v148h216.4v-148c0-5.7-4.7-10.4-10.4-10.4Z"/>
        <path class="cls-7" d="M139.3,285.4v-134.7h0s200.6,0,200.6,0v134.7h-200.6Z"/>
        <path class="cls-21" d="M377.9,326.3l-30.1-28.3h-216.4l-30.1,28.3h108v.4c0,1,.8,1.8,1.8,1.8h57.1c1,0,1.8-.8,1.8-1.8v-.4h108Z"/>
        <path class="cls-7" d="M354.7,313.5l-14.5-13.6c-.2-.2-.4-.3-.6-.3h-200c-.2,0-.5,0-.6.3l-14.5,13.6c-.6.6-.2,1.6.6,1.6h229.1c.8,0,1.3-1,.6-1.6Z"/>
        <path class="cls-7" d="M280.5,321.8l-5-4.7c-.1-.1-.3-.2-.5-.2h-70.9c-.2,0-.4,0-.5.2l-5,4.7c-.5.5-.2,1.3.5,1.3h80.9c.7,0,1-.8.5-1.3Z"/>
        <g>
          <path class="cls-21" d="M286.4,310.8c0-.2-.2-.3-.4-.3h-92.8c-.2,0-.4.1-.4.3l-1,2.2c-.1.3,0,.7.4.7h94.8c.3,0,.6-.4.4-.7l-1-2.2Z"/>
          <path class="cls-21" d="M196.5,304.6h7c.2,0,.5-.2.5-.4l.9-2.4c.1-.4-.1-.8-.5-.8h-6.8c-.2,0-.4.1-.5.3l-1.1,2.4c-.2.4.1.8.5.8Z"/>
          <path class="cls-21" d="M204.7,309.1h7.7c.2,0,.5-.2.5-.4l.6-2.3c0-.3-.2-.7-.5-.7h-7.4c-.2,0-.4.1-.5.4l-.8,2.3c-.1.3.1.7.5.7Z"/>
          <path class="cls-21" d="M194.9,306.1l-1.1,2.3c-.2.4,0,.8.5.8h7.6c.2,0,.4-.1.5-.4l.8-2.3c.1-.3-.1-.7-.5-.7h-7.3c-.2,0-.4.1-.5.3Z"/>
          <path class="cls-21" d="M190.5,310.5h-7.8c-.2,0-.3,0-.4.2l-1.3,2.2c-.2.3,0,.7.4.7h8c.2,0,.4-.1.4-.3l1-2.2c.1-.3,0-.7-.4-.7Z"/>
          <path class="cls-21" d="M192,308.8l1.1-2.3c.2-.4,0-.8-.5-.8h-7.2c-.2,0-.4.1-.5.3l-1.3,2.3c-.2.4,0,.8.5.8h7.5c.2,0,.4-.1.5-.3Z"/>
          <path class="cls-21" d="M206.3,304.6h7.1c.3,0,.5-.2.6-.4l.6-2.4c0-.4-.2-.7-.6-.7h-6.8c-.2,0-.5.2-.5.4l-.9,2.4c-.1.4.1.8.5.8Z"/>
          <path class="cls-21" d="M225.3,309.1h7.8c.3,0,.5-.2.5-.5v-2.3c.1-.3-.1-.6-.4-.6h-7.5c-.3,0-.5.2-.5.5l-.4,2.3c0,.3.2.6.5.6Z"/>
          <path class="cls-21" d="M226.1,304.6h7.2c.3,0,.6-.2.6-.5v-2.4c.1-.3-.1-.6-.5-.6h-7c-.3,0-.5.2-.6.5l-.4,2.4c0,.3.2.7.6.7Z"/>
          <path class="cls-21" d="M215,309.1h7.7c.3,0,.5-.2.5-.5l.4-2.3c0-.3-.2-.6-.5-.6h-7.5c-.2,0-.5.2-.5.4l-.6,2.3c0,.3.2.7.5.7Z"/>
          <path class="cls-21" d="M216.2,304.6h7.2c.3,0,.5-.2.6-.5l.4-2.4c0-.3-.2-.7-.6-.7h-6.9c-.3,0-.5.2-.6.4l-.6,2.4c0,.4.2.7.6.7Z"/>
          <path class="cls-21" d="M179.8,310.5h-7.7c-.2,0-.3,0-.4.2l-1.5,2.2c-.2.3,0,.7.4.7h7.9c.2,0,.3,0,.4-.2l1.3-2.2c.2-.3,0-.7-.4-.7Z"/>
          <path class="cls-21" d="M186.6,304.6h6.9c.2,0,.4-.1.5-.3l1.1-2.4c.2-.4-.1-.8-.5-.8h-6.6c-.2,0-.4.1-.5.3l-1.3,2.4c-.2.4,0,.9.5.9Z"/>
          <path class="cls-21" d="M176.8,304.6h6.8c.2,0,.4-.1.5-.3l1.3-2.4c.2-.4,0-.9-.5-.9h-6.5c-.2,0-.4,0-.5.3l-1.6,2.4c-.3.4,0,.9.5.9Z"/>
          <path class="cls-21" d="M137.6,304.6h6.1c.2,0,.3,0,.4-.2l2.3-2.4c.4-.4,0-1-.4-1h-6.2,0c0,0-2.7,2.6-2.7,2.6-.4.4-.1,1,.4,1Z"/>
          <path class="cls-21" d="M157.2,304.6h6.4c.2,0,.3,0,.5-.2l1.8-2.4c.3-.4,0-.9-.5-.9h-6.5,0s-2.2,2.6-2.2,2.6c-.3.4,0,1,.4,1Z"/>
          <path class="cls-21" d="M147.4,304.6h6.3c.2,0,.3,0,.4-.2l2.1-2.4c.3-.4,0-1-.4-1h-6.3,0s-2.5,2.6-2.5,2.6c-.4.4,0,1,.4,1Z"/>
          <path class="cls-21" d="M175.3,305.7c-.2,0-.3,0-.4.2l-1.5,2.3c-.2.4,0,.8.4.8h7.3c.2,0,.4-.1.5-.3l1.3-2.3c.2-.4,0-.8-.5-.8h-7.1Z"/>
          <path class="cls-21" d="M137,310.5h-7.1c-.1,0-.2,0-.3.1l-2.4,2.2c-.3.3-.1.8.3.8h7.3c.1,0,.3,0,.3-.1l2.2-2.2c.3-.3,0-.8-.3-.8Z"/>
          <path class="cls-21" d="M147.7,310.5h-7.2c-.1,0-.3,0-.3.1l-2.2,2.2c-.3.3,0,.8.3.8h7.5c.1,0,.3,0,.4-.2l1.9-2.2c.3-.3,0-.8-.4-.8Z"/>
          <path class="cls-21" d="M158.4,310.5h-7.4c-.1,0-.3,0-.4.2l-1.9,2.2c-.3.3,0,.8.4.8h7.6c.1,0,.3,0,.4-.2l1.7-2.2c.2-.3,0-.8-.4-.8Z"/>
          <path class="cls-21" d="M165.2,305.7c-.2,0-.3,0-.4.2l-1.8,2.3c-.3.3,0,.9.4.9h7.2c.2,0,.3,0,.4-.2l1.5-2.3c.2-.4,0-.8-.4-.8h-7Z"/>
          <path class="cls-21" d="M169.1,310.5h-7.6c-.1,0-.3,0-.4.2l-1.7,2.2c-.2.3,0,.8.4.8h7.8c.2,0,.3,0,.4-.2l1.5-2.2c.2-.3,0-.7-.4-.7Z"/>
          <path class="cls-21" d="M167,304.6h6.6c.2,0,.4,0,.5-.3l1.6-2.4c.3-.4,0-.9-.5-.9h-6.4c-.2,0-.3,0-.5.2l-1.8,2.4c-.3.4,0,.9.5.9Z"/>
          <path class="cls-21" d="M132.6,309.1h27.6c.2,0,.3,0,.4-.2l1.8-2.3c.3-.3,0-.9-.4-.9h-26.9c-.1,0-.3,0-.4.1l-2.5,2.3c-.4.3-.1.9.4.9Z"/>
          <path class="cls-21" d="M236,304.6h7.2c.3,0,.6-.3.6-.6v-2.4c-.1-.3-.4-.5-.7-.5h-7c-.3,0-.6.2-.6.5v2.4c-.1.3.1.6.5.6Z"/>
          <path class="cls-21" d="M235.7,309.1h7.8c.3,0,.5-.3.5-.6v-2.3c-.1-.3-.4-.5-.6-.5h-7.5c-.3,0-.5.2-.5.5v2.3c-.1.3.1.6.4.6Z"/>
          <path class="cls-21" d="M275.1,304.2c0,.2.3.4.5.4h7c.4,0,.7-.4.5-.8l-1.1-2.4c0-.2-.3-.3-.5-.3h-6.8c-.4,0-.7.4-.5.8l.9,2.4Z"/>
          <path class="cls-21" d="M265.7,306.4l.6,2.3c0,.2.3.4.5.4h7.7c.4,0,.6-.4.5-.7l-.8-2.3c0-.2-.3-.4-.5-.4h-7.4c-.3,0-.6.3-.5.7Z"/>
          <path class="cls-21" d="M275.9,306.5l.8,2.3c0,.2.3.4.5.4h7.6c.4,0,.6-.4.5-.8l-1.1-2.3c0-.2-.3-.3-.5-.3h-7.3c-.4,0-.6.4-.5.7Z"/>
          <path class="cls-21" d="M296.9,310.7c0-.2-.2-.2-.4-.2h-7.8c-.3,0-.6.4-.4.7l1,2.2c0,.2.2.3.4.3h8c.4,0,.6-.4.4-.7l-1.3-2.2Z"/>
          <path class="cls-21" d="M295.6,308.3l-1.3-2.3c0-.2-.3-.3-.5-.3h-7.2c-.4,0-.6.4-.5.8l1.1,2.3c0,.2.3.3.5.3h7.5c.4,0,.7-.4.5-.8Z"/>
          <path class="cls-21" d="M265.2,304.1c0,.3.3.4.6.4h7.1c.4,0,.7-.4.5-.8l-.9-2.4c0-.2-.3-.4-.5-.4h-6.8c-.4,0-.7.4-.6.7l.6,2.4Z"/>
          <path class="cls-21" d="M245.9,305.7c-.3,0-.5.3-.5.6v2.3c.1.3.4.5.6.5h7.8c.3,0,.6-.3.5-.6l-.4-2.3c0-.3-.3-.5-.5-.5h-7.5Z"/>
          <path class="cls-21" d="M245.9,304.6h7.2c.4,0,.6-.3.6-.7l-.4-2.4c0-.3-.3-.5-.6-.5h-7c-.3,0-.6.3-.6.6v2.4c.1.3.4.5.7.5Z"/>
          <path class="cls-21" d="M255.6,306.4l.4,2.3c0,.3.3.5.5.5h7.7c.3,0,.6-.3.5-.7l-.6-2.3c0-.2-.3-.4-.5-.4h-7.5c-.3,0-.6.3-.5.6Z"/>
          <path class="cls-21" d="M255.8,304.6h7.2c.4,0,.7-.4.6-.7l-.6-2.4c0-.3-.3-.4-.6-.4h-6.9c-.4,0-.6.3-.6.7l.4,2.4c0,.3.3.5.6.5Z"/>
          <path class="cls-21" d="M307.5,310.7c0-.1-.2-.2-.4-.2h-7.7c-.4,0-.6.4-.4.7l1.3,2.2c0,.2.2.2.4.2h7.9c.4,0,.6-.4.4-.7l-1.5-2.2Z"/>
          <path class="cls-21" d="M285.1,304.2c0,.2.3.3.5.3h6.9c.4,0,.7-.5.5-.9l-1.3-2.4c-.1-.2-.3-.3-.5-.3h-6.6c-.4,0-.7.4-.5.8l1.1,2.4Z"/>
          <path class="cls-21" d="M295.1,304.3c.1.2.3.3.5.3h6.8c.5,0,.7-.5.5-.9l-1.6-2.4c-.1-.2-.3-.3-.5-.3h-6.5c-.4,0-.7.5-.5.9l1.3,2.4Z"/>
          <path class="cls-21" d="M335.1,304.4c.1.1.3.2.4.2h6.1c.5,0,.8-.6.4-1l-2.7-2.5h0c0,0-6.2,0-6.2,0-.5,0-.8.6-.4,1l2.3,2.4Z"/>
          <path class="cls-21" d="M315.1,304.3c.1.1.3.2.5.2h6.4c.5,0,.8-.6.4-1l-2.2-2.6h0s-6.5,0-6.5,0c-.5,0-.7.5-.5.9l1.8,2.4Z"/>
          <path class="cls-21" d="M325.1,304.4c.1.1.3.2.4.2h6.3c.5,0,.8-.6.4-1l-2.5-2.5h0s-6.3,0-6.3,0c-.5,0-.8.6-.4,1l2.1,2.4Z"/>
          <path class="cls-21" d="M303.9,305.7h-7.1c-.4,0-.7.4-.5.8l1.3,2.3c0,.2.3.3.5.3h7.3c.4,0,.7-.5.4-.8l-1.5-2.3c0-.1-.3-.2-.4-.2Z"/>
          <path class="cls-21" d="M351.9,312.9l-2.4-2.2c0,0-.2-.1-.3-.1h-7.1c-.4,0-.6.5-.3.8l2.2,2.2c0,0,.2.1.3.1h7.3c.4,0,.6-.5.3-.8Z"/>
          <path class="cls-21" d="M339,310.6c0,0-.2-.1-.3-.1h-7.2c-.4,0-.6.5-.4.8l1.9,2.2c0,.1.2.2.4.2h7.5c.4,0,.6-.5.3-.8l-2.2-2.2Z"/>
          <path class="cls-21" d="M328.5,310.6c0-.1-.2-.2-.4-.2h-7.4c-.4,0-.6.5-.4.8l1.7,2.2c0,.1.2.2.4.2h7.6c.4,0,.6-.5.4-.8l-1.9-2.2Z"/>
          <path class="cls-21" d="M314,305.7h-7c-.4,0-.7.5-.4.8l1.5,2.3c0,.1.3.2.4.2h7.2c.4,0,.7-.5.4-.9l-1.8-2.3c-.1-.1-.3-.2-.4-.2Z"/>
          <path class="cls-21" d="M318,310.7c0-.1-.2-.2-.4-.2h-7.6c-.4,0-.6.4-.4.7l1.5,2.2c0,.1.2.2.4.2h7.8c.4,0,.6-.5.4-.8l-1.7-2.2Z"/>
          <path class="cls-21" d="M305.1,304.3c.1.2.3.3.5.3h6.6c.5,0,.7-.5.5-.9l-1.8-2.4c-.1-.1-.3-.2-.5-.2h-6.4c-.5,0-.7.5-.5.9l1.6,2.4Z"/>
          <path class="cls-21" d="M334.3,305.7h-17.1c-.4,0-.7.5-.4.9l1.8,2.3c.1.1.3.2.4.2h27.6c.5,0,.7-.6.4-.9l-2.5-2.3c0,0-.2-.1-.4-.1h-9.8Z"/>
        </g>
      </g>
      <g>
        <rect class="cls-18" x="143.8" y="160.8" width="191.5" height="114.4"/>
        <rect class="cls-18" x="143.8" y="155.2" width="191.5" height="3.4"/>
        <rect class="cls-18" x="143.8" y="277.5" width="191.5" height="3.4"/>
      </g>
      <g>
        <g>
          <g>
            <path class="cls-1" d="M82.8,294l.3,7.6c0,1.1,0,2.1,1,2.6l5.6,2.8c2.9,1.2,2.1,4.5-1.1,4.5h-14.7v-4.5l-.3-12.9h9.2Z"/>
            <g>
              <path class="cls-17" d="M75.4,306.5c-.2-.1-.8-.4-.9-.5-.6-.2-1.2.3-1.2,1v7.5c0,.6.5,1.1,1.1,1.1h27.7c.8,0,1.5-.7,1.5-1.5s0-.2,0-.3c0-.5-.4-.8-.9-1l-16.5-8c-.9-.5-1.6-.1-1.8.7-.3,1.3-1.5,2.2-4.2,2.1-2,0-3.7-.4-4.8-1.1Z"/>
              <path class="cls-25" d="M73.3,313.8v.7c0,.6.5,1.1,1.1,1.1h27.7c.8,0,1.5-.7,1.5-1.5s0-.2,0-.3h-30.3Z"/>
            </g>
          </g>
          <g>
            <polygon class="cls-1" points="45 296.7 43.3 311.7 34.4 311.7 36.1 296.7 45 296.7"/>
            <g>
              <path class="cls-17" d="M25,315.1c.3,1,1.2,1.7,3,1.8,2.6.2,9.7,0,13.2-.6,2.2-.3,2.9-.8,3-2.1,0-.3,0-.7,0-1.1,0-1.7,0-3.5,0-5.4,0-.4-.5-.6-.8-.4-1,.8-1.6,1-2.6,1.1-1.1,0-2.1-.5-2.1-1.5,0-1-.8-1.4-2.8-1.4s-1.9,0-3.5,1.4c-1.8,1.6-6.3,5.3-7.1,6-.5.4-.7,1.4-.4,2.2Z"/>
              <path class="cls-25" d="M25,315.1c.3,1,1.2,1.9,3,2,2.6.2,9.7,0,13.2-.6,2.2-.3,2.9-1,3-2.3,0-.3,0-.7,0-1.1-.4.8-1.2,1.4-2.7,1.6-3.7.6-11.9.8-14.7.6-.7,0-1.3,0-1.9-.2Z"/>
            </g>
          </g>
          <polygon class="cls-25" points="33.1 303 36.6 248 40.2 190.9 52.9 184.7 65.3 190.8 55.8 248 46.7 303 33.1 303"/>
          <polygon class="cls-25" points="71.6 303 65.3 248 58.8 190.3 71.2 184.7 82.8 190.2 84.6 248 85.2 303 71.6 303"/>
          <path class="cls-17" d="M61.6,213.9s0,0,0,0c-.3,0-.4-.3-.4-.5l1.5-9.3c0-.3.3-.4.5-.4.3,0,.4.3.4.5l-1.5,9.3c0,.2-.2.4-.5.4Z"/>
        </g>
        <g>
          <circle class="cls-1" cx="105.5" cy="129" r="3.6"/>
          <path class="cls-1" d="M112.2,112.6c-.1,0-.2,0-.4.2-.2.2-.3.4-.4.6-.3.7-.6,1.6-1.1,2.3.4-1.3.6-2.6.7-4,0-.7,0-1.4-.4-2,0-.1-.3-.3-.7-.4-.3,0-.6.2-.7.9v.7c-.4,1.2-.6,2.4-1.1,3.7,0-.2,0-.5,0-.7,0-1.5.1-3.1,0-4.7,0-.5-.1-1-.5-1.4-.2-.2-.5-.3-.9-.3-.3,0-.5.2-.6.4-.2.3-.2.7-.2,1,0,.1,0,.2,0,.3v.6c-.1.8-.2,1.5-.3,2.3,0,.5-.2,1-.3,1.5,0,0,0,.2,0,.3-.1-.9-.4-1.7-.7-2.3-.3-.5-.7-.8-1.4-.8-.4,0-.7.3-1,.7-.5.6-1,1.2-1.3,1.8,0,0-.4.7-.3,1.2,0,0-.1,0-.2,0,0,0,0,0,0,0-.5,0-.6.7-.6.9-.3,1.5-.5,3-.7,4.5,0,.6-.1,1.2,0,1.8.1.4.4.8.8,1.3.6.9,1.2,1.9,1.6,2.9.1.3.4,2,.4,3,0,0,7.2.9,7.2.9,0,0,0-1.4.2-2,.2-.8.3-1.3.7-2.1.2-.4.4-.8.6-1.2.5-1.1.7-2.4.8-3.7,0-.5,0-1,.2-1.4,0-.4.2-.8.4-1.2.1-.3.2-.5.3-.8.2-.8.4-1.6.6-2.4,0-.3.2-.7.1-1.1,0-.4-.3-1.1-.8-1.1ZM101.2,115.1s0,0,0,0c.3,0,.7-.3,1-.6,0,.5,0,1.1,0,1.5,0,.7-.2,1.4-.4,2.2,0,0,0,0-.1-.2-.1-.5-.2-.9-.2-1.4,0-.5-.1-1-.2-1.5,0,0,0,0,0,0Z"/>
          <path class="cls-22" d="M104.9,123.5s0,0,0,0c-.1,0-.2-.1-.2-.3,0-.9-.3-2.7-1.9-3.9-.1,0-.1-.2,0-.3,0-.1.2-.1.3,0,1.8,1.4,2.2,3.4,2.1,4.3,0,.1-.1.2-.2.2Z"/>
        </g>
        <polygon class="cls-17" points="40 186.8 39.9 191.2 83.1 191.1 83 186.7 40 186.8"/>
        <g>
          <g>
            <path class="cls-1" d="M81.3,127.9c3,3,3.1,7.7.3,10.8,0,.1-.2.2-.3.3-3.1,3.1-8.1,3.1-11.2,0-3.1-3.1-3.1-8.1,0-11.2,3.1-3.1,8.1-3.1,11.2,0Z"/>
            <circle class="cls-1" cx="98.5" cy="156" r="5.6" transform="translate(-81.9 194.8) rotate(-69.9)"/>
            <path class="cls-1" d="M70.2,139.1h0c8.3,8.4,14.9,13.6,24.2,20.8h.1c0,0,8-7.9,8-7.9h0c-8.4-8.3-13.9-14.6-21.1-23.9h0c0-.1-11.2,11-11.2,11Z"/>
          </g>
          <path class="cls-12" d="M83.7,129.4c-4.2-4.7-9.8-5.4-13.7-1.7-2.8,2.6-2.7,7.7-1.4,10.7.4.9,1.9,2.8,2.6,3.6,2.2,2.6,11.7,12.1,16.2,16.1l11.8-10.3c-5.2-5.9-11.1-13.5-15.5-18.4Z"/>
        </g>
        <path class="cls-12" d="M84.2,201.7h-3.9c-3.4,0-6.2-2.6-6.3-6l-.5-9-6.2-4.7-7.2,4.7v8.7c0,2.3-1.2,4.3-3.1,5.4-1.4-.1-4.7-.5-5.6-1-1.3-.7-1.6-1.6-2.2-2.8-.6-1.1-1.8-1.2-1.8-1.2l-6.6,5.8h-1.7c.2-5.9.8-18.5,1-20.8.9-9,.3-19.2-.4-32.5l-.5-19.9c3.3-2.4,9.8-5.2,15.4-7.1.8-.3,1.6-.5,2.3-.7l12.1.6c1.1.3,3.5,1.2,3.5,1.2,3.8,1.6,8.1,4.1,10.1,5.8l-1.4,21.3c.9,15.4,1.8,36.3,2.9,52.1Z"/>
        <g>
          <path class="cls-1" d="M52.4,136.6c-1,4.2-5.1,6.9-9.4,6.1-.2,0-.3,0-.5,0-4.4-1-7.1-5.4-6-9.8,1-4.4,5.4-7.1,9.8-6,4.4,1,7.1,5.4,6,9.8Z"/>
          <circle class="cls-1" cx="34.9" cy="166.8" r="5.8"/>
          <path class="cls-1" d="M36.5,132.8h0c-2.9,10.2-6.6,22.5-7.3,32.5v.2s11.3,2.7,11.3,2.7h0c3.1-11.3,6.8-20.3,11.8-31.4v-.2c0,0-15.8-3.8-15.8-3.8Z"/>
        </g>
        <path class="cls-14" d="M81.5,152.7c-.3,0-.5-.2-.5-.5v-9.2c0-.3.2-.5.5-.5s.5.2.5.5v9.2c0,.3-.2.5-.5.5Z"/>
        <path class="cls-12" d="M53.4,136.5c1-4.5-1.5-8.8-6.5-10-3.9-.9-7.5.7-9.5,3.5-.6.8-1,1.8-1.3,2.7-1.1,3.3-2.3,6.5-3.3,9.9-1.3,4.7-2.9,12.3-3.7,17.2l14.3,3.4c2.6-7.8,6.2-17.1,9.2-24.3l.8-2.4Z"/>
        <path class="cls-14" d="M74.5,135.8l3,2.7-6.3,45.2h-7.8l-13.1-43.6,2.8-3.8-5.3-4.8,6.6-10c.8-.3,1.6-.5,2.3-.7l12.1.6c1.1.3,3.5,1.2,3.5,1.2l5.9,8.7-3.9,4.5Z"/>
        <path class="cls-7" d="M73.5,186.7c0-17.3-.6-54.4,0-60.4.2-1.6-1.7-4.4-4.5-5.3l-12.1-.6c-2.1,1.2-2.5,3.7-2.1,6.6,1.2,8.3,3,20.6,5.2,59.8h13.4Z"/>
        <g>
          <path class="cls-17" d="M54,109c-1.4-2.5-2.5-4.3-3.1-7.1-.4-1.9-.4-3.9.3-5.6.7-1.8,1.8-3.7,3.6-4.1.4-2,2.2-3.3,4.1-3.7,2.2-.5,4.4.2,6.7.2,1.4,0,2.8.4,4.1,0,1.5-.4,2.4-.7,4.1-.8,1.9,0,3.7,1.5,4.6,3.4.8,1.9.9,4,.5,6.1-.3,1.6-.8,3.1-1.7,4.3-1.9,2.5-3.8,1.1-6.4,1.4-2.5.3-4.7,1.7-5.7,4.2-.7,1.7-1.1,2.6-1.5,4.4-.3,1.5-.9,3.1-2.2,3.7-1,.5-2.3.2-3.2-.5-1.9-1.4-2.8-3.9-3.9-6Z"/>
          <path class="cls-1" d="M66.1,125.6s-8.4-1.9-9.2-4.9h0s-.4-10.9-.4-10.9l-.2-5.5,12.1-.4.6,17v.5c1.4,2.4-2.9,4.3-2.9,4.3Z"/>
          <path class="cls-22" d="M56.5,109.8c1.2,6.1,6.4,10.6,12.5,11l-.6-17-12.1.4.2,5.5Z"/>
          <ellipse class="cls-22" cx="73.9" cy="106" rx="2.9" ry="2.6" transform="translate(-44.6 157.6) rotate(-78.6)"/>
          <path class="cls-1" d="M53.8,102.2c.4,4.9,1.9,9,4.8,12.6,1.1,1.4,2.6,2.5,4.3,3.1,3.2,1.2,7.3.7,9.4-2,1.9-2.4,2.5-5.6,2.6-8.6.1-3.2,0-6.4-.4-9.6-.6-4.5-5.3-7.8-11.4-7.2-6.9.6-9.8,5.9-9.3,11.7Z"/>
          <path class="cls-17" d="M63.1,90c6.1-.5,11.3,2.8,12,7.7.1.6,0,.7,0,.7-4.2,1.9-10.4,2.1-14.9,1h0c-.2,1.4-1.1,2.9-2,3.5l.4,4.5h-1.4c0,.1-2.9.4-2.9.4-.5-1.7-.8-3.5-1-5.5-.6-6.9,3.3-11.7,9.8-12.3Z"/>
          <ellipse class="cls-1" cx="56.3" cy="107.6" rx="2.6" ry="2.9" transform="translate(-35.5 28.1) rotate(-21.5)"/>
          <path class="cls-22" d="M57.7,107.9s0,0,0,0c.1,0,.2-.1.2-.3,0-.2-.1-.5-.2-.7-.4-.7-1.3-1.2-2-1-.1,0-.3,0-.4.1-.2.1-.4.3-.6.5,0,.1,0,.3,0,.3.1,0,.3,0,.3,0,0-.2.2-.3.4-.4,0,0,.2,0,.3,0,.5-.1,1.2.2,1.5.8,0,.2.2.4.2.5,0,.1.1.2.3.2Z"/>
          <g>
            <g>
              <path class="cls-17" d="M71.8,105c.4-.1.9.1,1,.5.1.4-.1.9-.5,1-.4.1-.9-.1-1-.5-.1-.4.1-.9.5-1Z"/>
              <path class="cls-17" d="M65.4,105.6c.4-.1.9.1,1,.5.1.4-.1.9-.5,1-.4.1-.9-.1-1-.5-.1-.4.1-.9.5-1Z"/>
              <path class="cls-17" d="M62.8,103.4c0-.2.2-.3.4-.3.9-.2,1.8-.2,2.7,0,.3,0,1.2,0,1.1.5,0,.3-.5.5-.9.5-.7,0-1.4,0-2.1,0-.4,0-1.4,0-1.3-.6Z"/>
              <path class="cls-17" d="M70.5,102.9c.8-.4,1.7-.6,2.6-.7.3,0,.5,0,.8,0,.1,0,.2,0,.3.1,0,0,.1.3,0,.4,0,.1-.1.2-.3.3-.4.2-.8.3-1.2.3-.4,0-.9.2-1.3.3-.4,0-1.3.3-1.4-.3,0-.2.1-.3.3-.4Z"/>
              <path class="cls-22" d="M69.8,110.6s0,0,0,0c.5-.2.7-.6.9-.9.1-.3,0-.7-.2-1.1-.1-.2-.3-.5-.5-.8-.2-.4-.5-.8-.7-1.2,0-.1-.2-.2-.3,0-.1,0-.2.2,0,.3.2.4.5.8.8,1.2.2.3.3.5.5.7.1.3.2.5.1.7,0,.2-.3.5-.6.7-.1,0-.2.2,0,.3,0,0,.1.1.2.1Z"/>
              <path class="cls-7" d="M70.2,112.1l-4.8-.2c.9,2,4.1,2.1,4.8.2Z"/>
            </g>
            <g>
              <path class="cls-7" d="M73.5,109.1c-1.8.3-3.5-1-3.7-2.8h0c-.3-1.8,1-3.5,2.8-3.7,1.8-.3,3.5,1,3.7,2.8.2,1.7-.8,3.2-2.4,3.6-.1,0-.2,0-.4,0ZM70.1,106.2c.2,1.6,1.7,2.8,3.4,2.5,1.6-.2,2.8-1.7,2.5-3.4-.2-1.6-1.7-2.8-3.4-2.5-.1,0-.2,0-.3,0-1.4.4-2.4,1.8-2.2,3.3Z"/>
              <path class="cls-7" d="M65.6,109.8c-.9.1-1.7,0-2.4-.6-.7-.5-1.2-1.3-1.3-2.2-.1-.9,0-1.7.6-2.4.5-.7,1.3-1.2,2.2-1.3,1.8-.3,3.5,1,3.7,2.8.1.9,0,1.7-.6,2.4-.4.6-1.1,1-1.8,1.2-.1,0-.3,0-.4,0ZM62.7,104.7c-.5.6-.7,1.4-.6,2.2h0c.1.8.5,1.5,1.2,2,.6.5,1.4.7,2.2.6.8-.1,1.5-.5,2-1.2.5-.6.7-1.4.6-2.2-.2-1.6-1.7-2.8-3.4-2.5-.1,0-.2,0-.3,0-.6.2-1.2.5-1.6,1.1Z"/>
              <path class="cls-7" d="M69.8,105.6c-.5-.2-1.1-.1-1.6.2-.2.1-.4-.2-.2-.3.6-.3,1.2-.4,1.8-.2.2,0,.1.4,0,.3h0Z"/>
              <path class="cls-7" d="M61.9,105.9c-1.3-.2-2.1-.4-3.4-.7-.2,0-.2-.4,0-.3,1.1.2,3.3.6,3.4.7.2,0,.2.4,0,.3h0Z"/>
            </g>
          </g>
        </g>
        <path class="cls-19" d="M55.8,121.2l5.9,7.8,4.5-3.4-3.9-1.8c-2.1-.9-3.9-2.3-5.4-4h0c-.3.4-.7.9-1.1,1.4Z"/>
        <path class="cls-19" d="M69,120.4h0c0,1.6-.7,3.1-1.8,4.2l-1,1,3.8,2.9.4-6.9-1.4-1.3Z"/>
        <path class="cls-25" d="M68,177.6l4.7-4.4c-.4-4.4-1.4-16.3-2-21.6-.8-7.3-1.7-15.4-2.8-21.1l1.2-1.4-3-3.6-3.1,3.8,2.1,1.3c.1,6.7-.4,14.5-.5,20.9,0,4.4-1,16.5-1.5,21.6l4.8,4.4Z"/>
        <g>
          <path class="cls-1" d="M39.2,197.4l7.2-1.9c-1.1-4.4-2.3-10.9-3.4-17.4-.9-5.5-1.8-10.3-2.5-13l-11.3,2.9h0c3.1,10.5,6.4,19.7,9.9,29.2h0Z"/>
          <circle class="cls-1" cx="34.9" cy="166.8" r="5.8"/>
          <circle class="cls-1" cx="42.8" cy="196.6" r="3.7"/>
        </g>
        <g>
          <circle class="cls-1" cx="42.8" cy="196.6" r="3.7" transform="translate(-158.4 198.9) rotate(-78.4)"/>
          <path class="cls-1" d="M41,204c-.7-1.9-.5-3.4-1.7-6l6.4-3.5c.3.6,1.5,1.1,2.2,1.4.1,0,.3.1.4.2-1.2,2.8-4.8,6.3-7.4,7.8Z"/>
        </g>
        <path class="cls-17" d="M40.4,204.8c-.2,0-.3-.1-.4-.3-.1-.2,0-.5.2-.6,2.5-1.2,6.6-5.1,7.8-8,.1-.2.4-.4.6-.3.2.1.4.4.3.6-1.3,3.1-5.6,7.2-8.3,8.5,0,0-.2,0-.2,0Z"/>
        <path class="cls-12" d="M47.4,193.3l-11.1,3.3s-5.6-20-7.5-26.8c-.4-1.5-.8-3.7-.6-5l.9-5,9-3,5.3,6.4-1.3,3.9,5.3,26.2Z"/>
        <path class="cls-14" d="M46.4,194c-.2,0-.4-.1-.5-.4,0-.3.1-.5.4-.6h.5c0-.1-5.9-26.2-5.9-26.2h0c0,0,3-22.6,3-22.6,0-.3.3-.4.5-.4.3,0,.4.3.4.5l-3,22.5,6.1,26.9-1.5.3s0,0-.1,0Z"/>
        <path class="cls-25" d="M62.7,187.8v2.3c0,1.2,1,2.2,2.2,2.2h4.8c.5,0,1.1-.2,1.4-.6.4-.4.7-1,.6-1.6v-2.3c0-1.2-1-2.2-2.2-2.2h-4.8c-.6,0-1.1.2-1.5.6-.4.4-.7,1-.6,1.6ZM70.6,190.1c0,.3-.1.6-.3.8-.2.2-.3.2-.6.3h-4.8c-.5,0-.9-.4-.9-1v-2.3c0-.3,0-.6.3-.8.2-.2.4-.3.6-.3h0s4.8,0,4.8,0c.5,0,.9.4.9,1v2.3Z"/>
        <path class="cls-14" d="M41.3,167.3c0,0-.2,0-.3,0-.5-.3-1.5-.6-2.3-.4-.3,0-.5,0-.6-.3,0-.3,0-.5.3-.6,1-.3,2.2,0,3.1.5.2.1.3.4.1.7,0,.1-.2.2-.4.2Z"/>
        <g>
          <path class="cls-1" d="M108.9,130.3l-6.8-2.2c-1.1,3.4-2.9,9.7-4.5,14.5-1.7,5.1-3.5,9.3-4.5,11.8l10.6,3.4h0c2-8.5,4.2-20.4,5.1-27.5Z"/>
          <circle class="cls-1" cx="98.5" cy="156" r="5.6" transform="translate(-80 109.2) rotate(-43)"/>
          <path class="cls-1" d="M102.1,128c.6-1.9,2.6-2.9,4.5-2.3,1.9.6,2.9,2.6,2.3,4.5-.6,1.9-2.6,2.9-4.5,2.3-1.9-.6-2.9-2.6-2.3-4.5Z"/>
        </g>
        <path class="cls-12" d="M101.3,163.5c1.6-.8,4-3.8,4.4-6.1.4-2.3,4.9-25.9,4.9-25.9l-9.9-2.8-6.9,20.6-5.2,1.6-1.1,7.3,6.3,5.1c1.6,1.3,5.4,1.4,7.6.3Z"/>
        <g>
          <path class="cls-14" d="M101.9,135c.2.3.1.7-.2.9-.3.2-.7.1-.9-.2-.2-.3-.1-.7.2-.9.3-.2.7-.1.9.2Z"/>
          <path class="cls-14" d="M102.9,132.1c.2.3.1.7-.2.9-.3.2-.7.1-.9-.2-.2-.3-.1-.7.2-.9.3-.2.7-.1.9.2Z"/>
        </g>
        <g>
          <path class="cls-14" d="M37.4,191.4c.3.1.5.5.3.8-.1.3-.5.5-.8.3s-.5-.5-.3-.8c.1-.3.5-.5.8-.3Z"/>
          <path class="cls-14" d="M36.6,188.4c.3.1.5.5.3.8-.1.3-.5.5-.8.3-.3-.1-.5-.5-.3-.8.1-.3.5-.5.8-.3Z"/>
        </g>
        <path class="cls-14" d="M94,148.1c0,0-.1,0-.2,0-.2,0-.4-.4-.3-.6l1.2-3.6c0-.2.4-.4.6-.3.2,0,.4.4.3.6l-1.2,3.6c0,.2-.3.3-.5.3Z"/>
      </g>
      <g>
        <circle class="cls-3" cx="360" cy="100.7" r="34.7" transform="translate(-3.5 13.6) rotate(-2.2)"/>
        <path class="cls-7" d="M377.3,95c2.2-2.2,2.9-5.3,2.1-8.1l-2,2h0s-3.2,3.2-3.2,3.2l-4.3-1.2-1.2-4.3,3.1-3.1h0s2.1-2.1,2.1-2.1c-2.9-.9-6.2,0-8.4,2.4-1.8,2-2.4,4.6-1.9,7.1l-21.9,21.9c-1.8,1.8-1.8,4.6,0,6.4h0c1.8,1.8,4.6,1.8,6.4,0l21.9-21.9c2.6.5,5.4-.2,7.4-2.2Z"/>
        <circle class="cls-21" cx="320.3" cy="84.2" r="15.2" transform="translate(214.1 397.9) rotate(-86)"/>
        <path class="cls-7" d="M318,91.8l-6.2-6.2c-.6-.6-.6-1.6,0-2.2h0c.6-.6,1.6-.6,2.2,0l4,4,8.6-8.6c.6-.6,1.6-.6,2.2,0h0c.6.6.6,1.6,0,2.2l-10.8,10.8Z"/>
      </g>
      <g>
        <circle class="cls-3" cx="203" cy="225" r="33.8" transform="translate(-32 416.2) rotate(-87.1)"/>
        <g>
          <polygon class="cls-7" points="220.5 212.5 185.4 212.5 203 224.2 220.5 212.5"/>
          <polygon class="cls-7" points="203 226.4 183.8 213.6 183.8 238.2 222.1 238.2 222.1 213.6 203 226.4"/>
        </g>
        <circle class="cls-21" cx="225.2" cy="198.4" r="9.6"/>
        <path class="cls-7" d="M224.5,194.4h0l-1.9,1-.3-1.1,2.3-1.3h1.2v10.7h-1.4v-9.4Z"/>
      </g>
      <g>
        <path class="cls-25" d="M314.3,274.7c0-.9,0-1.7-.1-2.3-1-22.9,2.6-33,1.4-45.8-.9-10.3-3.8-18.9-6.4-24.7l-20.1-3.1-20.3,3s-3.1,9.7-4,23.7c-.7,11.7,0,32.3.2,49.3h49.2Z"/>
        <path class="cls-17" d="M301.1,105.1c1.2,1.8,2.2,3.8,2.8,5.8,2.1,6.7.9,12.8,2.1,19.7.5,3.4,2.7,7.1,3.2,10.1.4,2.3-1.1,5.3-3.2,6.7-2,1.3-4.6,1.6-6.9,1.6-2.1,0-4.1-.3-6.1-.4-2.7,0-5.3.4-8,.5-4.9,0-9.8-1.4-12.9-4.5-2.8-2.8-3.7-6.1-3.6-10.6,0-3.1,1.5-8.1,1.8-11.1.3-3.2.1-6.7.6-9.7.5-3,1.5-6.1,3.8-8.2,1.5-1.4,3.3-2.1,5.1-2.1,2.7-2.4,7.1-3.6,10.9-3.2,3.8.4,8.2,2.1,10.4,5.3Z"/>
        <polygon class="cls-7" points="232.5 176.1 234.5 174 231.8 170.8 232.5 176.1"/>
        <g>
          <circle class="cls-1" cx="271.1" cy="151.2" r="8.3"/>
          <circle class="cls-1" cx="241.6" cy="175.2" r="5.9" transform="translate(-33.9 60.6) rotate(-13.4)"/>
          <path class="cls-1" d="M265.8,144.8l-.2.2c-9.7,10.1-16.9,16.8-27.7,25.6h0s7.5,9.1,7.5,9.1h.1c11.7-7.6,19.9-13.1,30.7-22h.1c0,0-10.6-13-10.6-13Z"/>
        </g>
        <g>
          <circle class="cls-1" cx="241.6" cy="175.2" r="5.9" transform="translate(-55.6 202) rotate(-41.1)"/>
          <circle class="cls-1" cx="225.3" cy="140.9" r="4.3"/>
          <path class="cls-1" d="M246.9,172.7c-1.3-2.8-4.3-7.9-7.4-13.5-3.7-6.6-8.1-15.4-10.3-20.1l-7.8,3.7c3.9,9.5,9.9,23.7,14.8,35l10.7-5.1Z"/>
        </g>
        <path class="cls-6" d="M276.4,158.5c1.7-1.4,2.9-3.4,3.3-5.5.5-2.6-.2-5.1-1.8-7.1-3.2-3.9-9-4.5-12.9-1.2-3.6,3.5-17.2,16.1-23.2,21.6l9.7,12c6.1-4,20.7-15.5,25-19.7Z"/>
        <path class="cls-6" d="M310.4,178.4c-.1,4.6.4,14.7,1.2,19.2.2,1,.3,2.1.5,3.4.1.9-.6,1.8-1.5,1.8h-40.9c-1.2,0-2-1.2-1.6-2.4l.6-1.9c1.1-7.3,1.6-11.5,1.1-17.6-.3-3.7-1.6-9.7-2.2-12.8-.9-4.7-.4-10.6.1-15.4.4-4,1.1-10,1.1-10,3.4-1.5,9.4-3.5,12.8-4.5l15.4-.4c4.6,1.1,14.7,4.7,18.6,6.8-.4,1.8-1.8,7.3-2.4,10.9-1.5,9-2.7,16.4-2.9,22.8Z"/>
        <g>
          <circle class="cls-1" cx="311.3" cy="152.4" r="8.3" transform="translate(120.9 442) rotate(-82.8)"/>
          <circle class="cls-1" cx="325.8" cy="191.9" r="5.9"/>
          <path class="cls-1" d="M303.4,155.3v.3c6.4,12.5,12,25.3,16.8,38.4h0s11.1-4.1,11.1-4.1h0c-3.3-13.7-7.3-27.1-12.1-40.2h0c0-.1-15.7,5.6-15.7,5.6Z"/>
        </g>
        <g>
          <circle class="cls-1" cx="325.7" cy="191.9" r="5.9"/>
          <circle class="cls-1" cx="288.5" cy="184.4" r="4.3"/>
          <path class="cls-1" d="M326.9,186.1c-3.1-.6-8.9-1.2-15.3-2.1-7.5-1-17.2-2.8-22.3-3.8l-1.7,8.4c10,2.6,24.9,6.3,36.9,9.1l2.3-11.6Z"/>
        </g>
        <path class="cls-6" d="M319.9,149.7c-.8-2.1-2.2-3.9-4.1-5-2.3-1.3-4.9-1.5-7.4-.6-4.7,1.7-7.2,7-5.4,11.7,2.1,4.6,9.5,21.5,12.7,29.1l14.6-5.2c-1.7-7.1-7.8-24.7-10.4-30.1Z"/>
        <path class="cls-6" d="M242.1,162.8l-10.3,8,3.3,7.2c1.9,4.2,7.1,5.8,11.1,3.4l5.3-3.2-.3-8.9-6.7-2.5-2.4-4Z"/>
        <path class="cls-6" d="M330.2,179.8l-10.4-.3-1.9,4.5-4.1-.2-.5,12.7,11.4,2.5c5.2,1.1,9.7-3.6,8.4-8.7l-2.8-10.4Z"/>
        <g>
          <polygon class="cls-7" points="317.4 183.8 318 196.7 317.6 197.5 313.3 196.4 313.8 183.7 317.4 183.8"/>
          <polygon class="cls-7" points="316.9 196.3 317.5 198.8 313.3 196.4 316.9 196.3"/>
          <polygon class="cls-7" points="313.8 183.7 317.1 183.2 315.9 185.2 313.8 183.7"/>
        </g>
        <path class="cls-20" d="M310.6,173.6c.3,0,.6-.3.6-.6v-9.3c0-.3-.3-.6-.6-.6s-.6.3-.6.6v9.3c0,.3.3.6.6.6Z"/>
        <polygon class="cls-1" points="297 137.8 289.5 136.3 281.6 138.2 281 146.6 285.8 147.9 293.4 147 297 137.8"/>
        <g>
          <polygon class="cls-1" points="296.4 143.2 282.1 143.5 282.1 138.3 281.8 116.4 296 116.2 296.1 125.6 296.4 143.2"/>
          <path class="cls-22" d="M296.1,125.6c-2.1,6-8,11.2-14,12.6l-.3-21.9,14.2-.2v9.5Z"/>
        </g>
        <path class="cls-7" d="M297.5,137.7c-.3-.4-.8-.8-1.2-.9.1,2.1-1.1,4.5-2.6,6.2-1.5,1.7-5.6,4.3-7.9,5l8.5,5.3c.8-1.3,3.6-8,4-9.8.5-2.1.4-4.3-.8-5.7Z"/>
        <path class="cls-7" d="M285.8,147.9c-3.5-3-3.6-7.6-3.8-10.2-1,.2-2.1,1.3-2.5,2.6-1,2.9-1,7.7-.5,11.4l6.7-3.8Z"/>
        <ellipse class="cls-22" cx="276.9" cy="121.3" rx="3.1" ry="3.4" transform="translate(-20.9 69.1) rotate(-13.7)"/>
        <path class="cls-1" d="M291.1,102.6c-7.5-1.4-13.2,1.5-15,7.6-1.5,5.3-1.3,13.2.5,18.4,1.5,4.4,5.1,6.9,8.9,6.6,3.8-.3,7.6-2.6,10-5.6,2.4-3,4.4-7,5.4-11.5,1.3-7.1-1.3-13.9-9.7-15.5Z"/>
        <path class="cls-17" d="M282.6,110c3.1,5.3,8.7,8.5,15.2,9.9l2.2,2.8c.6-1.4,1-3,1.3-4.5,1.2-6.6-.8-14.3-10.1-16.1-.6-.1-1.3-.2-1.8-.3-6.9-.7-12,2.4-13.7,8.2-.5,1.7-.8,3.9-1,6,.7-1,2.2-2.2,3.6-2.9,1.4-.6,3.3-2.1,4.2-3.2Z"/>
        <path class="cls-17" d="M298.6,117.8c-1.2,1.3-1.9,3-2.3,4.7-1.5-1.1-2.4-3.1-2-4.9,1.1-.4,2.1-.5,3.2-.3.1,0,.3,0,.4.1.1,0,.2.2.2.4,0,0,.5,0,.5.1Z"/>
        <path class="cls-1" d="M300.3,123.5c-.7,1.8-2.6,2.7-4.1,2-1.6-.6-2.3-2.6-1.5-4.3.7-1.8,2.6-2.7,4.1-2,1.6.6,2.3,2.6,1.5,4.3Z"/>
        <path class="cls-22" d="M295.7,122.7s0,0,0,0c-.2,0-.3-.2-.2-.3,0-.3.1-.6.3-.8.5-.9,1.5-1.4,2.5-1.2.2,0,.3,0,.5.2.3.1.5.4.7.7,0,.1,0,.3-.1.4-.1,0-.3,0-.4-.1-.1-.2-.3-.3-.5-.4,0,0-.2,0-.3-.1-.7-.1-1.4.2-1.8.9-.1.2-.2.4-.2.6,0,.2-.2.3-.3.3Z"/>
        <g>
          <path class="cls-17" d="M278.7,119.8c-.5-.1-1,.2-1.2.7-.1.5.2,1,.7,1.2.5.1,1-.2,1.2-.7.1-.5-.2-1-.7-1.2Z"/>
          <path class="cls-17" d="M286.3,120.1c-.5-.1-1,.2-1.2.7-.1.5.2,1,.7,1.2.5.1,1-.2,1.2-.7.1-.5-.2-1-.7-1.2Z"/>
          <path class="cls-17" d="M289.2,117.4c0-.2-.3-.3-.5-.4-1.1-.2-2.2-.1-3.3,0-.4,0-1.4.2-1.3.7,0,.3.7.6,1.1.6.8,0,1.7-.1,2.5-.2.5,0,1.6-.1,1.5-.8Z"/>
          <path class="cls-17" d="M275.5,116.7c0-.2.3-.3.6-.3,1.1,0,2.2,0,3.2.4.4.1,1.4.3,1.2.8-.1.3-.7.5-1.1.5-.8-.1-1.7-.3-2.5-.5-.5,0-1.6-.3-1.4-.9Z"/>
          <path class="cls-22" d="M281.1,126.5s0,0-.1,0c-.6-.3-.9-.7-1-1.1-.1-.4,0-.8.2-1.3.1-.3.3-.6.6-.9.3-.4.6-.9.8-1.4,0-.1.3-.2.4-.1.1,0,.2.3.1.4-.3.5-.6,1-.9,1.4-.2.3-.4.6-.5.9-.2.3-.2.6-.1.8,0,.3.4.5.8.8.1,0,.2.3.1.4,0,.1-.2.2-.3.2Z"/>
          <path class="cls-22" d="M282.5,128.7c-.5,0-1-.1-1.3-.3-.1,0-.2-.3,0-.4,0-.1.3-.2.4,0,.8.5,2.8.2,3.6-.6.1-.1.3-.1.4,0,.1.1.1.3,0,.4-.7.7-1.9,1.1-3,1Z"/>
        </g>
        <g>
          <circle class="cls-1" cx="225.3" cy="140.9" r="4.3"/>
          <path class="cls-1" d="M224.7,143.9c-1.5-.5-2.8-.7-4.6-.4-2.4.3-4.1,1-6.4.1-1.3-.5-2.5-1.2-3.7-1.8-1.5-.7-3.1-1.2-4.6-1.8-.9-.3-1.7-1.4-.3-1.8,1.1-.3,2.4,0,3.4.4-1.3-.8-2.6-1.6-3.8-2.6-.4-.4-.7-.9,0-1.3.2-.1.5-.1.7-.1,2.1,0,4.2,1.3,6.1,2.5l-1.3-1.6c-.2-.2-.4-.6-.3-.9.4-1,1.7.2,2.2.5.8.6,1.3,1,2.1,1.5.9.5,1.6,1,2.6.9,1.9-.3,2.9-1.1,4.9-1.3,1.6-.2,3.5,0,5,.5l-1.8,7.1Z"/>
          <path class="cls-1" d="M226.2,136.7c-.6-.2-1.9-1.3-3.5-1.5-.9-.1-1.9,0-2.7,0-1.1,0-3.3-.3-3.3-.3-.4,0-.9,0-1.1.4-.3.6.3,1.2,1,1.4l3.4.9.6.5,5.6-1.4Z"/>
        </g>
        <path class="cls-20" d="M322.8,186.3c0,0-.1,0-.2,0l-4.7-1.6c-.3-.1-.5-.4-.4-.8.1-.3.5-.5.8-.4l4.7,1.6c.3.1.5.4.4.8,0,.3-.3.4-.6.4Z"/>
        <path class="cls-20" d="M244.3,169.2c-.2,0-.5-.2-.6-.4l-1.1-3.2c-.1-.3,0-.7.4-.8.3-.1.7,0,.8.4l1.1,3.2c.1.3,0,.7-.4.8,0,0-.1,0-.2,0Z"/>
        <polygon class="cls-7" points="243.3 164.8 235.6 175 231.8 170.8 242.1 162.8 243.3 164.8"/>
        <path class="cls-6" d="M235.5,172.4c-.2,0-.5,0-.7,0-.3-.1-.5-.3-.6-.6-.1-.3-.1-.6,0-.9.1-.3.3-.5.6-.6.3-.1.6-.1.9,0,.6.2.9.9.7,1.5h0c-.1.3-.4.6-.8.7ZM235,170.8s0,0,0,0c-.1,0-.2.2-.3.3,0,.1,0,.3,0,.4,0,.1.2.2.3.3.3.1.6,0,.7-.3,0-.3,0-.6-.3-.7-.1,0-.2,0-.3,0Z"/>
        <path class="cls-20" d="M267.4,166.3c-.3,0-.5-.2-.6-.5,0-.1-.8-3.3-.3-6.4,0-.3.4-.5.7-.5.3,0,.5.4.5.7-.5,2.8.2,5.8.3,5.9,0,.3-.1.7-.4.7,0,0,0,0-.1,0Z"/>
        <g>
          <path class="cls-23" d="M281.5,191.4l-24.8-4.3c-.7-.1-1.2-.7-1.2-1.5l-2-20.6c-.1-1.3.9-2.4,2-2.3l24.8,4.3c.7.1,1.2.7,1.2,1.5l2,20.6c.1,1.3-.9,2.4-2,2.3Z"/>
          <path class="cls-7" d="M268.8,177c0,1.2-.7,2.3-1.8,2.5-1.1.1-1.9-.8-2-2s.7-2.3,1.8-2.5c1.1-.1,1.9.8,2,2Z"/>
          <path class="cls-7" d="M256.3,167.9c-.3,0-.6-.3-.6-.7,0-.2,0-.5.2-.6.1-.2.3-.3.5-.3.4,0,.7.3.7.7h0c0,.2,0,.5-.2.6-.1.2-.3.3-.5.3,0,0-.1,0-.1,0ZM256.5,166.5s0,0,0,0c-.1,0-.2,0-.3.2,0,.1-.1.3-.1.4,0,.3.2.5.5.5.1,0,.2,0,.3-.2,0-.1.1-.3.1-.4h0c0-.3-.2-.5-.4-.5Z"/>
        </g>
        <g>
          <circle class="cls-1" cx="288.5" cy="184.4" r="4.2"/>
          <path class="cls-1" d="M268.1,176.1c.2,0,.4,0,.6,0,.2,0,.5,0,.7.1.4,0,.8.2,1.2.4l.7.2c.9.3,1.8.6,2.7.7-1.2-.5-2.3-1-3.4-1.5l-.4-.2c-.9-.5-1-1-1-1.3,0-.5.6-.8,1-.8,0,0,.2,0,.3,0h.2c.2,0,.4.2.7.3,1.3.5,2.6.8,3.9,1.2,1,.3,2.1.6,3.1.9.5.2,1.1.4,1.8.4.7,0,1,.2,1.4-.1,0,0,.1,0,.1-.2,0,0,0-.2,0-.3v-3.7s0,0,0,0c0,0,.2.2.2.2l.5.4c.3.2.5.4.8.7l.8.7c.7.6,1.2,1.1,1.8,1.7.6.6.8,1.4,1.1,2.1.6,1.3,1.8,2.2,2.7,2.5l-2.5,8.1c-1.6-.6-3.1-1.2-4.3-1.1h-.5s-.8,0-.8,0c0,0-.6,0-.8,0,0,0-.3,0-.6,0h-.5c-.2-.1-.4-.2-.5-.2-1.1-.2-2.1-.6-2.9-.9-.4-.2-.9-.2-1.4-.3-.3,0-.6,0-.9-.1-.9-.2-1.7-.4-2.6-.7-.4-.1-.8-.2-1.1-.4-.2-.1-.3-.3-.5-.5-.2-.3-.2-.5-.2-.7,0-.1.1-.3.4-.4.2,0,.4,0,.7,0,0,0,.8,0,.8,0,.6,0,1.3.1,2,0-1.4-.3-2.8-.7-4.1-1.3-.7-.3-1.4-.7-1.7-1.5,0-.2,0-.4,0-.6,0-.2.3-.5.9-.5.2,0,.3,0,.4,0,.2,0,.5.2.7.2.6.2,1.3.4,1.9.5h.5c.2,0,1,.2,1.2.2,0,0,.2,0,.3,0-.6-.3-1.3-.5-2-.8-1-.4-1.9-.7-2.9-1.1-.5-.2-1.4-.6-1.6-1.3,0-.3,0-.7.3-.9,0,0,.2-.1.3-.2Z"/>
        </g>
        <g>
          <path class="cls-10" d="M282.8,130.8v-1s5.8-.1,5.8-.1c3.2,0,6.1-1.7,7.8-4.4l.8.5c-1.9,3-5.1,4.8-8.6,4.9h-5.8Z"/>
          <path class="cls-13" d="M299.6,123.4c-.5,2.6-2.1,4.4-3.6,4.1-1.4-.3-2.1-2.6-1.6-5.2.5-2.6,2.1-4.4,3.6-4.1,1.4.3,2.1,2.6,1.6,5.2Z"/>
          <path class="cls-21" d="M300.4,123.5c-.4,2-1.7,3.5-2.8,3.2s-1.7-2.1-1.2-4.1c.4-2,1.7-3.5,2.8-3.2s1.7,2.1,1.2,4.1Z"/>
          <path class="cls-13" d="M282.7,129.1h-1c-.7,0-1.2.4-1.2,1.1,0,.7.5,1.2,1.1,1.2h1c.7,0,1.2-.4,1.2-1.1,0-.7-.5-1.2-1.1-1.2Z"/>
        </g>
        <g>
          <g>
            <path class="cls-8" d="M211,118.6h0s0,0,0,0l1.9-2.9c1.3.9,2.8,1.4,4.5,1.4,4.3,0,7.8-3.5,7.8-7.8s-2.3-6.4-5.4-7.4l2.5-1.4h0s0-.2,0-.2l.4-2.3c.4.2.7.4,1.1.6l3-1.9h.1c.5.5,1.1,1,1.5,1.4.5.5.9,1,1.3,1.5h.1c0,.1-1.9,3.1-1.9,3.1.7,1.1,1.2,2.3,1.5,3.6l3.4.8v.2c.1.7.2,1.4.2,2s0,1.3-.1,2v.2s-3.5.8-3.5.8c-.3,1.3-.8,2.5-1.5,3.6l1.9,3h-.1c-.4.7-.9,1.2-1.3,1.7-.5.5-1,.9-1.5,1.3h-.1c0,.1-3-1.8-3-1.8-1.1.7-2.3,1.2-3.6,1.5l-.8,3.4h-.2c-.7.1-1.4.2-2,.2s-1.3,0-2-.1h-.2s-.8-3.5-.8-3.5c-1.3-.3-2.5-.8-3.6-1.5l-3,1.9h-.1c-.5-.5-1-.9-1.5-1.4l4.6-1.8Z"/>
            <path class="cls-8" d="M201.4,106.7v-.2s3.5-.8,3.5-.8c.3-1.3.8-2.5,1.5-3.6l-1.9-3h.1c.4-.7.9-1.2,1.3-1.7.5-.5,1-.9,1.5-1.3h.1c0-.1,3,1.8,3,1.8,1.1-.7,2.3-1.2,3.6-1.5l.8-3.4h.2c.7-.1,1.4-.2,2-.2s1.3,0,2,.1h.2s.8,3.5.8,3.5c.6.1,1.1.3,1.7.5v2.6c0,0-2.3,1.7-2.3,1.7-.7-.2-1.5-.4-2.4-.4-4.3,0-7.8,3.5-7.8,7.8s1.3,4.9,3.3,6.4l-2.3,2.5-5.2,1.4c-.2-.2-.4-.4-.5-.6h-.1c0-.1,1.9-3.1,1.9-3.1-.7-1.1-1.2-2.3-1.5-3.6l-3.4-.8v-.2c-.1-.7-.2-1.4-.2-2s0-1.3.1-2Z"/>
            <polygon class="cls-8" points="222.5 94.5 222.5 96.6 223.2 94.8 222.5 94.5"/>
            <polygon class="cls-8" points="205.5 119.8 202.7 120.6 203.1 121.3 205.5 119.8"/>
          </g>
          <path class="cls-8" d="M218.7,132v-1.2c1.3,0,2.7-.3,4-.6l.3,1.2c-1.4.4-2.8.6-4.3.7ZM215.4,131.9c-1.4-.1-2.9-.4-4.3-.8l.3-1.2c1.3.4,2.7.6,4.1.7v1.2ZM226.1,130.3l-.5-1.2c1.3-.5,2.5-1.2,3.6-1.9l.7,1c-1.2.8-2.5,1.5-3.8,2ZM208,130.1c-1.3-.6-2.6-1.3-3.8-2.1l.7-1c1.1.8,2.3,1.5,3.6,2l-.5,1.1ZM232.5,126.3l-.8-.9c1-.9,2-1.9,2.8-3l1,.8c-.9,1.1-1.9,2.2-3,3.2ZM201.7,125.9c-1.1-1-2-2.1-2.9-3.2l1-.7c.8,1.1,1.7,2.1,2.8,3.1l-.8.9ZM237.3,120.4l-1.1-.6c.7-1.2,1.3-2.5,1.7-3.7l1.2.4c-.5,1.4-1.1,2.7-1.8,4ZM197,119.9c-.7-1.3-1.3-2.6-1.7-4l1.2-.4c.4,1.3,1,2.6,1.6,3.8l-1.1.6ZM239.9,113.3l-1.2-.2c.3-1.3.4-2.7.4-4.1h.9c0,0,.4,0,.4,0,0,1.5-.1,2.9-.4,4.3ZM194.5,112.8c-.2-1.3-.3-2.6-.3-3.8v-.5s1.3,0,1.3,0v.5c0,1.2,0,2.4.3,3.6l-1.2.2ZM238.9,105.8c-.2-1.4-.5-2.7-1-4l1.2-.4c.5,1.4.8,2.8,1,4.2l-1.2.2ZM195.7,105.4l-1.2-.2c.2-1.4.6-2.9,1.1-4.2l1.2.4c-.5,1.3-.8,2.6-1,4ZM236.7,98.9c-.6-1.2-1.4-2.4-2.2-3.5l1-.8c.9,1.1,1.7,2.4,2.4,3.7l-1.1.6ZM198,98.6l-1.1-.6c.7-1.3,1.5-2.5,2.4-3.6l1,.8c-.9,1.1-1.6,2.2-2.3,3.4ZM232.4,93.2c-1-1-2.1-1.8-3.2-2.6l.7-1c1.2.8,2.4,1.7,3.4,2.7l-.9.9ZM202.4,92.9l-.8-.9c1.1-1,2.2-1.9,3.5-2.6l.7,1.1c-1.2.7-2.3,1.6-3.3,2.5ZM226.4,89.1c-1.2-.6-2.5-1-3.9-1.4l.3-1.2c1.4.4,2.8.8,4.1,1.4l-.5,1.1ZM208.4,89l-.5-1.1c1.3-.6,2.7-1.1,4.1-1.4l.3,1.2c-1.3.3-2.6.7-3.9,1.3ZM219.5,87.2c-1.4-.1-2.8-.1-4.1,0v-1.2c1.3-.1,2.8-.1,4.2,0v1.2Z"/>
        </g>
      </g>
      <g>
        <rect class="cls-4" x="161.1" y="30.4" width="124" height="44.6" rx="9.5" ry="9.5"/>
        <g>
          <circle class="cls-7" cx="181.4" cy="45.4" r="5.1"/>
          <path class="cls-7" d="M185.3,52.7h-7.8c-3.8,0-6.8,3.1-6.8,6.8v5.5h21.5v-5.5c0-3.8-3.1-6.8-6.8-6.8Z"/>
        </g>
        <rect class="cls-7" x="201.7" y="42" width="73.4" height="3.4" rx="1.7" ry="1.7"/>
        <g>
          <polygon class="cls-7" points="210.7 54.2 212.2 57.2 215.6 57.7 213.1 60.2 213.7 63.6 210.7 61.9 207.6 63.6 208.2 60.2 205.7 57.7 209.1 57.2 210.7 54.2"/>
          <polygon class="cls-7" points="223.9 54.2 225.4 57.2 228.8 57.7 226.3 60.2 226.9 63.6 223.9 61.9 220.8 63.6 221.4 60.2 218.9 57.7 222.3 57.2 223.9 54.2"/>
          <polygon class="cls-7" points="237 54.2 238.6 57.2 242 57.7 239.5 60.2 240.1 63.6 237 61.9 234 63.6 234.6 60.2 232.1 57.7 235.5 57.2 237 54.2"/>
          <polygon class="cls-7" points="250.2 54.2 251.8 57.2 255.2 57.7 252.7 60.2 253.3 63.6 250.2 61.9 247.2 63.6 247.8 60.2 245.3 57.7 248.7 57.2 250.2 54.2"/>
          <polygon class="cls-7" points="263.4 54.2 264.9 57.2 268.4 57.7 265.9 60.2 266.5 63.6 263.4 61.9 260.4 63.6 261 60.2 258.5 57.7 261.9 57.2 263.4 54.2"/>
        </g>
      </g>
    </g>
  </g>
</svg>