<?xml version="1.0" encoding="UTF-8"?>
<svg id="_レイヤー_2" data-name="レイヤー 2" xmlns="http://www.w3.org/2000/svg" viewBox="0 0 301 141.6">
  <defs>
    <style>
      .cls-1 {
        fill: #fffa43;
      }

      .cls-2 {
        fill: #033687;
      }
    </style>
  </defs>
  <g id="cta">
    <g>
      <rect class="cls-1" x="57.5" y="91.9" width="188" height="13"/>
      <g>
        <path class="cls-2" d="M32.7,36.9c3.9,1.4,8,3,10.6,4.1l-8,2.8c-2.3-1.3-6.7-3.4-10.9-4.9l3.9-2.1h-11.2l3.5,1.6c-3.7,2.3-9.6,4.4-14.2,5.6-1.1-1.3-3.3-3.6-4.7-4.7,3.6-.5,7.6-1.4,10.5-2.5h-4.6v-17.6h30.6v17.6h-5.4ZM43.1,18.2H1.9v-4.8h17.3v-1.2H8V3.3h11.3V1.1h6.5v2.2h11.9v8.9h-11.9v1.2h17.3v4.8ZM13.9,24.1h17.6v-1.3H13.9v1.3ZM13.9,28.7h17.6v-1.3H13.9v1.3ZM13.9,33.3h17.6v-1.3H13.9v1.3ZM19.3,8.5v-1.4h-5.2v1.4h5.2ZM25.7,7.1v1.4h5.4v-1.4h-5.4Z"/>
        <path class="cls-2" d="M62.8,32c-.8-1.1-1.9-2.6-3.1-4v16h-6.5v-14.5c-1.6,1.4-3.2,2.6-4.8,3.6-.5-1.8-2.1-5-3-6.3,4.6-2.4,9-6.6,11.8-11.4h-10v-5.9h6.1V1.2h6.5v8.2h1l1.1-.2,3.6,2.4c-1.3,3.4-3,6.6-5,9.5,2.2,1.8,5.4,4.6,6.3,5.5l-4,5.3ZM89.3,36.2v6.4h-25.7v-6.4h9.9v-15.3h-8v-6.3h8V1.6h6.8v13h8v6.3h-8v15.3h9.1Z"/>
        <path class="cls-2" d="M111,42.6l-3.5-5.5c1.6-.2,2.6-.4,3.7-.7,4.8-1.2,8.1-4.6,8.1-9.6s-2.4-8.4-6.8-9.4c-.5,3.1-1.2,6.4-2.2,9.9-2.2,7.6-5.7,12.7-10.1,12.7s-8.3-5.1-8.3-11.6,7.8-16.7,17.9-16.7,15.8,6.7,15.8,15.3-4.7,13.9-14.6,15.5ZM100.3,32.8c1.5,0,2.7-2.3,4-6.7.8-2.6,1.5-5.6,1.9-8.5-5.6,1.5-8.4,6.6-8.4,10.3s1.1,5,2.5,5Z"/>
        <path class="cls-2" d="M148,26.1c-.6,9-2.4,15-15.4,18-.6-1.7-2.2-4.3-3.6-5.7,11-2.1,11.7-5.8,12.2-12.4h6.8ZM146.8,10.2h-16.4v-5.9h16.4V1.2h6.8v3h16.9v5.9h-16.9v2h12.8v5.7h-31.6v-5.7h12v-2ZM163.8,29.6v-4.4h-26.8v4.4h-6.3v-10.2h39.7v10.2h-6.6ZM164.4,37.7c1.4,0,1.7-.7,1.8-5.1,1.3,1,4.1,2,5.8,2.4-.7,6.7-2.4,8.5-7.1,8.5h-5.4c-5.9,0-7.3-1.9-7.3-7.5v-9.9h6.6v9.9c0,1.5.3,1.7,1.8,1.7h3.7Z"/>
        <path class="cls-2" d="M184.4,26.8v10.5c0,2.8-.4,4.4-1.9,5.4-1.5,1-3.6,1.2-6.4,1.2-.2-1.6-.9-4.2-1.6-5.9,1.4,0,2.9,0,3.5,0s.7-.2.7-.8v-8.9l-3.6.9-1.4-6.3c1.4-.3,3.1-.6,5-1.1v-6.7h-4.1v-6h4.1V1.1h5.8v8.2h3.1v5.6h4.9v-3.8h-4.3v-5.1h4.3V1.1h5.8v5h4.3v5.1h-4.3v3.8h4.7v5.1h-15.6l.8,5.7-3.7,1ZM184.4,20.7l2.9-.7v-4.6h-2.9v5.3ZM203.1,34.6v5.2c-5.8.7-12.1,1.3-16.9,1.8l-.8-5.5c2-.1,4.4-.3,6.9-.5v-4.4h-4.7v-5.1h4.7v-4.9h5.8v4.9h4.5v5.1h-4.5v3.9l4.9-.5ZM213.9,28.1c-1-1.5-2.6-3.6-4.2-5.4v21.2h-6V1.1h6v14.3c2,1.6,6.7,5.9,7.8,7.1l-3.6,5.6Z"/>
        <path class="cls-2" d="M254.9,30.9c-1.6,2.2-3.1,4.5-4.5,6.2h9.2v5.6h-38.1v-5.6h8.1c-.8-1.9-2.1-4.5-3.4-6.4l3.3-1.4h-5.6v-5.6h12.9v-3.6h-7.7v-2c-2,1.4-4.1,2.7-6.3,3.9-.8-1.5-2.7-4-4.1-5.3,7.7-3.7,14.8-10.5,18-15.8h6.8c4.9,7,11.9,12.5,19.1,15.3-1.6,1.7-3.1,3.9-4.3,5.9-2.2-1.2-4.4-2.6-6.5-4.1v2.1h-8v3.6h13v5.6h-6.2l4.4,1.6ZM232,29.3c1.4,2.1,2.9,4.5,3.5,6.3l-3.3,1.4h4.5v-7.8h-4.7ZM247.2,14.5c-2.7-2.4-5.2-4.9-6.8-7.2-1.7,2.3-4,4.8-6.7,7.2h13.5ZM243.7,29.3v7.8h3.3l-2.4-1c1.3-1.8,2.8-4.5,3.7-6.8h-4.7Z"/>
        <path class="cls-2" d="M281.2,13.2c3.4-.2,7-.5,10.2-1.1v5.3c-3.6.5-8.2.8-12.3.9-.5,1-1,1.9-1.5,2.7.8-.2,2.7-.4,3.8-.4,2.2,0,4.1.9,5.1,2.7,1.5-.7,2.8-1.2,4.1-1.8,1.7-.7,3.2-1.4,4.9-2.2l2.2,5.3c-1.3.4-3.7,1.3-5.2,1.8-1.4.6-3.3,1.3-5.3,2.2,0,2.1.1,4.6.2,6.3h-5.5c0-1,.2-2.4.2-3.8-2.4,1.4-3.4,2.7-3.4,4.2s1.2,2.2,4.8,2.2,7.7-.5,11.1-1.2l-.2,5.9c-2.3.3-7.2.7-11,.7-6.2,0-10.7-1.6-10.7-6.7s4.5-8.1,8.7-10.3c-.6-.6-1.4-.8-2.1-.8-1.9,0-4.3,1.3-5.6,2.5-1.1,1.2-2.2,2.5-3.5,4.3l-4.9-3.7c3.6-3.2,6.3-6.3,8.1-9.8-1.6,0-4.3,0-6.3-.3v-5.3c1.9.3,4.8.5,6.8.5h1.5c.3-1.4.6-2.8.6-4.1l6.1.5c-.2.8-.4,2-.8,3.5Z"/>
        <path class="cls-2" d="M102.8,59.5v5.5h-39.7v-5.5h16.2v-3.5h6.7v3.5h16.8ZM101.6,92.3c0,2.8-.5,4.5-2.4,5.5-1.9,1-4.2,1.1-7.2,1.1-.1-1-.5-2.2-.9-3.4h-11.2v1.9h-5.6v-12.4h17.3v7.8c1.1,0,2.2,0,2.6,0,.6,0,.8-.1.8-.6v-8.7h-23.8v15.5h-6.4v-20.9h36.8v14.2ZM95.5,76.7h-25v-10.3h25v10.3ZM88.8,70.6h-12.2v1.8h12.2v-1.8ZM85.9,89.2h-6v1.9h6v-1.9Z"/>
        <path class="cls-2" d="M147.8,89.7h-15.2l4.7,3.1c-2.4,2.3-6.4,4.8-9.7,6.1-.7-.8-1.7-1.8-2.7-2.8v.3h-9.8v1.7h-5.4v-11.4h-.3c-.7-1.3-2.2-3.5-3.3-4.6,2.7-.9,5.3-2.2,7.6-3.9l-2.2-1.5c-.5.4-.9.7-1.3,1-.9-1-2.9-3-4-3.8,3.6-2,6.8-5.4,8.3-9l5.3,1.3c-.3.6-.5,1.2-.8,1.7h3.2l.9-.2,3.7,1.7c-1.1,3.1-2.6,5.8-4.5,8.2,2.2,1.4,4.3,2.9,5.8,4l-3.1,3.9v8.9c2.7-1.2,5.4-3,7-4.5h-3.4v-24.1h5.5c.1-.8.3-1.6.4-2.3h-6.9v4.2h-5.4v-2.7h-9.7v2.7h-5.2v-7.7h7v-3.4h6.1v3.4h7.1v-2h21.3v5.5h-7.3c-.3.8-.6,1.6-.9,2.3h7.5v24.1ZM119.3,88.5h-4.2v2.9h4.2v-2.9ZM115.9,72.1c-.2.3-.5.6-.7.9l2.4,1.5c.6-.8,1.2-1.6,1.8-2.4h-3.4ZM121.3,83.6c-.9-.7-2-1.4-3.1-2.2-.9.8-1.9,1.5-3,2.2h6ZM141.6,70.3h-7.3v1.9h7.3v-1.9ZM141.6,76.6h-7.3v1.9h7.3v-1.9ZM141.6,83h-7.3v1.9h7.3v-1.9ZM143,89.7c2.3,1.7,5.5,4.2,7.2,5.9l-5,3.3c-1.4-1.7-4.5-4.4-6.8-6.3l4.7-3Z"/>
        <path class="cls-2" d="M182.6,91.1c4.4,1.5,9,3.3,11.9,4.6l-7.2,3.2c-2.7-1.5-7.6-3.7-12.4-5.4l3.9-2.4h-11.5l4,1.8c-3.8,2.6-9.9,4.9-14.7,6.2-1.1-1.3-3.4-3.6-4.9-4.8,4.1-.7,8.5-1.8,11.7-3.2h-6v-20.1h31.5v20.1h-6.3ZM191.3,69.6h-36.3v-11.7h36.3v11.7ZM165.3,62.7h-4.3v2.2h4.3v-2.2ZM163.9,76.6h18.1v-1.5h-18.1v1.5ZM163.9,81.9h18.1v-1.5h-18.1v1.5ZM163.9,87.2h18.1v-1.6h-18.1v1.6ZM175,62.7h-4.3v2.2h4.3v-2.2ZM184.9,62.7h-4.5v2.2h4.5v-2.2Z"/>
        <path class="cls-2" d="M238.5,62.5c-.8,10-2.8,17.9-6,24,2.1,2.8,4.6,5.1,7.6,6.7-1.5,1.2-3.5,3.7-4.5,5.4-2.7-1.7-5-3.8-7.1-6.2-2.1,2.5-4.5,4.5-7.3,6.3-.8-1.3-2.1-3.2-3.4-4.5v4.6h-6.3v-6.7c-5,.9-10,1.6-14.1,2.3l-1.2-6.5c1.2-.1,2.6-.3,4-.4v-23h-2.9v-6h23.1v3.1h12.6l1.1-.2,4.3,1ZM206.4,64.5v3.3h5.1v-3.3h-5.1ZM206.4,77.2h5.1v-3.6h-5.1v3.6ZM211.5,86.1v-3.1h-5.1v3.8l5.1-.7ZM217.8,92.9c2.6-1.6,4.9-3.7,6.8-6.4-2.6-4.9-4.4-10.7-5.8-17.2l6.3-1.2c.8,4,1.8,7.8,3.3,11.3,1.3-3.4,2.3-7.2,3-11.4h-12.3v-3.5h-1.3v28.4Z"/>
      </g>
    </g>
  </g>
</svg>