<?xml version="1.0" encoding="UTF-8"?>
<svg id="_レイヤー_2" data-name="レイヤー 2" xmlns="http://www.w3.org/2000/svg" viewBox="0 0 825.7 77.1">
  <defs>
    <style>
      .cls-1 {
        fill: #205ace;
      }
    </style>
  </defs>
  <g id="contents">
    <g>
      <path class="cls-1" d="M49.9,39.4c2.6,3.4,7.2,11.5,8.4,14.7-1.1.5-6.7,3.5-8.7,4.9-.4-.8-1.7-4.1-2-4.8-1.3,7.1-3.4,9.2-10.6,9.2h-12.9c-4.9,0-7.3-2.1-7.3-6.5v-10.9h-.5c-1.1,4.2-2.4,9.2-5.4,14.6-6-3-7.5-3.5-9.6-4,1.3-2,5-9.1,5.7-14.8l9.8,2.5v-3.5l10.4.7c-.7-.9-.8-1-1.1-1.5l5-2.8H7.2v-9h17.5v-4.7H2.5v-9.1h22.3v-5.9l10.8.4c.7,0,1.4.2,1.4.9s-.9,1.1-1.8,1.3v3.3h22.3v9.1h-22.3v4.7h17.5v9h-17c1.8,2.2,4.7,6.5,5.6,8.5-2.9,1.6-7.4,3.9-8.9,4.8-1.5-3.5-2.8-5.4-4.4-7.9-.3.3-.6.5-1.1.7v8.9c0,.9,0,2.3,2.3,2.3h5.5c1.6,0,3.2,0,3.7-5.7,1.7,1.2,6,2.8,8.1,3.2-1.7-3.2-4-6.2-5.3-7.7l8.8-5Z"/>
      <path class="cls-1" d="M102.7,35.6h13.5v8.5h-20.9c0,.1.2.2.2.4,0,.7-.9.9-1.9,1.1v8.4h9.6v-8.3l10.4.5c.3,0,1.1,0,1.1.9s-.4.8-1.7,1.4v15.4h-9.9v-1.4h-29v1.4h-10v-18.4l10.9.6c.6,0,1,.4,1,.8,0,.9-1.2,1.1-1.9,1.3v5.7h9.4v-9.9h-22.5v-8.5h6.9V10.3c1.9.2,4.1.5,5.1.5s2.2.2,3.7.2c15.4,0,25.4-2.6,27.4-3.3l6.8,6.6c.2.2.4.5.4.8,0,.5-.4.7-1,.7s-1-.1-1.7-.5c-8.8,2.5-21.1,3.4-30.4,3.7v2.2h35v8.3h-10.5v6ZM92.6,29.6h-14.4v6h14.4v-6Z"/>
      <path class="cls-1" d="M135,25.5c.4,0,.8.3.8.7,0,.6-.8.8-1.4,1-1.8,5.1-2.5,12.3-2.5,16.8s0,2.6.3,4.9c.6-1,1.3-2.2,1.9-3.5.5.7,1.7,2.3,3.5,4.3-2.5,4-3.8,8.4-3.7,12.2l-7,1.2c-1.8-6.4-2.3-12.9-2.3-19.6,0-10.5,1.7-17.4,2.5-20.3l8.1,2.4ZM157.3,24.2c.4,0,.9.1.9.6s-.6.9-1.2,1.1c-.2.9-.4,2-.4,4.7,3.8-.7,5.2-1.3,6.2-1.7l.2,7.7c-1.1.4-2.8.9-6.4,1.5,0,4.8.6,9.9.6,10.6,2.5,1,6.2,2.7,8.2,4.7-2.3,3.9-2.5,4.3-3.7,7-.8-.7-2.7-2.3-4.6-3.4-.3,1.6-1.2,6.1-9.2,6.1s-10.5-6.2-10.5-8.2c0-6.3,6.8-7.9,10.4-7.9s1,0,1.5,0c-.3-3.9-.3-4.3-.5-8.2-3.4.3-5.6.3-6.1.3s-1.7,0-3-.1v-7.8c2.2.4,3.8.4,5.5.4s2.6,0,3.3,0c0-1.4,0-7.5-.2-8.8l8.9,1.2ZM146.9,53.4c-.5,0-2.5,0-2.5,1.6s2.1,1.5,2.5,1.5,3.2,0,2.9-2.5c-.6-.2-1.5-.6-2.9-.6Z"/>
      <path class="cls-1" d="M213,63.1h-40.8c.6-9.3,3.9-15.6,17.5-25.7,8.7-6.4,10.7-8,10.7-11.7s-4.3-6.2-7.1-6.2c-6.9,0-7.2,5.1-7.5,10.3h-12.7c.3-7.5,1.4-21.5,21-21.5s18.8,4.2,18.8,17.1-3.6,11.1-9.8,15.4c-9.2,6.6-10.6,8.4-12.8,11.6h22.5v10.6Z"/>
      <path class="cls-1" d="M251.7,25.1V8.7l11.2.5c.5,0,.9.2.9.8s-1,1.1-1.4,1.2v13.9h9.3v9.6h-9.3v18.3h10.8v9.6h-35.6v-9.6h14.1v-18.3h-9v-6.8c-1.3,2.3-1.9,3.4-4,6.1,2,2.2,4.6,4.8,7.9,7.1-1.6,1.5-4.8,5.1-6.2,7.2-1-.8-2.5-1.9-5.4-5.2v20.8h-10.3v-15.3c-1.4,1.1-2.5,1.9-3.7,2.8-.8-2.4-3.5-6.6-5.2-8.4,9.4-5.8,13.3-11.2,14.7-14.4h-12.2v-9.2h6.4v-10.5l10.5.4c.6,0,1.1.2,1.1.9s-.7,1-1.3,1.3v8h6.2l4.1,3.7c-.7,1.3-.7,1.4-1,2h7.5Z"/>
      <path class="cls-1" d="M304.1,9.7v21.7h-15.9v32.5h-9.5V9.7h25.4ZM295.1,18.1v-2.3h-7.1v2.3h7.1ZM288,22.9v2.5h7.1v-2.5h-7.1ZM318.1,58.1h-17.1v1.9h-8.7v-26.4h25.7v20.8c1.8.4,2.5.4,2.7.4,1.6,0,1.6-1.3,1.6-1.7v-21.7h-15.7V9.7h25.4v47.1c0,2.7-.5,7.6-11.9,7.1-.1-1.7-.2-3.4-2-6.9v1.1ZM309.4,42.7v-2.6h-8.4v2.6h8.4ZM301.1,48.6v2.6h8.4v-2.6h-8.4ZM322.7,17.9v-2.2h-7.1v2.2h7.1ZM315.6,22.9v2.3h7.1v-2.3h-7.1Z"/>
      <path class="cls-1" d="M379.8,12.1c1.7,0,3.1,0,4.1-.5l7.7,5.4c-1,1.5-1.1,1.6-1.9,3.9-6.2,16.7-11.4,29.9-34.4,41.9-2.1-3.1-6.2-7.1-8.3-8.9,21.1-8.1,27.1-22.4,30.2-31.4h-35.5v-10.4h38.1Z"/>
      <path class="cls-1" d="M428.8,32.4c.7,0,1.3,0,1.3.7s-.4.6-1.1,1.2c-.1,1.7-.2,2.8-.4,4.6,3-2.8,4.8-5,6.8-8.3h-30.6v-9h34.8c1.1,0,2-.2,3.1-.8l6.1,5.1c-.2.4-2.6,4.2-3.9,6.3-3.8,6-6.5,9.7-10.2,13.6-2.2-2.2-5.4-4.6-6.2-5.1-.5,3.6-2.1,14.5-14,21.9-2.9-2.9-4.8-4.3-7.8-6,8.4-4.5,12.9-10.3,12.9-21.9s0-1.9-.1-2.7l9.3.5Z"/>
      <path class="cls-1" d="M494.1,18.1c2,0,3.1-.5,3.8-.8l5.9,4.5c-.6,1.1-.7,1.3-1.9,3.7-.6,1.3-3.4,8.1-4,9.5-9,20.5-23.4,27.7-27.5,29.9-3.1-4-7.4-7.1-8.7-8.1,17.5-7.1,24.3-20.8,27.4-28.6h-15c-3.7,5.2-7.8,10-12.6,14.3-4.3-4.4-6.9-6.2-8.6-7.2,10.6-8.9,17.4-19.6,19.6-26.6l10.4,4.3c.4.2.9.4.9,1,0,.8-1.2,1-1.7,1.1-.8,1.7-1.2,2.3-1.7,3.3h13.6Z"/>
      <path class="cls-1" d="M532.3,30.2c2.3,1.1,4.4,2.1,9.1,5.1,2.6-4.1,3.6-6.8,4.1-8.4h-13.9c-3.7,4.9-7.8,9.4-12.6,13.2-3.2-3.1-5.4-4.8-8.6-7,9.1-6.3,16.5-16.5,19.6-24.7l10.7,3.2c.5.2,1.1.4,1.1.9,0,.8-1.3,1-1.9,1.1-.8,1.5-1.2,2.4-2.1,3.8h12.2c2.5,0,3.6-.4,4.5-.8l5,4.1c-.5.8-.7,1.3-1.3,2.7-2.8,7.2-4.8,11.9-8.5,17.8,3.8,3,5,4.4,5.9,5.3-2.5,2.8-5.5,7-6.8,9-1.2-1.4-2.5-2.9-5.7-5.8-7.7,8.2-16.6,12.2-20.6,14-2-3.2-4.9-6.5-7.7-9,7.5-2,15-6.6,19.9-11.4-4.5-3.1-7.5-4.6-9.2-5.5l6.5-7.6Z"/>
      <path class="cls-1" d="M579.4,10.8c.8,0,1.4,0,1.4.8s-.4.8-1.4,1.4v28.8h-11.1V10.4l11.1.4ZM607.5,10.2c1,0,1.4.2,1.4.8s-.7,1-1.4,1.4v19c0,16.4-8.2,26.8-23,32.3-1.4-2.7-4.4-6.2-7.7-8.7,17.6-5,19.3-15.6,19.3-25.2V9.7l11.4.5Z"/>
      <path class="cls-1" d="M625.8,10.8c5.4,2.7,11.6,6.4,15.3,9.8-2.8,3.1-5.3,7.2-6.5,9.2-4.4-4-9.8-7.5-15.1-9.9l6.3-9ZM620.5,51.4c17.7-3.6,35.7-17.3,44.4-32.6,3.1,5.1,4.6,7.2,6.6,9.6-8.6,13.8-24.7,26.6-43.1,33.2,0,.7-.2,1.6-1.1,1.6s-.8-.5-1.1-1l-5.8-10.8Z"/>
      <path class="cls-1" d="M718.4,17.9c.3,0,1.7,0,4-.9l5.7,4.6c-.9,1.3-1.1,1.8-5.3,12-6,14.8-17.8,26.3-27.9,30.8-1.6-1.8-7.4-7.1-9-8.1,7-3.1,20.4-9.2,27.4-28.4h-14.9c-5,6.9-8.5,10.5-12.4,14-2.1-2.1-6-5.3-8.8-7,4.5-3.2,14.7-13.2,20-26.6l10.1,4.1c.8.4,1.1.7,1.1,1.1,0,.8-1.1,1-1.7,1.1-1,1.7-1.3,2.4-1.9,3.4h13.5ZM716.8,7.2c1.6,1.4,4.4,4.2,5.9,6-1.2.8-3.7,2.5-4.9,3.6-.7-.7-2.9-3.5-6-6.1l5-3.5ZM726.2,6.5c2.2,2.1,4.5,4.7,6,6.7-1.4.8-3.7,2.5-5.1,3.5-.5-.7-2.7-4.2-5.6-6.8l4.8-3.4Z"/>
      <path class="cls-1" d="M776.9,31.5c-14,.9-20.5,11.1-20.5,16.5s8.2,7.6,12.8,7.7c-1.2,2.9-2.4,6.4-3.1,8.9-2.2-.4-18.4-3.3-18.4-15.5s7.6-14.7,8.4-15.3c-6.3.5-10.8,1.2-18.8,2.4l-1.2-9.4c13.5.4,34-2.1,39.7-4.1l1.2,8.8ZM769.1,36.8c1,1,3.5,4.1,4.3,5.3-.6.4-2.4,1.8-3.6,2.8-2.9-3.8-3.2-4.2-4.2-5.3l3.5-2.8ZM773.8,33.7c1.9,1.6,3.9,4.5,4.3,5.1-2.1,1.7-2.4,1.9-3.5,2.8-.7-1.2-2.7-3.8-4.3-5.3l3.5-2.6Z"/>
      <path class="cls-1" d="M808.3,22.4c.5,0,1.1,0,1.1.6s-.5.7-.9.9c0,1.3-.1,2-.2,2.9,2.3,0,12.6-.4,14.6-.5,0,1.4,0,3.1,0,4.1,0,2.2,0,2.7.1,3.6-2.1,0-8.2-.2-9-.2s-2.9,0-5.8.1c0,3.5,0,3.8,0,5.2,1.9,2.3,2.6,5.9,2.6,9,0,6.9-3.8,13.5-11.5,17.4-1.8-2.3-4.6-4.4-6.5-5.5,1.2-.4,6.9-2.3,8.7-6.1-.4.3-1.3,1.2-3.8,1.2-7.5,0-7.5-7.9-7.5-9,0-5.6,3.5-9.9,9.2-9.9s.6,0,1,0c0-.7,0-.9,0-2.1-4.3,0-11.1.6-18.3,1.7l-.4-8.1c1.7,0,2.7,0,18.5-.6-.1-3.2-.4-4.6-.6-5.5l8.8.7ZM797.5,46c0,2.5,1.3,3.3,2.2,3.3,1.6,0,2.2-2,2.2-3.8s-.9-2.8-2-2.8-2.3,1.1-2.3,3.3Z"/>
    </g>
  </g>
</svg>