<?xml version="1.0" encoding="UTF-8"?>
<svg id="_レイヤー_2" data-name="レイヤー 2" xmlns="http://www.w3.org/2000/svg" viewBox="0 0 331.2 100.2">
  <defs>
    <style>
      .cls-1 {
        fill: #205ace;
      }
    </style>
  </defs>
  <g id="contents">
    <g>
      <path class="cls-1" d="M86.1,26.6c1.7,2.3,4.9,7.8,5.7,9.9-.7.3-4.5,2.3-5.9,3.3-.2-.5-1.2-2.8-1.4-3.2-.9,4.8-2.3,6.2-7.2,6.2h-8.7c-3.3,0-4.9-1.4-4.9-4.4v-7.4h-.4c-.7,2.8-1.6,6.2-3.7,9.9-4.1-2-5.1-2.4-6.5-2.7.9-1.3,3.4-6.1,3.9-10l6.6,1.7v-2.3l7,.4c-.5-.6-.5-.7-.8-1l3.4-1.9h-16.1v-6.1h11.8v-3.2h-15v-6.1h15v-4l7.3.2c.4,0,1,.1,1,.6s-.6.7-1.2.9v2.2h15v6.1h-15v3.2h11.8v6.1h-11.5c1.2,1.5,3.2,4.4,3.8,5.7-2,1.1-5,2.6-6,3.2-1-2.3-1.9-3.6-3-5.3-.2.2-.4.3-.7.4v6c0,.6,0,1.6,1.6,1.6h3.7c1.1,0,2.2,0,2.5-3.8,1.1.8,4.1,1.9,5.5,2.2-1.1-2.1-2.7-4.2-3.6-5.2l5.9-3.4Z"/>
      <path class="cls-1" d="M121.7,24.1h9.1v5.7h-14.1c0,0,.1.2.1.3,0,.5-.6.6-1.3.7v5.7h6.5v-5.6l7,.4c.2,0,.8,0,.8.6s-.3.6-1.1.9v10.4h-6.7v-1h-19.6v1h-6.8v-12.4l7.4.4c.4,0,.6.3.6.6,0,.6-.8.8-1.3.9v3.9h6.3v-6.7h-15.2v-5.7h4.7V7c1.3.1,2.8.3,3.4.3s1.5.1,2.5.1c10.4,0,17.1-1.7,18.5-2.2l4.6,4.5c.2.2.2.4.2.5,0,.3-.3.5-.6.5s-.6,0-1.1-.3c-5.9,1.7-14.2,2.3-20.5,2.5v1.5h23.6v5.6h-7.1v4.1ZM114.9,20h-9.7v4.1h9.7v-4.1Z"/>
      <path class="cls-1" d="M143.5,17.3c.2,0,.5.2.5.5,0,.4-.6.6-1,.7-1.2,3.5-1.7,8.3-1.7,11.3s0,1.7.2,3.3c.4-.7.9-1.5,1.3-2.3.3.5,1.1,1.6,2.4,2.9-1.7,2.7-2.6,5.7-2.5,8.2l-4.8.8c-1.2-4.3-1.6-8.7-1.6-13.2,0-7.1,1.2-11.8,1.7-13.7l5.4,1.6ZM158.6,16.3c.3,0,.6,0,.6.4s-.4.6-.8.7c-.1.6-.2,1.3-.3,3.2,2.6-.5,3.5-.9,4.2-1.2l.2,5.2c-.7.2-1.9.6-4.4,1,0,3.2.4,6.7.4,7.2,1.7.7,4.2,1.8,5.6,3.2-1.5,2.6-1.7,2.9-2.5,4.7-.5-.5-1.8-1.6-3.1-2.3-.2,1.1-.8,4.1-6.2,4.1s-7.1-4.2-7.1-5.5c0-4.3,4.6-5.4,7-5.4s.7,0,1,0c-.2-2.6-.2-2.9-.3-5.5-2.3.2-3.8.2-4.1.2s-1.1,0-2,0v-5.3c1.5.2,2.6.3,3.7.3s1.8,0,2.2,0c0-.9,0-5.1-.1-5.9l6,.8ZM151.6,36.1c-.3,0-1.7,0-1.7,1.1s1.4,1,1.7,1,2.1,0,2-1.7c-.4-.2-1-.4-1.9-.4Z"/>
      <path class="cls-1" d="M196.2,42.6h-27.5c.4-6.3,2.6-10.6,11.9-17.4,5.9-4.3,7.2-5.4,7.2-7.9s-2.9-4.2-4.8-4.2c-4.7,0-4.9,3.4-5,6.9h-8.6c.2-5.1,1-14.5,14.2-14.5s12.7,2.8,12.7,11.5-2.4,7.5-6.6,10.4c-6.2,4.4-7.2,5.7-8.7,7.8h15.2v7.2Z"/>
      <path class="cls-1" d="M222.3,16.9V5.9l7.6.3c.3,0,.6.1.6.5s-.6.7-1,.8v9.4h6.3v6.5h-6.3v12.4h7.3v6.5h-24.1v-6.5h9.5v-12.4h-6.1v-4.6c-.8,1.5-1.3,2.3-2.7,4.1,1.4,1.5,3.1,3.2,5.3,4.8-1.1,1-3.3,3.5-4.2,4.9-.7-.5-1.7-1.3-3.7-3.5v14h-7v-10.3c-.9.8-1.7,1.3-2.5,1.9-.5-1.6-2.4-4.4-3.5-5.7,6.3-3.9,9-7.6,9.9-9.7h-8.2v-6.2h4.3v-7.1l7.1.2c.4,0,.8.2.8.6s-.5.7-.9.8v5.4h4.2l2.8,2.5c-.4.8-.5,1-.7,1.3h5.1Z"/>
      <path class="cls-1" d="M257.7,6.5v14.7h-10.7v21.9h-6.4V6.5h17.1ZM251.6,12.2v-1.5h-4.8v1.5h4.8ZM246.8,15.4v1.7h4.8v-1.7h-4.8ZM267.2,39.2h-11.5v1.3h-5.9v-17.8h17.4v14.1c1.2.2,1.7.3,1.8.3,1.1,0,1.1-.8,1.1-1.2v-14.6h-10.6V6.5h17.1v31.8c0,1.8-.4,5.1-8,4.8,0-1.1-.2-2.3-1.4-4.7v.8ZM261.3,28.8v-1.8h-5.7v1.8h5.7ZM255.7,32.8v1.8h5.7v-1.8h-5.7ZM270.3,12.1v-1.5h-4.8v1.5h4.8ZM265.5,15.4v1.6h4.8v-1.6h-4.8Z"/>
      <path class="cls-1" d="M30,59.9c1.2,0,2.1,0,2.8-.4l5.2,3.6c-.7,1-.7,1.1-1.3,2.6-4.2,11.3-7.7,20.2-23.3,28.3-1.4-2.1-4.2-4.8-5.6-6,14.2-5.5,18.3-15.1,20.4-21.2H4.3v-7h25.8Z"/>
      <path class="cls-1" d="M63.1,73.6c.5,0,.9,0,.9.5s-.2.4-.7.8c0,1.1-.1,1.9-.2,3.1,2-1.9,3.3-3.4,4.6-5.6h-20.7v-6.1h23.5c.8,0,1.4-.1,2.1-.5l4.1,3.4c-.1.2-1.7,2.8-2.6,4.2-2.5,4.1-4.4,6.6-6.9,9.2-1.5-1.5-3.7-3.1-4.2-3.4-.4,2.4-1.4,9.8-9.5,14.8-2-1.9-3.2-2.9-5.3-4,5.7-3,8.7-7,8.7-14.8s0-1.3,0-1.8l6.3.3Z"/>
      <path class="cls-1" d="M107.2,63.9c1.3,0,2.1-.3,2.5-.6l4,3c-.4.7-.5.9-1.3,2.5-.4.9-2.3,5.5-2.7,6.4-6.1,13.8-15.8,18.7-18.6,20.2-2.1-2.7-5-4.8-5.9-5.5,11.8-4.8,16.4-14.1,18.5-19.3h-10.1c-2.5,3.5-5.3,6.8-8.5,9.6-2.9-3-4.7-4.2-5.8-4.9,7.2-6,11.8-13.3,13.2-18l7,2.9c.2.1.6.3.6.6,0,.6-.8.7-1.1.7-.6,1.1-.8,1.6-1.1,2.2h9.2Z"/>
      <path class="cls-1" d="M133.1,72.1c1.5.7,3,1.4,6.1,3.5,1.7-2.7,2.4-4.6,2.8-5.7h-9.4c-2.5,3.3-5.3,6.3-8.5,8.9-2.2-2.1-3.6-3.2-5.8-4.7,6.1-4.3,11.2-11.2,13.3-16.7l7.2,2.1c.4.1.8.2.8.6,0,.6-.8.7-1.3.7-.5,1-.8,1.6-1.4,2.6h8.2c1.7,0,2.4-.3,3-.5l3.4,2.8c-.3.6-.5.8-.8,1.8-1.9,4.9-3.3,8-5.7,12,2.5,2,3.4,3,4,3.6-1.7,1.9-3.7,4.7-4.6,6.1-.8-1-1.7-2-3.8-3.9-5.2,5.5-11.2,8.2-13.9,9.5-1.3-2.2-3.3-4.4-5.2-6.1,5.1-1.4,10.1-4.5,13.5-7.7-3-2.1-5.1-3.1-6.2-3.7l4.4-5.1Z"/>
      <path class="cls-1" d="M164.8,59c.5,0,1,0,1,.5s-.2.6-1,.9v19.4h-7.5v-21.1l7.5.2ZM183.8,58.6c.6,0,1,.2,1,.5s-.4.7-1,1v12.8c0,11.1-5.5,18.1-15.5,21.8-1-1.8-3-4.2-5.2-5.9,11.9-3.4,13-10.5,13-17v-13.5l7.7.3Z"/>
      <path class="cls-1" d="M196.2,59c3.6,1.8,7.8,4.3,10.3,6.6-1.9,2.1-3.6,4.9-4.4,6.2-3-2.7-6.6-5.1-10.2-6.7l4.3-6.1ZM192.6,86.4c12-2.4,24.1-11.7,30-22,2.1,3.5,3.1,4.9,4.4,6.5-5.8,9.3-16.7,18-29.1,22.4,0,.4-.1,1.1-.7,1.1s-.6-.3-.7-.6l-3.9-7.3Z"/>
      <path class="cls-1" d="M258.8,63.8c.2,0,1.1,0,2.7-.6l3.9,3.1c-.6.9-.8,1.2-3.6,8.1-4.1,10-12,17.8-18.8,20.8-1.1-1.2-5-4.8-6.1-5.5,4.7-2.1,13.7-6.2,18.5-19.2h-10.1c-3.4,4.7-5.7,7.1-8.4,9.4-1.4-1.4-4.1-3.6-5.9-4.7,3-2.2,9.9-8.9,13.5-18l6.8,2.7c.6.2.7.4.7.8,0,.6-.7.7-1.1.7-.6,1.2-.9,1.6-1.3,2.3h9.1ZM257.6,56.6c1.1.9,3,2.8,4,4.1-.8.5-2.5,1.7-3.3,2.4-.4-.5-2-2.3-4.1-4.1l3.4-2.4ZM264,56.1c1.5,1.4,3,3.2,4,4.5-1,.6-2.5,1.7-3.5,2.3-.3-.5-1.8-2.8-3.8-4.6l3.2-2.3Z"/>
      <path class="cls-1" d="M298.2,73c-9.5.6-13.8,7.5-13.8,11.1s5.5,5.2,8.6,5.2c-.8,1.9-1.6,4.3-2.1,6-1.5-.2-12.4-2.2-12.4-10.5s5.1-10,5.7-10.3c-4.3.3-7.3.8-12.7,1.6l-.8-6.3c9.1.2,23-1.4,26.8-2.8l.8,5.9ZM293,76.5c.7.7,2.4,2.7,2.9,3.5-.4.2-1.6,1.2-2.4,1.9-2-2.6-2.2-2.8-2.9-3.5l2.4-1.9ZM296.1,74.4c1.3,1.1,2.6,3,2.9,3.5-1.4,1.1-1.6,1.3-2.4,1.9-.5-.8-1.8-2.6-2.9-3.6l2.3-1.7Z"/>
      <path class="cls-1" d="M319.4,66.8c.3,0,.7,0,.7.4s-.3.5-.6.6c0,.9,0,1.3-.1,2,1.6,0,8.5-.2,9.9-.3,0,1,0,2.1,0,2.8,0,1.5,0,1.8,0,2.4-1.4,0-5.5-.1-6.1-.1s-2,0-3.9,0c0,2.3,0,2.6,0,3.5,1.3,1.6,1.7,4,1.7,6.1,0,4.6-2.6,9.1-7.8,11.7-1.2-1.6-3.1-3-4.4-3.7.8-.3,4.7-1.5,5.9-4.1-.2.2-.9.8-2.6.8-5.1,0-5.1-5.3-5.1-6.1,0-3.8,2.4-6.7,6.2-6.7s.4,0,.7,0c0-.5,0-.6,0-1.4-2.9,0-7.5.4-12.4,1.1l-.3-5.4c1.2,0,1.8,0,12.5-.4,0-2.1-.2-3.1-.4-3.7l5.9.5ZM312.1,82.8c0,1.7.9,2.2,1.5,2.2,1.1,0,1.5-1.4,1.5-2.6s-.6-1.9-1.4-1.9-1.6.7-1.6,2.2Z"/>
    </g>
  </g>
</svg>