<?xml version="1.0" encoding="UTF-8"?>
<svg id="_レイヤー_2" data-name="レイヤー 2" xmlns="http://www.w3.org/2000/svg" viewBox="0 0 125 85">
  <defs>
    <style>
      .cls-1 {
        fill: #736357;
        opacity: 0;
      }

      .cls-2 {
        fill: #fc0;
      }

      .cls-3 {
        fill: #fff;
      }

      .cls-4 {
        fill: #1a1a1a;
      }
    </style>
  </defs>
  <g id="contents">
    <g>
      <rect class="cls-1" width="125" height="85"/>
      <g>
        <g>
          <rect class="cls-3" x="29.4" y=".8" width="66.3" height="83.4"/>
          <path class="cls-4" d="M95.6,85H29.4c-.4,0-.8-.4-.8-.8V.8c0-.4.4-.8.8-.8h66.3c.4,0,.8.4.8.8v83.4c0,.4-.4.8-.8.8ZM30.2,83.4h64.7V1.6H30.2v81.8Z"/>
        </g>
        <g>
          <rect class="cls-2" x="38.1" y="27.6" width="24.4" height="9.8"/>
          <path class="cls-4" d="M62.5,38.2h-24.4c-.4,0-.8-.4-.8-.8v-9.8c0-.4.4-.8.8-.8h24.4c.4,0,.8.4.8.8v9.8c0,.4-.4.8-.8.8ZM38.9,36.6h22.8v-8.2h-22.8v8.2Z"/>
        </g>
        <g>
          <rect class="cls-2" x="62.5" y="27.6" width="24.4" height="9.8"/>
          <path class="cls-4" d="M86.9,38.2h-24.4c-.4,0-.8-.4-.8-.8v-9.8c0-.4.4-.8.8-.8h24.4c.4,0,.8.4.8.8v9.8c0,.4-.4.8-.8.8ZM63.3,36.6h22.8v-8.2h-22.8v8.2Z"/>
        </g>
        <g>
          <rect class="cls-3" x="38.1" y="37.4" width="24.4" height="9.8"/>
          <path class="cls-4" d="M62.5,47.9h-24.4c-.4,0-.8-.4-.8-.8v-9.8c0-.4.4-.8.8-.8h24.4c.4,0,.8.4.8.8v9.8c0,.4-.4.8-.8.8ZM38.9,46.3h22.8v-8.2h-22.8v8.2Z"/>
        </g>
        <g>
          <rect class="cls-3" x="62.5" y="37.4" width="24.4" height="9.8"/>
          <path class="cls-4" d="M86.9,47.9h-24.4c-.4,0-.8-.4-.8-.8v-9.8c0-.4.4-.8.8-.8h24.4c.4,0,.8.4.8.8v9.8c0,.4-.4.8-.8.8ZM63.3,46.3h22.8v-8.2h-22.8v8.2Z"/>
        </g>
        <g>
          <rect class="cls-3" x="38.1" y="47.1" width="24.4" height="9.8"/>
          <path class="cls-4" d="M62.5,57.7h-24.4c-.4,0-.8-.4-.8-.8v-9.8c0-.4.4-.8.8-.8h24.4c.4,0,.8.4.8.8v9.8c0,.4-.4.8-.8.8ZM38.9,56.1h22.8v-8.2h-22.8v8.2Z"/>
        </g>
        <g>
          <rect class="cls-3" x="62.5" y="47.1" width="24.4" height="9.8"/>
          <path class="cls-4" d="M86.9,57.7h-24.4c-.4,0-.8-.4-.8-.8v-9.8c0-.4.4-.8.8-.8h24.4c.4,0,.8.4.8.8v9.8c0,.4-.4.8-.8.8ZM63.3,56.1h22.8v-8.2h-22.8v8.2Z"/>
        </g>
        <g>
          <rect class="cls-3" x="38.1" y="56.9" width="24.4" height="9.8"/>
          <path class="cls-4" d="M62.5,67.4h-24.4c-.4,0-.8-.4-.8-.8v-9.8c0-.4.4-.8.8-.8h24.4c.4,0,.8.4.8.8v9.8c0,.4-.4.8-.8.8ZM38.9,65.8h22.8v-8.2h-22.8v8.2Z"/>
        </g>
        <g>
          <rect class="cls-3" x="62.5" y="56.9" width="24.4" height="9.8"/>
          <path class="cls-4" d="M86.9,67.4h-24.4c-.4,0-.8-.4-.8-.8v-9.8c0-.4.4-.8.8-.8h24.4c.4,0,.8.4.8.8v9.8c0,.4-.4.8-.8.8ZM63.3,65.8h22.8v-8.2h-22.8v8.2Z"/>
        </g>
        <g>
          <rect class="cls-3" x="38.1" y="66.6" width="24.4" height="9.8"/>
          <path class="cls-4" d="M62.5,77.2h-24.4c-.4,0-.8-.4-.8-.8v-9.8c0-.4.4-.8.8-.8h24.4c.4,0,.8.4.8.8v9.8c0,.4-.4.8-.8.8ZM38.9,75.6h22.8v-8.2h-22.8v8.2Z"/>
        </g>
        <g>
          <rect class="cls-3" x="62.5" y="66.6" width="24.4" height="9.8"/>
          <path class="cls-4" d="M86.9,77.2h-24.4c-.4,0-.8-.4-.8-.8v-9.8c0-.4.4-.8.8-.8h24.4c.4,0,.8.4.8.8v9.8c0,.4-.4.8-.8.8ZM63.3,75.6h22.8v-8.2h-22.8v8.2Z"/>
        </g>
        <path class="cls-4" d="M68.7,10.5h-30.6c-.4,0-.8-.4-.8-.8s.4-.8.8-.8h30.6c.4,0,.8.4.8.8s-.4.8-.8.8Z"/>
        <path class="cls-4" d="M68.7,22.2h-30.6c-.4,0-.8-.4-.8-.8s.4-.8.8-.8h30.6c.4,0,.8.4.8.8s-.4.8-.8.8Z"/>
        <g>
          <rect class="cls-2" x="80.2" y="14.8" width="6.6" height="6.6"/>
          <path class="cls-4" d="M86.9,22.2h-6.6c-.4,0-.8-.4-.8-.8v-6.6c0-.4.4-.8.8-.8h6.6c.4,0,.8.4.8.8v6.6c0,.4-.4.8-.8.8ZM81,20.7h5.1v-5.1h-5.1v5.1Z"/>
        </g>
      </g>
    </g>
  </g>
</svg>