<?xml version="1.0" encoding="UTF-8"?>
<svg id="_レイヤー_2" data-name="レイヤー 2" xmlns="http://www.w3.org/2000/svg" viewBox="0 0 23.7 23.7">
  <defs>
    <style>
      .cls-1 {
        fill: #205ace;
      }
    </style>
  </defs>
  <g id="header">
    <g>
      <path class="cls-1" d="M14.7,16.2c-.3-.3-.7-.3-1,0l-1.4,1.2c-.3.2-.7.2-1,0,0,0-1.2-.8-2.6-2.2-1.4-1.4-2.2-2.6-2.2-2.6-.2-.3-.2-.7,0-1l1.2-1.4c.2-.3.2-.7,0-1l-2.8-2.8c-.3-.3-.7-.3-1,0L.3,9.2c-.3.2-.4.6-.2,1,0,0,.5,1,.9,1.7,1.2,2,3.1,4.4,4.8,6.1,1.7,1.7,4.1,3.7,6.1,4.8.7.4,1.7.9,1.7.9.3.2.7,0,.9-.2l2.9-3.5c.3-.3.2-.8,0-1l-2.8-2.8Z"/>
      <path class="cls-1" d="M15.3,12.5l1.2-.2c-.2-1.2-.8-2.4-1.7-3.3-.9-.9-2.1-1.5-3.3-1.7l-.2,1.2c1,.2,1.9.6,2.7,1.4.8.8,1.2,1.7,1.4,2.7Z"/>
      <path class="cls-1" d="M20,3.8C17.9,1.7,15.3.4,12.6,0l-.2,1.2c2.5.4,4.8,1.5,6.7,3.4,1.9,1.9,3,4.3,3.4,6.7l1.2-.2c-.4-2.7-1.7-5.3-3.8-7.4Z"/>
      <path class="cls-1" d="M12,3.6l-.2,1.2c1.7.3,3.4,1.1,4.7,2.4,1.3,1.3,2.1,3,2.4,4.7l1.2-.2c-.3-2-1.2-3.9-2.7-5.4-1.5-1.5-3.4-2.4-5.4-2.7Z"/>
    </g>
  </g>
</svg>