<?xml version="1.0" encoding="UTF-8"?>
<svg id="_レイヤー_2" data-name="レイヤー 2" xmlns="http://www.w3.org/2000/svg" viewBox="0 0 125 85">
  <defs>
    <style>
      .cls-1 {
        fill: #736357;
        opacity: 0;
      }

      .cls-2 {
        fill: #fc0;
      }

      .cls-3 {
        fill: #e09c36;
      }

      .cls-4, .cls-5 {
        fill: #fff;
      }

      .cls-5 {
        opacity: .3;
      }

      .cls-6 {
        fill: #1a1a1a;
      }

      .cls-7 {
        fill: #b3b3b3;
      }

      .cls-8 {
        fill: #adadad;
      }

      .cls-9 {
        fill: #d4d4d4;
      }
    </style>
  </defs>
  <g id="contents">
    <g>
      <rect class="cls-1" width="125" height="85"/>
      <g>
        <rect class="cls-6" x="31.1" y=".4" width="62.9" height="84.2" rx="4.3" ry="4.3"/>
        <rect class="cls-4" x="35.4" y="6.4" width="54.2" height="73.7" rx="2.8" ry="2.8"/>
        <g>
          <rect class="cls-9" x="43.7" y="55" width="20.9" height="4.4" rx="2.1" ry="2.1"/>
          <rect class="cls-9" x="43.7" y="62.1" width="30.5" height="2.5" rx="1.2" ry="1.2"/>
          <rect class="cls-9" x="43.7" y="66.5" width="9.2" height="2.5" rx="1.2" ry="1.2"/>
          <rect class="cls-9" x="54.9" y="66.5" width="26.5" height="2.5" rx="1.2" ry="1.2"/>
          <rect class="cls-9" x="43.7" y="70.8" width="32.7" height="2.5" rx="1.2" ry="1.2"/>
        </g>
        <g>
          <g>
            <rect class="cls-7" x="43.4" y="39.5" width="3.9" height="9.2"/>
            <rect class="cls-7" x="49.1" y="34.6" width="3.9" height="14"/>
            <rect class="cls-7" x="54.9" y="39.5" width="3.9" height="9.2"/>
            <rect class="cls-7" x="60.6" y="31.5" width="3.9" height="17.1"/>
            <rect class="cls-7" x="66.3" y="40.1" width="3.9" height="8.5"/>
            <rect class="cls-7" x="72" y="34.6" width="3.9" height="14"/>
            <rect class="cls-7" x="77.7" y="28.6" width="3.9" height="20.1"/>
          </g>
          <g>
            <rect class="cls-9" x="43.4" y="39.5" width="3.9" height="9.2"/>
            <rect class="cls-9" x="49.1" y="34.6" width="3.9" height="14"/>
            <rect class="cls-9" x="54.9" y="39.5" width="3.9" height="9.2"/>
            <rect class="cls-9" x="60.6" y="31.5" width="3.9" height="17.1"/>
            <rect class="cls-9" x="66.3" y="40.1" width="3.9" height="8.5"/>
            <rect class="cls-9" x="72" y="34.6" width="3.9" height="14"/>
            <rect class="cls-9" x="77.7" y="28.6" width="3.9" height="20.1"/>
          </g>
        </g>
        <g>
          <g>
            <circle class="cls-3" cx="45.1" cy="30.6" r="1.4"/>
            <circle class="cls-3" cx="52" cy="27.8" r="1.4"/>
            <circle class="cls-3" cx="59" cy="32" r="1.4"/>
            <circle class="cls-3" cx="66" cy="36.4" r="1.4"/>
            <circle class="cls-3" cx="73" cy="27.8" r="1.4"/>
            <circle class="cls-3" cx="79.9" cy="20.2" r="1.4"/>
            <polygon class="cls-3" points="66 37.3 58.9 32.5 52 28.5 45.2 31.5 44.8 30.5 52.1 27.3 59.5 31.6 65.8 35.9 72.6 27.5 72.6 27.5 79.6 19.9 80.3 20.6 73.4 28.2 66 37.3"/>
          </g>
          <g>
            <circle class="cls-6" cx="45.1" cy="30.6" r="1.4"/>
            <circle class="cls-6" cx="52" cy="27.8" r="1.4"/>
            <circle class="cls-6" cx="59" cy="32" r="1.4"/>
            <circle class="cls-6" cx="66" cy="36.4" r="1.4"/>
            <circle class="cls-6" cx="73" cy="27.8" r="1.4"/>
            <circle class="cls-6" cx="79.9" cy="20.2" r="1.4"/>
            <polygon class="cls-6" points="66 37.3 58.9 32.5 52 28.5 45.2 31.5 44.8 30.5 52.1 27.3 59.5 31.6 65.8 35.9 72.6 27.5 72.6 27.5 79.6 19.9 80.3 20.6 73.4 28.2 66 37.3"/>
          </g>
        </g>
        <circle class="cls-5" cx="68.2" cy="32.8" r="12.6"/>
        <g>
          <rect class="cls-6" x="79.1" y="41.8" width="3.5" height="7.1" transform="translate(-8.4 70.5) rotate(-45)"/>
          <path class="cls-2" d="M68.1,48.6c-4.3,0-8.3-1.7-11.3-4.7h0s0,0,0,0c-3-3-4.7-7-4.7-11.3s1.7-8.3,4.7-11.3c3-3,7-4.7,11.3-4.7s8.3,1.7,11.3,4.7c3,3,4.7,7,4.7,11.3s-1.7,8.3-4.7,11.3c-3,3-7,4.7-11.3,4.7ZM68.1,20.7c-3.2,0-6.2,1.2-8.5,3.5-2.3,2.3-3.5,5.3-3.5,8.5s1.2,6.2,3.5,8.5h0c2.3,2.3,5.3,3.5,8.5,3.5s6.2-1.2,8.5-3.5c2.3-2.3,3.5-5.3,3.5-8.5s-1.2-6.2-3.5-8.5-5.3-3.5-8.5-3.5Z"/>
          <path class="cls-2" d="M86.4,45h3v12.4h-3c-1.4,0-2.6-1.1-2.6-2.6v-7.3c0-1.4,1.1-2.6,2.6-2.6Z" transform="translate(-10.8 76.2) rotate(-45)"/>
        </g>
        <g>
          <path class="cls-8" d="M72.5,10.5h-20c-1.8,0-3.3-1.5-3.3-3.3v-3.7c0-.3.3-.6.6-.6h25.3c.3,0,.6.3.6.6v3.7c0,1.8-1.5,3.3-3.3,3.3ZM50.5,4.1v3.1c0,1.1.9,2,2,2h20c1.1,0,2-.9,2-2v-3.1h-24.1Z"/>
          <rect class="cls-8" x="55.7" y="2" width="13.7" height="3" rx="1.4" ry="1.4"/>
        </g>
      </g>
    </g>
  </g>
</svg>