<?xml version="1.0" encoding="UTF-8"?>
<svg id="_レイヤー_2" data-name="レイヤー 2" xmlns="http://www.w3.org/2000/svg" viewBox="0 0 125 85">
  <defs>
    <style>
      .cls-1 {
        fill: #736357;
        opacity: 0;
      }

      .cls-2 {
        fill: #fc0;
      }

      .cls-3 {
        fill: #fff;
      }

      .cls-4 {
        fill: #1a1a1a;
      }

      .cls-5 {
        fill: none;
        stroke: #1a1a1a;
        stroke-linecap: round;
        stroke-linejoin: round;
        stroke-width: 2px;
      }
    </style>
  </defs>
  <g id="contents">
    <g>
      <rect class="cls-1" width="125" height="85"/>
      <g>
        <path class="cls-4" d="M113.8,15c0-1.9-1.6-3.5-3.5-3.5H14.7c-1.9,0-3.5,1.6-3.5,3.5v7h102.6v-7Z"/>
        <path class="cls-3" d="M11.2,22v48c0,1.9,1.6,3.5,3.5,3.5h95.6c1.9,0,3.5-1.6,3.5-3.5V22H11.2Z"/>
        <rect class="cls-2" x="11.2" y="25" width="102.6" height="14.8"/>
        <rect class="cls-5" x="11.2" y="11.5" width="102.6" height="62" rx="2.8" ry="2.8"/>
        <g>
          <path class="cls-4" d="M19.3,66.6c-.2,0-.4,0-.6-.2-.2-.2-.2-.4-.2-.6v-8.8c0-.2,0-.4.2-.6.2-.2.4-.2.6-.2h1.9c1.6,0,2.7.2,3.4.7.7.4,1,1.1,1,2s-.2,1.1-.6,1.5c-.4.4-.9.7-1.6.8,0,0,0,0,0,0s0,0,0,0c.8.1,1.4.4,1.8.8.4.4.7,1,.7,1.6,0,1.1-.4,1.8-1.1,2.3-.7.5-1.9.7-3.6.7h-2ZM20.9,58.2v2c0,0,0,.1.1.1h.3c.7,0,1.3,0,1.6-.3.3-.2.5-.5.5-.9s-.1-.7-.4-.8c-.3-.2-.7-.3-1.3-.3h-.7c0,0-.1,0-.1.1ZM20.9,62.2v2.5c0,0,0,.1.1.1h.7c.7,0,1.2-.1,1.5-.4.3-.2.5-.6.5-1.1s-.2-.7-.5-.9c-.3-.2-.9-.3-1.7-.3h-.5c0,0-.1,0-.1.1Z"/>
          <path class="cls-4" d="M27.1,66.6c-.2,0-.4,0-.5-.2-.1-.2-.1-.3,0-.5l3-8.9c0-.2.2-.4.4-.6.2-.1.4-.2.7-.2h.9c.2,0,.5,0,.7.2.2.1.3.3.4.6l3,8.9c0,.2,0,.4,0,.5-.1.2-.3.2-.5.2h-1c-.2,0-.4,0-.6-.2-.2-.1-.3-.3-.4-.6l-.4-1.4c0,0,0-.1-.2-.1h-3.1c0,0-.1,0-.2.1l-.4,1.4c0,.2-.2.4-.4.6-.2.1-.4.2-.7.2h-.9ZM31.1,58.3l-1.1,4.1s0,0,0,0c0,0,0,0,0,0h2.1s0,0,0,0c0,0,0,0,0,0l-1.1-4.1s0,0,0,0,0,0,0,0Z"/>
          <path class="cls-4" d="M37.7,66.6c-.2,0-.4,0-.6-.2-.2-.2-.2-.4-.2-.6v-8.8c0-.2,0-.4.2-.6.2-.2.4-.2.6-.2h.8c.5,0,.9.2,1.2.7l3.3,5.7s0,0,0,0,0,0,0,0v-5.6c0-.2,0-.4.2-.6.2-.2.3-.2.6-.2h.8c.2,0,.4,0,.6.2.2.2.2.4.2.6v8.8c0,.2,0,.4-.2.6s-.4.2-.6.2h-.8c-.5,0-.9-.2-1.2-.7l-3.3-5.7s0,0,0,0,0,0,0,0v5.6c0,.2,0,.4-.2.6s-.3.2-.6.2h-.8Z"/>
          <path class="cls-4" d="M48.2,66.6c-.2,0-.4,0-.6-.2-.2-.2-.2-.4-.2-.6v-8.8c0-.2,0-.4.2-.6.2-.2.4-.2.6-.2h.8c.2,0,.4,0,.6.2.2.2.2.4.2.6v3.6s0,0,0,0c0,0,0,0,0,0l2.7-3.8c.3-.4.7-.7,1.3-.7h1.2c.2,0,.3,0,.4.2,0,.2,0,.3,0,.4l-3.2,4.2c0,0,0,.1,0,.2l3.3,4.7c.1.1.1.3,0,.4,0,.2-.2.2-.4.2h-1.2c-.5,0-1-.2-1.3-.7l-2.8-4.2h0s0,0,0,0v4.1c0,.2,0,.4-.2.6-.2.2-.3.2-.6.2h-.8Z"/>
        </g>
        <g>
          <rect class="cls-4" x="107" y="33.8" width="3.5" height="3.5"/>
          <rect class="cls-4" x="101.2" y="33.8" width="3.5" height="3.5"/>
          <rect class="cls-4" x="95.4" y="33.8" width="3.5" height="3.5"/>
          <rect class="cls-4" x="89.7" y="33.8" width="3.5" height="3.5"/>
          <rect class="cls-4" x="83.9" y="33.8" width="3.5" height="3.5"/>
          <rect class="cls-4" x="78.1" y="33.8" width="3.5" height="3.5"/>
          <rect class="cls-4" x="72.3" y="33.8" width="3.5" height="3.5"/>
        </g>
      </g>
    </g>
  </g>
</svg>