<?xml version="1.0" encoding="UTF-8"?>
<svg id="_レイヤー_2" data-name="レイヤー 2" xmlns="http://www.w3.org/2000/svg" viewBox="0 0 50 60">
  <defs>
    <style>
      .cls-1, .cls-2 {
        fill: #fff;
      }

      .cls-2 {
        opacity: 0;
      }

      .cls-3 {
        fill: #fffa43;
      }

      .cls-4 {
        fill: #1a1a1a;
      }
    </style>
  </defs>
  <g id="header">
    <g>
      <rect class="cls-2" width="50" height="60"/>
      <g>
        <g>
          <g>
            <path class="cls-4" d="M28.5,42.6c0,1.2-1.2,2.2-2.7,2.2H6.7c-1.5,0-2.7-1-2.7-2.2V6.9c0-1.2,1.2-2.2,2.7-2.2h19.1c1.5,0,2.7,1,2.7,2.2v35.7Z"/>
            <path class="cls-4" d="M25.8,45.5H6.7c-2,0-3.5-1.3-3.5-2.9V6.9c0-1.6,1.6-2.9,3.5-2.9h19.1c2,0,3.5,1.3,3.5,2.9v35.7c0,1.6-1.6,2.9-3.5,2.9ZM6.7,5.5c-1,0-1.8.6-1.8,1.4v35.7c0,.8.8,1.4,1.8,1.4h19.1c1,0,1.8-.6,1.8-1.4V6.9c0-.8-.8-1.4-1.8-1.4H6.7Z"/>
          </g>
          <g>
            <path class="cls-1" d="M6.7,43.9c-.8,0-1.5-.6-1.5-1.3V6.9c0-.7.7-1.3,1.5-1.3h19.1c.8,0,1.5.6,1.5,1.3v35.7c0,.7-.7,1.3-1.5,1.3H6.7Z"/>
            <path class="cls-4" d="M25.8,44.6H6.7c-1.3,0-2.4-.9-2.4-2V6.9c0-1.1,1.1-2,2.4-2h19.1c1.3,0,2.4.9,2.4,2v35.7c0,1.1-1.1,2-2.4,2ZM6.7,6.4c-.4,0-.6.2-.6.5v35.7c0,.3.3.5.6.5h19.1c.4,0,.6-.2.6-.5V6.9c0-.3-.3-.5-.6-.5H6.7Z"/>
          </g>
        </g>
        <g>
          <path class="cls-4" d="M21.2,5.7s0,0,0,.5-.6,1-1.3,1h-7.2c-.7,0-1.3-.5-1.3-1s0-.5,0-.5"/>
          <path class="cls-4" d="M19.9,8h-7.2c-1.2,0-2.2-.8-2.2-1.7v-.5c0-.4.4-.7.9-.7s.9.3.9.7v.5c0,.1.2.3.4.3h7.2c.2,0,.4-.1.4-.3v-.5c0-.4.4-.7.9-.7s.9.3.9.7v.5c0,1-1,1.7-2.2,1.7Z"/>
        </g>
      </g>
      <g>
        <polygon class="cls-3" points="38.4 20.8 37.5 19.9 41.5 14.7 43.3 16.5 38.4 20.8"/>
        <polygon class="cls-3" points="36.3 19.2 35 19 35.7 12.5 38.1 12.9 36.3 19.2"/>
        <polygon class="cls-3" points="39.2 21.9 39.5 23.2 45.9 22.2 45.3 19.7 39.2 21.9"/>
      </g>
      <g>
        <g>
          <path class="cls-1" d="M48.5,49.8l-6.8-7.4s-1.7-8.4-2.6-10.9c-.9-2.5-2.7-4.7-3.7-6.1-.9-1.3-2.4-1.6-4,.2-.8-.9-3.2-2.5-4.6.6-1.4-2-3.5-2.1-4.5.1,0,0-2.8-5-4.1-7.2-1.3-2.2-5.1-.6-4.2,1.8.9,2.3,4.3,9.3,4.3,9.3-1.9-1.5-4.7-.6-3.5,2.2.9,2,3.9,9.1,4.4,10.5.4,1.4,1.4,2.6,2.7,3.6,1.3,1,9.2,5.1,9.2,5.1l7.4,7.5,9.9-9.3Z"/>
          <path class="cls-4" d="M38.6,59.9c-.2,0-.4,0-.5-.2l-7.3-7.4c-1-.5-7.9-4.2-9.2-5.1-1.5-1.1-2.5-2.5-3-4-.3-1-2.3-5.6-3.4-8.3-.4-.9-.7-1.6-.9-2.1-.6-1.4-.4-2.7.6-3.4.6-.4,1.3-.6,2.1-.5-1.1-2.2-2.9-6-3.5-7.6-.5-1.4,0-2.8,1.5-3.5,1.3-.6,3.1-.5,4,1.1.9,1.6,2.6,4.6,3.5,6.2.5-.6,1.2-.9,1.9-1,.9,0,1.7.3,2.5,1,.7-.9,1.4-1.2,1.9-1.2,1-.1,2,.3,2.8.9.9-.8,1.8-1,2.3-1,.9,0,1.7.5,2.3,1.4.1.2.3.4.5.6,1,1.4,2.5,3.4,3.3,5.6.8,2.3,2.3,9.4,2.5,10.8l6.6,7.3c.3.3.3.8,0,1l-9.9,9.3c-.1.1-.3.2-.5.2ZM16.5,30.2c-.3,0-.6,0-.8.2-.5.4-.3,1.2,0,1.7.2.5.5,1.2.9,2.1,1.3,3.1,3.1,7.3,3.5,8.5.4,1.2,1.2,2.3,2.5,3.3,1,.8,6.9,3.9,9.1,5.1,0,0,.1,0,.2.1l6.9,7,8.9-8.4-6.3-6.9c0,0-.2-.2-.2-.4,0,0-1.7-8.4-2.5-10.8-.7-2-2.2-4-3.1-5.2-.2-.2-.3-.4-.5-.6-.2-.3-.6-.7-1.2-.8-.5,0-1.1.3-1.7,1-.1.2-.3.2-.5.2-.2,0-.4,0-.5-.2-.4-.4-1.3-1.1-2-1-.5,0-1,.5-1.4,1.3-.1.2-.3.4-.6.4-.3,0-.5,0-.7-.3-.5-.8-1.2-1.2-1.9-1.2-.5,0-1,.5-1.4,1.2-.1.2-.4.4-.6.4-.3,0-.5-.1-.7-.4,0,0-2.8-5-4.1-7.2-.5-.8-1.4-.8-2.1-.5-.2,0-1.2.6-.8,1.6.9,2.3,4.3,9.2,4.3,9.3.1.3,0,.7-.2.9-.3.2-.6.2-.9,0-.5-.4-1.1-.6-1.5-.6Z"/>
        </g>
        <path class="cls-4" d="M22.3,42.1c-.3,0-.6-.2-.7-.6l-2-8.1-1.7-2.9c-.2-.3,0-.8.3-1,.3-.2.8,0,1,.3l1.8,3c0,0,0,.1,0,.2l2,8.2c0,.4-.1.8-.5.9,0,0-.1,0-.2,0Z"/>
        <path class="cls-4" d="M25,31.8c-.3,0-.5-.1-.6-.4l-2.6-4.7c-.2-.4,0-.8.3-1,.4-.2.8,0,1,.3l2.6,4.7c.2.4,0,.8-.3,1-.1,0-.2,0-.4,0Z"/>
        <path class="cls-4" d="M29.4,30.7c-.2,0-.5-.1-.6-.3l-2.5-3.7c-.2-.3-.1-.8.2-1,.3-.2.8-.1,1,.2l2.5,3.7c.2.3.1.8-.2,1-.1,0-.3.1-.4.1Z"/>
        <path class="cls-4" d="M33.7,29.6c-.2,0-.5-.1-.6-.3l-2.2-3.3c-.2-.3-.1-.8.2-1,.3-.2.8-.1,1,.2l2.2,3.3c.2.3.1.8-.2,1-.1,0-.3.1-.4.1Z"/>
      </g>
    </g>
  </g>
</svg>