<?xml version="1.0" encoding="UTF-8"?>
<svg id="_レイヤー_2" data-name="レイヤー 2" xmlns="http://www.w3.org/2000/svg" viewBox="0 0 685.5 213.5">
  <defs>
    <style>
      .cls-1 {
        fill: #c94605;
      }

      .cls-2 {
        fill: #205ace;
      }

      .cls-3 {
        fill: #333;
      }

      .cls-4 {
        fill-rule: evenodd;
      }

      .cls-4, .cls-5 {
        fill: #ffed9f;
      }

      .cls-6 {
        fill: none;
        stroke: #333;
        stroke-linecap: round;
        stroke-linejoin: round;
        stroke-width: 12px;
      }
    </style>
  </defs>
  <g id="contents">
    <g>
      <g>
        <g>
          <path class="cls-4" d="M500.6,123.8c0,1.5,3.2.5,3.5,1.9-.4,1.2.3,4.1-1.7,3.1,0,1.2,2,.7,2.2,1.7-1.5.8-1.3,1.2-1.1,3.2-1.9-.6-2.6,1-3.6-.6-.3,2,3,1.1,2.7,3.1,0,1.7-1.1,2-2.7,1.6,1.4.5.2,2.9,2.1,3,0,1.6-1.3,1.2-1.1,3.2-2.7,0-3.2,1.6-7.6,1.4.3.7,3.6,0,4.1,2-.6,1.3-2.2,2.4-3.2.8,0,2.1,2.2,2.5,1.8,5-1.4-.5-1.5,1-3.1.2.7,2.3,2.3.3,3.4,1.9-2.2,2.6-2.8.2-6.1-.3-.8.2-1.4.6-1.5,1.8.7.8,1.9.6,3.6.6-1.1,1.5-1.3,2.2-1.7,3.1-.2-3.1-4.4,1.7-5.2-2.8-.7,0-.7,1.1-.9,1.9,1.1.4,4.6,2,4.2,5.4-1.2-.2-2.4-.4-3.6-.6,3.1-.7,0-1,1.7-3.1-1.5,0-2.4,2.1-3.7,0-.9.1.1.9-.3,2-2.8-.9-4.2-1.3-6.8-.4,2.6,1,5.9,3.5,7.3,1.2,1.7,1.2,1.7,3.6,2.3,5.7-2.4.2-.3-3.3-2.7-3.1-1.9.1.4,1.5-.4,2.6-.7-.8-2.1-1-2.8-1.8-.7,2,.9,2.2-.5,3.3-.6-1-2.7-1.4-3.6-.6,1,.9,2.6,1.4,2.7,3.1-1.3.5-3.1,1.2-.3,2-.5,1.4-3.3,0-3.6-.6.4-1.2,1.5-1.4,1.7-3.1-1.6,0-1.3,1.4-2.9,2.9.4,1.4,2.5,1.5,2,3.7-1.2-.5-1.3.7-1.5,1.8-1.1-.3-2-.8-2.2-1.7-1.6.2.9,1.9.1,3.4-1.4-.9-3.3-3.5-1.8-5,1.5.8,2.6,1.4,3.7,0-1.5-1.8-2.8,0-5.5-.2,1.1.9.4,3.1,1.3,4.2-1.4,1.7-6.4-.6-4.8,3.2-2.3-.9-3.2-.2-4.1-1.3-.6.4-1.1,1-1.5,1.8-.1,1.8,4.5-1.3,4.7,2.1-2.6-1.5-7.6-1.7-7.3,3.5-3-.3-2.6-.2-4.9-.1-.4,1.3-.2,2.1.9,2.2-.4.5-.8,1-.9,1.9-.8,1.4-4.3-1-5,.5.1,1,.8-.1,1.8.3-2,.8-2.5,3.6-5.4,3.1,1.7-1.9-.6-3.3-2.1-2.3-.5,1.5,2.8,0,1.5,2.3-1.5,0-4.4,1.9-5,.5-1.9.3,1.3,1.2.2,2.7-1.9-1.5-2.5.2-3.4,2.1-.8-.6-.9-1.6-.8-2.8-.9,3.6-4.5,4.1-7,1.5-1.4-.4-.9,1.8-2.1,1.7,1,.1,1.9,1.4,4.1,2-2,2.2-6.6,2-8.2.7-1.3-.3-.6,2.3-1.1,3.2-3.4-1-8.5,1.9-9.6-2.2,2.6.4,5.3.9,7.9,1.3-1.2-2-3.1-1.6-5.4-1.5.3-2,2.4-1.3,3.9-1.4,0-1.4-2.6-.6-2.8-1.8,2-1.6,6.6.8,7.7-2.1-.6-2.3-1,2.1-2.6.9-.5-2.6,1.8-1,1.7-3.1-4.1-1.8-9.8-1.2-14.3.3.3-1-.4-1.2-.3-2.1-2.3,2.7-3,.7-6.2.3-3.2-.4-9.1,3.5-7.4-.5-3,1-4.5-.6-6.9.9-1-.7,0-1.2.3-2-9.2,3.1-12.6-2.6-19.4-3.2,0-1.1.6-1.2,1.4-1.1-3.3-1.2-9.3-1.8-9.6-6.9-2.1,1.1-4.4-2.5-3.2-3.9-3.3-1.2-3.6-3.8-2.9-5.8-.2-2.4-2.4-.3-3.4-2.5-1.6-1.4,1.9.5,2.3,1,.4-1.7-1-1.9-2.1-2.3,2.4-1.1-.6-2.2,0-4,.3-1.6,2.1.1,2.4.4.4-1.7-2.3-.9-1.4-2.9,3.2,1.2,0-2,3.2-.8-.8-1.8-2-1.5-4.6-2.7,1.3-.8,3.6,0,4-2,.3-1.6-.6-2.2-1.4-2.9.4-1.5,2.7,0,3,.5-.5-1.7-2.1-2.6-1.8-5,.8-.4,1.7-.6,3.1-.2.8-2-.6-2.2-1.5-2.9.3-1.4,2.6.1,3.7,0-2.6-2.7,1.4-4.7.4-7.3,1.1.3,1.4-.6,2.5-.3-.4-1.2-1.5-1.9-.7-4.1,2.3-1.1,3.5-.2,5.6-.4-.2-.6-.5-1.2-.3-2.1-1.3,2.2-2.2-.3-2.2-2.3,1.3,1.2.9,1.6,2.9,1.1-2.5-3.8,3.7-4.2,1.4-5.8,1.7-2.3,5.5-2.1,6.9-.9.2-1.2-2.7-2.8-2.8-1.8.3-4.1,5.7-7.3,10.4-7.6-2.4-2.1-1.1-2.5,2.8-2.2.4-1.7-3.5,0-2.1-2.4,1.4,0,2.3.5,2.9,1.1.2-.9.4-1.8-.3-2.1,4.3.6,6-1.9,8.1-.7.8-2.2-2.3-1.2-1.4-3.6,3.6.8,4.4.5,5.9,2.3.3-1.8-1.2-2.1-2.8-2.4,4.6-4.5,13.1-6.7,20-5.4,0-1.2-2-.7-2.2-1.7,2-.9,3.3-3,6.5-2.3,0,1.1-.6,1.2-1.4,1.1,0,1,1.8.5,1.6,1.6,1.4.1-.6-1.8.5-3.3,3.1-1.9,5.3-.5,9.9.3.3-1.4-2.1-.6-2.9-1.1,6.7-2.8,12.7-1.8,19.8-4.1,1.2,1.7,2.1,3.7,5.7,3.6-.2.9-.4,1.8.3,2.1-.4,1.3-2.3.2-2.7,1.6.3.7,3.2-.2,2.8,2.4.9-1.6.7-3.1,1.9-4.4-.5-2.9-6-1.8-5.4-5.6,4.6,1.8,9.5-.5,16,.6-.6,2.2-1,2-.6,3.9,2.2.6,2.2-2.1,3-3.5,5.9,2.6,5.5,1,12,2.6-.8,2.2.6,2.7,0,4.7,1.1.3,1.4-.6,2.5-.3,0-1-1.8-.5-1.6-1.6,2.5-3.1,5.8.4,8.5,1.4-.3,1.6-2.1-.1-2.4-.4.2,2.5,4.9,2,2.4,5.1,1.5-.4,2-2.4,4.5-1.3,0,.9.9,1.2.9,2.2,0,1.1-.6,1.2-1.4,1.1,2,1.1,3.5,2.6,5.7,3.6-.3.8-1.2.9-1.5,1.8-.2,1.9,2.4,1.6,4.1,2-.4,1.1.3,1.3,1,1.5-1.3,1.1-1.6,4.7,1.3,4.2-.3,1.4-1.7,1.2-3.2.8-.4,1.5,1.6,1,1.5,2.3,1.7.2,1.2-3,3.4-2.1-.1,2.7-2.9,1.6-3.6,3.4ZM467.2,97c2.1,1,1-2.7,2.3-3-3.7.1-1,.7-2.3,3ZM462,102.9c-2.3-1.9,2.1-.6,2.1-1.7-.9-1.8-.7-4.4-2.3-5.7-1.4,1-.5,5.5-2.6,5.6.7.3.3.8-.2,1.3,1.6-.6,2.7,1.9,3,.5ZM444,98.6c0-.9-.7-1.4-.2-2.7-3.3-.9-3,3.5-5.5,3.8,1.1-1.9-1.2-4-2.1-2.4,1.9-.4.9,1.6.8,2.8,3.6-.9,6.3,4.3,7.9,1.3-.1-.8-3.3-.3-4.1-2,0-.4.1-.9.2-1.3.7,0,.8,1.1,1.2.2-1.2-2.4,2.2,1.7,1.8.3ZM479.8,109.1c-2-.8-6-2.7-7.9-5.3.6,2.5-2.1,0-2.1,1.7,1.1.3,3.1-.2,2.2,1.7-1.3-1.6-6.1-1.1-6.6-1.7,0-1.5.5-2.4,1.6-2.4,0,.8,0,1.6,1,1.5.6-1,2.1-.7,2.2-2.3-3.4-2.2-6.3,1.1-6.7,3.6-3-2.4-4.6-1.7-8-.6.3-1.6-.6-2.2-1.5-2.9.6,4.5-2.6-.9-5,.5-.3,1.2-.7,2.1-1.6,2.4.3-3.1-2,1.1-3.7,0-.8-1-1.9-3.2-3.5-1.9-1.3,2.2,2,.7,1.5,2.2-.8.4-4.5-.3-4.7-2.1.7,0,1.7.4,1.9-.4-1.8-1-1.4-.3-3.6-.6-.8,2.4,2.1,1.8,2,3.7-3.5-1.3-4.7-2.5-7.8-1.9-1.4,7.6-7.4-.4-9.9,4.4-3.1-2.1-5,2.7-9.6,2.4,1-1.1-.4-3.1,0-4-3.8,1.5-2.2-.4-.6,3.9-1.8,2.7-7.9.5-8.2,1.3.9.2,2.1.3,1.6,1.6-5.2,1-9.2,3.9-13.8,5.7-.4-1.1-1.3-1.7-2.8-1.8-1.2,2.3,2.7.6,1.4,2.9-6.3,2.1-9.7,8.4-15.8,10.8-7.7,11.5-17.2,19-18.9,37.6,3,.9,4.6,5,2.1,7,1.6-.3,3.6-.5,4.1,1.3-.8.2-1.5.5-2,1,2.7-.3,2.4.5,4.1,2,0,1.3-1,1.2-1.5,1.8,12.5,7.9,26.2,10.3,41.2,11.4.6-3.5,1.8-.2,2.5-.3,2.8-.2,6.2-3.7,12-1.4.6-7.6,7.6,0,8.1-4.7.8.3,2.7,2.4,2.9,1.1,2.2-3.6,11.9-2.2,16.8-.6-.6,2,1.3,2.7,1.7,1-1.2-.8-1.8-2-4.1-2,1.2-3.3-1.9-2.2-2.1-3,1.5-2.9,2.4-.1,2.9-2.9,1.7,1.5,3.4,0,4.8,1.4,1-1.3-1.2-2.7.4-2.6,1.2.4.9,2,2.1,2.4,0-2.7-3-3-4.3-4.7,3.5.6,6.4-.8,11.2-.2,1.1-3-2.2.7-2.2-1.7.7-2.1,2.9-.7,3.3-1.5-1.9-1,.9-1.2.9-1.9-1.9-.1-2.9,1-4.5,1.3.2-.9-2.2-2.4-.2-2.7.8.1.4,1.2,1,1.5.4-2.8,2-4.5,5.1-5.2-.2,1.9,1,2.6,2,3.7-.3-2.9-1.8-1.9-1.2-4.9,1.1.2,3.6,1.8,4.3,0-.9-.3-2.3-.1-2.3-1,1.9-1.2,3.1-3.3,5.5-3.8.7.3,2,1,2.9,1.1,5.4.8-2-1.3-2.1-3,1.5-1,3.9.8,2.8-2.2,2.3-.9,2.2.6,4.1,1.3.4-1.8,3.4.3,3.4-2.1-1.6,0-2.2.5-2.9-1.1.1-.9.2-1.7.4-2.6,4.5-.5,5.3-7.8,9.1-7.2-1.3-2.7,1.9-2.4,3.1-4.2,0,.1-1.4-.4-1.1-.8.7-1.4,4-5.6,5.8-5.7,0-2.6-.4-7.7,3.4-6.8-2.1-2.2-1.4-6-1.1-9.5-1-1.7-3.9-1.9-4.4-4,1.2-.1,2.3,2.4,2.5-.3.5-2-2,1.4-1.7-.9.9-.5,1.5-1.5,2.2-2.3-2.5,0-2.5,3.8-5.9,2.4.5-2.5-8.4-2.1-7.7-6.6,0-1.4,4.3-.4,2.7-1.6-3,1.4-1.9-2.8-4.5-3.4.9,2.2,1.4,4.7,1.4,7.6ZM490.7,110.2c.9-3.6-2.8-3.1-5.2-2.8-.1.9-.2,1.7-.4,2.6,1,.2,2,.3,3,.5,1-3-1.7.6-1.6-1.6,1.3-2.7,3.2.4,4.1,1.3ZM424.2,103.3c-.1-1.6-1.1-2.6-2-3.7-.3,1-1.4.2-1.8-.3.2,2.2,3.3,2,3.8,4ZM428.1,102c3-.2,4.8,2.4,6.2.3-1.7-.9-4-1.7-6.2-.3ZM423.8,105.9c1.2-2.7,2.7.3,4.2.7.8-2-1.4-1.6-1.5-2.9-1.2,0-4.3,1-2.8,2.2ZM399.7,105.3c.8.1,1.6.3,2.4.4,0-1,.6-2.4-.2-2.7.5,2.6-2.7-.3-2.2,2.3ZM384.8,114.3c1.7-.5,2.6,2.5,3.6.6-3-2,1.4-.6,2.1-1.7-1.5-1.7-4.8-.7-5.7,1.1ZM372.4,123.6c1.8,1.4,3.2.1,4-2-1.6-.3-3.5-.9-3.8.7.9.3,2.3.1,2.3,1-.9,0-2.2-.6-2.5.3ZM488.4,148.5c1.1.3,3.8,2.3,4.8.8-2.1-.5-3.4-2.8-4.8-.8ZM471.3,164.4c-1.6-1.3-7.8-3.3-5.6.4,0-3.3,7.7,1.3,5.6-.4ZM467.4,179.1c-.3-.6-3.2-2-3.6-.6.3.6,3.2,2,3.6.6ZM422.3,199.7c.4-1.7-1-1.9-2.1-2.4-.9,2.1.5,2.3,2.1,2.4Z"/>
          <g>
            <path class="cls-1" d="M389.1,175.6c4.5-.9,5.9-1.2,7.2-1.6v-52.6h19.7v-8.1l12.6.5c.9,0,2.1,0,2.1,1.2s-1,1.2-2.1,1.6v4.8h19v30.9l5.2,4c.4.3.6.6.6,1.1s-.3,1-.9,1-.8,0-1.2,0c-3.2,3.7-6.8,7-10.6,10,5.4,3.3,11.6,6.5,18.8,7.2-3.6,3.2-6.1,6.7-7.8,9.7-10.3-3.4-21-9.2-28.3-17.4-.5,2.2-.7,4-.6,8.7-6.2,2.4-18.7,5.8-28.1,8.4-.3.9-.7,1.7-1.5,1.7s-1.3-1.2-1.6-1.9l-2.6-9.2ZM408.2,133.8h27.8v-3.4h-27.8v3.4ZM436,141.6h-27.8v3.4h27.8v-3.4ZM408.2,170.7c4.4-1.2,13-3.8,14.1-4.1-2.4-3-5.4-6.9-7.9-12.4h-6.2v16.5ZM426.6,154.2c1.5,2.6,3.1,4.7,5.5,7.3,2.5-2.3,4.2-4,7-7.3h-12.5Z"/>
            <path class="cls-3" d="M490,130.4c.7.2,1.2.4,1.2.9,0,.8-1.3,1-1.6,1-.9,4.1-1.3,5.6-1.7,7.2,5.1,0,13.7.2,13.7,14.7s-3.1,18.3-6,22.2c-1,1.4-3.5,4.2-8.9,4.2s-4.5-.2-6.3-.7c0-.7.2-1.2.2-2.2s0-3.4-.9-8c1.4.8,2.9,1.3,5.2,1.3s2.6-.2,3.5-1.1c2-1.8,4-8.5,4-15.9s-4.3-5.8-6.9-5.6c-4.7,16.2-10.4,25.3-15.2,31.6-2.5-1.9-6.4-3.8-8.8-4.7,6.3-7.4,11.3-15.8,14.3-25.1-2.9.7-7.6,2.1-9.5,3.1l-3.3-9.6c2.5-.5,13.1-2.7,15.3-3.1,1.3-5.7,1.6-10.1,1.9-13.1l9.9,3.2ZM506.2,133.5c6.6,7.4,10.8,17.4,10.8,22.1s-1,4.8-4.3,6.3c-.5.2-2.9,1.4-6,1.9-1.3-3.5-2-5.3-3.5-8,1.6-.4,3.8-.8,3.8-2.8s-1.5-5.4-3.1-8.2c-1.6-2.7-3.8-5.2-5.1-6.6l7.3-4.7Z"/>
            <path class="cls-3" d="M522.9,147.7c2.3-.4,8.8-1.9,12-2.7,6.6-1.6,10.4-2.5,15.4-2.5,13.6,0,17.1,9.5,17.1,16,0,9.3-5.9,14.4-13.2,17.1-4.2,1.5-11.1,2.6-16.5,2.8-.7-3.7-1.3-5.3-2.9-9,1.3.2,2.8.3,5,.3,8.7,0,18.6-1.9,18.6-11.1s-4.1-8.1-8.3-8.1c-8.4,0-19,5-24,7.3l-3.2-10.2Z"/>
            <path class="cls-3" d="M602.8,129.5c.5.1,1.2.4,1.2,1s-.8.8-1.3.8c-.2,1-1.3,5.2-1.5,6,5.5-1,7.6-1.9,9.9-2.9l1,9.4c-1.9.6-5.3,1.6-13.5,2.8-2.4,7.5-6.6,20.6-15.7,35-2.5-1.6-4.7-2.6-9-4.6,5-6.3,11.3-17.8,14.8-29-3.7.3-4.4.3-11,.4l-.8-9.8c1.8.1,3.9.2,6.9.2s4.5,0,7.1-.2c.8-4.5,1.3-8.4,1.6-11.3l10.2,2.3ZM607.3,165.6c-1.5,1.9-1.6,3.1-1.6,3.5,0,.8.4,1.2,1.1,1.6,1.3.7,4.7,1,8,1,6.2,0,10.7-1.2,13.2-2-.2,1.1-.4,2.5-.4,4.7s.2,3.8.4,5c-4.2.7-8.3,1-12.4,1-7.8,0-18.3-1.1-18.3-9.6s.5-4.3,2.3-7.8l7.7,2.7ZM604.5,148.6c5.5-1.1,12.1-1.1,13.2-1.1,5.2,0,7.6.4,8.8.7-.4,4.4-.4,5.4-.5,9.4-3-.8-5.9-1.1-9-1.1s-8.4.5-12.6,1.1v-9Z"/>
            <path class="cls-3" d="M646,168.4l9.8,1.3-1.3,10.2-9.8-1.3,1.3-10.2ZM660.6,132.2l-1.8,14.1-4.4,17.5-5.6-.7.2-18.1,1.8-14.1,9.8,1.3Z"/>
          </g>
          <path class="cls-3" d="M364.7,141.1c.8.2,1.1.3,1.1.8s-.6.6-1.2.6c-.2.9-1.3,4.8-1.5,5.8,8.2-.3,10.9,4.7,10.9,13.7s0,10.6-3.8,15.4c-1,1.3-2.9,3-7.4,3s-2.9-.3-3.9-.6c0-3.4,0-4-1-7.5,2.9.8,3.9.9,4.8.9,3.8,0,4.3-8.3,4.3-12.9s-.1-5.2-4.3-5.2-.9,0-1.4,0c-2.3,8.8-5.8,17.2-10.5,24.9-1.4-1.2-3-2.2-6.6-3.7,3.8-5.7,7.5-12.7,9.7-19.6-2.9.8-4.3,1.4-6.5,2.5l-2.2-7.8c1.8-.2,3.9-.6,10.6-2.2.8-4.1,1.3-6.5,1.4-10.3l7.5,1.9ZM376.6,146.7c2.9,2.9,5.7,6.1,7.5,8.9,1.7,2.6,2.2,4.1,2.2,5.8,0,3.5-4,4.9-6.8,6-1-2.3-2.8-5-3.5-6.1,1.8-.6,2.3-.7,2.3-1.8,0-2.2-4.5-8-6.5-10.1l4.7-2.6ZM379.1,141c2,2.1,2.9,3.2,3.8,4.6-1.1.7-1.3.9-3.4,2.4-.5-.6-2.8-3.6-3.8-4.7l3.4-2.3ZM383.7,138.1c2.5,2.6,3.4,4,3.9,4.7-1,.7-2.7,1.9-3.7,2.6-1.3-2.3-2.1-3.4-3.7-5.1l3.5-2.3Z"/>
          <g>
            <g>
              <path class="cls-6" d="M126.9,181.7v-25.9h65.1v-42.7h-63.7v-25.5h88.5v98.6h-24.9v-4.6h-65.1Z"/>
              <path class="cls-6" d="M232.9,181.7v-25.9h65.1v-42.7h-63.7v-25.5h88.5v98.6h-24.9v-4.6h-65.1Z"/>
            </g>
            <g>
              <path class="cls-5" d="M126.9,181.7v-25.9h65.1v-42.7h-63.7v-25.5h88.5v98.6h-24.9v-4.6h-65.1Z"/>
              <path class="cls-5" d="M232.9,181.7v-25.9h65.1v-42.7h-63.7v-25.5h88.5v98.6h-24.9v-4.6h-65.1Z"/>
            </g>
          </g>
        </g>
        <g>
          <path class="cls-2" d="M171.4,33c2.6,3.4,7.2,11.5,8.4,14.7-1.1.5-6.7,3.5-8.7,4.9-.4-.8-1.7-4.1-2-4.8-1.3,7.1-3.4,9.2-10.6,9.2h-12.9c-4.9,0-7.3-2.1-7.3-6.5v-10.9h-.5c-1.1,4.2-2.4,9.2-5.4,14.6-6-3-7.5-3.5-9.6-4,1.3-2,5-9.1,5.7-14.8l9.8,2.5v-3.5l10.4.7c-.7-.9-.8-1-1.1-1.5l5-2.8h-23.8v-9h17.5v-4.7h-22.3v-9.1h22.3V2.2l10.8.4c.7,0,1.4.2,1.4.9s-.9,1.1-1.8,1.3v3.3h22.3v9.1h-22.3v4.7h17.5v9h-17c1.8,2.2,4.7,6.5,5.6,8.5-2.9,1.6-7.4,3.9-8.9,4.8-1.5-3.5-2.8-5.4-4.4-7.9-.3.3-.6.5-1.1.7v8.9c0,.9,0,2.3,2.3,2.3h5.5c1.6,0,3.2,0,3.7-5.7,1.7,1.2,6,2.8,8.1,3.2-1.7-3.2-4-6.2-5.3-7.7l8.8-5Z"/>
          <path class="cls-2" d="M224.1,29.2h13.5v8.5h-20.9c0,.1.2.2.2.4,0,.7-.9.9-1.9,1.1v8.4h9.6v-8.3l10.4.5c.3,0,1.1,0,1.1.9s-.4.8-1.7,1.4v15.4h-9.9v-1.4h-29v1.4h-10v-18.4l10.9.6c.6,0,1,.4,1,.8,0,.9-1.2,1.1-1.9,1.3v5.7h9.4v-9.9h-22.5v-8.5h6.9V4c1.9.2,4.1.5,5.1.5s2.2.2,3.7.2c15.4,0,25.4-2.6,27.4-3.3l6.8,6.6c.2.2.4.5.4.8,0,.5-.4.7-1,.7s-1-.1-1.7-.5c-8.8,2.5-21.1,3.4-30.4,3.7v2.2h35v8.3h-10.5v6ZM214.1,23.2h-14.4v6h14.4v-6Z"/>
          <path class="cls-2" d="M266.4,49.5c10-1.6,12.9-8.7,12.9-13.6s0-9.4-9.6-10.6c-.7,13.7-7.1,28.8-13.3,28.8s-10.7-5.7-10.7-15.2,8.9-21.2,22.5-21.2,19.5,7,19.5,18.1-.6,9.4-7,15.6c-3.4,3.4-7.2,4.7-9.6,5.4-.4-.8-2.5-4.6-4.7-7.4ZM253.2,38.9c0,3.3,1.6,5.8,2.5,5.8,1.7,0,5.2-9.3,5.7-18.3-3.5,1.3-8.2,7-8.2,12.5Z"/>
          <path class="cls-2" d="M331.9,5.8c1.7,0,3.1,0,4.1-.5l7.7,5.4c-1,1.5-1.1,1.6-1.9,3.9-6.2,16.7-11.4,29.9-34.4,41.9-2.1-3.1-6.2-7.1-8.3-8.9,21.1-8.1,27.1-22.4,30.2-31.4h-35.5V5.8h38.1Z"/>
          <path class="cls-2" d="M374.3,26.1c.7,0,1.3,0,1.3.7s-.4.6-1.1,1.2c-.1,1.7-.2,2.8-.4,4.6,3-2.8,4.8-5,6.8-8.3h-30.6v-9h34.8c1.1,0,2-.2,3.1-.8l6.1,5.1c-.2.4-2.6,4.2-3.9,6.3-3.8,6-6.5,9.7-10.2,13.6-2.2-2.2-5.4-4.6-6.2-5.1-.5,3.6-2.1,14.5-14,21.9-2.9-2.9-4.8-4.3-7.8-6,8.4-4.5,12.9-10.3,12.9-21.9s0-1.9-.1-2.7l9.3.5Z"/>
          <path class="cls-2" d="M439.5,11.7c2,0,3.1-.5,3.8-.8l5.9,4.5c-.6,1.1-.7,1.3-1.9,3.7-.6,1.3-3.4,8.1-4,9.5-9,20.5-23.4,27.7-27.5,29.9-3.1-4-7.4-7.1-8.7-8.1,17.5-7.1,24.3-20.8,27.4-28.6h-15c-3.7,5.2-7.8,10-12.6,14.3-4.3-4.4-6.9-6.2-8.6-7.2,10.6-8.9,17.4-19.6,19.6-26.6l10.4,4.3c.4.2.9.4.9,1,0,.8-1.2,1-1.7,1.1-.8,1.7-1.2,2.3-1.7,3.3h13.6Z"/>
          <path class="cls-2" d="M477.8,23.8c2.3,1.1,4.4,2.1,9.1,5.1,2.6-4.1,3.6-6.8,4.1-8.4h-13.9c-3.7,4.8-7.8,9.4-12.6,13.2-3.2-3.1-5.4-4.8-8.6-7,9.1-6.3,16.5-16.5,19.6-24.7l10.7,3.2c.5.2,1.1.4,1.1.9,0,.8-1.3,1-1.9,1.1-.8,1.5-1.2,2.4-2.1,3.8h12.2c2.5,0,3.6-.4,4.5-.8l5,4.1c-.5.8-.7,1.3-1.3,2.7-2.8,7.2-4.8,11.9-8.5,17.8,3.8,3,5,4.4,5.9,5.3-2.5,2.8-5.5,7-6.8,9-1.2-1.4-2.5-2.9-5.7-5.8-7.7,8.2-16.6,12.2-20.6,14-2-3.2-4.9-6.5-7.7-9,7.5-2,15-6.6,19.9-11.4-4.5-3.1-7.5-4.6-9.2-5.5l6.5-7.6Z"/>
          <path class="cls-2" d="M524.9,4.4c.8,0,1.4,0,1.4.8s-.4.8-1.4,1.4v28.8h-11.1V4l11.1.4ZM552.9,3.8c1,0,1.4.2,1.4.8s-.7,1-1.4,1.4v19c0,16.4-8.2,26.8-23,32.3-1.4-2.7-4.4-6.2-7.7-8.7,17.6-5,19.3-15.6,19.3-25.2V3.3l11.4.5Z"/>
          <path class="cls-2" d="M571.3,4.4c5.4,2.7,11.6,6.4,15.3,9.8-2.8,3.1-5.3,7.2-6.5,9.2-4.4-4-9.8-7.5-15.1-9.9l6.3-9ZM566,45c17.7-3.6,35.7-17.3,44.4-32.6,3.1,5.1,4.6,7.2,6.6,9.6-8.6,13.8-24.7,26.6-43.1,33.2,0,.7-.2,1.6-1.1,1.6s-.8-.5-1.1-1l-5.8-10.8Z"/>
          <path class="cls-2" d="M663.9,11.6c.3,0,1.7,0,4-.9l5.7,4.6c-.9,1.3-1.1,1.8-5.3,12-6,14.8-17.8,26.3-27.9,30.8-1.6-1.8-7.4-7.1-9-8.1,7-3.1,20.4-9.2,27.4-28.4h-14.9c-5,6.9-8.5,10.5-12.4,14-2.1-2.1-6-5.3-8.8-7,4.5-3.2,14.7-13.2,20-26.6l10.1,4.1c.8.4,1.1.7,1.1,1.1,0,.8-1.1,1-1.7,1.1-1,1.7-1.3,2.4-1.9,3.4h13.5ZM662.2.8c1.6,1.4,4.4,4.2,5.9,6-1.2.8-3.7,2.5-4.9,3.6-.7-.7-2.9-3.5-6-6.1l5-3.5ZM671.7.1c2.2,2.1,4.5,4.7,6,6.7-1.4.8-3.7,2.5-5.1,3.5-.5-.7-2.7-4.2-5.6-6.8l4.8-3.4Z"/>
        </g>
      </g>
      <g>
        <path class="cls-5" d="M117.2,78.5c0-13.4-9.6-24.6-22.3-27.1-7.4-12.1-20.7-20.2-35.9-20.2s-21.8,4.6-29.4,12c-.5,0-1.1,0-1.6,0C12.8,43.2.4,55.6.4,70.8s1.1,8.7,3,12.4c-2.2,5-3.4,10.5-3.4,16.2,0,22.3,18.1,40.4,40.4,40.4s1.1,0,1.6,0c6,4.8,13.6,7.7,21.9,7.7,13.9,0,25.9-8.1,31.5-19.8,11.1-5.6,18.8-17.1,18.8-30.4s-.2-3.7-.4-5.5c2.2-4,3.4-8.5,3.4-13.3Z"/>
        <polygon class="cls-5" points="100.2 114.6 104.6 134.7 83.8 131 100.2 114.6"/>
      </g>
      <g>
        <g>
          <path class="cls-1" d="M58.4,117.4c1,2.9-.6,6.2-3.6,7.3-3,1-6.3-.5-7.3-3.4s.6-6.3,3.6-7.3c3.1-1.1,6.4.7,7.4,3.5Z"/>
          <path class="cls-1" d="M48,109.9c-3.1-6.5-19.2-39.5-19.7-41.1-1.1-3.1,0-6.1,4.4-7.7,4.5-1.6,7.2.2,8.2,3.3s8.4,37.4,10.1,44.5l-3,1Z"/>
        </g>
        <g>
          <path class="cls-1" d="M81.2,111c.7,3-1.2,6.1-4.3,6.9s-6.2-1.1-7-4.1,1.2-6.2,4.2-7,6.3,1.3,7,4.2Z"/>
          <path class="cls-1" d="M71.6,102.6c-2.4-6.8-15.5-41.2-15.8-42.7-.8-3.2.5-6.1,5.1-7.3,4.6-1.1,7.1.9,7.9,4s4.9,38,5.9,45.2l-3.1.8Z"/>
        </g>
      </g>
    </g>
  </g>
</svg>