<?xml version="1.0" encoding="UTF-8"?>
<svg id="_レイヤー_2" data-name="レイヤー 2" xmlns="http://www.w3.org/2000/svg" viewBox="0 0 301.7 167.6">
  <defs>
    <style>
      .cls-1 {
        fill: #c94605;
      }

      .cls-2 {
        fill: #1a1a1a;
      }

      .cls-3 {
        fill: #ffed9f;
      }
    </style>
  </defs>
  <g id="contents">
    <g>
      <g>
        <path class="cls-2" d="M139.2,22.3v-5h17.1c.5,0,1.7,0,2.3-.3l2.6,2.8c-.3.3-.8,1-1.3,2.1-1.2,2.8-2.6,5.6-4.3,8.2,1.4,1.1,7.5,6.2,10.1,9.2-1.1,1.3-2.9,3.3-4,4.6-1.2-1.7-4.1-5.6-9-9.6-3.2,3.9-8.5,8.2-12.9,10-1.3-2.1-2-3.1-3.8-4.6,4.3-1.5,7.6-3.5,10.9-6.7,3.8-3.7,5.2-7,6.7-10.8h-14.4Z"/>
        <path class="cls-2" d="M169.9,29.9v-4.8h28.7v4.8h-11c-.1,3.7-.8,7.4-3.8,10.7-1,1.1-3.3,3.5-7.3,4.8-1-1.6-2.6-3.1-4-4.2,7.6-2.1,9.7-6.4,9.7-11.3h-12.3ZM193.9,16.4v4.9h-19.3v-4.9h19.3Z"/>
        <path class="cls-2" d="M210.2,23.3c1,1.7,2.4,4.6,3.1,6.1-.8.3-2.7,1.1-4.3,2.1-.9-2.2-2-4.4-3.2-6.4l4.3-1.8ZM229.2,23.8c.4.1.6.2.6.5s-.5.4-.6.4c-2.8,11.9-8.2,16.6-16,19.9-.4-.7-1.4-2.3-3.2-3.8,8.6-3.3,12.9-7.9,14.3-18.5l4.9,1.5ZM217.1,21.7c1.1,1.9,1.9,3.6,2.7,6.3-2.4.9-3.3,1.2-4.2,1.7-.6-1.7-2-4.7-2.9-6.3l4.4-1.8Z"/>
        <path class="cls-2" d="M259.4,19.2c1,0,1.3-.2,1.6-.5l3.4,2.4c-.9,1.4-1.2,2.1-2.1,4.5-2.6,6.7-4.6,10.6-8.4,13.8-.7.6-4.6,4-9.1,5.9-1.1-2-2.3-3.2-3.8-4.4,5.1-1.9,9-4.9,10.6-6.7,1.8-2,4.4-6.1,5.4-10.2h-19.4v-4.8h21.9ZM267.9,16.9c0,1.7-1.4,3.2-3.2,3.2s-3.2-1.4-3.2-3.2,1.4-3.2,3.2-3.2,3.2,1.4,3.2,3.2ZM263.3,16.9c0,.8.6,1.5,1.5,1.5s1.5-.7,1.5-1.5-.7-1.5-1.5-1.5-1.5.6-1.5,1.5Z"/>
        <path class="cls-2" d="M299.6,21.1c-8.3-.1-15.5,7.3-15.5,12.7s4.9,5.8,9.5,5.9c-.7,1.4-1.9,4.3-2.5,6.1-2.7-.7-12.3-3.4-12.3-11.4s4.8-10.7,6.2-11.5c-6.6.5-10.6,1.4-13.9,2.1l-.8-6.3c5.1,0,8,0,14.9-.8,4.9-.5,10.3-1.4,13.4-2.4l.9,5.6ZM294,25.9c1,.9,2.4,2.5,3.1,3.6-.9.7-1.4,1-2.6,2-1.3-1.8-1.6-2.3-3-3.8l2.4-1.8ZM297.5,23.5c.9.8,2.3,2.5,3,3.5-.8.6-1.4,1.1-2.4,2.1-1.2-1.8-1.6-2.3-3-3.8l2.4-1.8Z"/>
        <path class="cls-2" d="M150.7,57.7c.3,0,.5.1.5.4s-.1.3-.7.5c0,.2-.2.3-.2.4h12.8l2.7,1.7c-1.9,3-3.4,4.4-4.1,5.1-2.2-1.6-3.3-2-3.9-2.2.5-.5.6-.8,1.1-1.4h-3.6c4.1,4.1,7.5,5,10.9,5.9-1.1,1.2-1.6,2-2.2,3.9-.8-.2-1.1-.3-1.7-.5v11.1h-4.1c3.2,1.3,6.2,1.9,7.4,2.2-1.4,1.2-2.2,2-3.1,3.9-4.1-1.4-6.3-2.3-9.8-4.4l1.3-1.7h-6l1.3,1.2c.1.1.2.3.2.4,0,.5-.4.5-.5.5s-.4,0-.6,0c-2.4,1.7-7,3.4-9.6,4.1-.3-1-.8-2.3-3-4.2,3.8-.4,6.8-1.5,7.6-1.9h-4v-13.7c-1.6.6-1.9.7-2.3.9-.1.4-.3,1.1-.8,1.1s-.5-.2-.5-.5l-1-4.3c2.5-.3,6.7-1.8,8.3-2.6-.4-.1-.6-.2-1.2-.4,1.7-1.5,3.4-3.3,4.7-6.4l4.1,1ZM136.9,57.5c3.9,1.1,5.2,1.6,6,2-.7,1.2-1.1,2-1.7,3.8-1.6-.7-3.4-1.4-5.7-2l1.4-3.9ZM145.8,68.6c-.9-1-1.4-1.2-1.9-1.5-.8.3-2,.8-4,1.5h5.9ZM148.2,62.2c-.9,1.2-1.6,1.9-2.4,2.8-.4-.3-1.2-1-2.1-1.3,0,.8.2,2.4.4,3.2,4-1.2,5.1-2.7,5.8-4.6h-1.8ZM157.2,72.6v-1h-12.6v1h12.6ZM157.2,76.1v-1h-12.6v1h12.6ZM144.6,78.5v1h12.6v-1h-12.6ZM156.5,68.6c-1.3-.8-1.5-1-3.6-2.8-.9,1.2-1.8,2.1-2.8,2.8h6.4Z"/>
        <path class="cls-2" d="M186.7,72.8h10.3v4.2h-6l4.3,1.7c.3.1.5.2.5.4,0,.4-.5.4-1.1.5-.6,1.5-1,2.5-1.6,3.6h5.1v4.1h-28.1v-4.1h5.6c-.8-1.8-1.3-2.7-2.6-4.4l3.3-1.8h-4.9v-4.2h10.4v-1.9h-4.8v-2.3c-2.2,1.4-2.8,1.8-5.6,3.3-1.2-1.6-2.4-2.8-3.9-3.8,9.4-4,13.6-9,14.6-10.9l5.5.6c.2,0,.4,0,.4.3s-.3.5-.7.6c5.6,5.9,11,7.9,13.7,8.8-.6.5-3,2.7-3.7,4.4-2.3-1-3.6-1.8-5.9-3.4v2.3h-4.8v1.9ZM181.8,77.1h-4.3c.4.5,1.7,2.2,2.7,4.5-1.4.8-2,1.1-2.8,1.7h4.4v-6.2ZM188.8,66.6c-1.9-1.4-3-2.4-4.4-4.1-1.7,1.9-3.7,3.5-4.5,4.1h9ZM186.7,83.3h4.1c-1.3-.7-2-1-2.6-1.3,1.4-2.1,2.1-4,2.4-4.9h-3.9v6.2Z"/>
        <path class="cls-2" d="M214.1,62.9v3.4h-11.7v-3.4h11.7ZM214.9,58.2h17.9v25.7c0,3.5-1.5,4.1-6.3,4.2-.3-1.9-.7-3.1-1.4-4.4.9.2,1.7.2,2,.2,1.5,0,1.5-.3,1.5-1.7v-20.3h-9.6v9c0,3.1-.3,7.9-.7,10.9-.5,3.4-1.1,5.5-1.4,6.5-.9-.6-1.9-1-3.1-1.4v.9h-4.1v-1h-2.2v1.5h-4.3v-11.9h10.6v6.8c1.2-5.3,1.3-10,1.3-13v-11.9ZM213.2,58.2v3.7h-9.7v-3.7h9.7ZM213.2,67.4v3.3h-9.7v-3.3h9.7ZM213.2,71.8v3.5h-9.7v-3.5h9.7ZM207.3,79.8v3.2h2.2v-3.2h-2.2ZM227.3,73.5v9.4h-4.7v1.9h-3.1v-11.3h7.8ZM227.5,64v3.3h-2.1v1.5h2.1v3.4h-7.8v-3.4h2v-1.5h-2v-3.3h2v-1.8l3.7.2c.2,0,.6,0,.6.4s0,.2-.6.5v.6h2.1ZM222.6,77v2.2h1.9v-2.2h-1.9Z"/>
        <path class="cls-2" d="M244.3,69.7v11c0,3.2,2.7,3.2,10,3.2s9.4-.2,13-.7c-1,1.7-1.4,2.7-1.5,4.6h-15.5c-4.7,0-6.9-1-8.6-2.7-1.5,1.2-2.3,1.7-3.5,2.2,0,.1,0,.2,0,.4,0,.4-.2.7-.5.7s-.4-.2-.6-.5l-2.3-4.6c1.4-.2,3.2-.9,4.5-1.9v-7.3h-3.2v-4.4h8.2ZM239,57.4c1.9,1.3,3.5,2.6,5.3,4.6-1.3,1-2.3,1.8-3.5,3.4-.5-.6-2.4-2.8-5.1-4.8l3.3-3.2ZM257.9,73.6h5.7v3.1h-5.7v1.3h8.4v3.3h-8.4v1.9h-4.9v-1.9h-7.4v-3.3h7.4v-1.3h-5.6v-3.1h5.6v-1.3h-6.5v-3.5h2.8c-.2-.5-.5-1.1-.7-1.3l2-.4h-5.5v-3.4h7.8v-1.2h-6.5v-3.4h6.5v-2l5,.2c.5,0,1,.1,1,.5s-.4.5-1,.8v.5h6.7v3.4h-6.7v1.2h8.5v3.4h-5.7,1.5c.4.2.8.2.8.5s-.4.4-.7.4c0,.3-.1.4-.3.8h2.7v3.5h-6.8v1.3ZM257.2,68.8c.2-.4.4-.8.6-1.7h-4.5c.3.6.4,1,.6,1.5l-1.4.3h4.6Z"/>
        <path class="cls-2" d="M285,58.8c.6.1.8.2.8.6s-.4.4-.9.5c-.2.7-.9,3.5-1.1,4.2,5.9-.2,7.9,3.5,7.9,10s0,7.7-2.8,11.2c-.7.9-2.1,2.2-5.4,2.2s-2.1-.2-2.8-.4c0-2.4,0-2.9-.7-5.5,2.1.6,2.8.7,3.5.7,2.7,0,3.1-6,3.1-9.4s-.1-3.8-3.2-3.8-.7,0-1,0c-1.7,6.4-4.2,12.5-7.6,18.1-1-.8-2.2-1.6-4.8-2.7,2.7-4.2,5.5-9.2,7.1-14.3-2.1.6-3.2,1-4.8,1.8l-1.6-5.7c1.3-.1,2.8-.5,7.7-1.6.6-3,1-4.8,1-7.5l5.5,1.4ZM293.6,62.9c2.1,2.1,4.1,4.4,5.4,6.5,1.2,1.9,1.6,3,1.6,4.2,0,2.5-2.9,3.6-4.9,4.4-.7-1.6-2-3.7-2.5-4.5,1.3-.4,1.7-.5,1.7-1.3,0-1.6-3.3-5.8-4.7-7.4l3.5-1.9ZM295.5,58.7c1.5,1.5,2.1,2.3,2.7,3.3-.8.5-.9.7-2.4,1.8-.3-.4-2-2.6-2.7-3.4l2.4-1.7ZM298.8,56.6c1.8,1.9,2.5,2.9,2.8,3.4-.7.5-1.9,1.4-2.7,1.9-.9-1.7-1.5-2.5-2.7-3.7l2.6-1.6Z"/>
        <path class="cls-2" d="M162.6,126.3c0,2.5-.7,4.3-8.3,4.2,0-1.1-.2-2.6-1.8-5.5,2.2.3,2.4.3,3.1.3,1.7,0,1.7-.5,1.7-1.5v-18.5h-21.9v-4.6h30.8v4.6h-3.7v21ZM152.9,108.4v14.1h-8.8v2.7h-5v-16.8h13.8ZM144,112.9v5.1h4v-5.1h-4Z"/>
        <path class="cls-2" d="M180.8,102.4c1.5,1.6,3.4,6.1,3.6,6.4-1.5.7-2.9,1.5-3.6,2h2.1v15.4c0,2.3,0,4.5-4.6,4.5s-.8,0-1.1,0c-.2-1.2-.9-2.9-1.7-4.4.3,0,1.9.2,2.2.2.6,0,.8,0,.8-.7v-1.3h-3.8v6.3h-4.5v-19.9h9.9c-.2-.7-.4-1.3-.8-2.2-1.4.3-7.6,1.2-8.9,1.4-.2.5-.3.7-.7.7s-.4-.2-.4-.5l-1-4c1.6,0,2.1-.1,2.7-.2.2-.6,1.4-3.2,2.1-6.3l4.6,1.1c.1,0,.4.2.4.4s-.1.4-.4.5c-.1,0-.2.1-.5.2-.3.6-1.5,3.1-1.7,3.6.6,0,1.1-.2,2.1-.3-.2-.3-.3-.5-.6-.9l3.8-1.8ZM178.5,116v-1.7h-3.8v1.7h3.8ZM178.5,121v-1.7h-3.8v1.7h3.8ZM197.8,104.2c.1.1.2.2.2.4,0,.2-.2.3-.4.3s-.6-.2-.8-.2c-2.6,1.7-5.4,3-7.7,3.8v1c0,.8.2,1,1,1h4.1c.7,0,1.2,0,2-3.8,1.1,1,2.7,1.8,4,2.1-.7,3.4-1.4,5.4-4.5,5.4h-6.7c-2,0-4.3-.2-4.3-3.2v-10.9l4.8.4c.2,0,.4.1.4.4s-.2.4-.8.7v2.6c3.1-1.3,4.5-2.4,5.6-3.4l3.1,3.4ZM198.5,118c.1.1.2.3.2.4s-.1.5-.5.5-.4,0-.7-.2c-1.7,1.4-3.6,2.9-8.4,4.9v1.6c0,1,.4,1,1.1,1h3.8c.4,0,1,0,1.3-.5.3-.6.7-2.4.9-3.2,1.2,1.1,3.1,1.8,4.1,1.9-.6,4.1-1.1,5.8-4.9,5.8h-6.1c-2.9,0-4.4-.7-4.4-3.8v-11.6l4.8.3c.2,0,.4.1.4.4s-.2.5-.8.7v2.9c2.8-1.4,4.9-3.1,5.9-4.1l3.5,3Z"/>
        <path class="cls-2" d="M211.2,102.4c.6.2.9.3.9.6s-.7.4-.9.4c-1,3-2.2,6.8-2.2,13.8s0,1.7.2,2.7c.2-.4,1-1.8,1.4-2.5,1,1.5,2,2.4,2.6,2.7-.8,1.6-2.4,5.5-2.2,8l-4.8,1.3c-1.1-3.2-2.4-6.9-2.4-13.4s.9-10.2,2.1-15.6l5.2,1.9ZM220,118.2c-.2.6-.5,1.7-.5,2.4,0,1.5.8,1.7,4.7,1.7s5.2-.1,8.3-.9c-.6,2.5-.5,5-.5,5.5-2.3.3-6.1.4-8.5.4-5,0-8.8-.9-8.8-5s0-2.3,1.1-4.9l4.3.8ZM216,103.8c1,0,2.3.2,4.4.2,5.5,0,8.6-.8,9.9-1.1,0,.5.2,3.5.5,5.1-1.4.3-4.9,1-10.3,1s-3.3-.1-4.4-.2v-5Z"/>
        <path class="cls-2" d="M239.6,120.9l5.6.7-.7,5.6-5.6-.7.7-5.6ZM247.6,101l-.9,7.8-2.3,9.6-3.2-.4v-9.9c0,0,.8-7.8.8-7.8l5.6.7Z"/>
      </g>
      <g>
        <polygon class="cls-3" points="44.1 131.1 11 134.6 -6.4 10.4 35.4 6 44.1 131.1"/>
        <g>
          <path class="cls-2" d="M17.9,19c.4,0,.6,0,.6.2s-.3.5-.5.6c.1.9.2,2,.4,3.9l8.9-.9c1,11.9.7,13.9.2,15.5-.5,1.8-1.7,4.6-7.5,4.9-.3-1.4-.6-2.3-1.6-4.5.5,0,1.1.1,2,0,2.4-.3,3.7-.4,2.8-11.2l-4.6.5c-.5,8.4-3.8,12.7-9.1,16.6-.8-1-1.8-2-3.6-3,6.1-4.1,7.7-7.7,8.2-13.1l-8.4.9-.4-4.2,8.9-.9c-.2-2.6-.5-4.1-.8-5l4.8-.2Z"/>
          <path class="cls-2" d="M10,46.2c4.9,1.9,6.5,3.1,7.4,3.8-.6.9-.7,1.2-2.3,4.1-3.3-2.3-6-3.2-7.5-3.7l2.3-4.2ZM9.8,65.7c7.8-2.5,15-8.7,19.2-17.2,1.4,1.8,1.9,2.4,3.3,3.5-1.4,2.6-3.6,6.3-7.7,10.2-2.3,2.2-6.5,5.4-10.8,7.4,0,.3,0,.6-.3.7s-.3,0-.5-.3l-3.1-4.2Z"/>
          <path class="cls-2" d="M20.6,80.5c2.1.9,3.4,1.5,4.7,2.2,1-2.1,1.4-3.6,1.6-4.5l-6.6.7c-1.5,2.5-3.1,4.9-5.2,6.9-2-1.5-2.2-1.6-3.8-2.6,3.7-3.1,6.3-7.4,7.9-12.7l4.5,1c.3,0,.5.1.5.3s-.2.3-.6.4c-.4,1-.7,1.6-1.1,2.5l6.1-.6c1-.1,1.5-.3,1.9-.5l2.2,1.5c-.3.8-.3.8-.5,1.2-1.3,4.4-1.8,6.1-3.1,8.5,1.7,1.2,2.3,1.8,2.7,2.3-.7,1-1.9,3.2-2.3,4-.7-.8-1.5-1.5-2.7-2.5-3.3,4.5-7.3,6.7-9.5,7.8-1-1.3-2.2-2.4-3.4-3.4,3.6-1.4,7.6-4.5,9.3-6.8-2-1.2-3.7-2-4.8-2.5l2.3-3.3Z"/>
          <path class="cls-2" d="M15.5,98.1c4.9,1.9,6.5,3.1,7.4,3.8-.6.9-.7,1.2-2.3,4.1-3.3-2.3-6-3.2-7.5-3.7l2.3-4.2ZM15.2,117.6c7.8-2.5,15-8.7,19.2-17.2,1.4,1.8,1.9,2.4,3.3,3.5-1.4,2.6-3.6,6.3-7.7,10.2-2.3,2.2-6.5,5.4-10.8,7.4,0,.3,0,.6-.3.7s-.3,0-.5-.3l-3.1-4.2Z"/>
        </g>
      </g>
      <path class="cls-1" d="M122.6,44.9c0,4.9-1,9.1-3,12.7-2,3.6-4.8,6.5-8.2,8.8-3.5,2.3-7.3,3.9-11.6,5v.4c8.5,1.1,15,3.7,19.4,7.8,4.4,4.2,6.6,9.7,6.6,16.7s-1.5,11.7-4.5,16.6c-3,4.9-7.7,8.7-14,11.5-6.3,2.8-14.4,4.2-24.3,4.2s-11.3-.5-16.3-1.4c-5-.9-9.8-2.4-14.2-4.3v-19.1c4.5,2.3,9.3,4.1,14.3,5.3,5,1.2,9.6,1.8,13.9,1.8,8,0,13.6-1.4,16.8-4.2,3.2-2.8,4.8-6.7,4.8-11.7s-.8-5.4-2.2-7.5c-1.5-2-4.1-3.6-7.8-4.6s-8.9-1.6-15.5-1.6h-8v-17.2h8.2c6.5,0,11.5-.6,14.9-1.8,3.4-1.2,5.7-2.9,7-5.1,1.2-2.1,1.8-4.6,1.8-7.4s-1.2-6.7-3.5-8.8c-2.3-2.1-6.2-3.2-11.6-3.2s-6.5.4-9.2,1.3c-2.8.8-5.3,1.9-7.5,3-2.2,1.2-4.2,2.3-5.9,3.4l-10.4-15.4c4.2-3,9-5.5,14.6-7.5,5.6-2,12.2-3,20-3s19.6,2.2,25.9,6.6c6.4,4.4,9.6,10.6,9.6,18.6Z"/>
    </g>
  </g>
</svg>