<?xml version="1.0" encoding="UTF-8"?>
<svg id="_レイヤー_2" data-name="レイヤー 2" xmlns="http://www.w3.org/2000/svg" viewBox="0 0 611.2 191.3">
  <defs>
    <style>
      .cls-1 {
        fill: #c94605;
      }

      .cls-2 {
        fill: #1a1a1a;
      }

      .cls-3 {
        fill: #ffed9f;
      }
    </style>
  </defs>
  <g id="contents">
    <g>
      <g>
        <path class="cls-2" d="M161,39.1v-7.8h26.6c.8,0,2.7-.1,3.6-.4l4.1,4.4c-.4.5-1.2,1.6-2,3.3-1.9,4.4-4,8.7-6.6,12.7,2.2,1.7,11.7,9.6,15.6,14.2-1.7,2-4.5,5.1-6.2,7.1-1.9-2.7-6.3-8.7-14-14.8-5,6-13.2,12.7-20,15.5-2-3.3-3.1-4.7-5.9-7.1,6.7-2.4,11.9-5.5,16.9-10.4,5.9-5.7,8.1-10.8,10.4-16.8h-22.4Z"/>
        <path class="cls-2" d="M208.6,50.8v-7.4h44.5v7.4h-17c-.2,5.7-1.3,11.4-5.9,16.5-1.6,1.7-5.1,5.4-11.3,7.4-1.6-2.4-4-4.8-6.2-6.4,11.8-3.2,15-9.9,15.1-17.5h-19.1ZM245.9,29.9v7.5h-29.9v-7.5h29.9Z"/>
        <path class="cls-2" d="M271.2,40.5c1.6,2.6,3.8,7.1,4.8,9.5-1.3.5-4.3,1.7-6.6,3.2-1.4-3.4-3.2-6.8-4.9-9.9l6.7-2.8ZM300.6,41.3c.6.2,1,.3,1,.8s-.7.6-1,.6c-4.4,18.5-12.7,25.7-24.8,30.9-.6-1.1-2.2-3.6-4.9-5.9,13.3-5.1,20-12.2,22.2-28.8l7.5,2.3ZM281.8,38.1c1.8,2.9,3,5.6,4.3,9.8-3.8,1.4-5,1.9-6.6,2.7-1-2.7-3.1-7.3-4.5-9.7l6.8-2.8Z"/>
        <path class="cls-2" d="M347.5,34.2c1.6,0,2-.3,2.5-.7l5.3,3.7c-1.5,2.2-1.9,3.2-3.3,6.9-4.1,10.5-7.2,16.4-13,21.5-1.1,1-7.1,6.1-14.1,9.2-1.7-3.1-3.6-5-5.9-6.9,7.9-2.9,13.9-7.6,16.4-10.4,2.9-3.1,6.9-9.5,8.4-15.8h-30.2v-7.5h34ZM360.7,30.7c0,2.7-2.2,4.9-4.9,4.9s-4.9-2.2-4.9-4.9,2.2-4.9,4.9-4.9,4.9,2.1,4.9,4.9ZM353.5,30.7c0,1.2,1,2.3,2.3,2.3s2.3-1,2.3-2.3-1-2.3-2.3-2.3-2.3,1-2.3,2.3Z"/>
        <path class="cls-2" d="M409.8,37.2c-12.8-.2-24,11.3-24,19.8s7.6,9,14.7,9.2c-1.1,2.2-3,6.6-3.9,9.5-4.2-1.1-19.1-5.3-19.1-17.7s7.4-16.5,9.6-17.9c-10.2.8-16.5,2.1-21.5,3.3l-1.2-9.8c8,0,12.5,0,23.1-1.2,7.5-.8,16-2.2,20.9-3.8l1.5,8.7ZM401.1,44.5c1.6,1.4,3.8,4,4.8,5.6-1.5,1-2.2,1.6-4,3.1-2-2.9-2.5-3.5-4.6-5.9l3.8-2.8ZM406.6,40.8c1.5,1.3,3.6,3.8,4.6,5.5-1.3,1-2.2,1.8-3.8,3.2-1.9-2.9-2.5-3.5-4.6-5.9l3.8-2.8Z"/>
        <path class="cls-2" d="M178.9,93.9c.4.1.7.2.7.6s-.2.5-1,.8c-.1.3-.3.4-.4.6h19.8l4.3,2.7c-3,4.6-5.2,6.8-6.4,8-3.4-2.5-5.1-3.1-6-3.4.7-.8,1-1.2,1.7-2.2h-5.6c6.3,6.3,11.6,7.7,17,9.1-1.7,1.8-2.4,3.1-3.4,6-1.3-.3-1.8-.5-2.7-.8v17.2h-6.3c5,2,9.7,3,11.5,3.4-2.2,1.9-3.4,3.2-4.8,6-6.3-2.2-9.7-3.6-15.2-6.8l2.1-2.6h-9.3l2,1.9c.2.2.3.4.3.6,0,.7-.6.7-.8.7s-.6-.1-.9-.1c-3.7,2.6-10.8,5.2-14.9,6.3-.5-1.5-1.3-3.5-4.6-6.5,5.9-.6,10.5-2.4,11.8-2.9h-6.2v-21.3c-2.4.9-2.9,1.1-3.6,1.4-.2.6-.5,1.7-1.3,1.7s-.7-.3-.8-.8l-1.6-6.6c3.8-.5,10.5-2.9,12.9-4-.6-.2-1-.3-1.8-.6,2.7-2.4,5.2-5.1,7.3-9.9l6.4,1.6ZM157.4,93.6c6.1,1.7,8,2.5,9.3,3.1-1.1,1.9-1.7,3.1-2.6,5.9-2.4-1.1-5.2-2.2-8.9-3.1l2.2-6ZM171.2,110.9c-1.5-1.5-2.1-1.9-2.9-2.3-1.2.5-3.1,1.2-6.2,2.3h9.2ZM174.9,100.9c-1.5,1.9-2.4,3-3.7,4.4-.6-.5-1.9-1.5-3.2-2.1,0,1.3.3,3.7.7,4.9,6.1-1.9,8-4.2,9-7.2h-2.8ZM188.9,117.1v-1.5h-19.6v1.5h19.6ZM188.9,122.4v-1.6h-19.6v1.6h19.6ZM169.4,126.1v1.6h19.6v-1.6h-19.6ZM187.9,110.9c-2-1.2-2.4-1.6-5.6-4.4-1.5,1.9-2.8,3.2-4.3,4.4h9.9Z"/>
        <path class="cls-2" d="M234.7,117.4h15.9v6.6h-9.4l6.7,2.7c.5.2.8.3.8.6,0,.6-.8.7-1.7.7-.9,2.3-1.5,3.8-2.5,5.6h8v6.4h-43.6v-6.4h8.7c-1.2-2.9-2-4.2-4.1-6.9l5.1-2.8h-7.6v-6.6h16.1v-2.9h-7.5v-3.6c-3.4,2.2-4.4,2.8-8.6,5.1-1.9-2.4-3.7-4.4-6-5.9,14.5-6.2,21.1-13.9,22.6-16.8l8.5.9c.3,0,.7.1.7.5s-.5.8-1,.9c8.7,9.2,17.1,12.2,21.3,13.7-1,.8-4.6,4.2-5.7,6.8-3.5-1.5-5.6-2.8-9.2-5.3v3.6h-7.4v2.9ZM227.2,123.9h-6.6c.7.8,2.6,3.4,4.3,7-2.2,1.2-3.2,1.8-4.4,2.6h6.8v-9.6ZM237.9,107.8c-3-2.2-4.6-3.8-6.9-6.4-2.7,3-5.8,5.5-7,6.4h13.9ZM234.7,133.6h6.3c-2.1-1.1-3.1-1.6-4.1-2,2.2-3.3,3.3-6.1,3.7-7.6h-6v9.6Z"/>
        <path class="cls-2" d="M277.1,102v5.3h-18.2v-5.3h18.2ZM278.4,94.7h27.8v39.9c0,5.4-2.3,6.4-9.7,6.5-.4-3-1.1-4.8-2.2-6.9,1.4.3,2.7.3,3.1.3,2.3,0,2.3-.5,2.3-2.7v-31.5h-14.9v13.9c0,4.8-.5,12.3-1.1,17-.7,5.2-1.8,8.5-2.2,10-1.4-.9-2.9-1.6-4.8-2.2v1.5h-6.3v-1.6h-3.4v2.3h-6.7v-18.4h16.4v10.6c1.9-8.2,2-15.4,2-20.2v-18.5ZM275.8,94.7v5.7h-15v-5.7h15ZM275.8,109v5.1h-15v-5.1h15ZM275.8,115.8v5.4h-15v-5.4h15ZM266.7,128.2v4.9h3.4v-4.9h-3.4ZM297.7,118.4v14.5h-7.3v3h-4.8v-17.5h12.1ZM298,103.7v5.1h-3.2v2.3h3.2v5.3h-12.1v-5.3h3.1v-2.3h-3.1v-5.1h3.1v-2.8l5.7.4c.3,0,1,0,1,.6s-.1.3-1,.8v.9h3.2ZM290.4,123.8v3.4h2.9v-3.4h-2.9Z"/>
        <path class="cls-2" d="M324,112.6v17.1c0,5,4.3,5,15.5,5s14.6-.4,20.2-1c-1.5,2.7-2.2,4.2-2.4,7.1h-24c-7.3,0-10.7-1.6-13.4-4.3-2.3,1.9-3.6,2.7-5.4,3.5,0,.2,0,.4,0,.6,0,.7-.4,1-.8,1s-.7-.3-.9-.8l-3.6-7.1c2.2-.4,5-1.4,7-2.9v-11.3h-4.9v-6.8h12.7ZM315.8,93.5c2.9,2,5.4,4,8.2,7.2-2.1,1.5-3.5,2.9-5.4,5.2-.8-1-3.8-4.4-7.9-7.4l5-4.9ZM345.2,118.6h8.8v4.8h-8.8v2h13v5.1h-13v2.9h-7.6v-2.9h-11.5v-5.1h11.5v-2h-8.7v-4.8h8.7v-2h-10.1v-5.4h4.4c-.4-.8-.8-1.7-1-2.1l3.2-.6h-8.6v-5.3h12.1v-1.9h-10.1v-5.3h10.1v-3.1l7.7.3c.8,0,1.5.2,1.5.8s-.6.8-1.6,1.2v.8h10.3v5.3h-10.3v1.9h13.2v5.3h-8.9l2.3.2c.7,0,1.2.1,1.2.6s-.6.6-1.1.7c-.1.4-.2.7-.4,1.2h4.2v5.4h-10.5v2ZM344,111.2c.3-.6.6-1.2,1-2.7h-7c.5,1,.7,1.6.9,2.3l-2.1.4h7.2Z"/>
        <path class="cls-2" d="M387.1,95.6c.9.2,1.2.3,1.2.9s-.7.7-1.4.7c-.3,1-1.5,5.4-1.7,6.6,9.2-.4,12.3,5.4,12.3,15.4s0,12-4.3,17.4c-1.1,1.5-3.3,3.4-8.4,3.4s-3.3-.3-4.4-.6c0-3.8,0-4.5-1.1-8.5,3.3.9,4.4,1,5.5,1,4.3,0,4.8-9.4,4.8-14.6s-.2-5.9-4.9-5.9-1,0-1.6.1c-2.7,9.9-6.6,19.4-11.9,28.1-1.6-1.3-3.4-2.5-7.5-4.2,4.3-6.4,8.5-14.3,11-22.2-3.2.9-4.9,1.6-7.4,2.8l-2.4-8.8c2.1-.2,4.4-.7,12-2.4.9-4.6,1.5-7.4,1.6-11.6l8.5,2.1ZM400.5,101.9c3.3,3.3,6.4,6.9,8.4,10,1.9,3,2.5,4.7,2.5,6.5,0,3.9-4.5,5.6-7.6,6.8-1.1-2.5-3.1-5.7-4-6.9,2-.6,2.7-.8,2.7-2,0-2.5-5.1-9-7.3-11.4l5.4-3ZM403.4,95.5c2.3,2.3,3.2,3.6,4.3,5.1-1.2.8-1.5,1-3.8,2.8-.5-.7-3.1-4.1-4.3-5.3l3.8-2.6ZM408.6,92.3c2.9,2.9,3.8,4.5,4.4,5.3-1.1.8-3,2.1-4.2,3-1.5-2.6-2.3-3.8-4.2-5.7l4-2.5Z"/>
        <path class="cls-2" d="M457.3,134.5c0,3.9-1.1,6.7-12.8,6.5-.1-1.7-.3-4-2.8-8.5,3.4.5,3.8.5,4.8.5,2.7,0,2.7-.8,2.7-2.3v-28.8h-34v-7.1h47.8v7.1h-5.7v32.6ZM442.2,106.8v21.8h-13.7v4.3h-7.7v-26.1h21.4ZM428.5,113.6v7.9h6.1v-7.9h-6.1Z"/>
        <path class="cls-2" d="M485.5,97.4c2.3,2.5,5.3,9.5,5.5,9.9-2.3,1.1-4.5,2.4-5.6,3.1h3.3v23.9c0,3.6,0,6.9-7.1,6.9s-1.2,0-1.8-.1c-.3-1.9-1.4-4.5-2.7-6.8.5,0,2.9.3,3.4.3.9,0,1.3,0,1.3-1.1v-2h-5.8v9.8h-7v-30.8h15.4c-.3-1.1-.6-2-1.2-3.4-2.2.4-11.9,1.8-13.8,2.2-.3.7-.4,1.1-1.1,1.1s-.6-.4-.7-.8l-1.6-6.2c2.5-.1,3.2-.2,4.2-.3.4-.9,2.2-4.9,3.3-9.8l7.2,1.7c.2,0,.6.3.6.6s-.2.6-.6.8c-.2,0-.4.2-.7.3-.5.9-2.3,4.8-2.7,5.6,1-.1,1.8-.3,3.3-.5-.3-.5-.5-.8-.9-1.5l5.9-2.8ZM481.9,118.6v-2.7h-5.8v2.7h5.8ZM481.9,126.3v-2.7h-5.8v2.7h5.8ZM511.9,100.2c.2.2.3.4.3.6,0,.4-.4.5-.6.5s-1-.3-1.2-.4c-4,2.7-8.3,4.6-12,5.9v1.6c0,1.3.4,1.5,1.6,1.5h6.4c1,0,1.9,0,3.1-5.9,1.8,1.6,4.2,2.8,6.2,3.3-1.1,5.3-2.2,8.4-7,8.4h-10.5c-3.1,0-6.6-.3-6.6-4.9v-16.9l7.5.6c.3,0,.6.2.6.6s-.3.6-1.3,1v4.1c4.8-2,7-3.8,8.7-5.3l4.8,5.3ZM512.9,121.6c.2.2.4.4.4.7s-.2.7-.8.7-.7-.1-1.1-.3c-2.7,2.1-5.6,4.5-13,7.5v2.4c0,1.5.6,1.5,1.7,1.5h5.8c.6,0,1.6-.1,2-.7.5-.9,1.1-3.7,1.4-5,1.8,1.7,4.8,2.8,6.3,2.9-.9,6.3-1.7,8.9-7.6,8.9h-9.5c-4.5,0-6.8-1.1-6.8-5.8v-17.9l7.5.5c.3,0,.6.2.6.6s-.3.7-1.2,1v4.5c4.4-2.1,7.5-4.8,9.2-6.3l5.4,4.7Z"/>
        <path class="cls-2" d="M532.7,97.4c1,.4,1.4.5,1.4.9s-1,.6-1.4.6c-1.6,4.6-3.4,10.6-3.4,21.5s.1,2.7.4,4.2c.3-.6,1.6-2.9,2.2-3.9,1.5,2.3,3.2,3.7,4,4.3-1.3,2.4-3.7,8.5-3.4,12.4l-7.4,2c-1.8-4.9-3.7-10.7-3.7-20.8s1.5-15.9,3.3-24.1l8,3ZM546.4,121.9c-.3.9-.8,2.7-.8,3.7,0,2.3,1.2,2.7,7.2,2.7s8.1-.2,12.8-1.4c-.9,3.8-.8,7.7-.8,8.5-3.6.5-9.5.7-13.2.7-7.7,0-13.7-1.4-13.7-7.7s0-3.6,1.7-7.6l6.7,1.2ZM540.1,99.6c1.6.1,3.6.3,6.8.3,8.6,0,13.3-1.2,15.3-1.7,0,.8.3,5.4.7,7.9-2.1.4-7.6,1.6-16,1.6s-5.1-.2-6.8-.3v-7.8Z"/>
        <path class="cls-2" d="M576.7,127.8l8.7,1-1,8.7-8.7-1,1-8.7ZM589.2,96.8l-1.4,12-3.6,15-5-.6v-15.4c-.1,0,1.3-12,1.3-12l8.7,1Z"/>
      </g>
      <g>
        <polygon class="cls-3" points="50.4 149.6 12.6 153.6 -7.3 11.9 40.4 6.9 50.4 149.6"/>
        <g>
          <path class="cls-2" d="M20.5,21.7c.4,0,.6,0,.7.3s-.3.5-.6.6c.1,1,.3,2.3.4,4.5l10.1-1.1c1.1,13.6.8,15.8.2,17.7-.6,2-2,5.3-8.6,5.6-.3-1.5-.7-2.7-1.9-5.1.6,0,1.2.2,2.3,0,2.8-.3,4.2-.4,3.2-12.8l-5.3.6c-.5,9.6-4.3,14.5-10.4,18.9-1-1.2-2.1-2.3-4.1-3.4,6.9-4.7,8.8-8.8,9.3-14.9l-9.6,1-.5-4.8,10.1-1.1c-.2-2.9-.6-4.7-.9-5.7l5.5-.2Z"/>
          <path class="cls-2" d="M11.5,52.8c5.6,2.2,7.5,3.6,8.5,4.4-.7,1-.9,1.4-2.6,4.7-3.7-2.6-6.9-3.7-8.6-4.2l2.7-4.8ZM11.2,75c8.9-2.8,17.2-9.9,21.9-19.6,1.6,2,2.2,2.8,3.7,4-1.6,2.9-4.1,7.2-8.8,11.6-2.7,2.5-7.4,6.1-12.4,8.5,0,.4,0,.7-.4.7s-.3,0-.6-.4l-3.5-4.8Z"/>
          <path class="cls-2" d="M23.6,91.9c2.4,1,3.8,1.7,5.3,2.5,1.2-2.4,1.6-4.1,1.8-5.1l-7.5.8c-1.7,2.8-3.6,5.6-5.9,7.8-2.3-1.7-2.5-1.9-4.4-2.9,4.2-3.5,7.2-8.4,9-14.5l5.1,1.1c.4,0,.6.1.6.4s-.3.4-.7.5c-.5,1.1-.8,1.9-1.2,2.9l6.9-.7c1.2-.1,1.7-.3,2.2-.5l2.5,1.7c-.4.9-.4.9-.5,1.4-1.5,5.1-2.1,6.9-3.5,9.7,1.9,1.4,2.6,2.1,3.1,2.7-.7,1.1-2.2,3.6-2.6,4.5-.8-.9-1.7-1.8-3.1-2.9-3.8,5.1-8.3,7.6-10.9,8.9-1.1-1.5-2.5-2.8-3.9-3.9,4.1-1.6,8.7-5.1,10.7-7.8-2.3-1.3-4.2-2.3-5.5-2.8l2.7-3.8Z"/>
          <path class="cls-2" d="M17.7,112c5.6,2.2,7.5,3.6,8.5,4.4-.7,1-.9,1.4-2.6,4.7-3.7-2.6-6.9-3.7-8.6-4.2l2.7-4.8ZM17.4,134.2c8.9-2.8,17.2-9.9,21.9-19.6,1.6,2,2.2,2.8,3.7,4-1.6,2.9-4.1,7.2-8.8,11.6-2.7,2.5-7.4,6.1-12.4,8.5,0,.4,0,.7-.4.7s-.3,0-.6-.4l-3.5-4.8Z"/>
        </g>
      </g>
      <path class="cls-1" d="M139.9,51.3c0,5.6-1.2,10.4-3.5,14.5-2.3,4.1-5.4,7.4-9.4,10-3.9,2.6-8.4,4.5-13.3,5.7v.5c9.7,1.2,17.1,4.2,22.1,8.9,5,4.7,7.6,11.1,7.6,19s-1.7,13.4-5.2,18.9c-3.4,5.6-8.8,10-15.9,13.2s-16.4,4.8-27.7,4.8-12.9-.5-18.7-1.6c-5.8-1.1-11.2-2.7-16.3-4.9v-21.8c5.2,2.6,10.6,4.6,16.3,6,5.7,1.4,11,2,15.9,2,9.2,0,15.6-1.6,19.2-4.8,3.7-3.2,5.5-7.6,5.5-13.4s-.9-6.2-2.6-8.5c-1.7-2.3-4.7-4.1-8.9-5.3-4.2-1.2-10.1-1.8-17.7-1.8h-9.2v-19.6h9.3c7.4,0,13.1-.7,17-2.1,3.9-1.4,6.5-3.3,7.9-5.8,1.4-2.5,2.1-5.3,2.1-8.4s-1.3-7.7-4-10.1c-2.6-2.4-7.1-3.6-13.2-3.6s-7.4.5-10.5,1.4c-3.2,1-6,2.1-8.6,3.5-2.5,1.4-4.8,2.7-6.7,3.9l-11.8-17.6c4.7-3.4,10.3-6.3,16.7-8.5,6.4-2.3,14-3.4,22.8-3.4s22.3,2.5,29.6,7.5c7.3,5,10.9,12.1,10.9,21.3Z"/>
    </g>
  </g>
</svg>