<?xml version="1.0" encoding="UTF-8"?>
<svg id="Layer_2" data-name="Layer 2" xmlns="http://www.w3.org/2000/svg" viewBox="0 0 677.03 43.24">
  <defs>
    <style>
      .cls-1 {
        fill: #c94605;
      }

      .cls-2 {
        fill: #1a1a1a;
      }
    </style>
  </defs>
  <g id="contents">
    <g>
      <path class="cls-1" d="M29.03,35.38c4.69,1.66,9.98,3.86,13.11,5.38l-6.35,2.44c-2.62-1.52-7.31-3.68-11.96-5.43l4.14-2.39h-13.43l4.19,1.84c-3.82,2.48-9.71,4.74-14.35,6.03-.97-1.06-2.9-3.04-4.05-4,4.46-.83,9.48-2.3,12.65-3.86h-6.76v-18.68h9.62c-.55-1.1-1.43-2.44-2.16-3.17l.05.18c-3.96,1.15-8.24,2.39-11.69,3.36L0,12.28c3.4-.64,8.33-1.79,13.2-2.94l.46,4.14c7.31-1.2,9.75-3.17,10.76-6.44h-3.31c-1.06,1.29-2.25,2.53-3.68,3.68-.97-.97-2.85-2.07-4.09-2.58,3.31-2.3,5.57-5.34,6.76-8l4.83.78c-.37.78-.74,1.52-1.2,2.25h13.57l.83-.14,3.63.92c-1.2,2.48-2.85,5.24-4.37,6.95l-4.23-1.33c.55-.69,1.2-1.56,1.79-2.53h-5.11c1.01,2.99,3.59,5.47,12.88,6.58-1.01,1.01-2.21,3.13-2.71,4.46-1.1-.18-2.12-.37-3.04-.6v17.9h-7.96ZM11.64,8.28c-2.12-1.15-6.44-2.81-9.62-3.73L4.42.83c3.04.74,7.41,2.21,9.71,3.31l-2.48,4.14ZM11.5,21.94h19.92v-1.98H11.5v1.98ZM11.5,27.01h19.92v-1.98H11.5v1.98ZM11.5,32.11h19.92v-2.02H11.5v2.02ZM34.41,16.7c-3.54-1.29-5.66-2.99-7.04-4.97-1.61,2.16-4.19,3.77-8.37,4.97h15.41Z"/>
      <path class="cls-1" d="M81.52,29.81c-1.75,2.53-3.54,5.34-5.15,7.27h10.4v4.69h-38.92v-4.69h8.97c-.69-2.07-2.21-5.15-3.82-7.41l4.19-1.79h-7.04v-4.69h13.99v-4.55h-8.46v-2.25c-2.16,1.56-4.51,3.04-6.85,4.28-.69-1.29-2.21-3.27-3.4-4.42,7.82-3.82,15.18-10.72,18.59-16.24h5.66c4.97,6.95,12.38,12.74,19.64,15.69-1.38,1.38-2.62,3.22-3.63,4.92-2.3-1.2-4.69-2.71-6.99-4.37v2.39h-8.79v4.55h14.17v4.69h-14.17v9.2h5.01l-2.99-1.24c1.52-2.16,3.36-5.52,4.37-7.96l5.25,1.93ZM57.46,27.88c1.75,2.35,3.54,5.47,4.23,7.59l-3.77,1.61h6.21v-9.2h-6.67ZM75.54,13.85c-3.4-2.76-6.44-5.75-8.46-8.51-1.98,2.76-4.83,5.75-8.14,8.51h16.61Z"/>
      <path class="cls-1" d="M97.75,27.6c-.46,4.42-1.38,8.97-2.71,11.87-.92-.6-2.9-1.47-3.96-1.93,1.29-2.67,1.93-6.81,2.25-10.63l4.42.69ZM103,24.15v18.82h-4.74v-18.26l-5.98.64-.78-4.78c.92-.05,1.89-.09,2.99-.18.78-.97,1.61-2.07,2.39-3.27-1.24-2.07-3.4-4.65-5.29-6.53l2.67-3.73c.37.32.74.69,1.1,1.06,1.2-2.48,2.39-5.47,3.13-7.77l4.69,1.66c-1.56,3.13-3.36,6.67-4.92,9.2.51.64,1.01,1.24,1.43,1.84,1.52-2.53,2.9-5.06,3.91-7.22l4.37,2.07c-1.75,2.76-3.82,5.84-5.84,8.7l3.31-1.29c1.61,3.17,3.22,7.22,3.63,9.89l-3.96,1.61c-.14-.78-.32-1.66-.6-2.58l-1.52.14ZM103.13,19.78c-.41-1.06-.83-2.12-1.29-3.04-.83,1.15-1.66,2.25-2.48,3.31l3.77-.28ZM107,26.55c1.1,2.58,2.25,5.98,2.67,8.23l-4.09,1.43c-.37-2.3-1.47-5.75-2.48-8.47l3.91-1.2ZM126.96,31.24c2.25,2.62,5.34,5.06,8.24,6.49-1.15.92-2.71,2.71-3.54,3.96-2.81-1.84-5.75-4.88-7.96-8.19v9.48h-5.01v-9.39c-2.35,3.45-5.52,6.49-8.83,8.28-.78-1.15-2.35-2.99-3.45-3.96,3.31-1.38,6.49-3.86,8.79-6.67h-6.39v-4.42h9.89v-3.04h-9.75v-10.54h11.32v10.21h1.79v-10.21h11.64v10.54h-9.98v3.04h10.4v4.42h-7.13ZM116.06,16.93h-3.17v3.17h3.17v-3.17ZM129.49,11.92h-16.33V1.7h16.33v10.21ZM124.3,5.38h-6.17v2.9h6.17v-2.9ZM126.04,20.1h3.36v-3.17h-3.36v3.17Z"/>
      <path class="cls-1" d="M152.95,2.3c-.64,2.25-1.56,6.9-1.84,9.43,2.16-3.5,6.12-7.36,11.27-7.36,6.35,0,11.27,6.21,11.27,16.24,0,12.88-7.91,19.05-19.97,21.25l-3.45-5.29c10.12-1.56,17.21-4.88,17.21-15.92,0-7.04-2.35-10.95-6.12-10.95-5.38,0-10.08,8.1-10.31,14.08-.05,1.24-.05,2.71.23,4.83l-5.66.37c-.23-1.75-.55-4.55-.55-7.59,0-4.23.6-9.89,1.29-14.58.23-1.66.32-3.5.37-4.78l6.26.28Z"/>
      <path class="cls-1" d="M203.92,35.61c1.75-.23,3.04-.46,4.23-.74,5.84-1.38,10.35-5.57,10.35-12.19s-3.4-11-9.52-12.05c-.64,3.86-1.43,8.1-2.71,12.38-2.71,9.2-6.67,14.81-11.64,14.81s-9.29-5.57-9.29-13.25c0-10.49,9.16-19.51,20.98-19.51s18.4,7.87,18.4,17.8-5.89,16.38-17.39,18.13l-3.4-5.38ZM200.38,21.81c1.06-3.36,1.89-7.27,2.44-11.04-7.54,1.56-11.55,8.19-11.55,13.2,0,4.6,1.84,6.85,3.54,6.85,1.89,0,3.73-2.85,5.57-9.02Z"/>
      <path class="cls-1" d="M247.57,20.24c3.08-.78,6.21-1.2,8.74-1.2,6.99,0,12.51,3.73,12.51,9.98,0,5.38-2.81,9.43-10.03,11.23-2.12.46-4.19.64-5.98.74l-2.12-5.84c2.07,0,4-.05,5.61-.32,3.68-.64,6.62-2.53,6.62-5.84,0-3.08-2.76-4.88-6.72-4.88-2.81,0-5.75.46-8.56,1.24.09,3.63.23,7.13.23,8.7,0,5.66-2.07,7.13-5.01,7.13-4.46,0-10.77-3.82-10.77-8.65,0-4,4.65-8.1,10.21-10.54-.05-1.06-.05-2.12-.05-3.17v-3.82c-.87.05-1.7.09-2.44.09-2.07,0-4.37-.05-6.35-.23l-.09-5.52c2.67.32,4.65.37,6.3.37.83,0,1.7-.05,2.62-.09.05-1.61.05-2.94.05-3.73,0-.97-.18-3.17-.32-4h6.26c-.09.83-.28,2.81-.37,3.96-.05,1.01-.09,2.12-.14,3.27,2.99-.41,5.98-1.01,8.37-1.7l.14,5.7c-2.58.6-5.71,1.06-8.7,1.43-.05,1.38-.05,2.76-.05,4.09v1.61ZM242.56,33.03c0-1.15-.05-3.22-.14-5.61-2.81,1.43-4.65,3.31-4.65,4.92,0,1.38,2.12,2.67,3.31,2.67.83,0,1.47-.41,1.47-1.98ZM261.33,6.81c3.5,1.7,8.79,4.69,11.18,6.39l-2.76,4.69c-2.16-1.89-8.1-5.24-10.95-6.62l2.53-4.46Z"/>
      <path class="cls-1" d="M281.06,9.66c.05,4.37-.64,9.71-2.25,13.16l-3.59-1.61c1.47-2.85,2.12-7.87,2.16-12.01l3.68.46ZM289.25,17.9c-.32-1.79-1.2-4.42-2.25-6.76v31.93h-5.29V.14h5.29v8.79l2.53-1.1c1.43,2.67,2.9,6.07,3.31,8.33l-3.59,1.75ZM294.63,15.04c-.51-2.85-2.21-7.5-3.96-11l4.65-1.7c1.84,3.36,3.73,7.82,4.28,10.77l-4.97,1.93ZM312.11,17.48h5.38v25.07h-5.38v-2.39h-15.18v2.48h-5.25v-25.07h5.25v17.62h15.18v-17.71ZM309.08,33.26c-.87-1.15-2.16-2.53-3.63-3.91-1.38,2.25-2.9,4.23-4.46,5.84-.88-.83-2.85-2.39-4-3.08,1.79-1.61,3.4-3.68,4.78-5.98-1.56-1.29-3.13-2.48-4.55-3.54l2.71-3.68c1.24.87,2.62,1.89,4,2.9.74-1.7,1.33-3.5,1.84-5.34l4.83,1.06c-.74,2.53-1.7,5.06-2.81,7.41,1.75,1.43,3.27,2.85,4.28,4.09l-2.99,4.23ZM302.64,13.39c-.32-2.9-1.56-7.68-2.9-11.32l4.78-1.33c1.43,3.59,2.81,8.19,3.17,11.04l-5.06,1.61ZM318.28,2.62c-1.52,5.34-3.96,10.9-6.26,14.45-1.24-.83-3.86-1.93-5.34-2.48,2.44-3.22,4.69-8.42,5.93-13.2l5.66,1.24Z"/>
      <path class="cls-1" d="M361.56,32.99c-1.2-1.06-2.53-2.16-3.91-3.17-2.02,5.15-5.47,9.16-11.55,12.33l-4.88-3.96c6.9-2.94,10.08-7.31,11.59-11.46-3.22-1.75-6.81-3.13-10.67-3.68-1.7,3.91-3.68,8.42-5.29,10.95-1.79,2.76-3.96,4-7.08,4-4,0-6.99-2.76-6.99-7.36,0-7.04,6.39-12.47,15.55-12.88,1.29-2.94,2.58-6.03,3.63-8.19-1.79.05-5.71.18-7.78.32-.97.05-2.58.23-3.73.41l-.23-5.89c1.2.14,2.76.18,3.77.18,2.58,0,7.45-.18,9.57-.37,1.1-.09,2.3-.37,3.08-.69l3.63,2.85c-.64.69-1.15,1.29-1.52,1.93-1.2,1.93-2.85,5.89-4.46,9.75,3.54.55,6.86,1.66,9.8,2.94.05-.55.09-1.06.14-1.56.09-1.75.14-3.5-.05-4.97l5.98.69c-.18,3.04-.41,5.89-.87,8.46,1.89,1.06,3.54,2.16,4.88,3.04l-2.62,6.3ZM335.99,23c-5.06.78-7.82,3.86-7.82,6.72,0,1.29.78,2.16,1.7,2.16s1.56-.41,2.39-1.56c1.15-1.7,2.44-4.51,3.73-7.31Z"/>
      <path class="cls-2" d="M400.62,13.89c-.23.51-.55,1.47-.83,2.35,5.29,1.75,8.79,5.84,8.79,11.18,0,6.39-3.82,12.7-15,14.35l-3.04-4.78c8.79-.97,12.38-5.38,12.38-9.85,0-2.76-1.61-5.2-4.69-6.39-2.53,6.21-6.17,10.95-9.62,13.8.32,1.2.69,2.3,1.06,3.4l-5.25,1.56c-.18-.55-.41-1.2-.6-1.84-2.21,1.1-4.65,1.84-7.04,1.84-3.36,0-6.17-2.02-6.17-6.67,0-5.8,4.83-11.96,11.18-14.95.14-1.93.28-3.86.46-5.7h-1.47c-2.39,0-5.94-.18-8.05-.28l-.18-5.29c1.61.23,5.61.6,8.42.6h1.75l.28-2.44c.09-.83.18-1.93.14-2.71l5.98.14c-.32.92-.51,1.75-.64,2.44-.18.74-.32,1.56-.46,2.44,5.52-.18,10.44-.74,15.46-1.93l.05,5.24c-4.46.83-10.58,1.38-16.19,1.66-.14,1.33-.28,2.71-.32,4.09,2.16-.51,4.55-.83,6.81-.83h.78c.18-.92.37-2.07.41-2.71l5.61,1.29ZM382.68,32.48c-.51-2.85-.87-5.98-.97-9.11-3.4,2.3-5.71,5.8-5.71,8.37,0,1.43.64,2.21,2.12,2.21,1.29,0,2.85-.51,4.55-1.47ZM386.82,21.07c0,2.81.18,5.29.51,7.54,2.21-2.21,4.23-4.97,5.75-8.65-2.39.05-4.51.46-6.26,1.01v.09Z"/>
      <path class="cls-2" d="M428.95,2.3c-.64,2.25-1.56,6.9-1.84,9.43,2.16-3.5,6.12-7.36,11.27-7.36,6.35,0,11.27,6.21,11.27,16.24,0,12.88-7.91,19.05-19.97,21.25l-3.45-5.29c10.12-1.56,17.21-4.88,17.21-15.92,0-7.04-2.35-10.95-6.12-10.95-5.38,0-10.08,8.1-10.31,14.08-.05,1.24-.05,2.71.23,4.83l-5.66.37c-.23-1.75-.55-4.55-.55-7.59,0-4.23.6-9.89,1.29-14.58.23-1.66.32-3.5.37-4.78l6.26.28Z"/>
      <path class="cls-2" d="M495.15,39.33c-2.44-2.3-5.57-4.65-9.2-6.3.05.6.05,1.15.05,1.61,0,3.91-2.94,6.9-8.97,6.9-7.27,0-11.13-2.76-11.13-7.59s4.23-7.82,11.27-7.82c.97,0,1.89.05,2.81.14-.09-1.38-.14-2.81-.18-4.14h-2.35c-2.67,0-7.91-.23-10.95-.6l.05-5.38c2.62.51,8.56.83,11,.83h2.16v-4.74h-2.16c-2.9,0-7.27-.28-9.89-.69l-.05-5.2c2.85.55,7.08.87,9.89.87h2.25v-2.07c0-.83-.05-2.25-.23-3.13h6.21c-.14.92-.28,2.07-.32,3.22l-.05,1.79c3.54-.14,6.9-.51,10.86-1.1l.14,5.24c-2.99.28-6.67.64-11.04.87l-.05,4.74c4.6-.18,8.42-.6,12.15-1.06v5.38c-4.09.46-7.64.78-12.05.92.09,1.7.18,3.54.32,5.29,5.75,1.66,10.12,4.69,12.74,6.9l-3.27,5.11ZM480.15,31.15c-1.2-.18-2.44-.32-3.73-.32-3.22,0-4.97,1.24-4.97,2.81,0,1.7,1.61,2.81,4.74,2.81,2.44,0,4-.74,4-3.36,0-.51,0-1.15-.05-1.93Z"/>
      <path class="cls-2" d="M539.35,3.17c-.14.69-.23,2.67-.28,3.91-.05,1.79-.09,3.4-.14,4.92,1.24-.09,2.39-.18,3.45-.23,1.24-.09,3.04-.23,4.37-.32v5.61c-.78-.05-3.17,0-4.42.05-.97.05-2.16.09-3.5.18-.14,3.45-.32,7.18-.69,9.11-.46,2.39-1.61,2.99-3.96,2.99-1.61,0-5.24-.41-6.85-.69l.14-5.01c1.43.28,3.27.55,4.19.55s1.29-.18,1.43-1.06c.18-1.24.28-3.31.32-5.47-4,.32-8.46.74-12.38,1.15-.05,4.19-.09,8.37,0,10.31.14,4.46.51,5.47,7.36,5.47,4.46,0,10.21-.55,13.62-1.2l-.23,6.26c-3.08.37-8.65.74-12.97.74-11.82,0-13.25-2.48-13.43-10.35-.05-1.93-.05-6.35-.05-10.63l-3.08.32c-1.43.18-4.28.64-5.47.83l-.6-5.84c1.29,0,3.4-.09,5.7-.28l3.45-.32v-4.6c0-1.89-.14-3.45-.37-5.06h6.44c-.18,1.52-.28,2.81-.28,4.74,0,1.06,0,2.58-.05,4.37,3.86-.37,8.28-.78,12.42-1.15v-5.15c0-1.15-.18-3.31-.32-4.14h6.16Z"/>
      <path class="cls-2" d="M575.6,6.62c-2.25,3.27-5.7,9.62-7.96,13.62,1.7-.97,3.45-1.38,5.2-1.38,3.4,0,5.47,2.21,5.66,5.98.09,2.02-.05,5.7.23,7.59.14,1.79,1.38,2.48,2.9,2.48,3.91,0,6.39-5.11,7.68-10.77l4.92,4c-2.35,7.87-6.58,13.02-13.62,13.02-4.97,0-7.36-3.04-7.54-6.35-.18-2.44-.14-6.16-.28-8-.14-1.61-1.01-2.53-2.67-2.53-3.13,0-5.66,3.13-7.27,6.85-1.24,2.67-2.76,7.73-3.45,10.12l-6.44-2.16c3.36-9.11,12.97-28.25,15.37-32.57.6-1.24,1.43-2.71,2.25-4.65l6.49,2.62c-.46.55-.97,1.38-1.47,2.12Z"/>
      <path class="cls-2" d="M617.51,2.9c-.28,1.2-.6,2.62-.83,3.77-.23,1.38-.6,3.04-.92,4.69,1.52-.09,2.9-.18,3.82-.18,4.83,0,8.24,2.16,8.24,8.69,0,5.38-.64,12.65-2.58,16.61-1.52,3.17-4.05,4.19-7.5,4.19-1.75,0-3.91-.28-5.43-.64l-1.01-6.03c1.75.51,4.37.97,5.57.97,1.52,0,2.71-.46,3.4-1.98,1.29-2.53,1.89-7.96,1.89-12.47,0-3.63-1.56-4.14-4.46-4.14-.74,0-1.84.09-3.13.18-1.75,6.9-5.06,17.62-9.25,24.34l-5.98-2.39c4.46-5.98,7.54-15.09,9.2-21.3-1.61.18-3.04.37-3.91.51-1.29.14-3.63.46-5.06.69l-.51-6.16c1.66.14,3.17.05,4.83,0,1.43-.05,3.59-.18,5.89-.37.64-3.5,1.01-6.81.97-9.66l6.76.69ZM633.24,7.18c2.76,3.91,6.58,12.61,7.96,16.93l-5.75,2.71c-1.2-5.06-4.46-13.3-7.73-17.34l5.52-2.3Z"/>
      <path class="cls-2" d="M670.54,13.94c0-2.76-2.21-4.32-5.8-4.32-2.85,0-5.24,1.24-7.36,3.63l-3.77-3.5c2.9-3.4,6.95-5.61,11.87-5.61,6.67,0,11.55,3.08,11.55,9.2,0,6.76-10.03,7.54-9.34,13.94h-5.93c-.97-7.22,8.79-8.88,8.79-13.34ZM664.75,30.46c2.76,0,4.79,1.84,4.79,4.51s-2.02,4.55-4.79,4.55-4.78-1.89-4.78-4.55,2.02-4.51,4.78-4.51Z"/>
    </g>
  </g>
</svg>