<?xml version="1.0" encoding="UTF-8"?>
<svg id="Layer_2" data-name="Layer 2" xmlns="http://www.w3.org/2000/svg" viewBox="0 0 316.67 87.39">
  <defs>
    <style>
      .cls-1 {
        fill: #c94605;
      }

      .cls-2 {
        fill: #1a1a1a;
      }
    </style>
  </defs>
  <g id="contents">
    <g>
      <path class="cls-1" d="M25.24,30.75c4.08,1.44,8.68,3.36,11.4,4.68l-5.52,2.12c-2.28-1.32-6.36-3.2-10.4-4.72l3.6-2.08h-11.68l3.64,1.6c-3.32,2.16-8.44,4.12-12.48,5.24-.84-.92-2.52-2.64-3.52-3.48,3.88-.72,8.24-2,11-3.36h-5.88V14.52h8.36c-.48-.96-1.24-2.12-1.88-2.76l.04.16c-3.44,1-7.16,2.08-10.16,2.92l-1.76-4.16c2.96-.56,7.24-1.56,11.48-2.56l.4,3.6c6.36-1.04,8.48-2.76,9.36-5.6h-2.88c-.92,1.12-1.96,2.2-3.2,3.2-.84-.84-2.48-1.8-3.56-2.24,2.88-2,4.84-4.64,5.88-6.96l4.2.68c-.32.68-.64,1.32-1.04,1.96h11.8l.72-.12,3.16.8c-1.04,2.16-2.48,4.56-3.8,6.04l-3.68-1.16c.48-.6,1.04-1.36,1.56-2.2h-4.44c.88,2.6,3.12,4.76,11.2,5.72-.88.88-1.92,2.72-2.36,3.88-.96-.16-1.84-.32-2.64-.52v15.56h-6.92ZM10.12,7.2c-1.84-1-5.6-2.44-8.36-3.24L3.84.72c2.64.64,6.44,1.92,8.44,2.88l-2.16,3.6ZM10,19.08h17.32v-1.72H10v1.72ZM10,23.48h17.32v-1.72H10v1.72ZM10,27.92h17.32v-1.76H10v1.76ZM29.92,14.52c-3.08-1.12-4.92-2.6-6.12-4.32-1.4,1.88-3.64,3.28-7.28,4.32h13.4Z"/>
      <path class="cls-1" d="M70.88,25.92c-1.52,2.2-3.08,4.64-4.48,6.32h9.04v4.08h-33.83v-4.08h7.8c-.6-1.8-1.92-4.48-3.32-6.44l3.64-1.56h-6.12v-4.08h12.16v-3.96h-7.36v-1.96c-1.88,1.36-3.92,2.64-5.96,3.72-.6-1.12-1.92-2.84-2.96-3.84,6.8-3.32,13.2-9.32,16.16-14.12h4.92c4.32,6.04,10.76,11.08,17.08,13.64-1.2,1.2-2.28,2.8-3.16,4.28-2-1.04-4.08-2.36-6.08-3.8v2.08h-7.64v3.96h12.32v4.08h-12.32v8h4.36l-2.6-1.08c1.32-1.88,2.92-4.8,3.8-6.92l4.56,1.68ZM49.96,24.24c1.52,2.04,3.08,4.76,3.68,6.6l-3.28,1.4h5.4v-8h-5.8ZM65.68,12.04c-2.96-2.4-5.6-5-7.36-7.4-1.72,2.4-4.2,5-7.08,7.4h14.44Z"/>
      <path class="cls-1" d="M85,24c-.4,3.84-1.2,7.8-2.36,10.32-.8-.52-2.52-1.28-3.44-1.68,1.12-2.32,1.68-5.92,1.96-9.24l3.84.6ZM89.56,21v16.36h-4.12v-15.88l-5.2.56-.68-4.16c.8-.04,1.64-.08,2.6-.16.68-.84,1.4-1.8,2.08-2.84-1.08-1.8-2.96-4.04-4.6-5.68l2.32-3.24c.32.28.64.6.96.92,1.04-2.16,2.08-4.76,2.72-6.76l4.08,1.44c-1.36,2.72-2.92,5.8-4.28,8,.44.56.88,1.08,1.24,1.6,1.32-2.2,2.52-4.4,3.4-6.28l3.8,1.8c-1.52,2.4-3.32,5.08-5.08,7.56l2.88-1.12c1.4,2.76,2.8,6.28,3.16,8.6l-3.44,1.4c-.12-.68-.28-1.44-.52-2.24l-1.32.12ZM89.68,17.2c-.36-.92-.72-1.84-1.12-2.64-.72,1-1.44,1.96-2.16,2.88l3.28-.24ZM93.04,23.08c.96,2.24,1.96,5.2,2.32,7.16l-3.56,1.24c-.32-2-1.28-5-2.16-7.36l3.4-1.04ZM110.4,27.16c1.96,2.28,4.64,4.4,7.16,5.64-1,.8-2.36,2.36-3.08,3.44-2.44-1.6-5-4.24-6.92-7.12v8.24h-4.36v-8.16c-2.04,3-4.8,5.64-7.68,7.2-.68-1-2.04-2.6-3-3.44,2.88-1.2,5.64-3.36,7.64-5.8h-5.56v-3.84h8.6v-2.64h-8.48v-9.16h9.84v8.88h1.56v-8.88h10.12v9.16h-8.68v2.64h9.04v3.84h-6.2ZM100.92,14.72h-2.76v2.76h2.76v-2.76ZM112.59,10.36h-14.2V1.48h14.2v8.88ZM108.08,4.68h-5.36v2.52h5.36v-2.52ZM109.6,17.48h2.92v-2.76h-2.92v2.76Z"/>
      <path class="cls-1" d="M133,2c-.56,1.96-1.36,6-1.6,8.2,1.88-3.04,5.32-6.4,9.8-6.4,5.52,0,9.8,5.4,9.8,14.12,0,11.2-6.88,16.56-17.36,18.48l-3-4.6c8.8-1.36,14.96-4.24,14.96-13.84,0-6.12-2.04-9.52-5.32-9.52-4.68,0-8.76,7.04-8.96,12.24-.04,1.08-.04,2.36.2,4.2l-4.92.32c-.2-1.52-.48-3.96-.48-6.6,0-3.68.52-8.6,1.12-12.68.2-1.44.28-3.04.32-4.16l5.44.24Z"/>
      <path class="cls-1" d="M177.32,30.95c1.52-.2,2.64-.4,3.68-.64,5.08-1.2,9-4.84,9-10.6s-2.96-9.56-8.28-10.48c-.56,3.36-1.24,7.04-2.36,10.76-2.36,8-5.8,12.88-10.12,12.88s-8.08-4.84-8.08-11.52c0-9.12,7.96-16.96,18.24-16.96s16,6.84,16,15.48-5.12,14.24-15.12,15.76l-2.96-4.68ZM174.24,18.96c.92-2.92,1.64-6.32,2.12-9.6-6.56,1.36-10.04,7.12-10.04,11.48,0,4,1.6,5.96,3.08,5.96,1.64,0,3.24-2.48,4.84-7.84Z"/>
      <path class="cls-1" d="M215.28,17.6c2.68-.68,5.4-1.04,7.6-1.04,6.08,0,10.88,3.24,10.88,8.68,0,4.68-2.44,8.2-8.72,9.76-1.84.4-3.64.56-5.2.64l-1.84-5.08c1.8,0,3.48-.04,4.88-.28,3.2-.56,5.76-2.2,5.76-5.08,0-2.68-2.4-4.24-5.84-4.24-2.44,0-5,.4-7.44,1.08.08,3.16.2,6.2.2,7.56,0,4.92-1.8,6.2-4.36,6.2-3.88,0-9.36-3.32-9.36-7.52,0-3.48,4.04-7.04,8.88-9.16-.04-.92-.04-1.84-.04-2.76v-3.32c-.76.04-1.48.08-2.12.08-1.8,0-3.8-.04-5.52-.2l-.08-4.8c2.32.28,4.04.32,5.48.32.72,0,1.48-.04,2.28-.08.04-1.4.04-2.56.04-3.24,0-.84-.16-2.76-.28-3.48h5.44c-.08.72-.24,2.44-.32,3.44-.04.88-.08,1.84-.12,2.84,2.6-.36,5.2-.88,7.28-1.48l.12,4.96c-2.24.52-4.96.92-7.56,1.24-.04,1.2-.04,2.4-.04,3.56v1.4ZM210.92,28.72c0-1-.04-2.8-.12-4.88-2.44,1.24-4.04,2.88-4.04,4.28,0,1.2,1.84,2.32,2.88,2.32.72,0,1.28-.36,1.28-1.72ZM227.24,5.92c3.04,1.48,7.64,4.08,9.72,5.56l-2.4,4.08c-1.88-1.64-7.04-4.56-9.52-5.76l2.2-3.88Z"/>
      <path class="cls-1" d="M244.4,8.4c.04,3.8-.56,8.44-1.96,11.44l-3.12-1.4c1.28-2.48,1.84-6.84,1.88-10.44l3.2.4ZM251.52,15.56c-.28-1.56-1.04-3.84-1.96-5.88v27.76h-4.6V.12h4.6v7.64l2.2-.96c1.24,2.32,2.52,5.28,2.88,7.24l-3.12,1.52ZM256.2,13.08c-.44-2.48-1.92-6.52-3.44-9.56l4.04-1.48c1.6,2.92,3.24,6.8,3.72,9.36l-4.32,1.68ZM271.39,15.2h4.68v21.8h-4.68v-2.08h-13.2v2.16h-4.56V15.28h4.56v15.32h13.2v-15.4ZM268.76,28.92c-.76-1-1.88-2.2-3.16-3.4-1.2,1.96-2.52,3.68-3.88,5.08-.76-.72-2.48-2.08-3.48-2.68,1.56-1.4,2.96-3.2,4.16-5.2-1.36-1.12-2.72-2.16-3.96-3.08l2.36-3.2c1.08.76,2.28,1.64,3.48,2.52.64-1.48,1.16-3.04,1.6-4.64l4.2.92c-.64,2.2-1.48,4.4-2.44,6.44,1.52,1.24,2.84,2.48,3.72,3.56l-2.6,3.68ZM263.16,11.64c-.28-2.52-1.36-6.68-2.52-9.84l4.16-1.16c1.24,3.12,2.44,7.12,2.76,9.6l-4.4,1.4ZM276.75,2.28c-1.32,4.64-3.44,9.48-5.44,12.56-1.08-.72-3.36-1.68-4.64-2.16,2.12-2.8,4.08-7.32,5.16-11.48l4.92,1.08Z"/>
      <path class="cls-1" d="M314.39,28.68c-1.04-.92-2.2-1.88-3.4-2.76-1.76,4.48-4.76,7.96-10.04,10.72l-4.24-3.44c6-2.56,8.76-6.36,10.08-9.96-2.8-1.52-5.92-2.72-9.28-3.2-1.48,3.4-3.2,7.32-4.6,9.52-1.56,2.4-3.44,3.48-6.16,3.48-3.48,0-6.08-2.4-6.08-6.4,0-6.12,5.56-10.84,13.52-11.2,1.12-2.56,2.24-5.24,3.16-7.12-1.56.04-4.96.16-6.76.28-.84.04-2.24.2-3.24.36l-.2-5.12c1.04.12,2.4.16,3.28.16,2.24,0,6.48-.16,8.32-.32.96-.08,2-.32,2.68-.6l3.16,2.48c-.56.6-1,1.12-1.32,1.68-1.04,1.68-2.48,5.12-3.88,8.48,3.08.48,5.96,1.44,8.52,2.56.04-.48.08-.92.12-1.36.08-1.52.12-3.04-.04-4.32l5.2.6c-.16,2.64-.36,5.12-.76,7.36,1.64.92,3.08,1.88,4.24,2.64l-2.28,5.48ZM292.16,20c-4.4.68-6.8,3.36-6.8,5.84,0,1.12.68,1.88,1.48,1.88s1.36-.36,2.08-1.36c1-1.48,2.12-3.92,3.24-6.36Z"/>
      <path class="cls-2" d="M48.36,63.08c-.2.44-.48,1.28-.72,2.04,4.6,1.52,7.64,5.08,7.64,9.72,0,5.56-3.32,11.04-13.04,12.48l-2.64-4.16c7.64-.84,10.76-4.68,10.76-8.56,0-2.4-1.4-4.52-4.08-5.56-2.2,5.4-5.36,9.52-8.36,12,.28,1.04.6,2,.92,2.96l-4.56,1.36c-.16-.48-.36-1.04-.52-1.6-1.92.96-4.04,1.6-6.12,1.6-2.92,0-5.36-1.76-5.36-5.8,0-5.04,4.2-10.4,9.72-13,.12-1.68.24-3.36.4-4.96h-1.28c-2.08,0-5.16-.16-7-.24l-.16-4.6c1.4.2,4.88.52,7.32.52h1.52l.24-2.12c.08-.72.16-1.68.12-2.36l5.2.12c-.28.8-.44,1.52-.56,2.12-.16.64-.28,1.36-.4,2.12,4.8-.16,9.08-.64,13.44-1.68l.04,4.56c-3.88.72-9.2,1.2-14.08,1.44-.12,1.16-.24,2.36-.28,3.56,1.88-.44,3.96-.72,5.92-.72h.68c.16-.8.32-1.8.36-2.36l4.88,1.12ZM32.76,79.24c-.44-2.48-.76-5.2-.84-7.92-2.96,2-4.96,5.04-4.96,7.28,0,1.24.56,1.92,1.84,1.92,1.12,0,2.48-.44,3.96-1.28ZM36.36,69.32c0,2.44.16,4.6.44,6.56,1.92-1.92,3.68-4.32,5-7.52-2.08.04-3.92.4-5.44.88v.08Z"/>
      <path class="cls-2" d="M73,53c-.56,1.96-1.36,6-1.6,8.2,1.88-3.04,5.32-6.4,9.8-6.4,5.52,0,9.8,5.4,9.8,14.12,0,11.2-6.88,16.56-17.36,18.48l-3-4.6c8.8-1.36,14.96-4.24,14.96-13.84,0-6.12-2.04-9.52-5.32-9.52-4.68,0-8.76,7.04-8.96,12.24-.04,1.08-.04,2.36.2,4.2l-4.92.32c-.2-1.52-.48-3.96-.48-6.6,0-3.68.52-8.6,1.12-12.68.2-1.44.28-3.04.32-4.16l5.44.24Z"/>
      <path class="cls-2" d="M130.55,85.19c-2.12-2-4.84-4.04-8-5.48.04.52.04,1,.04,1.4,0,3.4-2.56,6-7.8,6-6.32,0-9.68-2.4-9.68-6.6s3.68-6.8,9.8-6.8c.84,0,1.64.04,2.44.12-.08-1.2-.12-2.44-.16-3.6h-2.04c-2.32,0-6.88-.2-9.52-.52l.04-4.68c2.28.44,7.44.72,9.56.72h1.88v-4.12h-1.88c-2.52,0-6.32-.24-8.6-.6l-.04-4.52c2.48.48,6.16.76,8.6.76h1.96v-1.8c0-.72-.04-1.96-.2-2.72h5.4c-.12.8-.24,1.8-.28,2.8l-.04,1.56c3.08-.12,6-.44,9.44-.96l.12,4.56c-2.6.24-5.8.56-9.6.76l-.04,4.12c4-.16,7.32-.52,10.56-.92v4.68c-3.56.4-6.64.68-10.48.8.08,1.48.16,3.08.28,4.6,5,1.44,8.8,4.08,11.08,6l-2.84,4.44ZM117.52,78.08c-1.04-.16-2.12-.28-3.24-.28-2.8,0-4.32,1.08-4.32,2.44,0,1.48,1.4,2.44,4.12,2.44,2.12,0,3.48-.64,3.48-2.92,0-.44,0-1-.04-1.68Z"/>
      <path class="cls-2" d="M169,53.76c-.12.6-.2,2.32-.24,3.4-.04,1.56-.08,2.96-.12,4.28,1.08-.08,2.08-.16,3-.2,1.08-.08,2.64-.2,3.8-.28v4.88c-.68-.04-2.76,0-3.84.04-.84.04-1.88.08-3.04.16-.12,3-.28,6.24-.6,7.92-.4,2.08-1.4,2.6-3.44,2.6-1.4,0-4.56-.36-5.96-.6l.12-4.36c1.24.24,2.84.48,3.64.48s1.12-.16,1.24-.92c.16-1.08.24-2.88.28-4.76-3.48.28-7.36.64-10.76,1-.04,3.64-.08,7.28,0,8.96.12,3.88.44,4.76,6.4,4.76,3.88,0,8.88-.48,11.84-1.04l-.2,5.44c-2.68.32-7.52.64-11.28.64-10.28,0-11.52-2.16-11.68-9-.04-1.68-.04-5.52-.04-9.24l-2.68.28c-1.24.16-3.72.56-4.76.72l-.52-5.08c1.12,0,2.96-.08,4.96-.24l3-.28v-4c0-1.64-.12-3-.32-4.4h5.6c-.16,1.32-.24,2.44-.24,4.12,0,.92,0,2.24-.04,3.8,3.36-.32,7.2-.68,10.8-1v-4.48c0-1-.16-2.88-.28-3.6h5.36Z"/>
      <path class="cls-2" d="M200.52,56.76c-1.96,2.84-4.96,8.36-6.92,11.84,1.48-.84,3-1.2,4.52-1.2,2.96,0,4.76,1.92,4.92,5.2.08,1.76-.04,4.96.2,6.6.12,1.56,1.2,2.16,2.52,2.16,3.4,0,5.56-4.44,6.68-9.36l4.28,3.48c-2.04,6.84-5.72,11.32-11.84,11.32-4.32,0-6.4-2.64-6.56-5.52-.16-2.12-.12-5.36-.24-6.96-.12-1.4-.88-2.2-2.32-2.2-2.72,0-4.92,2.72-6.32,5.96-1.08,2.32-2.4,6.72-3,8.8l-5.6-1.88c2.92-7.92,11.28-24.56,13.36-28.32.52-1.08,1.24-2.36,1.96-4.04l5.64,2.28c-.4.48-.84,1.2-1.28,1.84Z"/>
      <path class="cls-2" d="M236.96,53.52c-.24,1.04-.52,2.28-.72,3.28-.2,1.2-.52,2.64-.8,4.08,1.32-.08,2.52-.16,3.32-.16,4.2,0,7.16,1.88,7.16,7.56,0,4.68-.56,11-2.24,14.44-1.32,2.76-3.52,3.64-6.52,3.64-1.52,0-3.4-.24-4.72-.56l-.88-5.24c1.52.44,3.8.84,4.84.84,1.32,0,2.36-.4,2.96-1.72,1.12-2.2,1.64-6.92,1.64-10.84,0-3.16-1.36-3.6-3.88-3.6-.64,0-1.6.08-2.72.16-1.52,6-4.4,15.32-8.04,21.16l-5.2-2.08c3.88-5.2,6.56-13.12,8-18.52-1.4.16-2.64.32-3.4.44-1.12.12-3.16.4-4.4.6l-.44-5.36c1.44.12,2.76.04,4.2,0,1.24-.04,3.12-.16,5.12-.32.56-3.04.88-5.92.84-8.4l5.88.6ZM250.63,57.24c2.4,3.4,5.72,10.96,6.92,14.72l-5,2.36c-1.04-4.4-3.88-11.56-6.72-15.08l4.8-2Z"/>
      <path class="cls-2" d="M283.08,63.12c0-2.4-1.92-3.76-5.04-3.76-2.48,0-4.56,1.08-6.4,3.16l-3.28-3.04c2.52-2.96,6.04-4.88,10.32-4.88,5.8,0,10.04,2.68,10.04,8,0,5.88-8.72,6.56-8.12,12.12h-5.16c-.84-6.28,7.64-7.72,7.64-11.6ZM278.04,77.48c2.4,0,4.16,1.6,4.16,3.92s-1.76,3.96-4.16,3.96-4.16-1.64-4.16-3.96,1.76-3.92,4.16-3.92Z"/>
    </g>
  </g>
</svg>