<?xml version="1.0" encoding="UTF-8"?>
<svg id="_レイヤー_2" data-name="レイヤー 2" xmlns="http://www.w3.org/2000/svg" viewBox="0 0 571.5 102">
  <defs>
    <style>
      .cls-1 {
        fill: #fffa43;
      }

      .cls-2 {
        fill: #033687;
      }
    </style>
  </defs>
  <g id="cta">
    <g>
      <rect class="cls-1" x="356.5" y="47" width="215" height="13"/>
      <g>
        <path class="cls-2" d="M38.5,43.5c4.6,1.6,9.4,3.6,12.5,4.9l-9.4,3.3c-2.7-1.6-7.8-4-12.9-5.8l4.6-2.4h-13.1l4.1,1.9c-4.4,2.7-11.3,5.2-16.7,6.6-1.3-1.5-3.9-4.2-5.6-5.5,4.3-.6,8.9-1.7,12.4-2.9h-5.5v-20.7h36.1v20.7h-6.4ZM50.7,21.4H2.3v-5.6h20.4v-1.4h-13.3V3.9h13.3V1.3h7.6v2.6h14v10.5h-14v1.4h20.4v5.6ZM16.3,28.4h20.8v-1.5h-20.8v1.5ZM16.3,33.8h20.8v-1.5h-20.8v1.5ZM16.3,39.3h20.8v-1.5h-20.8v1.5ZM22.7,10v-1.6h-6.1v1.6h6.1ZM30.3,8.3v1.6h6.4v-1.6h-6.4Z"/>
        <path class="cls-2" d="M74,37.6c-1-1.3-2.3-3-3.7-4.7v18.8h-7.6v-17.1c-1.9,1.6-3.8,3.1-5.7,4.2-.6-2.1-2.4-5.9-3.6-7.4,5.5-2.8,10.6-7.8,13.9-13.4h-11.8v-6.9h7.2V1.4h7.6v9.7h1.2l1.3-.3,4.3,2.8c-1.5,4-3.5,7.8-5.9,11.2,2.5,2.1,6.4,5.5,7.4,6.5l-4.7,6.3ZM105.1,42.6v7.6h-30.3v-7.6h11.6v-18h-9.4v-7.4h9.4V1.9h7.9v15.3h9.4v7.4h-9.4v18h10.8Z"/>
        <path class="cls-2" d="M131.5,50.1l-4.2-6.6c1.9-.2,3.2-.5,4.5-.8,5.8-1.4,9.8-5.5,9.8-11.6s-2.9-10.2-8.2-11.4c-.6,3.7-1.4,7.7-2.7,12-2.7,9.2-6.9,15.4-12.3,15.4s-10-6.2-10-14,9.4-20.2,21.7-20.2,19.1,8.1,19.1,18.5-5.7,16.8-17.7,18.8ZM118.5,38.3c1.8,0,3.2-2.8,4.9-8.1,1-3.1,1.8-6.8,2.3-10.4-6.8,1.8-10.2,8.1-10.2,12.4s1.4,6.1,3,6.1Z"/>
        <path class="cls-2" d="M175.5,30.7c-.7,10.7-2.8,17.6-18.2,21.3-.7-2-2.6-5.1-4.2-6.7,13-2.4,13.8-6.9,14.4-14.6h8ZM174.2,12h-19.3v-7h19.3V1.4h8.1v3.6h19.9v7h-19.9v2.4h15.1v6.7h-37.3v-6.7h14.1v-2.4ZM194.1,34.8v-5.2h-31.5v5.2h-7.4v-12h46.7v12h-7.8ZM194.8,44.4c1.6,0,2-.8,2.2-6,1.5,1.2,4.8,2.4,6.9,2.9-.8,7.9-2.8,10-8.3,10h-6.3c-7,0-8.6-2.2-8.6-8.8v-11.7h7.7v11.6c0,1.8.3,2,2.1,2h4.4Z"/>
        <path class="cls-2" d="M218.5,31.6v12.3c0,3.3-.5,5.2-2.3,6.4-1.7,1.2-4.2,1.4-7.6,1.4-.2-1.9-1-5-1.9-7,1.7.1,3.4.1,4.1.1s.8-.2.8-.9v-10.4l-4.2,1.1-1.6-7.4c1.7-.3,3.7-.7,5.8-1.3v-7.9h-4.8v-7h4.8V1.3h6.8v9.7h3.7v6.6h5.8v-4.5h-5.1v-6h5.1V1.3h6.8v5.9h5v6h-5v4.5h5.5v6h-18.4l1,6.7-4.3,1.2ZM218.5,24.3l3.4-.8v-5.4h-3.4v6.3ZM240.5,40.7l.2,6.1c-7,.8-14.4,1.6-20,2.2l-1-6.5c2.3-.2,5.1-.4,8.2-.6v-5.1h-5.5v-6h5.5v-5.7h6.8v5.7h5.4v6h-5.4v4.6l5.8-.5ZM253.2,33.1c-1.2-1.8-3.1-4.2-4.9-6.4v25h-7.1V1.3h7.1v16.8c2.3,1.9,7.9,7,9.2,8.3l-4.3,6.6Z"/>
        <path class="cls-2" d="M301.5,36.4c-1.9,2.6-3.7,5.3-5.3,7.3h10.8v6.6h-44.9v-6.6h9.5c-.9-2.3-2.4-5.2-4-7.5l3.9-1.6h-6.6v-6.6h15.2v-4.2h-9.1v-2.3c-2.4,1.7-4.9,3.2-7.4,4.6-1-1.8-3.2-4.7-4.8-6.3,9.1-4.3,17.4-12.3,21.3-18.7h8.1c5.8,8.3,14,14.7,22.5,18-1.9,2-3.7,4.6-5.1,6.9-2.5-1.4-5.1-3-7.7-4.8v2.5h-9.4v4.2h15.3v6.6h-7.3l5.1,1.9ZM274.5,34.6c1.7,2.4,3.4,5.4,4.1,7.5l-3.9,1.7h5.3v-9.2h-5.6ZM292.3,17.1c-3.2-2.8-6.1-5.7-8.1-8.4-2,2.8-4.7,5.7-7.8,8.4h15.9ZM288.3,34.6v9.2h3.9l-2.8-1.2c1.5-2.2,3.3-5.4,4.4-8h-5.5Z"/>
        <path class="cls-2" d="M333,14.4c4.1-.2,8.5-.6,12.4-1.3v6.4c-4.3.6-10,1-14.9,1.2-.6,1.2-1.2,2.3-1.8,3.3.9-.3,3.3-.5,4.6-.5,2.7,0,4.9,1.1,6.1,3.2,1.8-.9,3.4-1.5,5-2.2,2-.9,3.9-1.7,5.9-2.7l2.7,6.4c-1.6.5-4.5,1.5-6.3,2.2-1.7.7-4,1.6-6.4,2.6,0,2.5.1,5.6.2,7.7h-6.6c0-1.2.2-2.9.2-4.6-2.9,1.7-4.1,3.2-4.1,5.1s1.4,2.7,5.8,2.7,9.3-.6,13.4-1.4l-.2,7.2c-2.8.4-8.7.8-13.3.8-7.5,0-13-2-13-8.1s5.5-9.8,10.6-12.5c-.7-.7-1.7-1-2.5-1-2.3,0-5.2,1.5-6.8,3.1-1.4,1.4-2.7,3.1-4.3,5.2l-5.9-4.5c4.3-3.9,7.6-7.6,9.8-11.9-1.9,0-5.2,0-7.7-.3v-6.4c2.3.4,5.8.6,8.3.6h1.8c.4-1.7.7-3.5.8-5l7.4.6c-.2,1-.5,2.4-1,4.2Z"/>
        <path class="cls-2" d="M406.9,5.4v6.5h-46.8v-6.5h19.1V1.2h7.9v4.1h19.8ZM405.4,43.9c0,3.3-.6,5.4-2.9,6.5-2.2,1.2-5,1.3-8.5,1.3-.2-1.2-.5-2.6-1-4h-13.2v2.3h-6.6v-14.6h20.4v9.2c1.3,0,2.6,0,3.1,0,.7,0,1-.2,1-.7v-10.3h-28.1v18.3h-7.5v-24.6h43.3v16.7ZM398.2,25.5h-29.5v-12.1h29.5v12.1ZM390.4,18.4h-14.4v2.1h14.4v-2.1ZM386.9,40.3h-7v2.2h7v-2.2Z"/>
        <path class="cls-2" d="M459.8,40.8h-17.9l5.6,3.7c-2.8,2.7-7.5,5.6-11.4,7.2-.8-.9-2-2.2-3.2-3.3v.3h-11.5v2h-6.4v-13.4h-.3c-.8-1.5-2.5-4.1-3.9-5.4,3.2-1.1,6.3-2.6,8.9-4.6l-2.6-1.8c-.5.4-1.1.8-1.6,1.2-1-1.2-3.4-3.5-4.8-4.5,4.2-2.4,7.9-6.3,9.8-10.7l6.2,1.6c-.3.7-.6,1.4-1,2h3.8l1.1-.3,4.3,2c-1.3,3.7-3.1,6.8-5.2,9.6,2.6,1.7,5.1,3.4,6.8,4.7l-3.7,4.6v10.4c3.1-1.4,6.4-3.5,8.3-5.3h-4V12.5h6.5c.2-.9.3-1.9.4-2.8h-8.2v4.9h-6.4v-3.2h-11.4v3.2h-6.1V5.5h8.3V1.5h7.2v4h8.3v-2.3h25.1v6.5h-8.6c-.4,1-.7,1.9-1.1,2.8h8.8v28.4ZM426.3,39.5h-5v3.4h5v-3.4ZM422.3,20.1c-.3.4-.6.7-.8,1l2.8,1.8c.7-.9,1.4-1.9,2.1-2.8h-4ZM428.7,33.7c-1.1-.8-2.3-1.7-3.6-2.6-1.1.9-2.3,1.8-3.5,2.6h7.1ZM452.5,18.1h-8.6v2.2h8.6v-2.2ZM452.5,25.5h-8.6v2.2h8.6v-2.2ZM452.5,33h-8.6v2.2h8.6v-2.2ZM454.1,40.8c2.7,2,6.5,5,8.4,7l-5.9,3.9c-1.6-2-5.3-5.2-8.1-7.4l5.6-3.5Z"/>
        <path class="cls-2" d="M500.8,42.6c5.1,1.8,10.6,3.9,14,5.4l-8.5,3.8c-3.1-1.7-9-4.3-14.6-6.3l4.6-2.9h-13.6l4.7,2.1c-4.5,3-11.7,5.7-17.3,7.3-1.3-1.5-4-4.3-5.7-5.6,4.8-.8,10.1-2.2,13.8-3.8h-7.1v-23.6h37.1v23.6h-7.4ZM511,17.2h-42.7V3.4h42.7v13.8ZM480.4,9h-5v2.6h5v-2.6ZM478.8,25.4h21.3v-1.8h-21.3v1.8ZM478.8,31.6h21.3v-1.8h-21.3v1.8ZM478.8,37.9h21.3v-1.9h-21.3v1.9ZM491.9,9h-5.1v2.6h5.1v-2.6ZM503.5,9h-5.3v2.6h5.3v-2.6Z"/>
        <path class="cls-2" d="M566.6,8.9c-1,11.8-3.3,21-7.1,28.3,2.4,3.3,5.4,6,8.9,7.9-1.7,1.4-4.1,4.4-5.3,6.4-3.2-2-5.9-4.5-8.3-7.3-2.4,2.9-5.3,5.4-8.6,7.4-1-1.6-2.5-3.8-4-5.3v5.5h-7.4v-7.8c-5.8,1-11.8,1.9-16.6,2.7l-1.4-7.7c1.4-.2,3-.3,4.7-.5V11.2h-3.4v-7.1h27.2v3.7h14.9l1.3-.2,5,1.2ZM528.8,11.2v3.9h6v-3.9h-6ZM528.8,26.2h6v-4.2h-6v4.2ZM534.8,36.7v-3.7h-6v4.5l6-.8ZM542.2,44.7c3.1-1.9,5.7-4.4,8-7.5-3.1-5.8-5.2-12.6-6.8-20.2l7.4-1.4c.9,4.7,2.2,9.2,3.9,13.3,1.6-4,2.8-8.5,3.6-13.4h-14.5v-4.1h-1.5v33.4Z"/>
      </g>
    </g>
  </g>
</svg>