<?xml version="1.0" encoding="UTF-8"?>
<svg id="_レイヤー_2" data-name="レイヤー 2" xmlns="http://www.w3.org/2000/svg" viewBox="0 0 23.9 33.9">
  <defs>
    <style>
      .cls-1 {
        fill: #c94605;
      }
    </style>
  </defs>
  <g id="contents">
    <path class="cls-1" d="M22.1,15c0,1.6-.2,3-.6,4.4-.4,1.3-1,2.5-1.7,3.4s-1.8,1.7-3,2.3l5.2,5.8h-5.8l-3.9-4.8h-.3c-1.7,0-3.3-.3-4.5-.8-1.3-.5-2.3-1.3-3.2-2.2s-1.5-2.1-1.9-3.5-.6-2.9-.6-4.5.4-4.1,1.1-5.8c.7-1.6,1.8-2.9,3.4-3.8s3.4-1.4,5.8-1.4,4.2.5,5.7,1.4,2.6,2.2,3.3,3.8,1.1,3.6,1.1,5.8ZM6.5,15c0,1.5.2,2.8.6,3.9s1,1.9,1.8,2.5,1.8.9,3.1.9,2.3-.3,3.1-.9,1.4-1.4,1.8-2.5.5-2.4.5-3.9c0-2.2-.4-4-1.3-5.3s-2.2-1.9-4.1-1.9-2.3.3-3.1.9-1.4,1.4-1.8,2.5-.6,2.4-.6,3.9Z"/>
  </g>
</svg>