<?xml version="1.0" encoding="UTF-8"?>
<svg id="_レイヤー_2" data-name="レイヤー 2" xmlns="http://www.w3.org/2000/svg" viewBox="0 0 35 35">
  <defs>
    <style>
      .cls-1 {
        fill: #fff;
      }

      .cls-2 {
        fill: #06c755;
      }
    </style>
  </defs>
  <g id="header">
    <g>
      <rect class="cls-2" x="0" width="35" height="35" rx="7.9" ry="7.9"/>
      <g>
        <path class="cls-1" d="M29.2,15.9c0-5.2-5.2-9.5-11.7-9.5S5.8,10.6,5.8,15.9s4.2,8.6,9.8,9.3c.4,0,.9.3,1,.6.1.3,0,.8,0,1.1,0,0-.1.8-.2,1,0,.3-.2,1.2,1,.6,1.2-.5,6.7-4,9.2-6.8h0c1.7-1.9,2.5-3.7,2.5-5.8Z"/>
        <g>
          <path class="cls-2" d="M25.3,18.9h-3.3c-.1,0-.2,0-.2-.2h0v-5.1h0c0-.1,0-.2.2-.2h3.3c.1,0,.2.1.2.2v.8c0,.1,0,.2-.2.2h-2.2v.9h2.2c.1,0,.2.1.2.2v.8c0,.1,0,.2-.2.2h-2.2v.9h2.2c.1,0,.2.1.2.2v.8c0,.1,0,.2-.2.2Z"/>
          <path class="cls-2" d="M13.2,18.9c.1,0,.2,0,.2-.2v-.8c0-.1-.1-.2-.2-.2h-2.2v-4c0-.1-.1-.2-.2-.2h-.8c-.1,0-.2,0-.2.2v5.1h0c0,.1,0,.2.2.2h3.3Z"/>
          <rect class="cls-2" x="14.1" y="13.3" width="1.3" height="5.5" rx=".2" ry=".2"/>
          <path class="cls-2" d="M20.8,13.3h-.8c-.1,0-.2,0-.2.2v3l-2.3-3.1s0,0,0,0c0,0,0,0,0,0,0,0,0,0,0,0,0,0,0,0,0,0,0,0,0,0,0,0,0,0,0,0,0,0,0,0,0,0,0,0,0,0,0,0,0,0,0,0,0,0,0,0,0,0,0,0,0,0,0,0,0,0,0,0,0,0,0,0,0,0,0,0,0,0,0,0,0,0,0,0,0,0,0,0,0,0,0,0,0,0,0,0,0,0,0,0,0,0,0,0,0,0,0,0,0,0,0,0,0,0,0,0h-.8c-.1,0-.2,0-.2.2v5.1c0,.1,0,.2.2.2h.8c.1,0,.2,0,.2-.2v-3l2.3,3.2s0,0,0,0c0,0,0,0,0,0,0,0,0,0,0,0,0,0,0,0,0,0,0,0,0,0,0,0,0,0,0,0,0,0,0,0,0,0,0,0,0,0,0,0,0,0,0,0,0,0,0,0,0,0,0,0,0,0h.8c.1,0,.2,0,.2-.2v-5.1c0-.1,0-.2-.2-.2Z"/>
        </g>
      </g>
    </g>
  </g>
</svg>