<?xml version="1.0" encoding="UTF-8"?>
<svg id="_レイヤー_2" data-name="レイヤー 2" xmlns="http://www.w3.org/2000/svg" xmlns:xlink="http://www.w3.org/1999/xlink" viewBox="0 0 260 140">
  <defs>
    <style>
      .cls-1 {
        fill: url(#_鍄澵_胙琅韃炅_2-10);
      }

      .cls-2 {
        fill: #c94605;
        opacity: 0;
      }

      .cls-3 {
        fill: url(#_鍄澵_胙琅韃炅_2-2);
      }

      .cls-4 {
        fill: #7eadff;
      }

      .cls-5 {
        fill: url(#_鍄澵_胙琅韃炅_2-6);
      }

      .cls-6 {
        fill: #a8ccec;
      }

      .cls-7 {
        fill: #d9d9d9;
      }

      .cls-8 {
        fill: #809fe8;
      }

      .cls-9 {
        fill: #ffc421;
      }

      .cls-10, .cls-11 {
        fill: #fff;
      }

      .cls-12 {
        fill: #c4dfef;
      }

      .cls-13 {
        fill: url(#_鍄澵_胙琅韃炅_2-4);
      }

      .cls-14 {
        fill: url(#_鍄澵_胙琅韃炅_2-9);
      }

      .cls-15 {
        fill: url(#_鍄澵_胙琅韃炅_2-5);
      }

      .cls-16 {
        fill: #9ce5ff;
      }

      .cls-17 {
        fill: #205ace;
      }

      .cls-18 {
        fill: #b0b0b0;
      }

      .cls-19 {
        fill: #e8b21e;
      }

      .cls-20 {
        fill: url(#_鍄澵_胙琅韃炅_2-3);
      }

      .cls-21 {
        fill: url(#_鍄澵_胙琅韃炅_2-11);
      }

      .cls-22 {
        fill: #8b98e4;
      }

      .cls-23 {
        fill: #858585;
      }

      .cls-24 {
        fill: #0df;
        opacity: .3;
      }

      .cls-25 {
        fill: #ebebeb;
      }

      .cls-26 {
        fill: #c7e5f9;
      }

      .cls-27 {
        fill: url(#_鍄澵_胙琅韃炅_2-7);
      }

      .cls-28 {
        fill: #d1ffc9;
      }

      .cls-29 {
        fill: #d4ee68;
      }

      .cls-11 {
        opacity: .6;
      }

      .cls-30 {
        fill: #2d3047;
      }

      .cls-31 {
        fill: url(#_鍄澵_胙琅韃炅_2);
      }

      .cls-32 {
        fill: url(#_鍄澵_胙琅韃炅_2-8);
      }
    </style>
    <linearGradient id="_鍄澵_胙琅韃炅_2" data-name="∝鍄澵隆 胙琅韃炅 2" x1="25" y1="-145.9" x2="23.8" y2="-158.7" gradientTransform="translate(130.3 222.5)" gradientUnits="userSpaceOnUse">
      <stop offset="0" stop-color="#f765ec"/>
      <stop offset="1" stop-color="#f6c669"/>
    </linearGradient>
    <linearGradient id="_鍄澵_胙琅韃炅_2-2" data-name="∝鍄澵隆 胙琅韃炅 2" x1="27.2" y1="-146.8" x2="26.3" y2="-157.6" gradientTransform="translate(130.3 223)" xlink:href="#_鍄澵_胙琅韃炅_2"/>
    <linearGradient id="_鍄澵_胙琅韃炅_2-3" data-name="∝鍄澵隆 胙琅韃炅 2" x1="33.4" y1="-145.7" x2="32.2" y2="-159.7" gradientTransform="translate(130.2 224.4)" xlink:href="#_鍄澵_胙琅韃炅_2"/>
    <linearGradient id="_鍄澵_胙琅韃炅_2-4" data-name="∝鍄澵隆 胙琅韃炅 2" x1="31.5" y1="-145" x2="30.1" y2="-160.9" gradientTransform="translate(130.3 224)" xlink:href="#_鍄澵_胙琅韃炅_2"/>
    <linearGradient id="_鍄澵_胙琅韃炅_2-5" data-name="∝鍄澵隆 胙琅韃炅 2" x1="29.2" y1="-146.9" x2="28.2" y2="-157.7" gradientTransform="translate(130.1 223.5)" xlink:href="#_鍄澵_胙琅韃炅_2"/>
    <linearGradient id="_鍄澵_胙琅韃炅_2-6" data-name="∝鍄澵隆 胙琅韃炅 2" x1="35.6" y1="-144.5" x2="34" y2="-162.2" gradientTransform="translate(130.4 224.8)" xlink:href="#_鍄澵_胙琅韃炅_2"/>
    <linearGradient id="_鍄澵_胙琅韃炅_2-7" data-name="∝鍄澵隆 胙琅韃炅 2" x1="37.5" y1="-144.7" x2="35.9" y2="-162.4" gradientTransform="translate(130.1 225.3)" xlink:href="#_鍄澵_胙琅韃炅_2"/>
    <linearGradient id="_鍄澵_胙琅韃炅_2-8" data-name="∝鍄澵隆 胙琅韃炅 2" x1="39.7" y1="-143.8" x2="37.9" y2="-164.8" gradientTransform="translate(130.2 225.8)" xlink:href="#_鍄澵_胙琅韃炅_2"/>
    <linearGradient id="_鍄澵_胙琅韃炅_2-9" data-name="∝鍄澵隆 胙琅韃炅 2" x1="41.5" y1="-145.5" x2="40.1" y2="-162" gradientTransform="translate(130.1 226.2)" xlink:href="#_鍄澵_胙琅韃炅_2"/>
    <linearGradient id="_鍄澵_胙琅韃炅_2-10" data-name="∝鍄澵隆 胙琅韃炅 2" x1="43.7" y1="-145.3" x2="42.1" y2="-162.9" gradientTransform="translate(130.2 226.7)" xlink:href="#_鍄澵_胙琅韃炅_2"/>
    <linearGradient id="_鍄澵_胙琅韃炅_2-11" data-name="∝鍄澵隆 胙琅韃炅 2" x1="45.9" y1="-145.1" x2="44.2" y2="-164" gradientTransform="translate(130.6 227.2)" xlink:href="#_鍄澵_胙琅韃炅_2"/>
  </defs>
  <g id="contents">
    <g>
      <rect class="cls-2" width="260" height="140"/>
      <g>
        <g>
          <rect class="cls-10" x="116.8" y="11.1" width="71.9" height="91.8" transform="translate(16.4 -32.4) rotate(12.8)"/>
          <path class="cls-26" d="M177.8,109.9h-.2s-70.3-16-70.3-16v-.2S127.8,4.1,127.8,4.1l70.4,16v.2s-20.4,89.7-20.4,89.7ZM107.8,93.7l69.8,15.9,20.3-89.2-69.8-15.9-20.3,89.2Z"/>
        </g>
        <polygon class="cls-23" points="169.3 85 169.3 85 169.7 83.1 169.8 83.1 173.6 83.9 173.6 84 169.8 83.1 169.3 85"/>
        <path class="cls-23" d="M173.7,84.2s0,0,0,0c0,0-.1-.1-.1-.2h0c0,0,.1-.1.2-.1,0,0,0,0,.1,0,0,0,0,0,0,.1,0,0,0,.1-.2.1ZM173.6,84c0,0,0,.1.1.2,0,0,.1,0,.2-.1,0,0,0,0,0-.1,0,0,0,0,0,0,0,0-.1,0-.2.1h0Z"/>
        <polygon class="cls-23" points="159.8 95 159.8 95 156 94.2 156 94.1 159.8 95 160.2 93.1 160.3 93.1 159.8 95"/>
        <path class="cls-23" d="M155.9,94.3s0,0,0,0c0,0-.1-.1-.1-.2,0,0,0,0,0-.1,0,0,0,0,.1,0,0,0,0,0,.1,0,0,0,0,0,0,.1,0,0,0,0,0,.1,0,0,0,0,0,0ZM155.9,94c0,0-.1,0-.1.1,0,0,0,.1.1.2,0,0,0,0,.1,0,0,0,0,0,0,0,0,0,0,0,0-.1,0,0,0,0,0,0,0,0,0,0,0,0Z"/>
        <path class="cls-22" d="M144.7,36.8l2.4.5c.2,0,.5,0,.5-.3,0,0,0,0,0,0,.9-4.1-1.8-8.2-6.2-9.7-.3,0-.5,0-.6.3l-.5,2.1c0,.2,0,.4.3.5,2.6,1,4.3,3.5,3.7,6.1,0,0,0,0,0,0,0,.2.1.4.4.5Z"/>
        <g>
          <path class="cls-4" d="M164.5,90.3l1.4-6.3s0,0,0,0c-1.3-.1-2.6,0-3.8.8-3.1,1.8-4.1,5.9-2.1,8.9,1.9,2.8,5.6,3.6,8.5,1.8,1.3-.8,2.2-2,2.6-3.4,0,0,0,0,0,0l-6.5-1.5s0,0,0,0Z"/>
          <path class="cls-29" d="M172.1,91.1s0,0,0,0c.5-1.6.3-3.5-.7-5-1-1.6-2.6-2.6-4.4-2.8,0,0,0,0,0,0l-1.4,6.3s0,0,0,0l6.5,1.5Z"/>
        </g>
        <rect class="cls-7" x="151.9" y="38.4" width="31.9" height=".5" transform="translate(12.7 -36.2) rotate(12.8)"/>
        <rect class="cls-7" x="138.2" y="54.1" width="31.9" height=".5" transform="translate(15.9 -32.8) rotate(12.8)"/>
        <rect class="cls-7" x="138.5" y="25.9" width="45.3" height="1" transform="translate(9.9 -35) rotate(12.8)"/>
        <rect class="cls-7" x="151.4" y="41" width="31.9" height=".3" transform="translate(13.3 -36) rotate(12.8)"/>
        <rect class="cls-7" x="151.1" y="42" width="31.9" height=".3" transform="translate(13.5 -36) rotate(12.8)"/>
        <rect class="cls-7" x="150.9" y="43" width="31.9" height=".3" transform="translate(13.7 -35.9) rotate(12.8)"/>
        <rect class="cls-7" x="150.7" y="44" width="31.9" height=".3" transform="translate(13.9 -35.8) rotate(12.8)"/>
        <rect class="cls-7" x="150.6" y="43.8" width="21.1" height=".3" transform="translate(13.7 -34.6) rotate(12.8)"/>
        <rect class="cls-7" x="119.6" y="80.1" width="36.4" height=".5" transform="translate(21.2 -28.5) rotate(12.8)"/>
        <rect class="cls-7" x="119" y="82.6" width="36.4" height=".3" transform="translate(21.7 -28.3) rotate(12.8)"/>
        <rect class="cls-7" x="118.8" y="83.7" width="36.4" height=".3" transform="translate(22 -28.3) rotate(12.8)"/>
        <rect class="cls-7" x="118.6" y="84.7" width="36.4" height=".3" transform="translate(22.2 -28.2) rotate(12.8)"/>
        <rect class="cls-7" x="118.3" y="85.7" width="36.4" height=".3" transform="translate(22.4 -28.1) rotate(12.8)"/>
        <rect class="cls-7" x="118.4" y="83.8" width="10.6" height=".3" transform="translate(21.7 -25.3) rotate(12.8)"/>
        <path class="cls-16" d="M133,34.1l-2.4-.5c-.2,0-.4-.3-.4-.5,0,0,0,0,0,0,.9-4.1,5.2-6.7,9.7-6.1.3,0,.5.3.4.5l-.5,2.1c0,.2-.2.3-.5.3-2.8-.3-5.4,1.4-6,3.9,0,0,0,0,0,0,0,.2-.3.4-.5.3Z"/>
        <path class="cls-9" d="M132.9,34.5l-2.4-.5c-.2,0-.5,0-.5.3,0,0,0,0,0,0-.9,4.1,1.8,8.2,6.2,9.7.3,0,.5,0,.6-.3l.5-2.1c0-.2,0-.4-.3-.5-2.6-1-4.3-3.5-3.7-6.1,0,0,0,0,0,0,0-.2-.1-.4-.4-.5Z"/>
        <path class="cls-28" d="M144.6,37.2l2.4.5c.2,0,.4.3.4.5,0,0,0,0,0,0-.9,4.1-5.2,6.7-9.7,6.1-.3,0-.5-.3-.4-.5l.5-2.1c0-.2.2-.3.5-.3,2.8.3,5.4-1.4,6-3.9,0,0,0,0,0,0,0-.2.3-.4.5-.3Z"/>
        <rect class="cls-25" x="125.8" y="67.4" width="21.1" height="0" transform="translate(18.3 -28.5) rotate(12.8)"/>
        <rect class="cls-25" x="126.1" y="66.2" width="21.1" height="0" transform="translate(18.1 -28.6) rotate(12.8)"/>
        <rect class="cls-25" x="126.4" y="65.1" width="21.1" height="0" transform="translate(17.8 -28.7) rotate(12.8)"/>
        <rect class="cls-25" x="126.6" y="63.9" width="21.1" height="0" transform="translate(17.6 -28.8) rotate(12.8)"/>
        <rect class="cls-25" x="126.9" y="62.8" width="21.1" height="0" transform="translate(17.3 -28.9) rotate(12.8)"/>
        <rect class="cls-25" x="127.2" y="61.6" width="21.1" height="0" transform="translate(17.1 -29) rotate(12.8)"/>
        <rect class="cls-25" x="127.4" y="60.4" width="21.1" height="0" transform="translate(16.8 -29.1) rotate(12.8)"/>
        <rect class="cls-25" x="127.7" y="59.3" width="21.1" height="0" transform="translate(16.6 -29.1) rotate(12.8)"/>
        <rect class="cls-25" x="127.9" y="58.1" width="21.1" height="0" transform="translate(16.3 -29.2) rotate(12.8)"/>
        <rect class="cls-25" x="128.2" y="57" width="21.1" height="0" transform="translate(16.1 -29.3) rotate(12.8)"/>
        <rect class="cls-25" x="128.5" y="55.8" width="21.1" height="0" transform="translate(15.8 -29.4) rotate(12.8)"/>
        <rect class="cls-25" x="153" y="73.6" width="21.1" height="0" transform="translate(20.4 -34.4) rotate(12.8)"/>
        <rect class="cls-25" x="153.3" y="72.4" width="21.1" height="0" transform="translate(20.1 -34.5) rotate(12.8)"/>
        <rect class="cls-25" x="153.6" y="71.2" width="21.1" height="0" transform="translate(19.9 -34.6) rotate(12.8)"/>
        <rect class="cls-25" x="153.8" y="70.1" width="21.1" height="0" transform="translate(19.6 -34.7) rotate(12.8)"/>
        <rect class="cls-25" x="154.1" y="68.9" width="21.1" height="0" transform="translate(19.4 -34.8) rotate(12.8)"/>
        <rect class="cls-25" x="154.4" y="67.8" width="21.1" height="0" transform="translate(19.1 -34.8) rotate(12.8)"/>
        <rect class="cls-25" x="154.6" y="66.6" width="21.1" height="0" transform="translate(18.9 -34.9) rotate(12.8)"/>
        <rect class="cls-25" x="154.9" y="65.5" width="21.1" height="0" transform="translate(18.6 -35) rotate(12.8)"/>
        <rect class="cls-25" x="155.2" y="64.3" width="21.1" height="0" transform="translate(18.4 -35.1) rotate(12.8)"/>
        <rect class="cls-25" x="155.4" y="63.1" width="21.1" height="0" transform="translate(18.1 -35.2) rotate(12.8)"/>
        <rect class="cls-25" x="155.7" y="62" width="21.1" height="0" transform="translate(17.9 -35.3) rotate(12.8)"/>
        <rect class="cls-18" x="152.6" y="58.3" width=".1" height="14.8" transform="translate(18.4 -32.2) rotate(12.8)"/>
        <rect class="cls-18" x="163.1" y="63.3" width=".1" height="24.6" transform="translate(273 -66.7) rotate(102.8)"/>
        <g>
          <path class="cls-18" d="M152.8,58.9h0s0,0,0,0h0s0,0,0,0h0s0,.4,0,.4h0s0-.4,0-.4Z"/>
          <path class="cls-18" d="M153.2,59.2c0,.1,0,.2-.2.2,0,0-.1-.1,0-.2,0-.1.1-.2.2-.2,0,0,.1.1,0,.2ZM153,59.1c0,.1,0,.2,0,.2,0,0,0,0,.1-.1,0,0,0-.2,0-.2,0,0,0,0-.1.1Z"/>
          <path class="cls-18" d="M153.5,59.2c0,.1,0,.2-.2.2,0,0-.1-.1,0-.2,0-.1.1-.2.2-.2,0,0,.1.1,0,.2ZM153.3,59.2c0,.1,0,.2,0,.2,0,0,0,0,.1-.1,0,0,0-.2,0-.2,0,0,0,0-.1.1Z"/>
        </g>
        <g>
          <path class="cls-18" d="M152.7,60.4s0,0,0,0c0,0,0,0,0,0,0,0,0,0,0,0h0s0,0-.1,0c0,0-.1,0,0-.2,0,0,0-.1.2-.1,0,0,.1,0,0,.2,0,0,0,.1-.1.2,0,0,0,0-.1,0,0,0,0,0,0,0h0ZM152.8,60.2c0,0,0,0,0,.1,0,0,0,0,0,0,0,0,0,0,0,0,0,0,0-.1,0-.1,0,0,0,0-.1,0Z"/>
          <path class="cls-18" d="M153.3,60.4c0,.1,0,.2-.2.2,0,0-.1-.1,0-.2,0-.1.1-.2.2-.2,0,0,.1.1,0,.2ZM153.1,60.3c0,.1,0,.2,0,.2,0,0,0,0,.1-.1,0,0,0-.2,0-.2,0,0,0,0-.1.1Z"/>
        </g>
        <g>
          <path class="cls-18" d="M152.4,61.5c0,0,0,0,.1,0h0s0,0,0-.1c0,0,0,0,.1,0,0,0,.1,0,0,.1,0,0,0,0,0,0h0s0,0,0,.1c0,0,0,.1-.2,0,0,0-.1,0-.1-.1ZM152.6,61.5s0,0,0-.1c0,0,0,0,0,0,0,0,0,0,0,0,0,0,0,0,0,0ZM152.5,61.3s0,0,0,0c0,0,0,0,0,0,0,0,0,0,0,0,0,0,0,0,0,0Z"/>
          <path class="cls-18" d="M153,61.5c0,.1,0,.2-.2.2,0,0-.1-.1,0-.2,0-.1.1-.2.2-.2,0,0,.1.1,0,.2ZM152.8,61.4c0,.1,0,.2,0,.2,0,0,0,0,.1-.1,0,0,0-.2,0-.2,0,0,0,0-.1.1Z"/>
        </g>
        <g>
          <path class="cls-18" d="M152.5,62.4h0s-.3.4-.3.4h0s.3-.3.3-.3h0s-.2,0-.2,0h0s.3,0,.3,0Z"/>
          <path class="cls-18" d="M152.8,62.6c0,.1,0,.2-.2.2,0,0-.1-.1,0-.2,0-.1.1-.2.2-.2,0,0,.1.1,0,.2ZM152.5,62.6c0,.1,0,.2,0,.2,0,0,0,0,.1-.1,0,0,0-.2,0-.2,0,0,0,0-.1.1Z"/>
        </g>
        <g>
          <path class="cls-18" d="M152.2,63.5s0,0,0,0c0,0-.1,0-.2.1h0s0,0,.1,0c0,0,.1,0,0,.2,0,0,0,.1-.2.1,0,0-.1,0-.1-.2,0,0,0-.1.1-.2,0,0,0,0,.1,0,0,0,0,0,0,0h0ZM152.1,63.7c0,0,0-.1,0-.1,0,0,0,0,0,0,0,0,0,0,0,0,0,0,0,.1,0,.1,0,0,0,0,.1,0Z"/>
          <path class="cls-18" d="M152.5,63.8c0,.1,0,.2-.2.2,0,0-.1-.1,0-.2,0-.1.1-.2.2-.2,0,0,.1.1,0,.2ZM152.3,63.7c0,.1,0,.2,0,.2,0,0,0,0,.1-.1,0,0,0-.2,0-.2,0,0,0,0-.1.1Z"/>
        </g>
        <g>
          <path class="cls-18" d="M151.9,64.7h-.2s0,0,0,0c0,0,0,0,0,0,0,0,0,0,0,0,0,0,0,0,0,.1,0,0,0,.1-.2.1,0,0,0,0,0,0h0s0,0,0,0c0,0,.1,0,.1,0,0,0,0,0,0-.1,0,0,0,0,0,0v-.2c0,0,.3,0,.3,0h0Z"/>
          <path class="cls-18" d="M152.3,64.9c0,.1,0,.2-.2.2,0,0-.1-.1,0-.2,0-.1.1-.2.2-.2,0,0,.1.1,0,.2ZM152,64.8c0,.1,0,.2,0,.2,0,0,0,0,.1-.1,0,0,0-.2,0-.2,0,0,0,0-.1.1Z"/>
        </g>
        <g>
          <path class="cls-18" d="M151.5,66.1h0c0-.1-.2-.2-.2-.2h0s.2-.3.2-.3h0s0,.3,0,.3h0s0,0,0,0h0s0,0,0,0h0ZM151.6,66h0c0-.2,0-.2,0-.2h0s0,0,0,0h-.1c0,.1,0,.1,0,.1h.1Z"/>
          <path class="cls-18" d="M152,66c0,.1,0,.2-.2.2,0,0-.1-.1,0-.2,0-.1.1-.2.2-.2,0,0,.1.1,0,.2ZM151.8,66c0,.1,0,.2,0,.2,0,0,0,0,.1-.1,0,0,0-.2,0-.2,0,0,0,0-.1.1Z"/>
        </g>
        <g>
          <path class="cls-18" d="M151.1,67.2s0,0,0,0c0,0,.1,0,.1,0,0,0,0,0,0-.1h0s0,0,0,0h0s0,0,.1,0c0,0,0,0,0,0,0,0,0,0,0,0h0c0,0,0,0,.1,0,0,0,.1,0,0,.1,0,0,0,0,0,0h0s0,0,0,.1c0,0,0,.1-.2,0,0,0,0,0,0,0h0Z"/>
          <path class="cls-18" d="M151.7,67.2c0,.1,0,.2-.2.2,0,0-.1-.1,0-.2,0-.1.1-.2.2-.2,0,0,.1.1,0,.2ZM151.5,67.1c0,.1,0,.2,0,.2,0,0,0,0,.1-.1,0,0,0-.2,0-.2,0,0,0,0-.1.1Z"/>
        </g>
        <g>
          <path class="cls-18" d="M150.8,68.4h0s0,0,0,0c.1,0,.2-.1.2-.2,0,0,0,0,0,0,0,0,0,0,0,0h0c0,0,0,0,.1,0,0,0,.1,0,0,.1,0,0,0,.1-.2.2h0s0,0,0,0h.2s0,0,0,0h-.3Z"/>
          <path class="cls-18" d="M151.5,68.3c0,.1,0,.2-.2.2,0,0-.1-.1,0-.2,0-.1.1-.2.2-.2,0,0,.1.1,0,.2ZM151.3,68.2c0,.1,0,.2,0,.2,0,0,0,0,.1-.1,0,0,0-.2,0-.2,0,0,0,0-.1.1Z"/>
        </g>
        <g>
          <path class="cls-18" d="M150.8,69.2h0s0,0,0,0h0s0,0,0,0h0s0,.4,0,.4h0s0-.4,0-.4Z"/>
          <path class="cls-18" d="M151.2,69.4c0,.1,0,.2-.2.2,0,0-.1-.1,0-.2,0-.1.1-.2.2-.2,0,0,.1.1,0,.2ZM151,69.4c0,.1,0,.2,0,.2,0,0,0,0,.1-.1,0,0,0-.2,0-.2,0,0,0,0-.1.1Z"/>
        </g>
        <path class="cls-18" d="M151,70.5c0,.1,0,.2-.2.2,0,0-.1-.1,0-.2,0-.1.1-.2.2-.2,0,0,.1.1,0,.2ZM150.7,70.5c0,.1,0,.2,0,.2,0,0,0,0,.1-.1,0,0,0-.2,0-.2,0,0,0,0-.1.1Z"/>
        <path class="cls-18" d="M153.5,74.2c0,.1,0,.2-.2.2,0,0-.1-.1,0-.2,0-.1.1-.2.2-.2,0,0,.1.1,0,.2ZM153.3,74.2c0,.1,0,.2,0,.2,0,0,0,0,.1-.1,0,0,0-.2,0-.2,0,0,0,0-.1.1Z"/>
        <g>
          <path class="cls-18" d="M155.5,74.5h0s0,0,0,0h0s0,0,0,0h0s0,.4,0,.4h0s0-.4,0-.4Z"/>
          <path class="cls-18" d="M155.9,74.7c0,.1,0,.2-.2.2,0,0-.1-.1,0-.2,0-.1.1-.2.2-.2,0,0,.1.1,0,.2ZM155.7,74.7c0,.1,0,.2,0,.2,0,0,0,0,.1-.1,0,0,0-.2,0-.2,0,0,0,0-.1.1Z"/>
        </g>
        <g>
          <path class="cls-18" d="M157.2,75.3h0s0,0,0,0c.1,0,.2-.1.2-.2,0,0,0,0,0,0,0,0,0,0,0,0h0c0,0,0,0,.1,0,0,0,.1,0,0,.1,0,0,0,.1-.2.2h0s0,0,0,0h.2s0,0,0,0h-.3Z"/>
          <path class="cls-18" d="M157.9,75.2c0,.1,0,.2-.2.2,0,0-.1-.1,0-.2,0-.1.1-.2.2-.2,0,0,.1.1,0,.2ZM157.7,75.2c0,.1,0,.2,0,.2,0,0,0,0,.1-.1,0,0,0-.2,0-.2,0,0,0,0-.1.1Z"/>
        </g>
        <g>
          <path class="cls-18" d="M159.2,75.7s0,0,0,0c0,0,.1,0,.1,0,0,0,0,0,0-.1h0s0,0,0,0h0s0,0,.1,0c0,0,0,0,0,0,0,0,0,0,0,0h0c0,0,0,0,.1,0,0,0,.1,0,0,.1,0,0,0,0,0,0h0s0,0,0,.1c0,0,0,.1-.2,0,0,0,0,0,0,0h0Z"/>
          <path class="cls-18" d="M159.8,75.6c0,.1,0,.2-.2.2,0,0-.1-.1,0-.2,0-.1.1-.2.2-.2,0,0,.1.1,0,.2ZM159.6,75.6c0,.1,0,.2,0,.2,0,0,0,0,.1-.1,0,0,0-.2,0-.2,0,0,0,0-.1.1Z"/>
        </g>
        <g>
          <path class="cls-18" d="M161.4,76.2h0c0-.1-.2-.2-.2-.2h0s.2-.3.2-.3h0s0,.3,0,.3h0s0,0,0,0h0s0,0,0,0h0ZM161.4,76.1h0c0-.2,0-.2,0-.2h0s0,0,0,0h-.1c0,.1,0,.1,0,.1h.1Z"/>
          <path class="cls-18" d="M161.8,76.1c0,.1,0,.2-.2.2,0,0-.1-.1,0-.2,0-.1.1-.2.2-.2,0,0,.1.1,0,.2ZM161.6,76.1c0,.1,0,.2,0,.2,0,0,0,0,.1-.1,0,0,0-.2,0-.2,0,0,0,0-.1.1Z"/>
        </g>
        <g>
          <path class="cls-18" d="M163.5,76.3h-.2s0,0,0,0c0,0,0,0,0,0,0,0,0,0,0,0,0,0,0,0,0,.1,0,0,0,.1-.2.1,0,0,0,0,0,0h0s0,0,0,0c0,0,.1,0,.1,0,0,0,0,0,0-.1,0,0,0,0,0,0v-.2c0,0,.3,0,.3,0h0Z"/>
          <path class="cls-18" d="M163.8,76.5c0,.1,0,.2-.2.2,0,0-.1-.1,0-.2,0-.1.1-.2.2-.2,0,0,.1.1,0,.2ZM163.6,76.5c0,.1,0,.2,0,.2,0,0,0,0,.1-.1,0,0,0-.2,0-.2,0,0,0,0-.1.1Z"/>
        </g>
        <g>
          <path class="cls-18" d="M165.5,76.8s0,0,0,0c0,0-.1,0-.2.1h0s0,0,.1,0c0,0,.1,0,0,.2,0,0,0,.1-.2.1,0,0-.1,0-.1-.2,0,0,0-.1.1-.2,0,0,0,0,.1,0,0,0,0,0,0,0h0ZM165.4,77c0,0,0-.1,0-.1,0,0,0,0,0,0,0,0,0,0,0,0,0,0,0,.1,0,.1,0,0,0,0,.1,0Z"/>
          <path class="cls-18" d="M165.8,77c0,.1,0,.2-.2.2,0,0-.1-.1,0-.2,0-.1.1-.2.2-.2,0,0,.1.1,0,.2ZM165.6,76.9c0,.1,0,.2,0,.2,0,0,0,0,.1-.1,0,0,0-.2,0-.2,0,0,0,0-.1.1Z"/>
        </g>
        <g>
          <path class="cls-18" d="M167.5,77.2h0s-.3.4-.3.4h0s.3-.3.3-.3h0s-.2,0-.2,0h0s.3,0,.3,0Z"/>
          <path class="cls-18" d="M167.7,77.4c0,.1,0,.2-.2.2,0,0-.1-.1,0-.2,0-.1.1-.2.2-.2,0,0,.1.1,0,.2ZM167.5,77.4c0,.1,0,.2,0,.2,0,0,0,0,.1-.1,0,0,0-.2,0-.2,0,0,0,0-.1.1Z"/>
        </g>
        <g>
          <path class="cls-18" d="M169.1,77.9c0,0,0,0,.1,0h0s0,0,0-.1c0,0,0,0,.1,0,0,0,.1,0,0,.1,0,0,0,0,0,0h0s0,0,0,.1c0,0,0,.1-.2,0,0,0-.1,0-.1-.1ZM169.3,77.9s0,0,0-.1c0,0,0,0,0,0,0,0,0,0,0,0,0,0,0,0,0,0ZM169.2,77.7s0,0,0,0c0,0,0,0,0,0,0,0,0,0,0,0,0,0,0,0,0,0Z"/>
          <path class="cls-18" d="M169.7,77.9c0,.1,0,.2-.2.2,0,0-.1-.1,0-.2,0-.1.1-.2.2-.2,0,0,.1.1,0,.2ZM169.5,77.8c0,.1,0,.2,0,.2,0,0,0,0,.1-.1,0,0,0-.2,0-.2,0,0,0,0-.1.1Z"/>
        </g>
        <g>
          <path class="cls-18" d="M171.1,78.4s0,0,0,0c0,0,0,0,0,0,0,0,0,0,0,0h0s0,0-.1,0c0,0-.1,0,0-.2,0,0,0-.1.2-.1,0,0,.1,0,0,.2,0,0,0,.1-.1.2,0,0,0,0-.1,0,0,0,0,0,0,0h0ZM171.2,78.2c0,0,0,0,0,.1,0,0,0,0,0,0,0,0,0,0,0,0,0,0,0-.1,0-.1,0,0,0,0-.1,0Z"/>
          <path class="cls-18" d="M171.7,78.3c0,.1,0,.2-.2.2,0,0-.1-.1,0-.2,0-.1.1-.2.2-.2,0,0,.1.1,0,.2ZM171.5,78.3c0,.1,0,.2,0,.2,0,0,0,0,.1-.1,0,0,0-.2,0-.2,0,0,0,0-.1.1Z"/>
        </g>
        <g>
          <path class="cls-18" d="M173.1,78.5h0s0,0,0,0h0s0,0,0,0h0s0,.4,0,.4h0s0-.4,0-.4Z"/>
          <path class="cls-18" d="M173.6,78.8c0,.1,0,.2-.2.2,0,0-.1-.1,0-.2,0-.1.1-.2.2-.2,0,0,.1.1,0,.2ZM173.4,78.7c0,.1,0,.2,0,.2,0,0,0,0,.1-.1,0,0,0-.2,0-.2,0,0,0,0-.1.1Z"/>
          <path class="cls-18" d="M173.9,78.8c0,.1,0,.2-.2.2,0,0-.1-.1,0-.2,0-.1.1-.2.2-.2,0,0,.1.1,0,.2ZM173.7,78.8c0,.1,0,.2,0,.2,0,0,0,0,.1-.1,0,0,0-.2,0-.2,0,0,0,0-.1.1Z"/>
        </g>
        <rect class="cls-18" x="125.3" y="52.1" width=".1" height="14.8" transform="translate(16.3 -26.3) rotate(12.8)"/>
        <rect class="cls-18" x="135.7" y="57.1" width=".1" height="24.6" transform="translate(233.5 -47.6) rotate(102.8)"/>
        <g>
          <path class="cls-18" d="M125.4,52.7h0s0,0,0,0h0s0,0,0,0h0s0,.4,0,.4h0s0-.4,0-.4Z"/>
          <path class="cls-18" d="M125.9,52.9c0,.1,0,.2-.2.2,0,0-.1-.1,0-.2,0-.1.1-.2.2-.2,0,0,.1.1,0,.2ZM125.6,52.9c0,.1,0,.2,0,.2,0,0,0,0,.1-.1,0,0,0-.2,0-.2,0,0,0,0-.1.1Z"/>
          <path class="cls-18" d="M126.2,53c0,.1,0,.2-.2.2,0,0-.1-.1,0-.2,0-.1.1-.2.2-.2,0,0,.1.1,0,.2ZM126,53c0,.1,0,.2,0,.2,0,0,0,0,.1-.1,0,0,0-.2,0-.2,0,0,0,0-.1.1Z"/>
        </g>
        <g>
          <path class="cls-18" d="M125.3,54.2s0,0,0,0c0,0,0,0,0,0,0,0,0,0,0,0h0s0,0-.1,0c0,0-.1,0,0-.2,0,0,0-.1.2-.1,0,0,.1,0,0,.2,0,0,0,.1-.1.2,0,0,0,0-.1,0,0,0,0,0,0,0h0ZM125.4,54c0,0,0,0,0,.1,0,0,0,0,0,0,0,0,0,0,0,0,0,0,0-.1,0-.1,0,0,0,0-.1,0Z"/>
          <path class="cls-18" d="M125.9,54.1c0,.1,0,.2-.2.2,0,0-.1-.1,0-.2,0-.1.1-.2.2-.2,0,0,.1.1,0,.2ZM125.7,54.1c0,.1,0,.2,0,.2,0,0,0,0,.1-.1,0,0,0-.2,0-.2,0,0,0,0-.1.1Z"/>
        </g>
        <g>
          <path class="cls-18" d="M125,55.2c0,0,0,0,.1,0h0s0,0,0-.1c0,0,0,0,.1,0,0,0,.1,0,0,.1,0,0,0,0,0,0h0s0,0,0,.1c0,0,0,.1-.2,0,0,0-.1,0-.1-.1ZM125.3,55.3s0,0,0-.1c0,0,0,0,0,0,0,0,0,0,0,0,0,0,0,0,0,0ZM125.2,55.1s0,0,0,0c0,0,0,0,0,0,0,0,0,0,0,0,0,0,0,0,0,0Z"/>
          <path class="cls-18" d="M125.7,55.3c0,.1,0,.2-.2.2,0,0-.1-.1,0-.2,0-.1.1-.2.2-.2,0,0,.1.1,0,.2ZM125.4,55.2c0,.1,0,.2,0,.2,0,0,0,0,.1-.1,0,0,0-.2,0-.2,0,0,0,0-.1.1Z"/>
        </g>
        <g>
          <path class="cls-18" d="M125.1,56.1h0s-.3.4-.3.4h0s.3-.3.3-.3h0s-.2,0-.2,0h0s.3,0,.3,0Z"/>
          <path class="cls-18" d="M125.4,56.4c0,.1,0,.2-.2.2,0,0-.1-.1,0-.2,0-.1.1-.2.2-.2,0,0,.1.1,0,.2ZM125.2,56.4c0,.1,0,.2,0,.2,0,0,0,0,.1-.1,0,0,0-.2,0-.2,0,0,0,0-.1.1Z"/>
        </g>
        <g>
          <path class="cls-18" d="M124.8,57.3s0,0,0,0c0,0-.1,0-.2.1h0s0,0,.1,0c0,0,.1,0,0,.2,0,0,0,.1-.2.1,0,0-.1,0-.1-.2,0,0,0-.1.1-.2,0,0,0,0,.1,0,0,0,0,0,0,0h0ZM124.8,57.5c0,0,0-.1,0-.1,0,0,0,0,0,0,0,0,0,0,0,0,0,0,0,.1,0,.1,0,0,0,0,.1,0Z"/>
          <path class="cls-18" d="M125.1,57.5c0,.1,0,.2-.2.2,0,0-.1-.1,0-.2,0-.1.1-.2.2-.2,0,0,.1.1,0,.2ZM124.9,57.5c0,.1,0,.2,0,.2,0,0,0,0,.1-.1,0,0,0-.2,0-.2,0,0,0,0-.1.1Z"/>
        </g>
        <g>
          <path class="cls-18" d="M124.6,58.4h-.2s0,0,0,0c0,0,0,0,0,0,0,0,0,0,0,0,0,0,0,0,0,.1,0,0,0,.1-.2.1,0,0,0,0,0,0h0s0,0,0,0c0,0,.1,0,.1,0,0,0,0,0,0-.1,0,0,0,0,0,0v-.2c0,0,.3,0,.3,0h0Z"/>
          <path class="cls-18" d="M124.9,58.7c0,.1,0,.2-.2.2,0,0-.1-.1,0-.2,0-.1.1-.2.2-.2,0,0,.1.1,0,.2ZM124.7,58.6c0,.1,0,.2,0,.2,0,0,0,0,.1-.1,0,0,0-.2,0-.2,0,0,0,0-.1.1Z"/>
        </g>
        <g>
          <path class="cls-18" d="M124.2,59.9h0c0-.1-.2-.2-.2-.2h0s.2-.3.2-.3h0s0,.3,0,.3h0s0,0,0,0h0s0,0,0,0h0ZM124.2,59.8h0c0-.2,0-.2,0-.2h0s0,0,0,0h-.1c0,.1,0,.1,0,.1h.1Z"/>
          <path class="cls-18" d="M124.6,59.8c0,.1,0,.2-.2.2,0,0-.1-.1,0-.2,0-.1.1-.2.2-.2,0,0,.1.1,0,.2ZM124.4,59.8c0,.1,0,.2,0,.2,0,0,0,0,.1-.1,0,0,0-.2,0-.2,0,0,0,0-.1.1Z"/>
        </g>
        <g>
          <path class="cls-18" d="M123.8,60.9s0,0,0,0c0,0,.1,0,.1,0,0,0,0,0,0-.1h0s0,0,0,0h0s0,0,.1,0c0,0,0,0,0,0,0,0,0,0,0,0h0c0,0,0,0,.1,0,0,0,.1,0,0,.1,0,0,0,0,0,0h0s0,0,0,.1c0,0,0,.1-.2,0,0,0,0,0,0,0h0Z"/>
          <path class="cls-18" d="M124.4,60.9c0,.1,0,.2-.2.2,0,0-.1-.1,0-.2,0-.1.1-.2.2-.2,0,0,.1.1,0,.2ZM124.2,60.9c0,.1,0,.2,0,.2,0,0,0,0,.1-.1,0,0,0-.2,0-.2,0,0,0,0-.1.1Z"/>
        </g>
        <g>
          <path class="cls-18" d="M123.5,62.1h0s0,0,0,0c.1,0,.2-.1.2-.2,0,0,0,0,0,0,0,0,0,0,0,0h0c0,0,0,0,.1,0,0,0,.1,0,0,.1,0,0,0,.1-.2.2h0s0,0,0,0h.2s0,0,0,0h-.3Z"/>
          <path class="cls-18" d="M124.1,62.1c0,.1,0,.2-.2.2,0,0-.1-.1,0-.2,0-.1.1-.2.2-.2,0,0,.1.1,0,.2ZM123.9,62c0,.1,0,.2,0,.2,0,0,0,0,.1-.1,0,0,0-.2,0-.2,0,0,0,0-.1.1Z"/>
        </g>
        <g>
          <path class="cls-18" d="M123.4,62.9h0s0,0,0,0h0s0,0,0,0h0s0,.4,0,.4h0s0-.4,0-.4Z"/>
          <path class="cls-18" d="M123.9,63.2c0,.1,0,.2-.2.2,0,0-.1-.1,0-.2,0-.1.1-.2.2-.2,0,0,.1.1,0,.2ZM123.6,63.2c0,.1,0,.2,0,.2,0,0,0,0,.1-.1,0,0,0-.2,0-.2,0,0,0,0-.1.1Z"/>
        </g>
        <path class="cls-18" d="M123.6,64.3c0,.1,0,.2-.2.2,0,0-.1-.1,0-.2,0-.1.1-.2.2-.2,0,0,.1.1,0,.2ZM123.4,64.3c0,.1,0,.2,0,.2,0,0,0,0,.1-.1,0,0,0-.2,0-.2,0,0,0,0-.1.1Z"/>
        <path class="cls-18" d="M126.2,68c0,.1,0,.2-.2.2,0,0-.1-.1,0-.2,0-.1.1-.2.2-.2,0,0,.1.1,0,.2ZM125.9,67.9c0,.1,0,.2,0,.2,0,0,0,0,.1-.1,0,0,0-.2,0-.2,0,0,0,0-.1.1Z"/>
        <g>
          <path class="cls-18" d="M128.1,68.3h0s0,0,0,0h0s0,0,0,0h0s0,.4,0,.4h0s0-.4,0-.4Z"/>
          <path class="cls-18" d="M128.5,68.5c0,.1,0,.2-.2.2,0,0-.1-.1,0-.2,0-.1.1-.2.2-.2,0,0,.1.1,0,.2ZM128.3,68.5c0,.1,0,.2,0,.2,0,0,0,0,.1-.1,0,0,0-.2,0-.2,0,0,0,0-.1.1Z"/>
        </g>
        <g>
          <path class="cls-18" d="M129.9,69.1h0s0,0,0,0c.1,0,.2-.1.2-.2,0,0,0,0,0,0,0,0,0,0,0,0h0c0,0,0,0,.1,0,0,0,.1,0,0,.1,0,0,0,.1-.2.2h0s0,0,0,0h.2s0,0,0,0h-.3Z"/>
          <path class="cls-18" d="M130.5,69c0,.1,0,.2-.2.2,0,0-.1-.1,0-.2,0-.1.1-.2.2-.2,0,0,.1.1,0,.2ZM130.3,68.9c0,.1,0,.2,0,.2,0,0,0,0,.1-.1,0,0,0-.2,0-.2,0,0,0,0-.1.1Z"/>
        </g>
        <g>
          <path class="cls-18" d="M131.9,69.4s0,0,0,0c0,0,.1,0,.1,0,0,0,0,0,0-.1h0s0,0,0,0h0s0,0,.1,0c0,0,0,0,0,0,0,0,0,0,0,0h0c0,0,0,0,.1,0,0,0,.1,0,0,.1,0,0,0,0,0,0h0s0,0,0,.1c0,0,0,.1-.2,0,0,0,0,0,0,0h0Z"/>
          <path class="cls-18" d="M132.5,69.4c0,.1,0,.2-.2.2,0,0-.1-.1,0-.2,0-.1.1-.2.2-.2,0,0,.1.1,0,.2ZM132.3,69.4c0,.1,0,.2,0,.2,0,0,0,0,.1-.1,0,0,0-.2,0-.2,0,0,0,0-.1.1Z"/>
        </g>
        <g>
          <path class="cls-18" d="M134,70h0c0-.1-.2-.2-.2-.2h0s.2-.3.2-.3h0s0,.3,0,.3h0s0,0,0,0h0s0,0,0,0h0ZM134,69.8h0c0-.2,0-.2,0-.2h0s0,0,0,0h-.1c0,.1,0,.1,0,.1h.1Z"/>
          <path class="cls-18" d="M134.5,69.9c0,.1,0,.2-.2.2,0,0-.1-.1,0-.2,0-.1.1-.2.2-.2,0,0,.1.1,0,.2ZM134.2,69.8c0,.1,0,.2,0,.2,0,0,0,0,.1-.1,0,0,0-.2,0-.2,0,0,0,0-.1.1Z"/>
        </g>
        <g>
          <path class="cls-18" d="M136.1,70.1h-.2s0,0,0,0c0,0,0,0,0,0,0,0,0,0,0,0,0,0,0,0,0,.1,0,0,0,.1-.2.1,0,0,0,0,0,0h0s0,0,0,0c0,0,.1,0,.1,0,0,0,0,0,0-.1,0,0,0,0,0,0v-.2c0,0,.3,0,.3,0h0Z"/>
          <path class="cls-18" d="M136.4,70.3c0,.1,0,.2-.2.2,0,0-.1-.1,0-.2,0-.1.1-.2.2-.2,0,0,.1.1,0,.2ZM136.2,70.3c0,.1,0,.2,0,.2,0,0,0,0,.1-.1,0,0,0-.2,0-.2,0,0,0,0-.1.1Z"/>
        </g>
        <g>
          <path class="cls-18" d="M138.1,70.5s0,0,0,0c0,0-.1,0-.2.1h0s0,0,.1,0c0,0,.1,0,0,.2,0,0,0,.1-.2.1,0,0-.1,0-.1-.2,0,0,0-.1.1-.2,0,0,0,0,.1,0,0,0,0,0,0,0h0ZM138,70.8c0,0,0-.1,0-.1,0,0,0,0,0,0,0,0,0,0,0,0,0,0,0,.1,0,.1,0,0,0,0,.1,0Z"/>
          <path class="cls-18" d="M138.4,70.8c0,.1,0,.2-.2.2,0,0-.1-.1,0-.2,0-.1.1-.2.2-.2,0,0,.1.1,0,.2ZM138.2,70.7c0,.1,0,.2,0,.2,0,0,0,0,.1-.1,0,0,0-.2,0-.2,0,0,0,0-.1.1Z"/>
        </g>
        <g>
          <path class="cls-18" d="M140.1,71h0s-.3.4-.3.4h0s.3-.3.3-.3h0s-.2,0-.2,0h0s.3,0,.3,0Z"/>
          <path class="cls-18" d="M140.4,71.2c0,.1,0,.2-.2.2,0,0-.1-.1,0-.2,0-.1.1-.2.2-.2,0,0,.1.1,0,.2ZM140.2,71.2c0,.1,0,.2,0,.2,0,0,0,0,.1-.1,0,0,0-.2,0-.2,0,0,0,0-.1.1Z"/>
        </g>
        <g>
          <path class="cls-18" d="M141.7,71.6c0,0,0,0,.1,0h0s0,0,0-.1c0,0,0,0,.1,0,0,0,.1,0,0,.1,0,0,0,0,0,0h0s0,0,0,.1c0,0,0,.1-.2,0,0,0-.1,0-.1-.1ZM142,71.7s0,0,0-.1c0,0,0,0,0,0,0,0,0,0,0,0,0,0,0,0,0,0ZM141.9,71.5s0,0,0,0c0,0,0,0,0,0,0,0,0,0,0,0,0,0,0,0,0,0Z"/>
          <path class="cls-18" d="M142.4,71.7c0,.1,0,.2-.2.2,0,0-.1-.1,0-.2,0-.1.1-.2.2-.2,0,0,.1.1,0,.2ZM142.1,71.6c0,.1,0,.2,0,.2,0,0,0,0,.1-.1,0,0,0-.2,0-.2,0,0,0,0-.1.1Z"/>
        </g>
        <g>
          <path class="cls-18" d="M143.7,72.2s0,0,0,0c0,0,0,0,0,0,0,0,0,0,0,0h0s0,0-.1,0c0,0-.1,0,0-.2,0,0,0-.1.2-.1,0,0,.1,0,0,.2,0,0,0,.1-.1.2,0,0,0,0-.1,0,0,0,0,0,0,0h0ZM143.8,71.9c0,0,0,0,0,.1,0,0,0,0,0,0,0,0,0,0,0,0,0,0,0-.1,0-.1,0,0,0,0-.1,0Z"/>
          <path class="cls-18" d="M144.3,72.1c0,.1,0,.2-.2.2,0,0-.1-.1,0-.2,0-.1.1-.2.2-.2,0,0,.1.1,0,.2ZM144.1,72.1c0,.1,0,.2,0,.2,0,0,0,0,.1-.1,0,0,0-.2,0-.2,0,0,0,0-.1.1Z"/>
        </g>
        <g>
          <path class="cls-18" d="M145.8,72.3h0s0,0,0,0h0s0,0,0,0h0s0,.4,0,.4h0s0-.4,0-.4Z"/>
          <path class="cls-18" d="M146.2,72.5c0,.1,0,.2-.2.2,0,0-.1-.1,0-.2,0-.1.1-.2.2-.2,0,0,.1.1,0,.2ZM146,72.5c0,.1,0,.2,0,.2,0,0,0,0,.1-.1,0,0,0-.2,0-.2,0,0,0,0-.1.1Z"/>
          <path class="cls-18" d="M146.5,72.6c0,.1,0,.2-.2.2,0,0-.1-.1,0-.2,0-.1.1-.2.2-.2,0,0,.1.1,0,.2ZM146.3,72.6c0,.1,0,.2,0,.2,0,0,0,0,.1-.1,0,0,0-.2,0-.2,0,0,0,0-.1.1Z"/>
        </g>
        <polygon class="cls-12" points="127.9 61.2 127.2 64.1 128.8 65.1 129.5 62.1 127.9 61.2"/>
        <polygon class="cls-8" points="131.4 62 130.7 64.9 128.8 65.1 129.5 62.1 131.4 62"/>
        <polygon class="cls-6" points="127.9 61.2 129.8 61 131.4 62 129.5 62.1 127.9 61.2"/>
        <polygon class="cls-12" points="133 60.3 131.9 65.1 133.5 66.1 134.6 61.4 133 60.3"/>
        <polygon class="cls-8" points="136.6 61.2 135.5 65.9 133.5 66.1 134.6 61.4 136.6 61.2"/>
        <polygon class="cls-6" points="133 60.3 134.9 60.1 136.6 61.2 134.6 61.4 133 60.3"/>
        <polygon class="cls-12" points="138.3 59.9 136.9 66.2 138.5 67.3 140 60.9 138.3 59.9"/>
        <polygon class="cls-8" points="141.9 60.7 140.5 67 138.5 67.3 140 60.9 141.9 60.7"/>
        <polygon class="cls-6" points="138.3 59.9 140.3 59.7 141.9 60.7 140 60.9 138.3 59.9"/>
        <polygon class="cls-12" points="144.1 58.1 142 67.3 143.6 68.4 145.7 59.2 144.1 58.1"/>
        <polygon class="cls-8" points="147.6 58.9 145.6 68.1 143.6 68.4 145.7 59.2 147.6 58.9"/>
        <polygon class="cls-6" points="144.1 58.1 146 57.8 147.6 58.9 145.7 59.2 144.1 58.1"/>
        <g>
          <rect class="cls-31" x="153.9" y="67.1" width="1.3" height="4.4" transform="translate(19.2 -32.5) rotate(12.8)"/>
          <rect class="cls-3" x="156.3" y="66.4" width="1.3" height="5.6" transform="translate(19.2 -33) rotate(12.8)"/>
          <rect class="cls-20" x="162.2" y="67.8" width="1.3" height="5.6" transform="translate(19.7 -34.3) rotate(12.8)"/>
          <rect class="cls-13" x="160.3" y="66.6" width="1.3" height="6.4" transform="translate(19.5 -33.9) rotate(12.8)"/>
          <rect class="cls-15" x="158.1" y="68.2" width="1.3" height="4.3" transform="translate(19.5 -33.4) rotate(12.8)"/>
          <rect class="cls-5" x="164.4" y="65.5" width="1.3" height="8.3" transform="translate(19.5 -34.8) rotate(12.8)"/>
          <rect class="cls-27" x="166.1" y="68.6" width="1.3" height="5.6" transform="translate(20 -35.2) rotate(12.8)"/>
          <rect class="cls-32" x="168.3" y="67.1" width="1.3" height="7.6" transform="translate(19.9 -35.7) rotate(12.8)"/>
          <rect class="cls-14" x="170.2" y="68.2" width="1.3" height="6.9" transform="translate(20.1 -36.1) rotate(12.8)"/>
          <rect class="cls-1" x="172.3" y="67.3" width="1.3" height="8.3" transform="translate(20.1 -36.5) rotate(12.8)"/>
          <rect class="cls-21" x="174.7" y="64.2" width="1.3" height="11.9" transform="translate(19.9 -37.1) rotate(12.8)"/>
        </g>
        <g>
          <path class="cls-10" d="M153,106.7c-.3,0-.6-.2-.6-.6l-3-58,97.3-5.1,3,58c0,.2,0,.3-.2.4-.1.1-.3.2-.4.2l-96.1,5s0,0,0,0Z"/>
          <path class="cls-26" d="M246.5,43.1l3,57.9c0,.1,0,.2-.1.3,0,0-.2.1-.3.1l-96.1,5s0,0,0,0c-.2,0-.4-.2-.4-.4l-3-57.9,97-5.1M246.8,42.8l-97.6,5.1,3.1,58.2c0,.4.4.7.7.7s0,0,0,0l96.1-5c.4,0,.7-.4.7-.8l-3.1-58.2h0Z"/>
        </g>
        <path class="cls-30" d="M150.7,39.9h94.4c.9,0,1.7.7,1.7,1.7v3.8h-97.7v-3.8c0-.9.7-1.7,1.7-1.7Z" transform="translate(-2 10.4) rotate(-3)"/>
        <circle class="cls-10" cx="152.1" cy="45.1" r="1"/>
        <circle class="cls-10" cx="155.4" cy="44.9" r="1"/>
        <circle class="cls-10" cx="158.6" cy="44.8" r="1"/>
        <g>
          <rect class="cls-22" x="157.9" y="52.3" width="13" height="4" transform="translate(-2.6 8.7) rotate(-3)"/>
          <path class="cls-10" d="M170.9,56l-13,.7-.2-4.1,13-.7.2,4.1ZM158,56.6l12.9-.7-.2-4-12.9.7.2,4Z"/>
        </g>
        <g>
          <rect class="cls-22" x="171.4" y="51.5" width="13" height="4" transform="translate(-2.6 9.4) rotate(-3)"/>
          <path class="cls-10" d="M184.5,55.3l-13,.7-.2-4.1,13-.7.2,4.1ZM171.5,55.9l12.9-.7-.2-4-12.9.7.2,4Z"/>
        </g>
        <g>
          <rect class="cls-22" x="184.9" y="50.8" width="13" height="4" transform="translate(-2.5 10.1) rotate(-3)"/>
          <path class="cls-10" d="M198,54.5l-13,.7-.2-4.1,13-.7.2,4.1ZM185.1,55.2l12.9-.7-.2-4-12.9.7.2,4Z"/>
        </g>
        <g>
          <rect class="cls-22" x="158.1" y="57.2" width="13" height="4" transform="translate(-2.9 8.7) rotate(-3)"/>
          <path class="cls-10" d="M171.2,60.9l-13,.7-.2-4.1,13-.7.2,4.1ZM158.3,61.5l12.9-.7-.2-4-12.9.7.2,4Z"/>
        </g>
        <g>
          <rect class="cls-26" x="171.7" y="56.4" width="13" height="4" transform="translate(-2.8 9.4) rotate(-3)"/>
          <path class="cls-10" d="M184.7,60.2l-13,.7-.2-4.1,13-.7.2,4.1ZM171.8,60.8l12.9-.7-.2-4-12.9.7.2,4Z"/>
        </g>
        <g>
          <rect class="cls-26" x="185.2" y="55.7" width="13" height="4" transform="translate(-2.8 10.1) rotate(-3)"/>
          <path class="cls-10" d="M198.3,59.5l-13,.7-.2-4.1,13-.7.2,4.1ZM185.3,60.1l12.9-.7-.2-4-12.9.7.2,4Z"/>
        </g>
        <g>
          <rect class="cls-22" x="158.4" y="62.1" width="13" height="4" transform="translate(-3.1 8.7) rotate(-3)"/>
          <path class="cls-10" d="M171.5,65.8l-13,.7-.2-4.1,13-.7.2,4.1ZM158.5,66.4l12.9-.7-.2-4-12.9.7.2,4Z"/>
        </g>
        <g>
          <rect class="cls-26" x="171.9" y="61.3" width="13" height="4" transform="translate(-3.1 9.4) rotate(-3)"/>
          <path class="cls-10" d="M185,65.1l-13,.7-.2-4.1,13-.7.2,4.1ZM172.1,65.7l12.9-.7-.2-4-12.9.7.2,4Z"/>
        </g>
        <g>
          <rect class="cls-26" x="185.4" y="60.6" width="13" height="4" transform="translate(-3 10.2) rotate(-3)"/>
          <path class="cls-10" d="M198.5,64.4l-13,.7-.2-4.1,13-.7.2,4.1ZM185.6,65l12.9-.7-.2-4-12.9.7.2,4Z"/>
        </g>
        <g>
          <rect class="cls-22" x="158.6" y="67" width="13" height="4" transform="translate(-3.4 8.8) rotate(-3)"/>
          <path class="cls-10" d="M171.7,70.7l-13,.7-.2-4.1,13-.7.2,4.1ZM158.8,71.3l12.9-.7-.2-4-12.9.7.2,4Z"/>
        </g>
        <g>
          <rect class="cls-26" x="172.2" y="66.2" width="13" height="4" transform="translate(-3.3 9.5) rotate(-3)"/>
          <path class="cls-10" d="M185.3,70l-13,.7-.2-4.1,13-.7.2,4.1ZM172.3,70.6l12.9-.7-.2-4-12.9.7.2,4Z"/>
        </g>
        <g>
          <rect class="cls-26" x="185.7" y="65.5" width="13" height="4" transform="translate(-3.3 10.2) rotate(-3)"/>
          <path class="cls-10" d="M198.8,69.3l-13,.7-.2-4.1,13-.7.2,4.1ZM185.9,69.9l12.9-.7-.2-4-12.9.7.2,4Z"/>
        </g>
        <g>
          <rect class="cls-22" x="158.9" y="71.9" width="13" height="4" transform="translate(-3.6 8.8) rotate(-3)"/>
          <path class="cls-10" d="M172,75.6l-13,.7-.2-4.1,13-.7.2,4.1ZM159,76.2l12.9-.7-.2-4-12.9.7.2,4Z"/>
        </g>
        <g>
          <rect class="cls-26" x="172.4" y="71.1" width="13" height="4" transform="translate(-3.6 9.5) rotate(-3)"/>
          <path class="cls-10" d="M185.5,74.9l-13,.7-.2-4.1,13-.7.2,4.1ZM172.6,75.5l12.9-.7-.2-4-12.9.7.2,4Z"/>
        </g>
        <g>
          <rect class="cls-26" x="186" y="70.4" width="13" height="4" transform="translate(-3.5 10.2) rotate(-3)"/>
          <path class="cls-10" d="M199.1,74.2l-13,.7-.2-4.1,13-.7.2,4.1ZM186.1,74.8l12.9-.7-.2-4-12.9.7.2,4Z"/>
        </g>
        <g>
          <rect class="cls-22" x="159.1" y="76.8" width="13" height="4" transform="translate(-3.9 8.8) rotate(-3)"/>
          <path class="cls-10" d="M172.2,80.5l-13,.7-.2-4.1,13-.7.2,4.1ZM159.3,81.1l12.9-.7-.2-4-12.9.7.2,4Z"/>
        </g>
        <g>
          <rect class="cls-26" x="172.7" y="76.1" width="13" height="4" transform="translate(-3.8 9.5) rotate(-3)"/>
          <path class="cls-10" d="M185.8,79.8l-13,.7-.2-4.1,13-.7.2,4.1ZM172.8,80.4l12.9-.7-.2-4-12.9.7.2,4Z"/>
        </g>
        <g>
          <rect class="cls-26" x="186.2" y="75.3" width="13" height="4" transform="translate(-3.8 10.2) rotate(-3)"/>
          <path class="cls-10" d="M199.3,79.1l-13,.7-.2-4.1,13-.7.2,4.1ZM186.4,79.7l12.9-.7-.2-4-12.9.7.2,4Z"/>
        </g>
        <g>
          <rect class="cls-22" x="159.4" y="81.7" width="13" height="4" transform="translate(-4.2 8.8) rotate(-3)"/>
          <path class="cls-10" d="M172.5,85.4l-13,.7-.2-4.1,13-.7.2,4.1ZM159.5,86l12.9-.7-.2-4-12.9.7.2,4Z"/>
        </g>
        <g>
          <rect class="cls-26" x="172.9" y="81" width="13" height="4" transform="translate(-4.1 9.5) rotate(-3)"/>
          <path class="cls-10" d="M186,84.7l-13,.7-.2-4.1,13-.7.2,4.1ZM173.1,85.3l12.9-.7-.2-4-12.9.7.2,4Z"/>
        </g>
        <g>
          <rect class="cls-26" x="186.5" y="80.2" width="13" height="4" transform="translate(-4.1 10.2) rotate(-3)"/>
          <path class="cls-10" d="M199.6,84l-13,.7-.2-4.1,13-.7.2,4.1ZM186.6,84.6l12.9-.7-.2-4-12.9.7.2,4Z"/>
        </g>
        <g>
          <rect class="cls-22" x="159.7" y="86.6" width="13" height="4" transform="translate(-4.4 8.8) rotate(-3)"/>
          <path class="cls-10" d="M172.7,90.3l-13,.7-.2-4.1,13-.7.2,4.1ZM159.8,90.9l12.9-.7-.2-4-12.9.7.2,4Z"/>
        </g>
        <g>
          <rect class="cls-26" x="173.2" y="85.9" width="13" height="4" transform="translate(-4.4 9.5) rotate(-3)"/>
          <path class="cls-10" d="M186.3,89.6l-13,.7-.2-4.1,13-.7.2,4.1ZM173.3,90.2l12.9-.7-.2-4-12.9.7.2,4Z"/>
        </g>
        <g>
          <rect class="cls-26" x="186.7" y="85.1" width="13" height="4" transform="translate(-4.3 10.3) rotate(-3)"/>
          <path class="cls-10" d="M199.8,88.9l-13,.7-.2-4.1,13-.7.2,4.1ZM186.9,89.5l12.9-.7-.2-4-12.9.7.2,4Z"/>
        </g>
        <g>
          <rect class="cls-22" x="159.9" y="91.5" width="13" height="4" transform="translate(-4.7 8.9) rotate(-3)"/>
          <path class="cls-10" d="M173,95.2l-13,.7-.2-4.1,13-.7.2,4.1ZM160.1,95.8l12.9-.7-.2-4-12.9.7.2,4Z"/>
        </g>
        <g>
          <rect class="cls-26" x="173.5" y="90.8" width="13" height="4" transform="translate(-4.6 9.6) rotate(-3)"/>
          <path class="cls-10" d="M186.5,94.5l-13,.7-.2-4.1,13-.7.2,4.1ZM173.6,95.1l12.9-.7-.2-4-12.9.7.2,4Z"/>
        </g>
        <g>
          <rect class="cls-26" x="187" y="90" width="13" height="4" transform="translate(-4.6 10.3) rotate(-3)"/>
          <path class="cls-10" d="M200.1,93.8l-13,.7-.2-4.1,13-.7.2,4.1ZM187.1,94.4l12.9-.7-.2-4-12.9.7.2,4Z"/>
        </g>
        <g>
          <rect class="cls-22" x="160.2" y="96.4" width="13" height="4" transform="translate(-4.9 8.9) rotate(-3)"/>
          <path class="cls-10" d="M173.3,100.1l-13,.7-.2-4.1,13-.7.2,4.1ZM160.3,100.7l12.9-.7-.2-4-12.9.7.2,4Z"/>
        </g>
        <g>
          <rect class="cls-26" x="173.7" y="95.7" width="13" height="4" transform="translate(-4.9 9.6) rotate(-3)"/>
          <path class="cls-10" d="M186.8,99.4l-13,.7-.2-4.1,13-.7.2,4.1ZM173.9,100l12.9-.7-.2-4-12.9.7.2,4Z"/>
        </g>
        <g>
          <rect class="cls-26" x="187.3" y="94.9" width="13" height="4" transform="translate(-4.8 10.3) rotate(-3)"/>
          <path class="cls-10" d="M200.3,98.7l-13,.7-.2-4.1,13-.7.2,4.1ZM187.4,99.3l12.9-.7-.2-4-12.9.7.2,4Z"/>
        </g>
        <g>
          <rect class="cls-22" x="198.5" y="50.1" width="13" height="4" transform="translate(-2.5 10.8) rotate(-3)"/>
          <path class="cls-10" d="M211.6,53.8l-13,.7-.2-4.1,13-.7.2,4.1ZM198.6,54.5l12.9-.7-.2-4-12.9.7.2,4Z"/>
        </g>
        <g>
          <rect class="cls-22" x="212" y="49.4" width="13" height="4" transform="translate(-2.4 11.5) rotate(-3)"/>
          <path class="cls-10" d="M225.1,53.1l-13,.7-.2-4.1,13-.7.2,4.1ZM212.2,53.7l12.9-.7-.2-4-12.9.7.2,4Z"/>
        </g>
        <g>
          <rect class="cls-26" x="198.7" y="55" width="13" height="4" transform="translate(-2.7 10.8) rotate(-3)"/>
          <path class="cls-10" d="M211.8,58.7l-13,.7-.2-4.1,13-.7.2,4.1ZM198.9,59.4l12.9-.7-.2-4-12.9.7.2,4Z"/>
        </g>
        <g>
          <rect class="cls-26" x="212.3" y="54.3" width="13" height="4" transform="translate(-2.7 11.6) rotate(-3)"/>
          <path class="cls-10" d="M225.4,58l-13,.7-.2-4.1,13-.7.2,4.1ZM212.4,58.6l12.9-.7-.2-4-12.9.7.2,4Z"/>
        </g>
        <g>
          <rect class="cls-26" x="199" y="59.9" width="13" height="4" transform="translate(-3 10.9) rotate(-3)"/>
          <path class="cls-10" d="M212.1,63.6l-13,.7-.2-4.1,13-.7.2,4.1ZM199.1,64.3l12.9-.7-.2-4-12.9.7.2,4Z"/>
        </g>
        <g>
          <rect class="cls-26" x="212.5" y="59.2" width="13" height="4" transform="translate(-2.9 11.6) rotate(-3)"/>
          <path class="cls-10" d="M225.6,62.9l-13,.7-.2-4.1,13-.7.2,4.1ZM212.7,63.6l12.9-.7-.2-4-12.9.7.2,4Z"/>
        </g>
        <g>
          <rect class="cls-26" x="199.3" y="64.8" width="13" height="4" transform="translate(-3.2 10.9) rotate(-3)"/>
          <path class="cls-10" d="M212.4,68.5l-13,.7-.2-4.1,13-.7.2,4.1ZM199.4,69.2l12.9-.7-.2-4-12.9.7.2,4Z"/>
        </g>
        <g>
          <rect class="cls-26" x="212.8" y="64.1" width="13" height="4" transform="translate(-3.2 11.6) rotate(-3)"/>
          <path class="cls-10" d="M225.9,67.8l-13,.7-.2-4.1,13-.7.2,4.1ZM212.9,68.5l12.9-.7-.2-4-12.9.7.2,4Z"/>
        </g>
        <g>
          <rect class="cls-26" x="199.5" y="69.7" width="13" height="4" transform="translate(-3.5 10.9) rotate(-3)"/>
          <path class="cls-10" d="M212.6,73.4l-13,.7-.2-4.1,13-.7.2,4.1ZM199.7,74.1l12.9-.7-.2-4-12.9.7.2,4Z"/>
        </g>
        <g>
          <rect class="cls-26" x="213.1" y="69" width="13" height="4" transform="translate(-3.4 11.6) rotate(-3)"/>
          <path class="cls-10" d="M226.2,72.7l-13,.7-.2-4.1,13-.7.2,4.1ZM213.2,73.4l12.9-.7-.2-4-12.9.7.2,4Z"/>
        </g>
        <g>
          <rect class="cls-26" x="199.8" y="74.6" width="13" height="4" transform="translate(-3.7 10.9) rotate(-3)"/>
          <path class="cls-10" d="M212.9,78.3l-13,.7-.2-4.1,13-.7.2,4.1ZM199.9,79l12.9-.7-.2-4-12.9.7.2,4Z"/>
        </g>
        <g>
          <rect class="cls-26" x="213.3" y="73.9" width="13" height="4" transform="translate(-3.7 11.6) rotate(-3)"/>
          <path class="cls-10" d="M226.4,77.6l-13,.7-.2-4.1,13-.7.2,4.1ZM213.5,78.3l12.9-.7-.2-4-12.9.7.2,4Z"/>
        </g>
        <g>
          <rect class="cls-26" x="200" y="79.5" width="13" height="4" transform="translate(-4 10.9) rotate(-3)"/>
          <path class="cls-10" d="M213.1,83.2l-13,.7-.2-4.1,13-.7.2,4.1ZM200.2,83.9l12.9-.7-.2-4-12.9.7.2,4Z"/>
        </g>
        <g>
          <rect class="cls-26" x="213.6" y="78.8" width="13" height="4" transform="translate(-3.9 11.7) rotate(-3)"/>
          <path class="cls-10" d="M226.7,82.5l-13,.7-.2-4.1,13-.7.2,4.1ZM213.7,83.2l12.9-.7-.2-4-12.9.7.2,4Z"/>
        </g>
        <g>
          <rect class="cls-26" x="200.3" y="84.4" width="13" height="4" transform="translate(-4.3 11) rotate(-3)"/>
          <path class="cls-10" d="M213.4,88.2l-13,.7-.2-4.1,13-.7.2,4.1ZM200.4,88.8l12.9-.7-.2-4-12.9.7.2,4Z"/>
        </g>
        <g>
          <rect class="cls-26" x="213.8" y="83.7" width="13" height="4" transform="translate(-4.2 11.7) rotate(-3)"/>
          <path class="cls-10" d="M226.9,87.4l-13,.7-.2-4.1,13-.7.2,4.1ZM214,88.1l12.9-.7-.2-4-12.9.7.2,4Z"/>
        </g>
        <g>
          <rect class="cls-26" x="200.5" y="89.3" width="13" height="4" transform="translate(-4.5 11) rotate(-3)"/>
          <path class="cls-10" d="M213.6,93.1l-13,.7-.2-4.1,13-.7.2,4.1ZM200.7,93.7l12.9-.7-.2-4-12.9.7.2,4Z"/>
        </g>
        <g>
          <rect class="cls-26" x="214.1" y="88.6" width="13" height="4" transform="translate(-4.5 11.7) rotate(-3)"/>
          <path class="cls-10" d="M227.2,92.3l-13,.7-.2-4.1,13-.7.2,4.1ZM214.2,93l12.9-.7-.2-4-12.9.7.2,4Z"/>
        </g>
        <g>
          <rect class="cls-26" x="200.8" y="94.2" width="13" height="4" transform="translate(-4.8 11) rotate(-3)"/>
          <path class="cls-10" d="M213.9,98l-13,.7-.2-4.1,13-.7.2,4.1ZM200.9,98.6l12.9-.7-.2-4-12.9.7.2,4Z"/>
        </g>
        <g>
          <rect class="cls-26" x="214.3" y="93.5" width="13" height="4" transform="translate(-4.7 11.7) rotate(-3)"/>
          <path class="cls-10" d="M227.4,97.2l-13,.7-.2-4.1,13-.7.2,4.1ZM214.5,97.9l12.9-.7-.2-4-12.9.7.2,4Z"/>
        </g>
        <g>
          <rect class="cls-22" x="225.6" y="48.7" width="13" height="4" transform="translate(-2.3 12.2) rotate(-3)"/>
          <path class="cls-10" d="M238.7,52.4l-13,.7-.2-4.1,13-.7.2,4.1ZM225.7,53l12.9-.7-.2-4-12.9.7.2,4Z"/>
        </g>
        <g>
          <rect class="cls-26" x="225.8" y="53.6" width="13" height="4" transform="translate(-2.6 12.3) rotate(-3)"/>
          <path class="cls-10" d="M238.9,57.3l-13,.7-.2-4.1,13-.7.2,4.1ZM226,57.9l12.9-.7-.2-4-12.9.7.2,4Z"/>
        </g>
        <g>
          <rect class="cls-26" x="226.1" y="58.5" width="13" height="4" transform="translate(-2.9 12.3) rotate(-3)"/>
          <path class="cls-10" d="M239.2,62.2l-13,.7-.2-4.1,13-.7.2,4.1ZM226.2,62.8l12.9-.7-.2-4-12.9.7.2,4Z"/>
        </g>
        <g>
          <rect class="cls-26" x="226.4" y="63.4" width="13" height="4" transform="translate(-3.1 12.3) rotate(-3)"/>
          <path class="cls-10" d="M239.4,67.1l-13,.7-.2-4.1,13-.7.2,4.1ZM226.5,67.7l12.9-.7-.2-4-12.9.7.2,4Z"/>
        </g>
        <g>
          <rect class="cls-26" x="226.6" y="68.3" width="13" height="4" transform="translate(-3.4 12.3) rotate(-3)"/>
          <path class="cls-10" d="M239.7,72l-13,.7-.2-4.1,13-.7.2,4.1ZM226.8,72.6l12.9-.7-.2-4-12.9.7.2,4Z"/>
        </g>
        <g>
          <rect class="cls-26" x="226.9" y="73.2" width="13" height="4" transform="translate(-3.6 12.3) rotate(-3)"/>
          <path class="cls-10" d="M240,76.9l-13,.7-.2-4.1,13-.7.2,4.1ZM227,77.5l12.9-.7-.2-4-12.9.7.2,4Z"/>
        </g>
        <g>
          <rect class="cls-26" x="227.1" y="78.1" width="13" height="4" transform="translate(-3.9 12.4) rotate(-3)"/>
          <path class="cls-10" d="M240.2,81.8l-13,.7-.2-4.1,13-.7.2,4.1ZM227.3,82.4l12.9-.7-.2-4-12.9.7.2,4Z"/>
        </g>
        <g>
          <rect class="cls-26" x="227.4" y="83" width="13" height="4" transform="translate(-4.1 12.4) rotate(-3)"/>
          <path class="cls-10" d="M240.5,86.7l-13,.7-.2-4.1,13-.7.2,4.1ZM227.5,87.3l12.9-.7-.2-4-12.9.7.2,4Z"/>
        </g>
        <g>
          <rect class="cls-26" x="227.6" y="87.9" width="13" height="4" transform="translate(-4.4 12.4) rotate(-3)"/>
          <path class="cls-10" d="M240.7,91.6l-13,.7-.2-4.1,13-.7.2,4.1ZM227.8,92.3l12.9-.7-.2-4-12.9.7.2,4Z"/>
        </g>
        <g>
          <rect class="cls-26" x="227.9" y="92.8" width="13" height="4" transform="translate(-4.7 12.4) rotate(-3)"/>
          <path class="cls-10" d="M241,96.5l-13,.7-.2-4.1,13-.7.2,4.1ZM228,97.2l12.9-.7-.2-4-12.9.7.2,4Z"/>
        </g>
        <rect class="cls-30" x="149.7" y="82.3" width="32.7" height="46" rx="1.6" ry="1.6" transform="translate(-30.4 98.1) rotate(-30.3)"/>
        <rect class="cls-10" x="145.7" y="90.1" width="26.5" height="6.5" rx="3" ry="3" transform="translate(-25.4 92.9) rotate(-30.3)"/>
        <path class="cls-30" d="M165.5,89.6c-.2,0-.4-.2-.5-.5-.1-.2-.2-.5-.1-.7,0-.2.2-.4.4-.5.2-.1.4-.2.7,0,.2,0,.4.2.5.5.1.2.2.5.1.7,0,.2-.2.4-.4.5-.2.1-.4.2-.7,0ZM166.1,88.9c0-.1,0-.2-.1-.4,0-.2-.2-.3-.3-.3-.1,0-.2,0-.3,0,0,0-.1.1-.2.2,0,.1,0,.2.1.4,0,.2.2.3.3.3.1,0,.2,0,.3,0,0,0,.1-.1.2-.2ZM167,86.9l.5-.3-.3,4.1-.5.3.3-4.1ZM168.5,89.8c-.1,0-.3,0-.4-.1-.1,0-.2-.2-.3-.4,0-.2-.1-.3-.2-.5,0-.2,0-.3,0-.4,0-.1.2-.2.3-.3.2-.1.4-.2.7,0,.2,0,.4.2.5.5.1.2.2.5.1.7,0,.2-.2.4-.4.5-.1,0-.3.1-.4.1ZM168.9,89.1c0-.1,0-.2-.1-.4,0-.2-.2-.3-.3-.3-.1,0-.2,0-.3,0,0,0-.1.1-.2.2,0,.1,0,.2.1.4,0,.2.2.3.3.3.1,0,.2,0,.3,0,0,0,.1-.1.2-.3Z"/>
        <path class="cls-22" d="M157.1,108.8l-1.6.9c-1,.6-2.2.2-2.8-.7h0c-.6-1-.2-2.2.7-2.8l1.6-.9c1-.6,2.2-.2,2.8.7h0c.6,1,.2,2.2-.7,2.8Z"/>
        <path class="cls-22" d="M163,105.3l-1.6.9c-1,.6-2.2.2-2.8-.7h0c-.6-1-.2-2.2.7-2.8l1.6-.9c1-.6,2.2-.2,2.8.7h0c.6,1,.2,2.2-.7,2.8Z"/>
        <path class="cls-22" d="M168.8,101.9l-1.6.9c-1,.6-2.2.2-2.8-.7h0c-.6-1-.2-2.2.7-2.8l1.6-.9c1-.6,2.2-.2,2.8.7h0c.6,1,.2,2.2-.7,2.8Z"/>
        <path class="cls-9" d="M174.7,98.5l-1.6.9c-1,.6-2.2.2-2.8-.7h0c-.6-1-.2-2.2.7-2.8l1.6-.9c1-.6,2.2-.2,2.8.7h0c.6,1,.2,2.2-.7,2.8Z"/>
        <path class="cls-22" d="M160.3,114.4l-1.6.9c-1,.6-2.2.2-2.8-.7h0c-.6-1-.2-2.2.7-2.8l1.6-.9c1-.6,2.2-.2,2.8.7h0c.6,1,.2,2.2-.7,2.8Z"/>
        <path class="cls-22" d="M166.2,110.9l-1.6.9c-1,.6-2.2.2-2.8-.7h0c-.6-1-.2-2.2.7-2.8l1.6-.9c1-.6,2.2-.2,2.8.7h0c.6,1,.2,2.2-.7,2.8Z"/>
        <path class="cls-22" d="M172.1,107.5l-1.6.9c-1,.6-2.2.2-2.8-.7h0c-.6-1-.2-2.2.7-2.8l1.6-.9c1-.6,2.2-.2,2.8.7h0c.6,1,.2,2.2-.7,2.8Z"/>
        <path class="cls-22" d="M178,104.1l-1.6.9c-1,.6-2.2.2-2.8-.7h0c-.6-1-.2-2.2.7-2.8l1.6-.9c1-.6,2.2-.2,2.8.7h0c.6,1,.2,2.2-.7,2.8Z"/>
        <path class="cls-22" d="M163.6,120l-1.6.9c-1,.6-2.2.2-2.8-.7h0c-.6-1-.2-2.2.7-2.8l1.6-.9c1-.6,2.2-.2,2.8.7h0c.6,1,.2,2.2-.7,2.8Z"/>
        <path class="cls-22" d="M169.5,116.5l-1.6.9c-1,.6-2.2.2-2.8-.7h0c-.6-1-.2-2.2.7-2.8l1.6-.9c1-.6,2.2-.2,2.8.7h0c.6,1,.2,2.2-.7,2.8Z"/>
        <path class="cls-22" d="M175.4,113.1l-1.6.9c-1,.6-2.2.2-2.8-.7h0c-.6-1-.2-2.2.7-2.8l1.6-.9c1-.6,2.2-.2,2.8.7h0c.6,1,.2,2.2-.7,2.8Z"/>
        <path class="cls-22" d="M181.3,109.7l-1.6.9c-1,.6-2.2.2-2.8-.7h0c-.6-1-.2-2.2.7-2.8l1.6-.9c1-.6,2.2-.2,2.8.7h0c.6,1,.2,2.2-.7,2.8Z"/>
        <path class="cls-22" d="M166.9,125.6l-1.6.9c-1,.6-2.2.2-2.8-.7h0c-.6-1-.2-2.2.7-2.8l1.6-.9c1-.6,2.2-.2,2.8.7h0c.6,1,.2,2.2-.7,2.8Z"/>
        <path class="cls-22" d="M172.8,122.1l-1.6.9c-1,.6-2.2.2-2.8-.7h0c-.6-1-.2-2.2.7-2.8l1.6-.9c1-.6,2.2-.2,2.8.7h0c.6,1,.2,2.2-.7,2.8Z"/>
        <path class="cls-22" d="M178.7,118.7l-1.6.9c-1,.6-2.2.2-2.8-.7h0c-.6-1-.2-2.2.7-2.8l1.6-.9c1-.6,2.2-.2,2.8.7h0c.6,1,.2,2.2-.7,2.8Z"/>
        <path class="cls-22" d="M184.5,115.3l-1.6.9c-1,.6-2.2.2-2.8-.7h0c-.6-1-.2-2.2.7-2.8l1.6-.9c1-.6,2.2-.2,2.8.7h0c.6,1,.2,2.2-.7,2.8Z"/>
        <circle class="cls-24" cx="209.1" cy="51.6" r="21.4"/>
        <rect class="cls-30" x="228.3" y="61.3" width="4.3" height="7.6" transform="translate(50.5 223.1) rotate(-57.1)"/>
        <path class="cls-9" d="M257.6,82.8h0c-1.5,2.3-4.6,3-6.9,1.5l-20.5-13.3c-.8-.5-1.1-1.7-.5-2.5l3.4-5.3c.5-.8,1.7-1.1,2.5-.5l20.5,13.3c2.3,1.5,3,4.6,1.5,6.9Z"/>
        <path class="cls-30" d="M209.1,73.5c-.7,0-1.4,0-2.2-.1-2.8-.3-5.5-1.1-8.1-2.4-2.5-1.3-4.7-3.1-6.6-5.3-1.9-2.2-3.3-4.8-4.2-7.6-.9-2.8-1.2-5.7-.9-8.7.3-2.8,1.1-5.5,2.4-8.1,1.3-2.5,3.1-4.7,5.3-6.6,2.2-1.9,4.8-3.3,7.6-4.2,2.8-.9,5.7-1.2,8.7-.9,2.8.3,5.5,1.1,8.1,2.4,2.5,1.3,4.7,3.1,6.6,5.3,1.9,2.2,3.3,4.8,4.2,7.6.9,2.8,1.2,5.7.9,8.7-.3,2.8-1.1,5.5-2.4,8.1-1.3,2.5-3.1,4.7-5.3,6.6-2.2,1.9-4.8,3.3-7.6,4.2-2.1.7-4.3,1-6.5,1ZM202.8,31.6l.3,1c-2.6.8-4.9,2.1-6.9,3.8-2,1.7-3.6,3.7-4.8,6-1.2,2.3-1.9,4.7-2.2,7.3-.3,2.7,0,5.3.8,7.9.8,2.6,2.1,4.9,3.8,6.9,1.7,2,3.7,3.6,6,4.8,2.3,1.2,4.7,1.9,7.3,2.2,2.7.3,5.3,0,7.9-.8,2.6-.8,4.9-2.1,6.9-3.8,2-1.7,3.6-3.7,4.8-6,1.2-2.3,1.9-4.7,2.2-7.3.3-2.7,0-5.3-.8-7.9-.8-2.6-2.1-4.9-3.8-6.9-1.7-2-3.7-3.6-6-4.8-2.3-1.2-4.7-1.9-7.3-2.2-2.7-.3-5.3,0-7.9.8l-.3-1Z"/>
        <path class="cls-19" d="M256.8,78.8h0c-.2.3-.7.4-1,.2l-21.1-13.7c-.3-.2-.4-.7-.2-1h0c.2-.3.7-.4,1-.2l21.1,13.7c.3.2.4.7.2,1Z"/>
        <path class="cls-11" d="M194.8,54.8c-1.5-7.2,2.6-14.5,9.6-17,.6-.2.9-.8.8-1.3h0c-.1-.5-.8-.8-1.5-.5-7.8,2.8-12.4,11-10.8,19.2.1.7.7,1.1,1.2,1h0c.5-.1.8-.8.7-1.3Z"/>
      </g>
      <g>
        <g>
          <path class="cls-17" d="M50.5,84.4c0,4.7-.4,8.9-1.1,12.7-.7,3.7-1.9,6.9-3.5,9.5-1.6,2.6-3.7,4.6-6.3,5.9-2.6,1.4-5.8,2-9.5,2s-8.6-1.2-11.6-3.6c-3-2.4-5.2-5.8-6.7-10.3-1.4-4.5-2.2-9.9-2.2-16.2s.7-11.7,2-16.2c1.3-4.5,3.5-8,6.5-10.4s7-3.6,12-3.6,8.5,1.2,11.6,3.6c3,2.4,5.3,5.8,6.7,10.3,1.5,4.5,2.2,9.9,2.2,16.3ZM21.8,84.4c0,4.5.2,8.2.7,11.2.5,3,1.3,5.2,2.5,6.7,1.2,1.5,2.8,2.2,4.9,2.2s3.7-.7,4.9-2.2c1.2-1.5,2-3.7,2.5-6.7.5-3,.8-6.7.8-11.2s-.3-8.2-.8-11.2c-.5-3-1.4-5.2-2.5-6.7-1.2-1.5-2.8-2.3-4.9-2.3s-3.7.8-4.9,2.3c-1.2,1.5-2,3.8-2.5,6.7-.5,3-.7,6.7-.7,11.2Z"/>
          <path class="cls-17" d="M92.8,113.6h-40.9v-8.6l14.7-14.9c3-3,5.3-5.6,7.1-7.6,1.8-2,3.1-3.9,3.9-5.6.8-1.7,1.2-3.5,1.2-5.4s-.6-4.1-1.9-5.2c-1.3-1.2-3-1.7-5.2-1.7s-4.5.5-6.6,1.6c-2.1,1-4.4,2.5-6.7,4.4l-6.7-8c1.7-1.4,3.5-2.8,5.3-4.1s4.1-2.3,6.6-3.1c2.5-.8,5.5-1.2,9-1.2s7.1.7,9.9,2.1c2.8,1.4,4.9,3.3,6.4,5.7,1.5,2.4,2.2,5.1,2.2,8.1s-.6,6.2-1.9,8.9c-1.3,2.7-3.1,5.3-5.6,7.9-2.4,2.6-5.4,5.5-8.8,8.7l-7.5,7.1v.6h25.5v10.4Z"/>
        </g>
        <g>
          <path class="cls-17" d="M31.7,38.7c0,1.5-.4,2.7-1.1,3.8-.7,1.1-1.7,1.9-3.1,2.5-1.4.6-3,.9-4.9.9s-1.7,0-2.5-.2c-.8-.1-1.6-.3-2.3-.5s-1.5-.5-2.1-.8v-4.9c1.2.5,2.4,1,3.6,1.4,1.3.4,2.5.6,3.7.6s1.5-.1,2.1-.3c.5-.2.9-.5,1.1-.9.2-.4.4-.8.4-1.3s-.2-1.1-.6-1.6c-.4-.4-1-.8-1.7-1.2s-1.5-.8-2.5-1.2c-.6-.3-1.2-.6-1.9-1-.7-.4-1.3-.9-1.9-1.4-.6-.6-1.1-1.2-1.5-2.1-.4-.8-.6-1.8-.6-2.9s.3-2.7,1-3.8c.7-1,1.6-1.8,2.9-2.4s2.7-.8,4.4-.8,2.5.1,3.7.4c1.2.3,2.4.7,3.7,1.3l-1.7,4.1c-1.1-.5-2.2-.8-3.1-1.1-.9-.3-1.8-.4-2.8-.4s-1.2.1-1.7.3-.8.5-1,.9-.4.8-.4,1.3.2,1.1.5,1.5.9.8,1.6,1.2c.7.4,1.6.8,2.6,1.3,1.3.6,2.3,1.2,3.2,1.9.9.6,1.6,1.4,2.1,2.3.5.9.7,2,.7,3.2Z"/>
          <path class="cls-17" d="M43.6,45.5h-5.2v-20.3h-6.7v-4.4h18.6v4.4h-6.7v20.3Z"/>
          <path class="cls-17" d="M66.3,45.5h-14.2v-24.7h14.2v4.3h-9v5.4h8.4v4.3h-8.4v6.4h9v4.3Z"/>
          <path class="cls-17" d="M77.2,20.9c3.2,0,5.5.7,7,2.1,1.5,1.4,2.2,3.2,2.2,5.6s-.2,2.1-.5,3.1-.9,1.9-1.6,2.6-1.7,1.4-2.9,1.8-2.7.7-4.5.7h-2.2v8.8h-5.2v-24.7h7.9ZM77,25.2h-2.4v7.3h1.7c1,0,1.8-.1,2.5-.4.7-.3,1.3-.7,1.7-1.2.4-.6.6-1.3.6-2.1s-.3-2.1-1-2.7c-.7-.6-1.7-.9-3.1-.9Z"/>
        </g>
      </g>
    </g>
  </g>
</svg>