<?xml version="1.0" encoding="UTF-8"?>
<svg id="_レイヤー_2" data-name="レイヤー 2" xmlns="http://www.w3.org/2000/svg" viewBox="0 0 17.6 37.9">
  <defs>
    <style>
      .cls-1 {
        fill: #c94605;
      }
    </style>
  </defs>
  <g id="contents">
    <path class="cls-1" d="M11.7,30.2c-1-.9-1.8-1.8-2.4-2.7h-.5c-2.6,0-4.5-.6-5.6-2s-1.7-3.3-1.7-6v-9c0-2.6.6-4.6,1.7-6s3-2,5.6-2,4.5.7,5.7,2c1.1,1.3,1.7,3.3,1.7,5.9v9c0,1.8-.3,3.3-.8,4.5-.5,1.2-1.3,2.1-2.4,2.7,1,1.1,1.8,1.8,2.5,2.1l-1.1,3.2c-.7-.3-1.6-.9-2.6-1.8ZM10.3,22.9c.2-.5.4-1.2.4-2.1v-11.7c0-.9-.1-1.6-.4-2.1-.2-.5-.7-.8-1.5-.8s-1.2.2-1.5.7c-.2.5-.3,1.2-.3,2.1v11.7c0,.9.1,1.6.3,2.1.2.5.7.8,1.5.8s1.3-.3,1.5-.8Z"/>
  </g>
</svg>