<?xml version="1.0" encoding="UTF-8"?>
<svg id="_レイヤー_2" data-name="レイヤー 2" xmlns="http://www.w3.org/2000/svg" viewBox="0 0 125.5 85">
  <defs>
    <style>
      .cls-1 {
        fill: #736357;
        opacity: 0;
      }

      .cls-2 {
        fill: #fc0;
      }

      .cls-2, .cls-3 {
        stroke-linecap: round;
      }

      .cls-2, .cls-3, .cls-4 {
        stroke: #1a1a1a;
        stroke-linejoin: round;
      }

      .cls-3, .cls-5, .cls-6 {
        fill: #1a1a1a;
      }

      .cls-5, .cls-7 {
        stroke: #fff;
        stroke-miterlimit: 10;
        stroke-width: 2px;
      }

      .cls-4 {
        fill: none;
        stroke-width: 5px;
      }

      .cls-7 {
        fill: #fff;
      }
    </style>
  </defs>
  <g id="contents">
    <g>
      <rect class="cls-1" x=".5" width="125" height="85"/>
      <g>
        <path class="cls-6" d="M117.1,8.1H47.7c-4.3,0-7.8,3.5-7.8,7.8v40.9c0,4.3,3.5,7.8,7.8,7.8h69.4c4.3,0,7.8-3.5,7.8-7.8V15.9c0-4.3-3.5-7.8-7.8-7.8ZM60.4,21.7c4.3,0,7.8,3.5,7.8,7.8s-3.5,7.8-7.8,7.8-7.8-3.5-7.8-7.8,3.5-7.8,7.8-7.8ZM60.4,51.8c-5.4,0-10.9-1.9-10-7,.3-2.1,2.1-5,3.4-6.3.2-.2.9-.2,1.1,0,1.6,1,3.5,1.6,5.5,1.6s3.9-.6,5.5-1.6c.2-.1,1,0,1.1,0,1.3,1.3,3,4.2,3.4,6.3.9,5.1-4.6,7-10,7ZM100.7,49.3h-22.3v-4.5h22.3v4.5ZM114.1,38.2h-35.6v-4.5h35.6v4.5ZM114.1,27.2h-35.6v-4.5h35.6v4.5Z"/>
        <g>
          <g>
            <g>
              <rect class="cls-4" x="6.2" y="22.9" width="16.1" height="53.3" rx="2.2" ry="2.2" transform="translate(-10.5 4.3) rotate(-12.6)"/>
              <rect class="cls-4" x="22.1" y="41" width="2.9" height="12.9" transform="translate(-9.8 6.3) rotate(-12.6)"/>
            </g>
            <g>
              <rect class="cls-5" x="6.2" y="22.9" width="16.1" height="53.3" rx="2.2" ry="2.2" transform="translate(-10.5 4.3) rotate(-12.6)"/>
              <rect class="cls-7" x="22.1" y="41" width="2.9" height="12.9" transform="translate(-9.8 6.3) rotate(-12.6)"/>
            </g>
          </g>
          <g>
            <path class="cls-2" d="M48.2,64l-9.4-42-12.2,2.7,9.4,42c.4,1.6,3.4,2.3,6.8,1.6s5.8-2.7,5.5-4.3Z"/>
            <path class="cls-3" d="M33.3,26.3c-3.4.8-6.4,0-6.8-1.6s2.1-3.6,5.5-4.3,6.4,0,6.8,1.6-2.1,3.6-5.5,4.3Z"/>
          </g>
        </g>
      </g>
    </g>
  </g>
</svg>