<?xml version="1.0" encoding="UTF-8"?>
<svg id="_レイヤー_2" data-name="レイヤー 2" xmlns="http://www.w3.org/2000/svg" viewBox="0 0 338.4 341">
  <defs>
    <style>
      .cls-1 {
        fill: #c94605;
      }

      .cls-2 {
        fill: #205ace;
      }

      .cls-3 {
        fill: #333;
      }

      .cls-4 {
        fill-rule: evenodd;
      }

      .cls-4, .cls-5 {
        fill: #ffed9f;
      }

      .cls-6 {
        fill: none;
        stroke: #333;
        stroke-linecap: round;
        stroke-linejoin: round;
        stroke-width: 12px;
      }
    </style>
  </defs>
  <g id="contents">
    <g>
      <g>
        <path class="cls-4" d="M153.5,256.3c0,1.5,3.2.5,3.5,1.9-.4,1.2.3,4.1-1.7,3.1,0,1.2,2,.7,2.2,1.7-1.5.8-1.3,1.2-1.1,3.2-1.9-.6-2.6,1-3.6-.6-.3,2,3,1.1,2.7,3.1,0,1.7-1.1,2-2.7,1.6,1.4.5.2,2.9,2.1,3,0,1.6-1.3,1.2-1.1,3.2-2.7,0-3.2,1.6-7.6,1.4.3.7,3.6,0,4.1,2-.6,1.3-2.2,2.4-3.2.8,0,2.1,2.2,2.5,1.8,5-1.4-.5-1.5,1-3.1.2.7,2.3,2.3.3,3.4,1.9-2.2,2.6-2.8.2-6.1-.3-.8.2-1.4.6-1.5,1.8.7.8,1.9.6,3.6.6-1.1,1.5-1.3,2.2-1.7,3.1-.2-3.1-4.4,1.7-5.2-2.8-.7,0-.7,1.1-.9,1.9,1.1.4,4.6,2,4.2,5.4-1.2-.2-2.4-.4-3.6-.6,3.1-.7,0-1,1.7-3.1-1.5,0-2.4,2.1-3.7,0-.9.1.1.9-.3,2-2.8-.9-4.2-1.3-6.8-.4,2.6,1,5.9,3.5,7.3,1.2,1.7,1.2,1.7,3.6,2.3,5.7-2.4.2-.3-3.3-2.7-3.1-1.9.1.4,1.5-.4,2.6-.7-.8-2.1-1-2.8-1.8-.7,2,.9,2.2-.5,3.3-.6-1-2.7-1.4-3.6-.6,1,.9,2.6,1.4,2.7,3.1-1.3.5-3.1,1.2-.3,2-.5,1.4-3.3,0-3.6-.6.4-1.2,1.5-1.4,1.7-3.1-1.6,0-1.3,1.4-2.9,2.9.4,1.4,2.5,1.5,2,3.7-1.2-.5-1.3.7-1.5,1.8-1.1-.3-2-.8-2.2-1.7-1.6.2.9,1.9.1,3.4-1.4-.9-3.3-3.5-1.8-5,1.5.8,2.6,1.4,3.7,0-1.5-1.8-2.8,0-5.5-.2,1.1.9.4,3.1,1.3,4.2-1.4,1.7-6.4-.6-4.8,3.2-2.3-.9-3.2-.2-4.1-1.3-.6.4-1.1,1-1.5,1.8-.1,1.8,4.5-1.3,4.7,2.1-2.6-1.5-7.6-1.7-7.3,3.5-3-.3-2.6-.2-4.9-.1-.4,1.3-.2,2.1.9,2.2-.4.5-.8,1-.9,1.9-.8,1.4-4.3-1-5,.5.1,1,.8-.1,1.8.3-2,.8-2.5,3.6-5.4,3.1,1.7-1.9-.6-3.3-2.1-2.3-.5,1.5,2.8,0,1.5,2.3-1.5,0-4.4,1.9-5,.5-1.9.3,1.3,1.2.2,2.7-1.9-1.5-2.5.2-3.4,2.1-.8-.6-.9-1.6-.8-2.8-.9,3.6-4.5,4.1-7,1.5-1.4-.4-.9,1.8-2.1,1.7,1,.1,1.9,1.4,4.1,2-2,2.2-6.6,2-8.2.7-1.3-.3-.6,2.3-1.1,3.2-3.4-1-8.5,1.9-9.6-2.2,2.6.4,5.3.9,7.9,1.3-1.2-2-3.1-1.6-5.4-1.5.3-2,2.4-1.3,3.9-1.4,0-1.4-2.6-.6-2.8-1.8,2-1.6,6.6.8,7.7-2.1-.6-2.3-1,2.1-2.6.9-.5-2.6,1.8-1,1.7-3.1-4.1-1.8-9.8-1.2-14.3.3.3-1-.4-1.2-.3-2.1-2.3,2.7-3,.7-6.2.3-3.2-.4-9.1,3.5-7.4-.5-3,1-4.5-.6-6.9.9-1-.7,0-1.2.3-2-9.2,3.1-12.6-2.6-19.4-3.2,0-1.1.6-1.2,1.4-1.1-3.3-1.2-9.3-1.8-9.6-6.9-2.1,1.1-4.4-2.5-3.2-3.9-3.3-1.2-3.6-3.8-2.9-5.8-.2-2.4-2.4-.3-3.4-2.5-1.6-1.4,1.9.5,2.3,1,.4-1.7-1-1.9-2.1-2.3,2.4-1.1-.6-2.2,0-4,.3-1.6,2.1.1,2.4.4.4-1.7-2.3-.9-1.4-2.9,3.2,1.2,0-2,3.2-.8-.8-1.8-2-1.5-4.6-2.7,1.3-.8,3.6,0,4-2,.3-1.6-.6-2.2-1.4-2.9.4-1.5,2.7,0,3,.5-.5-1.7-2.1-2.6-1.8-5,.8-.4,1.7-.6,3.1-.2.8-2-.6-2.2-1.5-2.9.3-1.4,2.6.1,3.7,0-2.6-2.7,1.4-4.7.4-7.3,1.1.3,1.4-.6,2.5-.3-.4-1.2-1.5-1.9-.7-4.1,2.3-1.1,3.5-.2,5.6-.4-.2-.6-.5-1.2-.3-2.1-1.3,2.2-2.2-.3-2.2-2.3,1.3,1.2.9,1.6,2.9,1.1-2.5-3.8,3.7-4.2,1.4-5.8,1.7-2.3,5.5-2.1,6.9-.9.2-1.2-2.7-2.8-2.8-1.8.3-4.1,5.7-7.3,10.4-7.6-2.4-2.1-1.1-2.5,2.8-2.2.4-1.7-3.5,0-2.1-2.4,1.4,0,2.3.5,2.9,1.1.2-.9.4-1.8-.3-2.1,4.3.6,6-1.9,8.1-.7.8-2.2-2.3-1.2-1.4-3.6,3.6.8,4.4.5,5.9,2.3.3-1.8-1.2-2.1-2.8-2.4,4.6-4.5,13.1-6.7,20-5.4,0-1.2-2-.7-2.2-1.7,2-.9,3.3-3,6.5-2.3,0,1.1-.6,1.2-1.4,1.1,0,1,1.8.5,1.6,1.6,1.4.1-.6-1.8.5-3.3,3.1-1.9,5.3-.5,9.9.3.3-1.4-2.1-.6-2.9-1.1,6.7-2.8,12.7-1.8,19.8-4.1,1.2,1.7,2.1,3.7,5.7,3.6-.2.9-.4,1.8.3,2.1-.4,1.3-2.3.2-2.7,1.6.3.7,3.2-.2,2.8,2.4.9-1.6.7-3.1,1.9-4.4-.5-2.9-6-1.8-5.4-5.6,4.6,1.8,9.5-.5,16,.6-.6,2.2-1,2-.6,3.9,2.2.6,2.2-2.1,3-3.5,5.9,2.6,5.5,1,12,2.6-.8,2.2.6,2.7,0,4.7,1.1.3,1.4-.6,2.5-.3,0-1-1.8-.5-1.6-1.6,2.5-3.1,5.8.4,8.5,1.4-.3,1.6-2.1-.1-2.4-.4.2,2.5,4.9,2,2.4,5.1,1.5-.4,2-2.4,4.5-1.3,0,.9.9,1.2.9,2.2,0,1.1-.6,1.2-1.4,1.1,2,1.1,3.5,2.6,5.7,3.6-.3.8-1.2.9-1.5,1.8-.2,1.9,2.4,1.6,4.1,2-.4,1.1.3,1.3,1,1.5-1.3,1.1-1.6,4.7,1.3,4.2-.3,1.4-1.7,1.2-3.2.8-.4,1.5,1.6,1,1.5,2.3,1.7.2,1.2-3,3.4-2.1-.1,2.7-2.9,1.6-3.6,3.4ZM120.1,229.5c2.1,1,1-2.7,2.3-3-3.7.1-1,.7-2.3,3ZM114.9,235.3c-2.3-1.9,2.1-.6,2.1-1.7-.9-1.8-.7-4.4-2.3-5.7-1.4,1-.5,5.5-2.6,5.6.7.3.3.8-.2,1.3,1.6-.6,2.7,1.9,3,.5ZM97,231c0-.9-.7-1.4-.2-2.7-3.3-.9-3,3.5-5.5,3.8,1.1-1.9-1.2-4-2.1-2.4,1.9-.4.9,1.6.8,2.8,3.6-.9,6.3,4.3,7.9,1.3-.1-.8-3.3-.3-4.1-2,0-.4.1-.9.2-1.3.7,0,.8,1.1,1.2.2-1.2-2.4,2.2,1.7,1.8.3ZM132.7,241.5c-2-.8-6-2.7-7.9-5.3.6,2.5-2.1,0-2.1,1.7,1.1.3,3.1-.2,2.2,1.7-1.3-1.6-6.1-1.1-6.6-1.7,0-1.5.5-2.4,1.6-2.4,0,.8,0,1.6,1,1.5.6-1,2.1-.7,2.2-2.3-3.4-2.2-6.3,1.1-6.7,3.6-3-2.4-4.6-1.7-8-.6.3-1.6-.6-2.2-1.5-2.9.6,4.5-2.6-.9-5,.5-.3,1.2-.7,2.1-1.6,2.4.3-3.1-2,1.1-3.7,0-.8-1-1.9-3.2-3.5-1.9-1.3,2.2,2,.7,1.5,2.2-.8.4-4.5-.3-4.7-2.1.7,0,1.7.4,1.9-.4-1.8-1-1.4-.3-3.6-.6-.8,2.4,2.1,1.8,2,3.7-3.5-1.3-4.7-2.5-7.8-1.9-1.4,7.6-7.4-.4-9.9,4.4-3.1-2.1-5,2.7-9.6,2.4,1-1.1-.4-3.1,0-4-3.8,1.5-2.2-.4-.6,3.9-1.8,2.7-7.9.5-8.2,1.3.9.2,2.1.3,1.6,1.6-5.2,1-9.2,3.9-13.8,5.7-.4-1.1-1.3-1.7-2.8-1.8-1.2,2.3,2.7.6,1.4,2.9-6.3,2.1-9.7,8.4-15.8,10.8-7.7,11.5-17.2,19-18.9,37.6,3,.9,4.6,5,2.1,7,1.6-.3,3.6-.5,4.1,1.3-.8.2-1.5.5-2,1,2.7-.3,2.4.5,4.1,2,0,1.3-1,1.2-1.5,1.8,12.5,7.9,26.2,10.3,41.2,11.4.6-3.5,1.8-.2,2.5-.3,2.8-.2,6.2-3.7,12-1.4.6-7.6,7.6,0,8.1-4.7.8.3,2.7,2.4,2.9,1.1,2.2-3.6,11.9-2.2,16.8-.6-.6,2,1.3,2.7,1.7,1-1.2-.8-1.8-2-4.1-2,1.2-3.3-1.9-2.2-2.1-3,1.5-2.9,2.4-.1,2.9-2.9,1.7,1.5,3.4,0,4.8,1.4,1-1.3-1.2-2.7.4-2.6,1.2.4.9,2,2.1,2.4,0-2.7-3-3-4.3-4.7,3.5.6,6.4-.8,11.2-.2,1.1-3-2.2.7-2.2-1.7.7-2.1,2.9-.7,3.3-1.5-1.9-1,.9-1.2.9-1.9-1.9-.1-2.9,1-4.5,1.3.2-.9-2.2-2.4-.2-2.7.8.1.4,1.2,1,1.5.4-2.8,2-4.5,5.1-5.2-.2,1.9,1,2.6,2,3.7-.3-2.9-1.8-1.9-1.2-4.9,1.1.2,3.6,1.8,4.3,0-.9-.3-2.3-.1-2.3-1,1.9-1.2,3.1-3.3,5.5-3.8.7.3,2,1,2.9,1.1,5.4.8-2-1.3-2.1-3,1.5-1,3.9.8,2.8-2.2,2.3-.9,2.2.6,4.1,1.3.4-1.8,3.4.3,3.4-2.1-1.6,0-2.2.5-2.9-1.1.1-.9.2-1.7.4-2.6,4.5-.5,5.3-7.8,9.1-7.2-1.3-2.7,1.9-2.4,3.1-4.2,0,.1-1.4-.4-1.1-.8.7-1.4,4-5.6,5.8-5.7,0-2.6-.4-7.7,3.4-6.8-2.1-2.2-1.4-6-1.1-9.5-1-1.7-3.9-1.9-4.4-4,1.2-.1,2.3,2.4,2.5-.3.5-2-2,1.4-1.7-.9.9-.5,1.5-1.5,2.2-2.3-2.5,0-2.5,3.8-5.9,2.4.5-2.5-8.4-2.1-7.7-6.6,0-1.4,4.3-.4,2.7-1.6-3,1.4-1.9-2.8-4.5-3.4.9,2.2,1.4,4.7,1.4,7.6ZM143.7,242.6c.9-3.6-2.8-3.1-5.2-2.8-.1.9-.2,1.7-.4,2.6,1,.2,2,.3,3,.5,1-3-1.7.6-1.6-1.6,1.3-2.7,3.2.4,4.1,1.3ZM77.1,235.8c-.1-1.6-1.1-2.6-2-3.7-.3,1-1.4.2-1.8-.3.2,2.2,3.3,2,3.8,4ZM81,234.4c3-.2,4.8,2.4,6.2.3-1.7-.9-4-1.7-6.2-.3ZM76.7,238.4c1.2-2.7,2.7.3,4.2.7.8-2-1.4-1.6-1.5-2.9-1.2,0-4.3,1-2.8,2.2ZM52.6,237.8c.8.1,1.6.3,2.4.4,0-1,.6-2.4-.2-2.7.5,2.6-2.7-.3-2.2,2.3ZM37.7,246.7c1.7-.5,2.6,2.5,3.6.6-3-2,1.4-.6,2.1-1.7-1.5-1.7-4.8-.7-5.7,1.1ZM25.3,256c1.8,1.4,3.2.1,4-2-1.6-.3-3.5-.9-3.8.7.9.3,2.3.1,2.3,1-.9,0-2.2-.6-2.5.3ZM141.4,281c1.1.3,3.8,2.3,4.8.8-2.1-.5-3.4-2.8-4.8-.8ZM124.2,296.8c-1.6-1.3-7.8-3.3-5.6.4,0-3.3,7.7,1.3,5.6-.4ZM120.3,311.5c-.3-.6-3.2-2-3.6-.6.3.6,3.2,2,3.6.6ZM75.3,332.2c.4-1.7-1-1.9-2.1-2.4-.9,2.1.5,2.3,2.1,2.4Z"/>
        <g>
          <path class="cls-1" d="M42,308c4.5-.9,5.9-1.2,7.2-1.6v-52.6h19.7v-8.1l12.6.5c.9,0,2.1,0,2.1,1.2s-1,1.2-2.1,1.6v4.8h19v30.9l5.2,4c.4.3.6.6.6,1.1s-.3,1-.9,1-.8,0-1.2,0c-3.2,3.7-6.8,7-10.6,10,5.4,3.3,11.6,6.5,18.8,7.2-3.6,3.2-6.1,6.7-7.8,9.7-10.3-3.4-21-9.2-28.3-17.4-.5,2.2-.7,4-.6,8.7-6.2,2.4-18.7,5.8-28.1,8.4-.3.9-.7,1.7-1.5,1.7s-1.3-1.2-1.6-1.9l-2.6-9.2ZM61.1,266.2h27.8v-3.4h-27.8v3.4ZM88.9,274.1h-27.8v3.4h27.8v-3.4ZM61.1,303.1c4.4-1.2,13-3.8,14.1-4.1-2.4-3-5.4-6.9-7.9-12.4h-6.2v16.5ZM79.5,286.7c1.5,2.6,3.1,4.7,5.5,7.3,2.5-2.3,4.2-4,7-7.3h-12.5Z"/>
          <path class="cls-3" d="M142.9,262.8c.7.2,1.2.4,1.2.9,0,.8-1.3,1-1.6,1-.9,4.1-1.3,5.6-1.7,7.2,5.1,0,13.7.2,13.7,14.7s-3.1,18.3-6,22.2c-1,1.4-3.5,4.2-8.9,4.2s-4.5-.2-6.3-.7c0-.7.2-1.2.2-2.2s0-3.4-.9-8c1.4.8,2.9,1.3,5.2,1.3s2.6-.2,3.5-1.1c2-1.8,4-8.5,4-15.9s-4.3-5.8-6.9-5.6c-4.7,16.2-10.4,25.3-15.2,31.6-2.5-1.9-6.4-3.8-8.8-4.7,6.3-7.4,11.3-15.8,14.3-25.1-2.9.7-7.6,2.1-9.5,3.1l-3.3-9.6c2.5-.5,13.1-2.7,15.3-3.1,1.3-5.7,1.6-10.1,1.9-13.1l9.9,3.2ZM159.1,265.9c6.6,7.4,10.8,17.4,10.8,22.1s-1,4.8-4.2,6.3c-.5.2-2.9,1.4-6,1.9-1.3-3.5-2-5.3-3.5-8,1.6-.4,3.8-.8,3.8-2.8s-1.5-5.4-3.1-8.2c-1.6-2.7-3.8-5.2-5.1-6.6l7.3-4.7Z"/>
          <path class="cls-3" d="M175.8,280.2c2.3-.4,8.8-1.9,12-2.7,6.6-1.6,10.4-2.5,15.4-2.5,13.6,0,17.1,9.5,17.1,16,0,9.3-5.9,14.4-13.2,17.1-4.2,1.5-11.1,2.6-16.5,2.8-.7-3.7-1.3-5.3-2.9-9,1.3.2,2.8.3,5,.3,8.7,0,18.6-1.9,18.6-11.1s-4.1-8.1-8.3-8.1c-8.4,0-19,5-24,7.3l-3.2-10.2Z"/>
          <path class="cls-3" d="M255.7,262c.5.1,1.2.4,1.2,1s-.8.8-1.3.8c-.2,1-1.3,5.2-1.5,6,5.5-1,7.6-1.9,9.9-2.9l1,9.4c-1.9.6-5.3,1.6-13.5,2.8-2.4,7.5-6.6,20.6-15.7,35-2.5-1.6-4.7-2.6-9-4.6,5-6.3,11.3-17.8,14.8-29-3.7.3-4.4.3-11,.4l-.8-9.8c1.8.1,3.9.2,6.9.2s4.5,0,7.1-.2c.8-4.5,1.3-8.4,1.6-11.3l10.2,2.3ZM260.2,298c-1.5,1.9-1.6,3.1-1.6,3.5,0,.8.4,1.2,1.1,1.6,1.3.7,4.7,1,8,1,6.2,0,10.7-1.2,13.2-2-.2,1.1-.4,2.5-.4,4.7s.2,3.8.4,5c-4.2.7-8.3,1-12.4,1-7.8,0-18.3-1.1-18.3-9.6s.5-4.3,2.3-7.8l7.7,2.7ZM257.4,281.1c5.5-1.1,12.1-1.1,13.2-1.1,5.2,0,7.6.4,8.8.7-.4,4.4-.4,5.4-.5,9.4-3-.8-5.9-1.1-9-1.1s-8.4.5-12.6,1.1v-9Z"/>
          <path class="cls-3" d="M298.9,300.8l9.8,1.3-1.3,10.2-9.8-1.3,1.3-10.2ZM313.5,264.6l-1.8,14.1-4.4,17.5-5.6-.7.2-18.1,1.8-14.1,9.8,1.3Z"/>
        </g>
      </g>
      <g>
        <path class="cls-3" d="M289.5,194.5c.8.2,1.1.3,1.1.8s-.6.6-1.2.6c-.2.9-1.3,4.8-1.5,5.8,8.2-.3,10.9,4.7,10.9,13.7s0,10.6-3.8,15.4c-1,1.3-2.9,3-7.4,3s-2.9-.3-3.9-.6c0-3.4,0-4-1-7.5,2.9.8,3.9.9,4.8.9,3.8,0,4.3-8.3,4.3-12.9s-.1-5.2-4.3-5.2-.9,0-1.4,0c-2.3,8.8-5.8,17.2-10.5,24.9-1.4-1.2-3-2.2-6.6-3.7,3.8-5.7,7.5-12.7,9.7-19.6-2.9.8-4.3,1.4-6.5,2.5l-2.2-7.8c1.8-.2,3.9-.6,10.6-2.2.8-4.1,1.3-6.5,1.4-10.3l7.5,1.9ZM301.3,200.1c2.9,2.9,5.7,6.1,7.5,8.9,1.7,2.6,2.2,4.1,2.2,5.8,0,3.5-4,4.9-6.8,6-1-2.3-2.8-5-3.5-6.1,1.8-.6,2.3-.7,2.3-1.8,0-2.2-4.5-8-6.5-10.1l4.7-2.6ZM303.9,194.4c2,2.1,2.9,3.2,3.8,4.6-1.1.7-1.3.9-3.4,2.4-.5-.6-2.8-3.6-3.8-4.7l3.4-2.3ZM308.5,191.5c2.5,2.6,3.4,4,3.9,4.7-1,.7-2.7,1.9-3.7,2.6-1.3-2.3-2.1-3.4-3.7-5.1l3.5-2.3Z"/>
        <g>
          <path class="cls-5" d="M95.5,151.4c0-10.7-7.7-19.7-17.8-21.6-5.9-9.7-16.5-16.1-28.6-16.1s-17.4,3.7-23.5,9.6c-.4,0-.9,0-1.3,0-12.2,0-22,9.9-22,22s.9,6.9,2.4,9.9c-1.7,4-2.7,8.3-2.7,12.9,0,17.8,14.4,32.3,32.3,32.3s.9,0,1.3,0c4.8,3.9,10.9,6.2,17.5,6.2,11.1,0,20.6-6.5,25.1-15.8,8.9-4.5,15-13.7,15-24.3s-.1-3-.4-4.4c1.7-3.2,2.7-6.8,2.7-10.6Z"/>
          <polygon class="cls-5" points="81.9 180.2 85.5 196.2 68.9 193.3 81.9 180.2"/>
        </g>
        <g>
          <g>
            <path class="cls-1" d="M48.6,182.4c.8,2.3-.5,5-2.9,5.8-2.4.8-5-.4-5.9-2.8-.8-2.4.5-5,2.9-5.9,2.5-.9,5.1.5,5.9,2.8Z"/>
            <path class="cls-1" d="M40.3,176.4c-2.4-5.2-15.3-31.6-15.8-32.8-.9-2.5,0-4.9,3.5-6.1,3.6-1.2,5.7.2,6.6,2.6s6.7,29.9,8.1,35.5l-2.4.8Z"/>
          </g>
          <g>
            <path class="cls-1" d="M66.8,177.3c.6,2.4-.9,4.9-3.4,5.5-2.5.6-5-.9-5.6-3.3-.6-2.5.9-5,3.4-5.6,2.6-.6,5,1,5.6,3.3Z"/>
            <path class="cls-1" d="M59.1,170.6c-2-5.4-12.3-32.8-12.6-34.1-.6-2.5.4-4.9,4.1-5.8,3.7-.9,5.7.7,6.3,3.2.3,1.3,3.9,30.4,4.7,36.1l-2.4.6Z"/>
          </g>
        </g>
        <g>
          <g>
            <path class="cls-6" d="M95.8,229v-20.7h51.9v-34h-50.8v-20.4h70.7v78.7h-19.8v-3.7h-51.9Z"/>
            <path class="cls-6" d="M185,229v-20.7h51.9v-34h-50.8v-20.4h70.7v78.7h-19.8v-3.7h-51.9Z"/>
          </g>
          <g>
            <path class="cls-5" d="M95.8,229v-20.7h51.9v-34h-50.8v-20.4h70.7v78.7h-19.8v-3.7h-51.9Z"/>
            <path class="cls-5" d="M185,229v-20.7h51.9v-34h-50.8v-20.4h70.7v78.7h-19.8v-3.7h-51.9Z"/>
          </g>
        </g>
      </g>
      <g>
        <path class="cls-2" d="M144.1,26.4c2.1,2.7,5.7,9.2,6.7,11.8-.9.4-5.4,2.8-7,3.9-.3-.6-1.4-3.3-1.6-3.8-1.1,5.6-2.7,7.4-8.5,7.4h-10.3c-3.9,0-5.8-1.7-5.8-5.2v-8.7h-.4c-.9,3.4-1.9,7.4-4.4,11.7-4.8-2.4-6-2.8-7.7-3.2,1.1-1.6,4-7.3,4.6-11.9l7.9,2v-2.8l8.3.5c-.6-.7-.6-.8-.9-1.2l4-2.2h-19.1v-7.2h14v-3.8h-17.8v-7.3h17.8V1.8l8.6.3c.5,0,1.1.1,1.1.7s-.7.9-1.4,1.1v2.6h17.8v7.3h-17.8v3.8h14v7.2h-13.6c1.4,1.8,3.8,5.2,4.5,6.8-2.3,1.2-5.9,3.1-7.1,3.8-1.2-2.8-2.2-4.3-3.5-6.3-.2.2-.5.4-.9.5v7.1c0,.7,0,1.9,1.9,1.9h4.4c1.3,0,2.6,0,2.9-4.5,1.3,1,4.8,2.3,6.5,2.6-1.3-2.5-3.2-4.9-4.3-6.2l7-4Z"/>
        <path class="cls-2" d="M186.3,23.4h10.8v6.8h-16.7c0,0,.1.2.1.3,0,.6-.7.7-1.5.9v6.8h7.7v-6.7l8.3.4c.2,0,.9,0,.9.7s-.3.7-1.3,1.1v12.3h-7.9v-1.1h-23.2v1.1h-8v-14.7l8.7.5c.5,0,.8.3.8.7,0,.7-1,.9-1.5,1.1v4.6h7.5v-7.9h-18v-6.8h5.6V3.2c1.5.1,3.3.4,4.1.4s1.7.1,2.9.1c12.3,0,20.3-2.1,21.9-2.6l5.4,5.3c.2.2.3.4.3.6,0,.4-.3.6-.8.6s-.8,0-1.3-.4c-7,2-16.9,2.7-24.3,3v1.7h28v6.7h-8.4v4.8ZM178.3,18.5h-11.5v4.8h11.5v-4.8Z"/>
        <path class="cls-2" d="M218.7,40.2c7.4-1.2,9.6-6.4,9.6-10s0-7-7.1-7.9c-.5,10.1-5.3,21.3-9.8,21.3s-7.9-4.2-7.9-11.2,6.6-15.7,16.6-15.7,14.4,5.1,14.4,13.4-.4,6.9-5.1,11.5c-2.5,2.5-5.3,3.4-7.1,4-.3-.6-1.8-3.4-3.4-5.4ZM209,32.4c0,2.4,1.2,4.3,1.9,4.3,1.2,0,3.8-6.8,4.2-13.5-2.6,1-6.1,5.2-6.1,9.3Z"/>
        <path class="cls-2" d="M48.2,64.6c1.4,0,2.4,0,3.3-.4l6.1,4.3c-.8,1.2-.9,1.3-1.5,3.1-5,13.4-9.1,23.9-27.5,33.5-1.7-2.4-5-5.7-6.7-7.1,16.9-6.5,21.7-17.9,24.2-25.1h-28.4v-8.3h30.5Z"/>
        <path class="cls-2" d="M82.1,80.8c.6,0,1.1,0,1.1.6s-.3.5-.9,1c0,1.3-.1,2.2-.3,3.6,2.4-2.3,3.9-4,5.4-6.7h-24.5v-7.2h27.8c.9,0,1.6-.1,2.4-.6l4.9,4.1c-.1.3-2.1,3.4-3.1,5-3,4.8-5.2,7.8-8.2,10.9-1.8-1.8-4.4-3.6-4.9-4.1-.4,2.9-1.7,11.6-11.2,17.5-2.3-2.3-3.8-3.4-6.2-4.8,6.7-3.6,10.3-8.2,10.3-17.5s0-1.5,0-2.2l7.5.4Z"/>
        <path class="cls-2" d="M134.3,69.4c1.6,0,2.4-.4,3-.7l4.7,3.6c-.5.9-.6,1.1-1.5,2.9-.5,1.1-2.7,6.5-3.2,7.6-7.2,16.4-18.7,22.2-22,23.9-2.4-3.2-5.9-5.7-6.9-6.5,14-5.6,19.4-16.7,21.9-22.9h-12c-2.9,4.2-6.3,8-10.1,11.4-3.4-3.5-5.5-4.9-6.8-5.8,8.5-7.1,13.9-15.7,15.7-21.3l8.3,3.4c.3.1.7.3.7.8,0,.7-1,.8-1.3.9-.7,1.3-1,1.9-1.3,2.6h10.9Z"/>
        <path class="cls-2" d="M164.9,79.1c1.8.9,3.5,1.7,7.3,4.1,2.1-3.3,2.9-5.5,3.3-6.8h-11.1c-2.9,3.9-6.2,7.5-10.1,10.5-2.6-2.4-4.3-3.8-6.8-5.6,7.3-5.1,13.2-13.2,15.7-19.7l8.5,2.5c.4.1.9.3.9.7,0,.7-1,.8-1.5.9-.6,1.2-1,1.9-1.7,3.1h9.8c2,0,2.9-.3,3.6-.6l4,3.3c-.4.7-.6,1-1,2.2-2.3,5.7-3.9,9.5-6.8,14.3,3,2.4,4,3.5,4.7,4.2-2,2.2-4.4,5.6-5.4,7.2-1-1.1-2-2.3-4.5-4.6-6.2,6.6-13.3,9.8-16.5,11.2-1.6-2.6-3.9-5.2-6.1-7.2,6-1.6,12-5.3,15.9-9.1-3.6-2.4-6-3.7-7.3-4.4l5.2-6.1Z"/>
        <path class="cls-2" d="M202.5,63.5c.6,0,1.1,0,1.1.6s-.3.7-1.1,1.1v23h-8.9v-25l8.9.3ZM225,63c.8,0,1.1.2,1.1.6s-.5.8-1.1,1.1v15.2c0,13.1-6.6,21.5-18.4,25.8-1.1-2.2-3.5-4.9-6.2-6.9,14.1-4,15.4-12.4,15.4-20.2v-16l9.1.4Z"/>
        <path class="cls-2" d="M239.6,63.5c4.3,2.2,9.3,5.1,12.2,7.8-2.2,2.5-4.3,5.7-5.2,7.3-3.5-3.2-7.9-6-12.1-7.9l5.1-7.2ZM235.4,96c14.2-2.9,28.5-13.8,35.5-26,2.5,4.1,3.6,5.7,5.3,7.7-6.9,11.1-19.7,21.3-34.4,26.6,0,.5-.1,1.2-.9,1.2s-.7-.4-.9-.8l-4.6-8.7Z"/>
        <path class="cls-2" d="M313.7,69.2c.2,0,1.3,0,3.2-.7l4.6,3.6c-.7,1.1-.9,1.4-4.2,9.6-4.8,11.8-14.2,21-22.3,24.7-1.3-1.4-5.9-5.6-7.2-6.5,5.6-2.5,16.3-7.3,21.9-22.7h-11.9c-4,5.6-6.8,8.4-9.9,11.2-1.7-1.7-4.8-4.2-7-5.6,3.6-2.6,11.8-10.6,16-21.3l8,3.3c.7.3.9.5.9.9,0,.7-.9.8-1.3.9-.8,1.4-1.1,1.9-1.5,2.7h10.8ZM312.4,60.7c1.2,1.1,3.5,3.4,4.7,4.8-1,.6-3,2-3.9,2.9-.5-.6-2.3-2.8-4.8-4.9l4-2.8ZM319.9,60.1c1.8,1.7,3.6,3.7,4.8,5.4-1.1.7-2.9,2-4.1,2.8-.4-.6-2.2-3.4-4.5-5.5l3.8-2.7Z"/>
      </g>
    </g>
  </g>
</svg>