<?xml version="1.0" encoding="UTF-8"?>
<svg id="_レイヤー_2" data-name="レイヤー 2" xmlns="http://www.w3.org/2000/svg" viewBox="0 0 260 140">
  <defs>
    <style>
      .cls-1 {
        fill: #c94605;
        opacity: 0;
      }

      .cls-2 {
        fill: #f0f2f2;
      }

      .cls-3 {
        fill: #307cce;
      }

      .cls-4 {
        fill: #c9c9c9;
      }

      .cls-5 {
        fill: #fff;
      }

      .cls-6 {
        fill: #d19c3d;
      }

      .cls-7 {
        fill: #143c66;
      }

      .cls-8 {
        fill: #205ace;
      }

      .cls-9 {
        fill: #fece62;
      }

      .cls-10 {
        fill: #539de0;
      }

      .cls-11 {
        fill: #dfdfdf;
      }

      .cls-12 {
        fill: #f76d7b;
      }

      .cls-13 {
        fill: #f4f4f4;
      }

      .cls-14 {
        fill: #32495e;
      }

      .cls-15 {
        fill: #b5b5b5;
      }
    </style>
  </defs>
  <g id="contents">
    <g>
      <rect class="cls-1" width="260" height="140"/>
      <g>
        <path class="cls-6" d="M215.8,26.1h-82.4c-2.3,0-4.2,1.9-4.2,4.2v100.4c0,2.3,1.9,4.2,4.2,4.2h75.7c2.3,0,4.2-1.9,4.2-4.2v-66.5l5.3-4.9c.9-.8,1.3-1.9,1.3-3.1v-25.9c0-2.3-1.9-4.2-4.2-4.2Z"/>
        <g>
          <rect class="cls-2" x="138.7" y="5.5" width="77.2" height="96" transform="translate(-2.8 10.4) rotate(-3.3)"/>
          <rect class="cls-4" x="148.1" y="22.7" width="54.8" height="1.5" transform="translate(-1.1 10.2) rotate(-3.3)"/>
          <rect class="cls-4" x="148.3" y="25.8" width="54.8" height="1.5" transform="translate(-1.2 10.2) rotate(-3.3)"/>
          <rect class="cls-4" x="148.5" y="29.7" width="36" height="1.5" transform="translate(-1.5 9.7) rotate(-3.3)"/>
          <rect class="cls-4" x="149" y="38.8" width="54.8" height="1.5" transform="translate(-2 10.3) rotate(-3.3)"/>
          <rect class="cls-4" x="149.2" y="42.2" width="54.8" height="1.5" transform="translate(-2.2 10.3) rotate(-3.3)"/>
          <rect class="cls-4" x="149.4" y="45.6" width="54.8" height="1.5" transform="translate(-2.4 10.3) rotate(-3.3)"/>
          <rect class="cls-4" x="149.7" y="50.3" width="8.9" height="1.5" transform="translate(-2.7 9) rotate(-3.3)"/>
          <rect class="cls-4" x="150.2" y="59.4" width="54.8" height="1.5" transform="translate(-3.2 10.4) rotate(-3.3)"/>
          <rect class="cls-4" x="150.4" y="62.8" width="54.8" height="1.5" transform="translate(-3.4 10.4) rotate(-3.3)"/>
          <rect class="cls-4" x="150.6" y="67.1" width="25.3" height="1.5" transform="translate(-3.7 9.6) rotate(-3.3)"/>
          <rect class="cls-4" x="151.2" y="76.1" width="54.8" height="1.5" transform="translate(-4.1 10.5) rotate(-3.3)"/>
          <rect class="cls-4" x="151.4" y="79.5" width="54.8" height="1.5" transform="translate(-4.3 10.5) rotate(-3.3)"/>
          <rect class="cls-4" x="151.6" y="82.8" width="54.8" height="1.5" transform="translate(-4.5 10.5) rotate(-3.3)"/>
          <rect class="cls-4" x="161.2" y="12.9" width="27.8" height="5.6" transform="translate(-.6 10.2) rotate(-3.3)"/>
          <rect class="cls-11" x="192.8" y="30.5" width="10.6" height="3" transform="translate(-1.5 11.5) rotate(-3.3)"/>
          <path class="cls-12" d="M195,31.6c0,.6.3,1.1.9.7.5-.3.8-.8,1.2-1.3.6-.8,1.4-1.9,1.5-3,0-.3,0-.6-.4-.4-.2.2-.4.4-.5.6-.3.5-.4,1-.6,1.6-.3,1-.5,3.2,1.1,2.6,0,0,.1,0,.2,0,.1,0,.3-.2.4-.2.2,0,.3-.2.5-.2.1,0,.5-.2.5,0,0,.2-.2.3-.2.4,0,0,0,0,0,0,0,0,0,0,0,0,0,0,0,0,0,0,.2,0,.5-.2.6,0,0,0,0,.2.1.2.2,0,.4,0,.5,0,0,0,.2,0,.3-.1,0,0,0,0,0,0,0,0,0,0,0,0-.2,0-.3.2-.5.2-.1,0-.3,0-.4-.1,0,0,0,0,0-.1-.1-.1-.3,0-.5,0,0,0-.2,0-.2,0,0,0,0,0,0-.1,0-.1.1-.2.2-.3,0,0,0,0,0,0,0,0,0,0,0,0,0,0,0,0,0,0-.1,0-.2,0-.3.1-.3.1-.6.3-.9.5,0,0-.2,0-.3.1-.1,0-.2,0-.4,0-.2,0-.5,0-.7-.1,0,0,0,0-.1,0-.8-.8-.2-2.9.2-3.8.8-1.9,1.8-1.5,1,.4-.3.7-.7,1.4-1.2,2-.4.4-.7.9-1.2,1.2-.2.2-.6.3-.8,0-.2-.2-.2-.5-.2-.8,0,0,0,0,0,0,0,0,0,0,0,0h0Z"/>
          <rect class="cls-11" x="194" y="50.2" width="10.6" height="3" transform="translate(-2.7 11.6) rotate(-3.3)"/>
          <path class="cls-12" d="M196.1,51.3c0,.6.3,1.1.9.7.5-.3.8-.8,1.2-1.3.6-.8,1.4-1.9,1.5-3,0-.3,0-.6-.4-.4-.2.2-.4.4-.5.6-.3.5-.4,1-.6,1.6-.3,1-.5,3.2,1.1,2.6,0,0,.1,0,.2,0,.1,0,.3-.2.4-.2.2,0,.3-.2.5-.2.1,0,.5-.2.5,0,0,.2-.2.3-.2.4,0,0,0,0,0,0,0,0,0,0,0,0,0,0,0,0,0,0,.2,0,.5-.2.6,0,0,0,0,.2.1.2.2,0,.4,0,.5,0,0,0,.2,0,.3-.1,0,0,0,0,0,0,0,0,0,0,0,0-.2,0-.3.2-.5.2-.1,0-.3,0-.4-.1,0,0,0,0,0-.1-.1-.1-.3,0-.5,0,0,0-.2,0-.2,0,0,0,0,0,0-.1,0-.1.1-.2.2-.3,0,0,0,0,0,0,0,0,0,0,0,0,0,0,0,0,0,0-.1,0-.2,0-.3.1-.3.1-.6.3-.9.5,0,0-.2,0-.3.1-.1,0-.2,0-.4,0-.2,0-.5,0-.7-.1,0,0,0,0-.1,0-.8-.8-.2-2.9.2-3.8.8-1.9,1.8-1.5,1,.4-.3.7-.7,1.4-1.2,2-.4.4-.7.9-1.2,1.2-.2.2-.6.3-.8,0-.2-.2-.2-.5-.2-.8,0,0,0,0,0,0,0,0,0,0,0,0h0Z"/>
          <rect class="cls-11" x="195" y="67.7" width="10.6" height="3" transform="translate(-3.7 11.7) rotate(-3.3)"/>
          <path class="cls-12" d="M197.2,68.8c0,.6.3,1.1.9.7.5-.3.8-.8,1.2-1.3.6-.8,1.4-1.9,1.5-3,0-.3,0-.6-.4-.4-.2.2-.4.4-.5.6-.3.5-.4,1-.6,1.6-.3,1-.5,3.2,1.1,2.6,0,0,.1,0,.2,0,.1,0,.3-.2.4-.2.2,0,.3-.2.5-.2.1,0,.5-.2.5,0,0,.2-.2.3-.2.4,0,0,0,0,0,0,0,0,0,0,0,0,0,0,0,0,0,0,.2,0,.5-.2.6,0,0,0,0,.2.1.2.2,0,.4,0,.5,0,0,0,.2,0,.3-.1,0,0,0,0,0,0,0,0,0,0,0,0-.2,0-.3.2-.5.2-.1,0-.3,0-.4-.1,0,0,0,0,0-.1-.1-.1-.3,0-.5,0,0,0-.2,0-.2,0,0,0,0,0,0-.1,0-.1.1-.2.2-.3,0,0,0,0,0,0,0,0,0,0,0,0,0,0,0,0,0,0-.1,0-.2,0-.3.1-.3.1-.6.3-.9.5,0,0-.2,0-.3.1-.1,0-.2,0-.4,0-.2,0-.5,0-.7-.1,0,0,0,0-.1,0-.8-.8-.2-2.9.2-3.8.8-1.9,1.8-1.5,1,.4-.3.7-.7,1.4-1.2,2-.4.4-.7.9-1.2,1.2-.2.2-.6.3-.8,0-.2-.2-.2-.5-.2-.8,0,0,0,0,0,0,0,0,0,0,0,0h0Z"/>
          <rect class="cls-11" x="196.1" y="87.4" width="10.6" height="3" transform="translate(-4.8 11.8) rotate(-3.3)"/>
          <path class="cls-12" d="M198.3,88.4c.1,1.2.7,1,1.4.3.8-.9,2.2-2.7,2.2-3.8,0-.3,0-.6-.4-.4-.2.2-.4.4-.5.6-.3.5-.4,1-.6,1.6-.3,1-.5,3.2,1.1,2.6,0,0,.1,0,.2,0,.1,0,.3-.2.4-.2.2,0,.3-.2.5-.2.1,0,.5-.2.5,0,0,.2-.2.3-.2.4,0,0,0,0,0,0,0,0,0,0,0,0,0,0,0,0,0,0,.2,0,.5-.2.6,0,0,0,0,.2.1.2.2,0,.4,0,.5,0,0,0,.2,0,.3-.1,0,0,0,0,0,0,0,0,0,0,0,0-.2,0-.3.2-.5.2-.1,0-.3,0-.4-.1,0,0,0,0,0-.1-.1-.1-.3,0-.5,0,0,0-.2,0-.2,0,0,0,0,0,0-.1,0-.1.1-.2.2-.3,0,0,0,0,0,0,0,0,0,0,0,0,0,0,0,0,0,0-.1,0-.2,0-.3.1-.3.1-.6.3-.9.5,0,0-.2,0-.3.1-.1,0-.2,0-.4,0-.2,0-.5,0-.7-.1,0,0,0,0-.1,0-.8-.8-.2-2.9.2-3.8.8-1.9,1.8-1.5,1,.4-.3.7-.7,1.4-1.2,2-.4.4-.7.9-1.2,1.2-.2.2-.6.3-.8,0-.2-.2-.2-.5-.2-.8,0,0,0,0,0,0,0,0,0,0,0,0h0Z"/>
        </g>
        <g>
          <rect class="cls-5" x="150.1" y="27.1" width="96" height="77.2" transform="translate(91.2 244.9) rotate(-77.5)"/>
          <rect class="cls-4" x="177.2" y="35.5" width="54.8" height="1.5" transform="translate(12.7 -43.4) rotate(12.5)"/>
          <rect class="cls-4" x="176.5" y="38.5" width="54.8" height="1.5" transform="translate(13.3 -43.1) rotate(12.5)"/>
          <rect class="cls-4" x="176" y="39.8" width="36" height="1.5" transform="translate(13.3 -41) rotate(12.5)"/>
          <rect class="cls-4" x="173.7" y="51.3" width="54.8" height="1.5" transform="translate(16 -42.2) rotate(12.5)"/>
          <rect class="cls-4" x="172.9" y="54.6" width="54.8" height="1.5" transform="translate(16.7 -42) rotate(12.5)"/>
          <rect class="cls-4" x="172.2" y="57.9" width="54.8" height="1.5" transform="translate(17.4 -41.8) rotate(12.5)"/>
          <rect class="cls-4" x="172" y="56.2" width="8.9" height="1.5" transform="translate(16.5 -36.8) rotate(12.5)"/>
          <rect class="cls-4" x="169.2" y="71.4" width="54.8" height="1.5" transform="translate(20.2 -40.8) rotate(12.5)"/>
          <rect class="cls-4" x="168.5" y="74.7" width="54.8" height="1.5" transform="translate(20.9 -40.5) rotate(12.5)"/>
          <rect class="cls-4" x="168.1" y="74.9" width="25.3" height="1.5" transform="translate(20.6 -37.3) rotate(12.5)"/>
          <rect class="cls-4" x="165.6" y="87.7" width="54.8" height="1.5" transform="translate(23.7 -39.6) rotate(12.5)"/>
          <rect class="cls-4" x="164.9" y="91" width="54.8" height="1.5" transform="translate(24.4 -39.4) rotate(12.5)"/>
          <rect class="cls-4" x="164.1" y="94.3" width="54.8" height="1.5" transform="translate(25.1 -39.1) rotate(12.5)"/>
          <rect class="cls-4" x="192.4" y="25.9" width="27.8" height="5.6" transform="translate(11.1 -43.9) rotate(12.5)"/>
          <rect class="cls-11" x="218.7" y="49.2" width="10.6" height="3" transform="translate(16.2 -47.2) rotate(12.5)"/>
          <path class="cls-12" d="M221.1,49.4c-.1.6,0,1.2.7.9.5-.2,1-.6,1.5-.9.8-.6,1.9-1.5,2.3-2.5,0-.2.1-.6-.3-.5-.3,0-.5.3-.7.5-.4.4-.7.9-1,1.4-.5.9-1.3,2.9.4,2.8,0,0,.2,0,.2,0,.1,0,.4,0,.5,0,.2,0,.4,0,.6,0,.1,0,.6,0,.5.2,0,.1-.2.2-.3.3,0,0,0,0,0,0,0,0,0,0,0,0,0,0,0,0,0,0,.2,0,.5,0,.5.2,0,0,0,.2,0,.3.1.1.4,0,.5,0,0,0,.2,0,.3,0,0,0,0,0,0,0,0,0,0,0,0,0-.2,0-.4,0-.6,0-.2,0-.3,0-.4-.2,0,0,0,0,0-.1,0-.2-.3,0-.5-.1,0,0-.2,0-.2-.1,0,0,0,0,0-.1,0-.1.2-.2.3-.3,0,0,0,0,0,0,0,0,0,0,0,0,0,0,0,0,0,0-.1,0-.2,0-.3,0-.3,0-.6.1-1,.2,0,0-.2,0-.3,0-.1,0-.3,0-.4,0-.2,0-.5-.1-.6-.3,0,0,0,0,0-.1-.6-1,.6-2.8,1.2-3.6,1.3-1.6,2.1-1,.9.7-.5.6-1,1.1-1.7,1.6-.5.3-.9.7-1.5.9-.3,0-.7.1-.8-.2-.1-.3,0-.6,0-.9,0,0,0,0,0,0,0,0,0,0,0,0h0Z"/>
          <rect class="cls-11" x="214.5" y="68.4" width="10.6" height="3" transform="translate(20.3 -45.8) rotate(12.5)"/>
          <path class="cls-12" d="M216.8,68.7c-.1.6,0,1.2.7.9.5-.2,1-.6,1.5-.9.8-.6,1.9-1.5,2.3-2.5,0-.2.1-.6-.3-.5-.3,0-.5.3-.7.5-.4.4-.7.9-1,1.4-.5.9-1.3,2.9.4,2.8,0,0,.2,0,.2,0,.1,0,.4,0,.5,0,.2,0,.4,0,.6,0,.1,0,.6,0,.5.2,0,.1-.2.2-.3.3,0,0,0,0,0,0,0,0,0,0,0,0,0,0,0,0,0,0,.2,0,.5,0,.5.2,0,0,0,.2,0,.3.1.1.4,0,.5,0,0,0,.2,0,.3,0,0,0,0,0,0,0,0,0,0,0,0,0-.2,0-.4,0-.6,0-.2,0-.3,0-.4-.2,0,0,0,0,0-.1,0-.2-.3,0-.5-.1,0,0-.2,0-.2-.1,0,0,0,0,0-.1,0-.1.2-.2.3-.3,0,0,0,0,0,0,0,0,0,0,0,0,0,0,0,0,0,0-.1,0-.2,0-.3,0-.3,0-.6.1-1,.2,0,0-.2,0-.3,0-.1,0-.3,0-.4,0-.2,0-.5-.1-.6-.3,0,0,0,0,0-.1-.6-1,.6-2.8,1.2-3.6,1.3-1.6,2.1-1,.9.7-.5.6-1,1.1-1.7,1.6-.5.3-.9.7-1.5.9-.3,0-.7.1-.8-.2-.1-.3,0-.6,0-.9,0,0,0,0,0,0,0,0,0,0,0,0h0Z"/>
          <rect class="cls-11" x="210.7" y="85.5" width="10.6" height="3" transform="translate(23.9 -44.6) rotate(12.5)"/>
          <path class="cls-12" d="M213.1,85.8c-.1.6,0,1.2.7.9.5-.2,1-.6,1.5-.9.8-.6,1.9-1.5,2.3-2.5,0-.2.1-.6-.3-.5-.3,0-.5.3-.7.5-.4.4-.7.9-1,1.4-.5.9-1.3,2.9.4,2.8,0,0,.2,0,.2,0,.1,0,.4,0,.5,0,.2,0,.4,0,.6,0,.1,0,.6,0,.5.2,0,.1-.2.2-.3.3,0,0,0,0,0,0,0,0,0,0,0,0,0,0,0,0,0,0,.2,0,.5,0,.5.2,0,0,0,.2,0,.3.1.1.4,0,.5,0,0,0,.2,0,.3,0,0,0,0,0,0,0,0,0,0,0,0,0-.2,0-.4,0-.6,0-.2,0-.3,0-.4-.2,0,0,0,0,0-.1,0-.2-.3,0-.5-.1,0,0-.2,0-.2-.1,0,0,0,0,0-.1,0-.1.2-.2.3-.3,0,0,0,0,0,0,0,0,0,0,0,0,0,0,0,0,0,0-.1,0-.2,0-.3,0-.3,0-.6.1-1,.2,0,0-.2,0-.3,0-.1,0-.3,0-.4,0-.2,0-.5-.1-.6-.3,0,0,0,0,0-.1-.6-1,.6-2.8,1.2-3.6,1.3-1.6,2.1-1,.9.7-.5.6-1,1.1-1.7,1.6-.5.3-.9.7-1.5.9-.3,0-.7.1-.8-.2-.1-.3,0-.6,0-.9,0,0,0,0,0,0h0Z"/>
          <rect class="cls-11" x="206.4" y="104.8" width="10.6" height="3" transform="translate(28 -43.2) rotate(12.5)"/>
          <path class="cls-12" d="M208.8,105c-.1.6,0,1.2.7.9.5-.2,1-.6,1.5-.9.8-.6,1.9-1.5,2.3-2.5,0-.2.1-.6-.3-.5-.3,0-.5.3-.7.5-.4.4-.7.9-1,1.4-.5.9-1.3,2.9.4,2.8,0,0,.2,0,.2,0,.1,0,.4,0,.5,0,.2,0,.4,0,.6,0,.1,0,.6,0,.5.2,0,.1-.2.2-.3.3,0,0,0,0,0,0,0,0,0,0,0,0,0,0,0,0,0,0,.2,0,.5,0,.5.2,0,0,0,.2,0,.3.1.1.4,0,.5,0,0,0,.2,0,.3,0,0,0,0,0,0,0,0,0,0,0,0,0-.2,0-.4,0-.6,0-.2,0-.3,0-.4-.2,0,0,0,0,0-.1,0-.2-.3,0-.5-.1,0,0-.2,0-.2-.1,0,0,0,0,0-.1,0-.1.2-.2.3-.3,0,0,0,0,0,0,0,0,0,0,0,0,0,0,0,0,0,0-.1,0-.2,0-.3,0-.3,0-.6.1-1,.2,0,0-.2,0-.3,0-.1,0-.3,0-.4,0-.2,0-.5-.1-.6-.3,0,0,0,0,0-.1-.6-1,.6-2.8,1.2-3.6,1.3-1.6,2.1-1,.9.7-.5.6-1,1.1-1.7,1.6-.5.3-.9.7-1.5.9-.3,0-.7.1-.8-.2-.1-.3,0-.6,0-.9,0,0,0,0,0,0,0,0,0,0,0,0h0Z"/>
        </g>
        <path class="cls-9" d="M213.6,23.9h-82.4c-2.3,0-4.2,1.9-4.2,4.2v100.4c0,2.3,1.9,4.2,4.2,4.2h75.7c2.3,0,4.2-1.9,4.2-4.2V62l5.3-4.9c.9-.8,1.3-1.9,1.3-3.1v-25.9c0-2.3-1.9-4.2-4.2-4.2Z"/>
        <rect class="cls-5" x="119.7" y="32.5" width="77.2" height="96"/>
        <rect class="cls-4" x="130.9" y="52.5" width="54.8" height="1.5"/>
        <rect class="cls-4" x="130.9" y="55.6" width="54.8" height="1.5"/>
        <rect class="cls-4" x="130.9" y="59" width="36" height="1.5"/>
        <rect class="cls-4" x="130.9" y="64.5" width="54.8" height="1.5"/>
        <rect class="cls-4" x="130.9" y="67.9" width="54.8" height="1.5"/>
        <rect class="cls-4" x="130.9" y="71.3" width="54.8" height="1.5"/>
        <rect class="cls-4" x="130.9" y="74.7" width="8.9" height="1.5"/>
        <rect class="cls-4" x="130.9" y="80.1" width="54.8" height="1.5"/>
        <rect class="cls-4" x="130.9" y="83.4" width="54.8" height="1.5"/>
        <rect class="cls-4" x="130.9" y="86.8" width="25.3" height="1.5"/>
        <rect class="cls-4" x="130.9" y="93.3" width="54.8" height="1.5"/>
        <rect class="cls-4" x="130.9" y="96.6" width="54.8" height="1.5"/>
        <rect class="cls-4" x="130.9" y="100" width="54.8" height="1.5"/>
        <rect class="cls-11" x="137.9" y="38.5" width="40.9" height="8.2"/>
        <g>
          <rect class="cls-11" x="169.1" y="112.3" width="17" height="4.8"/>
          <g>
            <g>
              <g>
                <path class="cls-15" d="M183.5,114.2l-1,1.5,1.7-.2c-.1-.2-.3-.4-.4-.6s-.3-.4-.4-.7Z"/>
                <path class="cls-13" d="M186.4,109.8l-1.5,2.2-1.4,2.1c.1.2.2.4.4.7s.3.4.4.6l2.6-.4,2.6-.4-3.1-4.9Z"/>
              </g>
              <rect class="cls-7" x="200.5" y="83.3" width="6.6" height="37.5" transform="translate(179.5 -124.6) rotate(57.3)"/>
              <ellipse class="cls-3" cx="219.6" cy="91.9" rx="1.3" ry="3.3" transform="translate(-14.8 133.3) rotate(-32.7)"/>
              <ellipse class="cls-10" cx="220" cy="91.6" rx="1" ry="2.6" transform="translate(-14.6 133.5) rotate(-32.7)"/>
              <rect class="cls-7" x="216.8" y="96.8" width="2.3" height=".8" transform="translate(181.9 -138.7) rotate(57.3)"/>
              <rect class="cls-7" x="212.7" y="93.1" width=".9" height="17.2" transform="translate(183.5 -132.6) rotate(57.3)"/>
              <ellipse class="cls-7" cx="188.1" cy="112.2" rx="1.3" ry="3.3" transform="translate(-30.8 119.5) rotate(-32.7)"/>
            </g>
            <path class="cls-12" d="M172.6,113.7c0,.7.2,1.8,1.1,1.4,1.1-.5,2.7-2.5,3.5-3.5.7-1,1.4-2.1,1.6-3.2.1-.9-.3-1.1-1-.5-.4.4-.7,1-1,1.5-.6,1.4-1.1,2.8-1.1,4.3,0,.6.2,1.2.6,1.5.6.4,1.4.1,2.1-.2.4-.2.8-.4,1.3-.5.2,0,.6-.3.7,0,0,0,0,.1,0,.2,0,.2-.3.4-.4.6,0,0,0,0,0,0,.1,0,.3,0,.5,0,0,0,0,0,.1,0,.7,0,.3.6.8.6.4,0,.7-.2,1.1-.3,0,0,0,0,0,0-.3.1-.7.3-1.1.3-.3,0-.4-.2-.5-.5,0-.1-.2-.1-.4-.1-.2,0-.4.1-.6,0-.2,0-.2-.2,0-.4,0-.2.3-.3.3-.5,0,0,0,0,0,0,0,0,0,0-.1,0-.4.1-.8.3-1.3.5-.5.3-1.1.5-1.8.6-1.2,0-1.6-.9-1.6-1.9,0-1.5.5-3,1.2-4.4.3-.6.9-1.7,1.6-1.9.3,0,.5.2.5.4,0,.5,0,.9-.2,1.4-.5,1.4-1.4,2.7-2.4,3.9-.6.7-1.9,2.2-2.9,2.1-.7-.1-.7-1-.7-1.6,0,0,0,0,0,0,0,0,0,0,0,0h0Z"/>
          </g>
        </g>
        <g>
          <path class="cls-14" d="M134,109.5c-2.5,0-4.5-2-4.5-4.5s2-4.5,4.5-4.5,4.5,2,4.5,4.5-2,4.5-4.5,4.5ZM134,100.7c-2.3,0-4.3,1.9-4.3,4.3s1.9,4.3,4.3,4.3,4.3-1.9,4.3-4.3-1.9-4.3-4.3-4.3Z"/>
          <path class="cls-14" d="M139.7,103.1c-.2-.6-.2-1.4-.5-1.9-.4-.5-1.1-.7-1.7-1.1-.5-.4-.9-1-1.6-1.2-.6-.2-1.3,0-2,0s-1.4-.3-2,0c-.6.2-1,.9-1.6,1.2-.5.4-1.3.6-1.7,1.1-.4.5-.3,1.3-.5,1.9-.2.6-.7,1.2-.7,1.9s.5,1.3.7,1.9c.2.6.2,1.4.5,1.9.4.5,1.1.7,1.7,1.1.5.4.9,1,1.6,1.2.6.2,1.3,0,2,0s1.4.3,2,0c.6-.2,1-.9,1.6-1.2.5-.4,1.3-.6,1.7-1.1.4-.5.3-1.3.5-1.9.2-.6.7-1.2.7-1.9s-.5-1.3-.7-1.9ZM134,110.5c-3.1,0-5.6-2.5-5.6-5.6s2.5-5.6,5.6-5.6,5.6,2.5,5.6,5.6-2.5,5.6-5.6,5.6Z"/>
          <rect class="cls-14" x="131.6" y="103.2" width="4.6" height="1"/>
          <rect class="cls-14" x="130.8" y="105" width="6.4" height="1"/>
        </g>
      </g>
      <g>
        <g>
          <path class="cls-8" d="M50.5,85.1c0,4.7-.4,8.9-1.1,12.7-.7,3.7-1.9,6.9-3.5,9.5-1.6,2.6-3.7,4.6-6.3,5.9-2.6,1.4-5.8,2-9.5,2s-8.6-1.2-11.6-3.6c-3-2.4-5.2-5.8-6.7-10.3-1.4-4.5-2.2-9.9-2.2-16.2s.7-11.7,2-16.2c1.3-4.5,3.5-8,6.5-10.4s7-3.6,12-3.6,8.5,1.2,11.6,3.6c3,2.4,5.3,5.8,6.7,10.3,1.5,4.5,2.2,9.9,2.2,16.3ZM21.8,85.1c0,4.5.2,8.2.7,11.2.5,3,1.3,5.2,2.5,6.7,1.2,1.5,2.8,2.2,4.9,2.2s3.7-.7,4.9-2.2c1.2-1.5,2-3.7,2.5-6.7.5-3,.8-6.7.8-11.2s-.3-8.2-.8-11.2c-.5-3-1.4-5.2-2.5-6.7-1.2-1.5-2.8-2.3-4.9-2.3s-3.7.8-4.9,2.3c-1.2,1.5-2,3.8-2.5,6.7-.5,3-.7,6.7-.7,11.2Z"/>
          <path class="cls-8" d="M82.4,114.3h-12.4v-33.9c0-.9,0-2.1,0-3.5,0-1.4,0-2.8.1-4.2,0-1.5.1-2.8.2-3.9-.3.3-.9.9-1.8,1.8-.9.8-1.7,1.6-2.5,2.3l-6.7,5.4-6-7.5,18.9-15h10.2v58.6Z"/>
        </g>
        <g>
          <path class="cls-8" d="M31.7,39.4c0,1.5-.4,2.7-1.1,3.8-.7,1.1-1.7,1.9-3.1,2.5-1.4.6-3,.9-4.9.9s-1.7,0-2.5-.2c-.8-.1-1.6-.3-2.3-.5s-1.5-.5-2.1-.8v-4.9c1.2.5,2.4,1,3.6,1.4,1.3.4,2.5.6,3.7.6s1.5-.1,2.1-.3c.5-.2.9-.5,1.1-.9.2-.4.4-.8.4-1.3s-.2-1.1-.6-1.6c-.4-.4-1-.8-1.7-1.2s-1.5-.8-2.5-1.2c-.6-.3-1.2-.6-1.9-1-.7-.4-1.3-.9-1.9-1.4-.6-.6-1.1-1.2-1.5-2.1-.4-.8-.6-1.8-.6-2.9s.3-2.7,1-3.8c.7-1,1.6-1.8,2.9-2.4s2.7-.8,4.4-.8,2.5.1,3.7.4c1.2.3,2.4.7,3.7,1.3l-1.7,4.1c-1.1-.5-2.2-.8-3.1-1.1-.9-.3-1.8-.4-2.8-.4s-1.2.1-1.7.3-.8.5-1,.9-.4.8-.4,1.3.2,1.1.5,1.5.9.8,1.6,1.2c.7.4,1.6.8,2.6,1.3,1.3.6,2.3,1.2,3.2,1.9.9.6,1.6,1.4,2.1,2.3.5.9.7,2,.7,3.2Z"/>
          <path class="cls-8" d="M43.6,46.3h-5.2v-20.3h-6.7v-4.4h18.6v4.4h-6.7v20.3Z"/>
          <path class="cls-8" d="M66.3,46.3h-14.2v-24.7h14.2v4.3h-9v5.4h8.4v4.3h-8.4v6.4h9v4.3Z"/>
          <path class="cls-8" d="M77.2,21.6c3.2,0,5.5.7,7,2.1,1.5,1.4,2.2,3.2,2.2,5.6s-.2,2.1-.5,3.1-.9,1.9-1.6,2.6-1.7,1.4-2.9,1.8-2.7.7-4.5.7h-2.2v8.8h-5.2v-24.7h7.9ZM77,25.9h-2.4v7.3h1.7c1,0,1.8-.1,2.5-.4.7-.3,1.3-.7,1.7-1.2.4-.6.6-1.3.6-2.1s-.3-2.1-1-2.7c-.7-.6-1.7-.9-3.1-.9Z"/>
        </g>
      </g>
    </g>
  </g>
</svg>