<?xml version="1.0" encoding="UTF-8"?>
<svg xmlns="http://www.w3.org/2000/svg" xmlns:xlink="http://www.w3.org/1999/xlink" viewBox="0 0 260 140">
  <defs>
    <style>
      .cls-1 {
        fill: #c94605;
        opacity: 0;
      }

      .cls-2 {
        fill: #333;
      }

      .cls-3 {
        fill: #545454;
      }

      .cls-4 {
        fill: #fff200;
      }

      .cls-5 {
        fill: #d46f41;
      }

      .cls-6 {
        fill: #fff;
      }

      .cls-7 {
        fill: #8aabbe;
      }

      .cls-8 {
        fill: #fd8f5e;
      }

      .cls-9 {
        fill: #ccc;
      }

      .cls-10 {
        fill: #ec8558;
      }

      .cls-11 {
        fill: #fec011;
      }

      .cls-12 {
        fill: #f6871f;
      }

      .cls-13 {
        fill: none;
      }

      .cls-14 {
        fill: #205ace;
      }

      .cls-15 {
        isolation: isolate;
      }

      .cls-16 {
        fill: #8fc4d7;
      }

      .cls-17 {
        fill: #cdd5d8;
      }

      .cls-17, .cls-18 {
        mix-blend-mode: multiply;
      }

      .cls-19 {
        fill: #70a5c5;
      }

      .cls-20 {
        fill: #fec00f;
      }

      .cls-21 {
        fill: #a6dae9;
      }

      .cls-22 {
        fill: #dce4e7;
      }

      .cls-23 {
        fill: #474f59;
      }

      .cls-24 {
        fill: #f99b1c;
      }

      .cls-25 {
        clip-path: url(#clippath);
      }
    </style>
    <clipPath id="clippath">
      <path class="cls-13" d="M236.7,113.9c0-2.3-4.7-4.2-10.4-4.2s-10.3,1.9-10.4,4.2h0v1.7c-.9.6-1.4,1.3-1.5,2.1h0v2.5h0c0,.7.4,1.3,1.1,1.8v2.1h0c.1,2.3,4.7,4.1,10.4,4.1s10.3-1.8,10.4-4.1h0v-2.5h0c0-.7-.4-1.3-1.1-1.9v-1.3c.9-.6,1.4-1.3,1.5-2.1h0v-2.5h0Z"/>
    </clipPath>
  </defs>
  <g class="cls-15">
    <g id="_レイヤー_2" data-name="レイヤー 2">
      <g id="contents">
        <g>
          <rect class="cls-1" width="260" height="140"/>
          <g>
            <g>
              <path class="cls-14" d="M50.5,84.4c0,4.7-.4,8.9-1.1,12.7-.7,3.7-1.9,6.9-3.5,9.5-1.6,2.6-3.7,4.6-6.3,5.9-2.6,1.4-5.8,2-9.5,2s-8.6-1.2-11.6-3.6c-3-2.4-5.2-5.8-6.7-10.3-1.4-4.5-2.2-9.9-2.2-16.2s.7-11.7,2-16.2c1.3-4.5,3.5-8,6.5-10.4s7-3.6,12-3.6,8.5,1.2,11.6,3.6c3,2.4,5.3,5.8,6.7,10.3,1.5,4.5,2.2,9.9,2.2,16.3ZM21.8,84.4c0,4.5.2,8.2.7,11.2.5,3,1.3,5.2,2.5,6.7,1.2,1.5,2.8,2.2,4.9,2.2s3.7-.7,4.9-2.2c1.2-1.5,2-3.7,2.5-6.7.5-3,.8-6.7.8-11.2s-.3-8.2-.8-11.2c-.5-3-1.4-5.2-2.5-6.7-1.2-1.5-2.8-2.3-4.9-2.3s-3.7.8-4.9,2.3c-1.2,1.5-2,3.8-2.5,6.7-.5,3-.7,6.7-.7,11.2Z"/>
              <path class="cls-14" d="M90.5,68.2c0,2.7-.6,5-1.7,7-1.1,2-2.6,3.6-4.5,4.8-1.9,1.3-4.1,2.2-6.4,2.8v.2c4.7.6,8.3,2,10.7,4.3,2.4,2.3,3.7,5.4,3.7,9.2s-.8,6.5-2.5,9.2c-1.7,2.7-4.2,4.8-7.7,6.4-3.5,1.5-7.9,2.3-13.4,2.3s-6.2-.3-9-.8c-2.8-.5-5.4-1.3-7.9-2.4v-10.5c2.5,1.3,5.1,2.2,7.9,2.9,2.8.7,5.3,1,7.7,1,4.4,0,7.5-.8,9.3-2.3s2.7-3.7,2.7-6.5-.4-3-1.2-4.1-2.3-2-4.3-2.6-4.9-.9-8.6-.9h-4.4v-9.5h4.5c3.6,0,6.3-.3,8.2-1,1.9-.7,3.2-1.6,3.8-2.8.7-1.2,1-2.5,1-4.1s-.6-3.7-1.9-4.9c-1.3-1.2-3.4-1.8-6.4-1.8s-3.6.2-5.1.7c-1.5.5-2.9,1-4.1,1.7-1.2.7-2.3,1.3-3.2,1.9l-5.7-8.5c2.3-1.7,5-3,8.1-4.1,3.1-1.1,6.8-1.6,11-1.6s10.8,1.2,14.3,3.6c3.5,2.4,5.3,5.9,5.3,10.3Z"/>
            </g>
            <g>
              <path class="cls-14" d="M31.7,38.7c0,1.5-.4,2.7-1.1,3.8-.7,1.1-1.7,1.9-3.1,2.5-1.4.6-3,.9-4.9.9s-1.7,0-2.5-.2c-.8-.1-1.6-.3-2.3-.5s-1.5-.5-2.1-.8v-4.9c1.2.5,2.4,1,3.6,1.4,1.3.4,2.5.6,3.7.6s1.5-.1,2.1-.3c.5-.2.9-.5,1.1-.9.2-.4.4-.8.4-1.3s-.2-1.1-.6-1.6c-.4-.4-1-.8-1.7-1.2s-1.5-.8-2.5-1.2c-.6-.3-1.2-.6-1.9-1-.7-.4-1.3-.9-1.9-1.4-.6-.6-1.1-1.2-1.5-2.1-.4-.8-.6-1.8-.6-2.9s.3-2.7,1-3.8c.7-1,1.6-1.8,2.9-2.4s2.7-.8,4.4-.8,2.5.1,3.7.4c1.2.3,2.4.7,3.7,1.3l-1.7,4.1c-1.1-.5-2.2-.8-3.1-1.1-.9-.3-1.8-.4-2.8-.4s-1.2.1-1.7.3-.8.5-1,.9-.4.8-.4,1.3.2,1.1.5,1.5.9.8,1.6,1.2c.7.4,1.6.8,2.6,1.3,1.3.6,2.3,1.2,3.2,1.9.9.6,1.6,1.4,2.1,2.3.5.9.7,2,.7,3.2Z"/>
              <path class="cls-14" d="M43.6,45.5h-5.2v-20.3h-6.7v-4.4h18.6v4.4h-6.7v20.3Z"/>
              <path class="cls-14" d="M66.3,45.5h-14.2v-24.7h14.2v4.3h-9v5.4h8.4v4.3h-8.4v6.4h9v4.3Z"/>
              <path class="cls-14" d="M77.2,20.9c3.2,0,5.5.7,7,2.1,1.5,1.4,2.2,3.2,2.2,5.6s-.2,2.1-.5,3.1-.9,1.9-1.6,2.6-1.7,1.4-2.9,1.8-2.7.7-4.5.7h-2.2v8.8h-5.2v-24.7h7.9ZM77,25.2h-2.4v7.3h1.7c1,0,1.8-.1,2.5-.4.7-.3,1.3-.7,1.7-1.2.4-.6.6-1.3.6-2.1s-.3-2.1-1-2.7c-.7-.6-1.7-.9-3.1-.9Z"/>
            </g>
          </g>
          <g>
            <g>
              <path class="cls-20" d="M256.1,78.8c0,6.3-5.1,11.4-11.4,11.4s-11.4-5.1-11.4-11.4,5.1-11.4,11.4-11.4,11.4,5.1,11.4,11.4Z"/>
              <path class="cls-24" d="M255.7,78.8c0,6.1-4.9,11-11,11s-11-4.9-11-11,4.9-11,11-11,11,4.9,11,11Z"/>
              <circle class="cls-20" cx="244.7" cy="78.8" r="8.7" transform="translate(-1 3.3) rotate(-.8)"/>
              <path class="cls-24" d="M244.1,83.9c-.6,0-1.1-.2-1.6-.4-.5-.2-.9-.5-1.2-.9l.4-.6c0,0,0,0,.1-.1,0,0,.1,0,.2,0s.2,0,.3.1c.1,0,.3.2.4.3.2.1.4.2.6.3.2.1.5.2.8.2l.3-3.8c-.3-.1-.7-.2-1-.3-.3-.1-.6-.3-.9-.5-.3-.2-.5-.5-.6-.8-.2-.3-.2-.7-.2-1.2s0-.7.2-1c.1-.3.3-.6.6-.9.3-.3.6-.5,1-.6.4-.2.8-.3,1.3-.3v-1c0,0,.1-.2.2-.2,0,0,.1-.1.3-.1h.5v1.4c.4,0,.8.2,1.2.4.4.2.7.4,1,.7l-.3.5c0,.1-.2.2-.3.2s-.1,0-.2,0c0,0-.2-.1-.4-.2-.1,0-.3-.2-.5-.2-.2,0-.4-.1-.6-.2l-.2,3.5c.3.1.7.2,1,.3.3.1.6.3.9.5.3.2.5.4.6.7.2.3.2.7.2,1.1s0,.8-.2,1.2c-.1.4-.4.7-.6,1-.3.3-.6.5-1,.7-.4.2-.9.3-1.4.3v1.3c0,0-.1.2-.2.2,0,0-.1.1-.2.1h-.5v-1.6ZM242.9,76.1c0,.2,0,.4.1.6,0,.2.2.3.3.4.1.1.3.2.5.3.2,0,.4.2.6.3l.2-3.2c-.3,0-.6,0-.8.2-.2,0-.4.2-.6.4-.1.1-.3.3-.3.5,0,.2-.1.4-.1.6ZM246.9,80.9c0-.2,0-.4-.1-.6,0-.2-.2-.3-.4-.4-.2-.1-.3-.2-.5-.3-.2,0-.4-.2-.7-.3l-.2,3.6c.3,0,.6,0,.8-.2.2-.1.4-.2.6-.4.2-.2.3-.4.4-.6,0-.2.1-.5.1-.7Z"/>
            </g>
            <g>
              <g>
                <path class="cls-2" d="M239.6,101.4v-63.6c0-1.4-1.2-2.6-2.6-2.6h-100c-1.4,0-2.6,1.2-2.6,2.6v63.6h105.2Z"/>
                <path class="cls-3" d="M239.6,101.5h-105.2c0,0-.2,0-.2-.2v-63.6c0-1.5,1.2-2.8,2.8-2.8h100c1.5,0,2.8,1.3,2.8,2.8v63.6c0,0,0,.2-.2.2ZM134.6,101.2h104.9v-63.5c0-1.4-1.1-2.5-2.5-2.5h-100c-1.4,0-2.5,1.1-2.5,2.5v63.5Z"/>
              </g>
              <path class="cls-23" d="M204.5,120.1h-35c-.9,0-1.6.8-1.6,1.9v.7h38.2v-.7c0-1-.7-1.9-1.6-1.9Z"/>
              <path class="cls-23" d="M134.4,101.4v7.5c0,1.4,1.2,2.6,2.6,2.6h100c1.4,0,2.6-1.2,2.6-2.6v-7.5h-105.2Z"/>
              <rect class="cls-19" x="138.7" y="39.2" width="96.6" height="57.8"/>
              <path class="cls-2" d="M202.5,120.1c-.7-2.9-1.4-5.7-2.1-8.6h-26.8c-.7,2.9-1.4,5.7-2.1,8.6h31Z"/>
              <path class="cls-2" d="M171.5,120.1h14.2l8.6-8.6h-20.7c-.7,2.9-1.4,5.7-2.1,8.6Z"/>
            </g>
            <g>
              <rect class="cls-21" x="146.4" y="55.3" width="81.2" height="4.3"/>
              <g>
                <g>
                  <polygon class="cls-16" points="152.2 62.8 151 81.3 156.6 81.3 162.1 81.3 160.9 62.8 152.2 62.8"/>
                  <g>
                    <rect class="cls-21" x="151.1" y="59.6" width="10.8" height="4.3"/>
                    <rect class="cls-16" x="151.1" y="59.6" width="10.8" height="1.4"/>
                  </g>
                  <g>
                    <rect class="cls-21" x="149.6" y="81.3" width="14" height="5.4"/>
                    <rect class="cls-16" x="149.6" y="85.3" width="14" height="1.4"/>
                  </g>
                </g>
                <g>
                  <polygon class="cls-16" points="172.6 62.8 171.3 81.3 176.9 81.3 182.4 81.3 181.2 62.8 172.6 62.8"/>
                  <g>
                    <rect class="cls-21" x="171.4" y="59.6" width="10.8" height="4.3"/>
                    <rect class="cls-16" x="171.4" y="59.6" width="10.8" height="1.4"/>
                  </g>
                  <g>
                    <rect class="cls-21" x="169.9" y="81.3" width="14" height="5.4"/>
                    <rect class="cls-16" x="169.9" y="85.3" width="14" height="1.4"/>
                  </g>
                </g>
                <g>
                  <polygon class="cls-16" points="192.9 62.8 191.6 81.3 197.2 81.3 202.7 81.3 201.5 62.8 192.9 62.8"/>
                  <g>
                    <rect class="cls-21" x="191.8" y="59.6" width="10.8" height="4.3"/>
                    <rect class="cls-16" x="191.8" y="59.6" width="10.8" height="1.4"/>
                  </g>
                  <g>
                    <rect class="cls-21" x="190.2" y="81.3" width="14" height="5.4"/>
                    <rect class="cls-16" x="190.2" y="85.3" width="14" height="1.4"/>
                  </g>
                </g>
                <g>
                  <polygon class="cls-16" points="213.2 62.8 212 81.3 217.5 81.3 223 81.3 221.8 62.8 213.2 62.8"/>
                  <g>
                    <rect class="cls-21" x="212.1" y="59.6" width="10.8" height="4.3"/>
                    <rect class="cls-16" x="212.1" y="59.6" width="10.8" height="1.4"/>
                  </g>
                  <g>
                    <rect class="cls-21" x="210.5" y="81.3" width="14" height="5.4"/>
                    <rect class="cls-16" x="210.5" y="85.3" width="14" height="1.4"/>
                  </g>
                </g>
              </g>
              <rect class="cls-21" x="146.4" y="86.3" width="81.2" height="10.5"/>
              <g>
                <rect class="cls-16" x="166" y="95" width="42" height="1.8"/>
                <rect class="cls-16" x="166" y="91.4" width="42" height="1.8"/>
                <rect class="cls-16" x="166" y="87.9" width="42" height="1.8"/>
              </g>
              <polygon class="cls-16" points="187 27.4 208.3 41.4 229.7 55.3 187 55.3 144.4 55.3 165.7 41.4 187 27.4"/>
              <polygon class="cls-21" points="155.7 51.9 187 31.4 218.3 51.9 155.7 51.9"/>
              <polygon class="cls-16" points="208.3 48 187 34 165.7 48 159.6 51.9 161.9 51.9 165.7 49.5 187 35.5 208.3 49.5 212.1 51.9 214.4 51.9 208.3 48"/>
            </g>
            <g>
              <path class="cls-5" d="M144.9,82c0,1.6-1.3,2.9-2.9,2.9h-29.3c-1.6,0-2.9-1.3-2.9-2.9v-18.5c0-1.6,1.3-2.9,2.9-2.9h29.3c1.6,0,2.9,1.3,2.9,2.9v18.5Z"/>
              <path class="cls-10" d="M144.9,81.2c0,1.6-1.3,2.9-2.9,2.9h-29.3c-1.6,0-2.9-1.3-2.9-2.9v-18.5c0-1.6,1.3-2.9,2.9-2.9h29.3c1.6,0,2.9,1.3,2.9,2.9v18.5Z"/>
              <g>
                <path class="cls-8" d="M116.7,59.8l-6.9,11.8v9.7c0,1.3.9,2.4,2.1,2.8l14.3-24.3h-9.5Z"/>
                <path class="cls-8" d="M144.9,75.9v-13.2c0-1.6-1.3-2.9-2.9-2.9h-1.9s-14.4,24.4-14.4,24.4h14.4s4.9-8.3,4.9-8.3Z"/>
                <path class="cls-8" d="M126.9,59.8l-14.4,24.4s0,0,.1,0h2.2s14.4-24.4,14.4-24.4h-2.3Z"/>
              </g>
              <rect class="cls-23" x="134.6" y="70" width="6.3" height="3.9" transform="translate(-.1 .2) rotate(0)"/>
              <g>
                <path class="cls-6" d="M139.6,67.7c1.7,0,3.1-1.4,3.1-3.1s-1.4-3.1-3.1-3.1h-3.9c-1.7,0-3.1,1.4-3.1,3.1s1.4,3.1,3.1,3.1h3.9Z"/>
                <g>
                  <path class="cls-7" d="M136,67.3h0c-.7,0-1.4-.3-1.9-.8-.5-.5-.8-1.2-.8-1.9,0-1.5,1.2-2.7,2.7-2.7,1.5,0,2.7,1.2,2.7,2.7,0,1.5-1.2,2.7-2.7,2.7ZM136,62.4c-1.2,0-2.2,1-2.2,2.3,0,.6.2,1.2.7,1.6.4.4,1,.7,1.6.7v.2s0-.2,0-.2c1.2,0,2.2-1,2.2-2.3,0-1.3-1-2.3-2.2-2.3Z"/>
                  <path class="cls-7" d="M139.5,67.3h0c-1.5,0-2.7-1.2-2.7-2.7,0-1.5,1.2-2.7,2.7-2.7,1.5,0,2.7,1.2,2.7,2.7,0,1.5-1.2,2.7-2.7,2.7ZM139.5,62.4c-1.2,0-2.2,1-2.2,2.3,0,1.3,1,2.3,2.2,2.3v.2s0-.2,0-.2c1.2,0,2.2-1,2.2-2.3,0-1.3-1-2.3-2.2-2.3Z"/>
                  <path class="cls-7" d="M136,67.3h0c-.2,0-.4,0-.6-.3-.4-.4-.7-1.3-.7-2.4,0-1.5.5-2.6,1.2-2.6.7,0,1.2,1.1,1.2,2.6,0,1.5-.5,2.6-1.2,2.6ZM136,62.4c-.3,0-.8.8-.8,2.2,0,1,.3,1.8.6,2.1,0,0,.2.1.2.1h0c.3,0,.8-.8.8-2.2,0-1.4-.5-2.2-.8-2.2Z"/>
                  <polygon class="cls-7" points="138.4 64.9 133.5 64.8 133.5 64.4 138.4 64.4 138.4 64.9"/>
                  <g>
                    <polygon class="cls-7" points="138 63.7 133.9 63.7 133.9 63.2 138 63.2 138 63.7"/>
                    <polygon class="cls-7" points="138 66 133.9 66 133.9 65.6 138 65.6 138 66"/>
                  </g>
                </g>
              </g>
              <g>
                <rect class="cls-9" x="113.3" y="79" width="9.2" height=".8" transform="translate(-.2 .3) rotate(-.1)"/>
                <rect class="cls-9" x="113.3" y="80.5" width="23.6" height=".8" transform="translate(-.2 .3) rotate(-.1)"/>
              </g>
              <g>
                <rect class="cls-23" x="113.3" y="75.8" width="6.2" height=".8" transform="translate(-.2 .3) rotate(-.1)"/>
                <rect class="cls-23" x="120.4" y="75.8" width="6.2" height=".8" transform="translate(0 .1) rotate(0)"/>
                <polygon class="cls-23" points="127.5 76.6 127.5 75.8 133.8 75.8 133.8 76.6 127.5 76.6"/>
                <rect class="cls-23" x="134.6" y="75.8" width="6.2" height=".8"/>
              </g>
            </g>
            <g>
              <path class="cls-20" d="M222.9,8.5c4.4-5,11.5-5.9,15.7-2.1,4.3,3.8,4.1,10.9-.3,15.9-4.4,5-11.5,5.9-15.7,2.1-4.3-3.8-4.1-10.9.3-15.9Z"/>
              <path class="cls-24" d="M223.1,8.7c4.3-4.8,10.7-6.1,14.4-2.8,3.7,3.3,3.2,9.8-1.1,14.6-4.3,4.8-10.7,6.1-14.4,2.8-3.7-3.3-3.2-9.8,1.1-14.6Z"/>
              <path class="cls-20" d="M224.2,9.6c3.4-3.8,8.5-4.8,11.4-2.2,2.9,2.6,2.5,7.7-.9,11.5-3.4,3.8-8.5,4.8-11.4,2.2-2.9-2.6-2.5-7.7.9-11.5Z"/>
              <path class="cls-24" d="M233.4,10.5c.3.4.5.7.6,1.2.1.4.2.9.1,1.4l-.6.3c0,0-.1,0-.2,0,0,0-.1,0-.2,0,0,0,0-.1,0-.3,0-.1,0-.3,0-.5,0-.2,0-.4-.1-.6,0-.2-.2-.4-.3-.6l-2.8,2.9c.1.3.3.5.4.8.1.3.2.6.2.9,0,.3,0,.6-.2.9-.1.3-.3.7-.7,1-.2.3-.5.5-.8.7-.3.2-.6.3-1,.4-.3,0-.7,0-1,0-.3,0-.7-.2-1-.5l-.8.8c0,0-.1.1-.2.1,0,0-.2,0-.2,0l-.3-.3,1.1-1.1c-.3-.3-.4-.6-.5-1,0-.3-.1-.7,0-1.1l.5-.2c.2,0,.3,0,.4,0,0,0,0,.1,0,.2,0,0,0,.2,0,.4,0,.1,0,.3.1.4,0,.2.1.3.3.5l2.6-2.6c-.1-.3-.3-.5-.4-.8-.1-.3-.2-.6-.2-.9,0-.3,0-.6.1-.9.1-.3.3-.7.6-1,.3-.3.6-.6,1-.8.4-.2.7-.4,1.1-.5.4,0,.7,0,1.1,0,.4,0,.7.2,1,.5l1-1c0,0,.1-.1.2-.1,0,0,.2,0,.2,0l.3.3-1.2,1.2ZM228.7,17.3c.2-.2.3-.4.3-.5,0-.2.1-.4.1-.5,0-.2,0-.4,0-.5,0-.2-.1-.4-.2-.5l-2.4,2.4c.2.1.4.2.6.3.2,0,.4,0,.6,0,.2,0,.4-.1.5-.2.2-.1.3-.2.5-.4ZM229.6,11.4c-.2.2-.3.4-.4.6,0,.2-.1.4,0,.5,0,.2,0,.4,0,.5,0,.2.1.4.2.6l2.7-2.7c-.2-.1-.4-.2-.6-.3-.2,0-.4,0-.7,0-.2,0-.4.1-.6.3-.2.1-.4.3-.6.5Z"/>
            </g>
            <g>
              <path class="cls-17" d="M232.8,121.7c5.1-1.8,11.9-1.7,15.2.3,3.2,2,1.7,5-3.4,6.8-5.1,1.8-11.9,1.7-15.2-.3-3.2-2-1.7-5,3.4-6.8Z"/>
              <g>
                <g>
                  <rect class="cls-4" x="215.6" y="121.6" width="1.6" height="2.5"/>
                  <rect class="cls-4" x="234.9" y="121.6" width="1.6" height="2.5"/>
                  <path class="cls-11" d="M236.4,123.9c0,2.3-4.7,4.2-10.4,4.2s-10.4-1.9-10.4-4.2,4.7-4.2,10.4-4.2,10.4,1.9,10.4,4.2Z"/>
                  <path class="cls-12" d="M236.4,121.6c0,2.3-4.7,4.2-10.4,4.2s-10.4-1.9-10.4-4.2,4.7-4.2,10.4-4.2,10.4,1.9,10.4,4.2Z"/>
                  <path class="cls-4" d="M234.2,121c0,1.5-3.7,2.7-8.2,2.7s-8.2-1.2-8.2-2.7,3.7-2.7,8.2-2.7,8.2,1.2,8.2,2.7Z"/>
                </g>
                <g>
                  <rect class="cls-4" x="214.5" y="117.6" width="1.6" height="2.5"/>
                  <rect class="cls-4" x="233.7" y="117.6" width="1.6" height="2.5"/>
                  <path class="cls-11" d="M235.3,120c0,2.3-4.7,4.2-10.4,4.2s-10.4-1.9-10.4-4.2,4.7-4.2,10.4-4.2,10.4,1.9,10.4,4.2Z"/>
                  <path class="cls-12" d="M235.3,117.7c0,2.3-4.7,4.2-10.4,4.2s-10.4-1.9-10.4-4.2,4.7-4.2,10.4-4.2,10.4,1.9,10.4,4.2Z"/>
                  <path class="cls-4" d="M233.1,117.1c0,1.5-3.7,2.7-8.2,2.7s-8.2-1.2-8.2-2.7,3.7-2.7,8.2-2.7,8.2,1.2,8.2,2.7Z"/>
                </g>
                <g>
                  <rect class="cls-4" x="216" y="113.9" width="1.6" height="2.5"/>
                  <rect class="cls-4" x="235.2" y="113.9" width="1.6" height="2.5"/>
                  <path class="cls-11" d="M236.7,116.2c0,2.3-4.7,4.2-10.4,4.2s-10.4-1.9-10.4-4.2,4.7-4.2,10.4-4.2,10.4,1.9,10.4,4.2Z"/>
                  <path class="cls-12" d="M236.7,113.9c0,2.3-4.7,4.2-10.4,4.2s-10.4-1.9-10.4-4.2,4.7-4.2,10.4-4.2,10.4,1.9,10.4,4.2Z"/>
                  <path class="cls-11" d="M234.5,113.4c0,1.5-3.7,2.7-8.2,2.7s-8.2-1.2-8.2-2.7,3.7-2.7,8.2-2.7,8.2,1.2,8.2,2.7Z"/>
                </g>
                <g class="cls-25">
                  <path class="cls-17" d="M245.9,118.6c1.2,5.4-2.3,10.7-7.9,12-5.6,1.3-11.1-2.1-12.3-7.4-1.2-5.4,2.4-10.7,8-12,5.6-1.3,11.1,2.1,12.3,7.4Z"/>
                </g>
                <path class="cls-11" d="M247.7,118.1c0,5.9-4.8,10.7-10.7,10.7s-10.7-4.8-10.7-10.7,4.8-10.7,10.7-10.7,10.7,4.8,10.7,10.7Z"/>
                <path class="cls-12" d="M247.4,118.1c0,5.7-4.7,10.4-10.4,10.4s-10.4-4.7-10.4-10.4,4.7-10.4,10.4-10.4,10.4,4.7,10.4,10.4Z"/>
                <path class="cls-11" d="M245.2,118.1c0,4.5-3.7,8.2-8.2,8.2s-8.2-3.7-8.2-8.2,3.7-8.2,8.2-8.2,8.2,3.7,8.2,8.2Z"/>
                <path class="cls-12" d="M236.5,122.9c-.5,0-1-.2-1.5-.4-.4-.2-.8-.5-1.2-.8l.4-.6c0,0,0,0,.1-.1,0,0,.1,0,.2,0,0,0,.2,0,.3.1.1,0,.2.2.4.3.2.1.3.2.6.3.2.1.5.2.8.2l.3-3.6c-.3,0-.6-.2-.9-.3-.3-.1-.6-.3-.8-.5-.2-.2-.4-.4-.6-.7-.1-.3-.2-.7-.2-1.1s0-.7.2-1c.1-.3.3-.6.6-.8.2-.2.5-.4.9-.6.4-.2.8-.2,1.2-.2v-1c0,0,.1-.2.2-.2,0,0,.1-.1.2-.1h.4v1.3c.4,0,.8.2,1.1.4.3.2.6.4.9.7l-.3.4c0,.1-.2.2-.3.2s-.1,0-.2,0c0,0-.2-.1-.3-.2-.1,0-.3-.1-.4-.2-.2,0-.4-.1-.6-.2l-.2,3.3c.3,0,.6.2,1,.3.3.1.6.3.9.5.3.2.5.4.6.7.2.3.2.6.2,1s0,.8-.2,1.1c-.1.4-.3.7-.6.9-.3.3-.6.5-1,.7-.4.2-.8.3-1.3.3v1.2c0,0-.1.2-.2.2,0,0-.1,0-.2,0h-.4v-1.5ZM235.4,115.6c0,.2,0,.4.1.6,0,.2.2.3.3.4.1.1.3.2.5.3.2,0,.4.2.6.2l.2-3c-.3,0-.5,0-.8.2-.2,0-.4.2-.5.3-.1.1-.2.3-.3.5,0,.2-.1.3-.1.5ZM239.1,120.1c0-.2,0-.4-.1-.6,0-.2-.2-.3-.3-.4-.1-.1-.3-.2-.5-.3-.2,0-.4-.2-.6-.2l-.2,3.4c.3,0,.6,0,.8-.2.2,0,.4-.2.6-.4.2-.2.3-.3.4-.5,0-.2.1-.4.1-.7Z"/>
              </g>
            </g>
            <g class="cls-18">
              <path class="cls-22" d="M213.3,49.3c-4.8,3.6-5.6,10.5-1.8,15.5,3.8,5,10.7,6.2,15.4,2.6,4.8-3.6,5.6-10.5,1.8-15.5-3.8-5-10.7-6.2-15.4-2.6Z"/>
            </g>
            <g>
              <path class="cls-20" d="M228.8,42.7c5.2,4.2,6.2,11.5,2.2,16.4-3.9,4.9-11.4,5.5-16.5,1.4-5.2-4.2-6.2-11.5-2.2-16.5,3.9-4.9,11.4-5.5,16.5-1.4Z"/>
              <path class="cls-24" d="M228.6,43c5,4,6.3,10.9,2.8,15.2-3.5,4.4-10.4,4.6-15.5.6-5-4-6.3-10.9-2.7-15.2,3.5-4.4,10.4-4.6,15.5-.6Z"/>
              <path class="cls-20" d="M227.2,44.7c4,3.2,4.9,8.5,2.2,12-2.8,3.4-8.2,3.7-12.2.5-4-3.2-4.9-8.5-2.2-12,2.8-3.4,8.2-3.7,12.2-.5Z"/>
              <path class="cls-24" d="M226.1,54.7c-.4.4-.8.7-1.3.8-.5.2-.9.3-1.4.3l-.3-.7c0,0,0-.1,0-.2,0,0,0-.1,0-.2,0,0,.1-.1.3-.1.1,0,.3,0,.5,0,.2,0,.4-.1.6-.2.2,0,.4-.2.7-.5l-3-2.7c-.3.2-.6.3-.8.5-.3.1-.6.2-.9.3-.3,0-.6,0-1,0-.3,0-.7-.3-1.1-.6-.3-.2-.5-.5-.7-.8-.2-.3-.3-.7-.4-1,0-.4,0-.7,0-1.1,0-.4.3-.8.6-1.1l-.8-.7c0,0-.1-.1-.1-.2,0,0,0-.2,0-.3l.3-.3,1.1,1c.3-.3.7-.5,1.1-.7.4-.1.8-.2,1.1-.2l.2.5c0,.2,0,.3,0,.4,0,0-.1,0-.2.1-.1,0-.2,0-.4.1-.1,0-.3.1-.5.2-.2,0-.3.2-.5.3l2.7,2.5c.3-.2.6-.3.9-.5.3-.2.6-.3.9-.3.3,0,.6,0,1,0,.3,0,.7.3,1.1.6.4.3.6.6.9,1,.2.4.4.7.5,1.1,0,.4,0,.8,0,1.2,0,.4-.3.8-.6,1.2l1,.9c0,0,.1.1.1.2,0,0,0,.2,0,.2l-.3.3-1.3-1.1ZM219,50.4c.2.2.4.3.6.3.2,0,.4,0,.6,0,.2,0,.4,0,.6-.1.2,0,.4-.2.6-.3l-2.5-2.3c-.2.2-.3.5-.3.7,0,.2,0,.4,0,.6,0,.2.1.4.2.6.1.2.2.3.4.4ZM225.2,50.7c-.2-.2-.4-.3-.6-.3-.2,0-.4,0-.6,0-.2,0-.4,0-.6.2-.2,0-.4.2-.6.3l2.8,2.5c.2-.2.3-.5.3-.7,0-.2,0-.5,0-.7,0-.2-.1-.4-.3-.7-.1-.2-.3-.4-.5-.6Z"/>
            </g>
          </g>
        </g>
      </g>
    </g>
  </g>
</svg>